<?xml version="1.0" encoding="UTF-8" standalone="no"?>
<!DOCTYPE svg PUBLIC "-//W3C//DTD SVG 1.1//EN"
 "http://www.w3.org/Graphics/SVG/1.1/DTD/svg11.dtd">
<!-- Generated by graphviz version 2.40.1 (0)
 -->
<!-- Title: inheritanceb8bc770ac8 Pages: 1 -->
<svg width="576pt" height="129pt"
 viewBox="0.00 0.00 576.00 129.48" xmlns="http://www.w3.org/2000/svg" xmlns:xlink="http://www.w3.org/1999/xlink">
<g id="graph0" class="graph" transform="scale(.83 .83) rotate(0) translate(4 152)">
<title>inheritanceb8bc770ac8</title>
<!-- ConcurrentDeclarations -->
<g id="node1" class="node">
<title>ConcurrentDeclarations</title>
<g id="a_node1"><a xlink:href="../pyVHDLModel/pyVHDLModel.VHDLModel.html#pyVHDLModel.VHDLModel.ConcurrentDeclarations" xlink:title="ConcurrentDeclarations" target="_top">
<polygon fill="#ffffff" stroke="#000000" stroke-width=".5" points="355,-148 173,-148 173,-129 355,-129 355,-148"/>
<text text-anchor="middle" x="264" y="-136" font-family="Vera Sans, DejaVu Sans, Liberation Sans, Arial, Helvetica, sans" font-size="10.00" fill="#000000">ConcurrentDeclarations</text>
</a>
</g>
</g>
<!-- GenerateBranch -->
<g id="node3" class="node">
<title>GenerateBranch</title>
<g id="a_node3"><a xlink:href="../pyVHDLModel/pyVHDLModel.VHDLModel.html#pyVHDLModel.VHDLModel.GenerateBranch" xlink:title="A ``GenerateBranch`` is a base&#45;class for all branches in a generate statements." target="_top">
<polygon fill="#ffffff" stroke="#000000" stroke-width=".5" points="513,-101 391,-101 391,-82 513,-82 513,-101"/>
<text text-anchor="middle" x="452" y="-89" font-family="Vera Sans, DejaVu Sans, Liberation Sans, Arial, Helvetica, sans" font-size="10.00" fill="#000000">GenerateBranch</text>
</a>
</g>
</g>
<!-- ConcurrentDeclarations&#45;&gt;GenerateBranch -->
<g id="edge2" class="edge">
<title>ConcurrentDeclarations&#45;&gt;GenerateBranch</title>
<path fill="none" stroke="#000000" stroke-width=".5" d="M316.6403,-128.9729C329.2574,-126.4456 342.6507,-123.56 355,-120.5 375.8968,-115.322 399.0024,-108.4602 417.4195,-102.7113"/>
<polygon fill="#000000" stroke="#000000" stroke-width=".5" points="418.2376,-104.2887 422.484,-101.1216 417.1894,-100.9494 418.2376,-104.2887"/>
</g>
<!-- ConcurrentStatements -->
<g id="node2" class="node">
<title>ConcurrentStatements</title>
<g id="a_node2"><a xlink:href="../pyVHDLModel/pyVHDLModel.VHDLModel.html#pyVHDLModel.VHDLModel.ConcurrentStatements" xlink:title="ConcurrentStatements" target="_top">
<polygon fill="#ffffff" stroke="#000000" stroke-width=".5" points="347.5,-111 180.5,-111 180.5,-92 347.5,-92 347.5,-111"/>
<text text-anchor="middle" x="264" y="-99" font-family="Vera Sans, DejaVu Sans, Liberation Sans, Arial, Helvetica, sans" font-size="10.00" fill="#000000">ConcurrentStatements</text>
</a>
</g>
</g>
<!-- ConcurrentStatements&#45;&gt;GenerateBranch -->
<g id="edge3" class="edge">
<title>ConcurrentStatements&#45;&gt;GenerateBranch</title>
<path fill="none" stroke="#000000" stroke-width=".5" d="M347.5544,-97.0556C360.3398,-96.3755 373.3863,-95.6816 385.7318,-95.0249"/>
<polygon fill="#000000" stroke="#000000" stroke-width=".5" points="386.0771,-96.7591 390.977,-94.7459 385.8911,-93.264 386.0771,-96.7591"/>
</g>
<!-- IfGenerateBranch -->
<g id="node5" class="node">
<title>IfGenerateBranch</title>
<g id="a_node5"><a xlink:href="../pyVHDLModel/pyVHDLModel.VHDLModel.html#pyVHDLModel.VHDLModel.IfGenerateBranch" xlink:title="IfGenerateBranch" target="_top">
<polygon fill="#ffffff" stroke="#000000" stroke-width=".5" points="686,-73 549,-73 549,-54 686,-54 686,-73"/>
<text text-anchor="middle" x="617.5" y="-61" font-family="Vera Sans, DejaVu Sans, Liberation Sans, Arial, Helvetica, sans" font-size="10.00" fill="#000000">IfGenerateBranch</text>
</a>
</g>
</g>
<!-- GenerateBranch&#45;&gt;IfGenerateBranch -->
<g id="edge4" class="edge">
<title>GenerateBranch&#45;&gt;IfGenerateBranch</title>
<path fill="none" stroke="#000000" stroke-width=".5" d="M508.4928,-81.9423C523.8046,-79.3518 540.4544,-76.5349 556.0258,-73.9005"/>
<polygon fill="#000000" stroke="#000000" stroke-width=".5" points="556.6238,-75.5743 561.2618,-73.0146 556.0399,-72.1233 556.6238,-75.5743"/>
</g>
<!-- ModelEntity -->
<g id="node4" class="node">
<title>ModelEntity</title>
<g id="a_node4"><a xlink:href="../pyVHDLModel/pyVHDLModel.VHDLModel.html#pyVHDLModel.VHDLModel.ModelEntity" xlink:title="``ModelEntity`` is a base class for all classes in the VHDL language model," target="_top">
<polygon fill="#ffffff" stroke="#000000" stroke-width=".5" points="313.5,-74 214.5,-74 214.5,-55 313.5,-55 313.5,-74"/>
<text text-anchor="middle" x="264" y="-62" font-family="Vera Sans, DejaVu Sans, Liberation Sans, Arial, Helvetica, sans" font-size="10.00" fill="#000000">ModelEntity</text>
</a>
</g>
</g>
<!-- ModelEntity&#45;&gt;GenerateBranch -->
<g id="edge1" class="edge">
<title>ModelEntity&#45;&gt;GenerateBranch</title>
<path fill="none" stroke="#000000" stroke-width=".5" d="M313.887,-71.6646C335.9249,-74.8296 362.1465,-78.5955 385.7905,-81.9912"/>
<polygon fill="#000000" stroke="#000000" stroke-width=".5" points="385.5963,-83.7312 390.7943,-82.7098 386.0939,-80.2667 385.5963,-83.7312"/>
</g>
<!-- MixinIfBranch -->
<g id="node6" class="node">
<title>MixinIfBranch</title>
<g id="a_node6"><a xlink:href="../pyVHDLModel/pyVHDLModel.VHDLModel.html#pyVHDLModel.VHDLModel.MixinIfBranch" xlink:title="A ``BaseIfBranch`` is a mixin&#45;class for all if&#45;branches." target="_top">
<polygon fill="#ffffff" stroke="#000000" stroke-width=".5" points="509,-55 395,-55 395,-36 509,-36 509,-55"/>
<text text-anchor="middle" x="452" y="-43" font-family="Vera Sans, DejaVu Sans, Liberation Sans, Arial, Helvetica, sans" font-size="10.00" fill="#000000">MixinIfBranch</text>
</a>
</g>
</g>
<!-- MixinIfBranch&#45;&gt;IfGenerateBranch -->
<g id="edge5" class="edge">
<title>MixinIfBranch&#45;&gt;IfGenerateBranch</title>
<path fill="none" stroke="#000000" stroke-width=".5" d="M509.4194,-51.745C520.4301,-52.9425 532.1029,-54.2121 543.5486,-55.4569"/>
<polygon fill="#000000" stroke="#000000" stroke-width=".5" points="543.6283,-57.2259 548.7883,-56.0268 544.0068,-53.7464 543.6283,-57.2259"/>
</g>
<!-- MixinBranch -->
<g id="node7" class="node">
<title>MixinBranch</title>
<g id="a_node7"><a xlink:href="../pyVHDLModel/pyVHDLModel.VHDLModel.html#pyVHDLModel.VHDLModel.MixinBranch" xlink:title="A ``BaseBranch`` is a mixin&#45;class for all statements with branches." target="_top">
<polygon fill="#ffffff" stroke="#000000" stroke-width=".5" points="118,-56 19,-56 19,-37 118,-37 118,-56"/>
<text text-anchor="middle" x="68.5" y="-44" font-family="Vera Sans, DejaVu Sans, Liberation Sans, Arial, Helvetica, sans" font-size="10.00" fill="#000000">MixinBranch</text>
</a>
</g>
</g>
<!-- MixinConditionalBranch -->
<g id="node9" class="node">
<title>MixinConditionalBranch</title>
<g id="a_node9"><a xlink:href="../pyVHDLModel/pyVHDLModel.VHDLModel.html#pyVHDLModel.VHDLModel.MixinConditionalBranch" xlink:title="A ``BaseBranch`` is a mixin&#45;class for all branch statements with a condition." target="_top">
<polygon fill="#ffffff" stroke="#000000" stroke-width=".5" points="355,-37 173,-37 173,-18 355,-18 355,-37"/>
<text text-anchor="middle" x="264" y="-25" font-family="Vera Sans, DejaVu Sans, Liberation Sans, Arial, Helvetica, sans" font-size="10.00" fill="#000000">MixinConditionalBranch</text>
</a>
</g>
</g>
<!-- MixinBranch&#45;&gt;MixinConditionalBranch -->
<g id="edge6" class="edge">
<title>MixinBranch&#45;&gt;MixinConditionalBranch</title>
<path fill="none" stroke="#000000" stroke-width=".5" d="M118.0856,-41.6809C133.2582,-40.2064 150.4948,-38.5312 167.6728,-36.8617"/>
<polygon fill="#000000" stroke="#000000" stroke-width=".5" points="168.1924,-38.5696 172.9997,-36.344 167.8538,-35.086 168.1924,-38.5696"/>
</g>
<!-- MixinConditional -->
<g id="node8" class="node">
<title>MixinConditional</title>
<g id="a_node8"><a xlink:href="../pyVHDLModel/pyVHDLModel.VHDLModel.html#pyVHDLModel.VHDLModel.MixinConditional" xlink:title="A ``BaseConditional`` is a mixin&#45;class for all statements with a condition." target="_top">
<polygon fill="#ffffff" stroke="#000000" stroke-width=".5" points="137,-19 0,-19 0,0 137,0 137,-19"/>
<text text-anchor="middle" x="68.5" y="-7" font-family="Vera Sans, DejaVu Sans, Liberation Sans, Arial, Helvetica, sans" font-size="10.00" fill="#000000">MixinConditional</text>
</a>
</g>
</g>
<!-- MixinConditional&#45;&gt;MixinConditionalBranch -->
<g id="edge7" class="edge">
<title>MixinConditional&#45;&gt;MixinConditionalBranch</title>
<path fill="none" stroke="#000000" stroke-width=".5" d="M137.1511,-15.8208C147.0789,-16.7349 157.4473,-17.6895 167.7927,-18.642"/>
<polygon fill="#000000" stroke="#000000" stroke-width=".5" points="167.728,-20.3934 172.8674,-19.1093 168.0489,-16.9081 167.728,-20.3934"/>
</g>
<!-- MixinConditionalBranch&#45;&gt;MixinIfBranch -->
<g id="edge8" class="edge">
<title>MixinConditionalBranch&#45;&gt;MixinIfBranch</title>
<path fill="none" stroke="#000000" stroke-width=".5" d="M355.2464,-36.2364C366.929,-37.3549 378.6683,-38.4789 389.7418,-39.5391"/>
<polygon fill="#000000" stroke="#000000" stroke-width=".5" points="389.6361,-41.2869 394.7801,-40.0215 389.9697,-37.8028 389.6361,-41.2869"/>
</g>
</g>
</svg>
