<?xml version="1.0" encoding="UTF-8" standalone="no"?>
<!DOCTYPE svg PUBLIC "-//W3C//DTD SVG 1.1//EN"
 "http://www.w3.org/Graphics/SVG/1.1/DTD/svg11.dtd">
<!-- Generated by graphviz version 2.40.1 (0)
 -->
<!-- Title: inheritance5d86215ce5 Pages: 1 -->
<svg width="576pt" height="221pt"
 viewBox="0.00 0.00 576.00 221.20" xmlns="http://www.w3.org/2000/svg" xmlns:xlink="http://www.w3.org/1999/xlink">
<g id="graph0" class="graph" transform="scale(.5544 .5544) rotate(0) translate(4 395)">
<title>inheritance5d86215ce5</title>
<!-- Assignment -->
<g id="node1" class="node">
<title>Assignment</title>
<g id="a_node1"><a xlink:href="../../pyVHDLModel/pyVHDLModel.VHDLModel.html#pyVHDLModel.VHDLModel.Assignment" xlink:title="An ``Assignment`` is a base&#45;class for all assignment statements." target="_top">
<polygon fill="#ffffff" stroke="#000000" stroke-width=".5" points="279.5,-391 187.5,-391 187.5,-372 279.5,-372 279.5,-391"/>
<text text-anchor="middle" x="233.5" y="-379" font-family="Vera Sans, DejaVu Sans, Liberation Sans, Arial, Helvetica, sans" font-size="10.00" fill="#000000">Assignment</text>
</a>
</g>
</g>
<!-- SignalAssignment -->
<g id="node16" class="node">
<title>SignalAssignment</title>
<g id="a_node16"><a xlink:href="../../pyVHDLModel/pyVHDLModel.VHDLModel.html#pyVHDLModel.VHDLModel.SignalAssignment" xlink:title="An ``SignalAssignment`` is a base&#45;class for all signal assignment statements." target="_top">
<polygon fill="#ffffff" stroke="#000000" stroke-width=".5" points="512.5,-391 375.5,-391 375.5,-372 512.5,-372 512.5,-391"/>
<text text-anchor="middle" x="444" y="-379" font-family="Vera Sans, DejaVu Sans, Liberation Sans, Arial, Helvetica, sans" font-size="10.00" fill="#000000">SignalAssignment</text>
</a>
</g>
</g>
<!-- Assignment&#45;&gt;SignalAssignment -->
<g id="edge26" class="edge">
<title>Assignment&#45;&gt;SignalAssignment</title>
<path fill="none" stroke="#000000" stroke-width=".5" d="M279.6951,-381.5C306.1227,-381.5 339.8949,-381.5 369.9395,-381.5"/>
<polygon fill="#000000" stroke="#000000" stroke-width=".5" points="370.1143,-383.2501 375.1143,-381.5 370.1142,-379.7501 370.1143,-383.2501"/>
</g>
<!-- BlockStatement -->
<g id="node2" class="node">
<title>BlockStatement</title>
<g id="a_node2"><a xlink:title="A ``BlockStatement`` is a mixin&#45;class for all block statements.">
<polygon fill="#ffffff" stroke="#000000" stroke-width=".5" points="738,-204 616,-204 616,-185 738,-185 738,-204"/>
<text text-anchor="middle" x="677" y="-192" font-family="Vera Sans, DejaVu Sans, Liberation Sans, Arial, Helvetica, sans" font-size="10.00" fill="#000000">BlockStatement</text>
</a>
</g>
</g>
<!-- ConcurrentBlockStatement -->
<g id="node10" class="node">
<title>ConcurrentBlockStatement</title>
<g id="a_node10"><a xlink:href="../../pyVHDLModel/pyVHDLModel.VHDLModel.html#pyVHDLModel.VHDLModel.ConcurrentBlockStatement" xlink:title="ConcurrentBlockStatement" target="_top">
<polygon fill="#ffffff" stroke="#000000" stroke-width=".5" points="1023.5,-261 826.5,-261 826.5,-242 1023.5,-242 1023.5,-261"/>
<text text-anchor="middle" x="925" y="-249" font-family="Vera Sans, DejaVu Sans, Liberation Sans, Arial, Helvetica, sans" font-size="10.00" fill="#000000">ConcurrentBlockStatement</text>
</a>
</g>
</g>
<!-- BlockStatement&#45;&gt;ConcurrentBlockStatement -->
<g id="edge6" class="edge">
<title>BlockStatement&#45;&gt;ConcurrentBlockStatement</title>
<path fill="none" stroke="#000000" stroke-width=".5" d="M719.3087,-204.0215C738.7212,-208.4051 762.0344,-213.6904 783,-218.5 815.1646,-225.8786 851.4004,-234.3014 879.2169,-240.7908"/>
<polygon fill="#000000" stroke="#000000" stroke-width=".5" points="879.0431,-242.5471 884.31,-241.9793 879.8385,-239.1387 879.0431,-242.5471"/>
</g>
<!-- CaseGenerateStatement -->
<g id="node3" class="node">
<title>CaseGenerateStatement</title>
<g id="a_node3"><a xlink:href="../../pyVHDLModel/pyVHDLModel.VHDLModel.html#pyVHDLModel.VHDLModel.CaseGenerateStatement" xlink:title="CaseGenerateStatement" target="_top">
<polygon fill="#ffffff" stroke="#000000" stroke-width=".5" points="1012,-391 838,-391 838,-372 1012,-372 1012,-391"/>
<text text-anchor="middle" x="925" y="-379" font-family="Vera Sans, DejaVu Sans, Liberation Sans, Arial, Helvetica, sans" font-size="10.00" fill="#000000">CaseGenerateStatement</text>
</a>
</g>
</g>
<!-- GenerateStatement -->
<g id="node4" class="node">
<title>GenerateStatement</title>
<g id="a_node4"><a xlink:href="../../pyVHDLModel/pyVHDLModel.VHDLModel.html#pyVHDLModel.VHDLModel.GenerateStatement" xlink:title="A ``GenerateStatement`` is a base&#45;class for all generate statements." target="_top">
<polygon fill="#ffffff" stroke="#000000" stroke-width=".5" points="749,-354 605,-354 605,-335 749,-335 749,-354"/>
<text text-anchor="middle" x="677" y="-342" font-family="Vera Sans, DejaVu Sans, Liberation Sans, Arial, Helvetica, sans" font-size="10.00" fill="#000000">GenerateStatement</text>
</a>
</g>
</g>
<!-- GenerateStatement&#45;&gt;CaseGenerateStatement -->
<g id="edge1" class="edge">
<title>GenerateStatement&#45;&gt;CaseGenerateStatement</title>
<path fill="none" stroke="#000000" stroke-width=".5" d="M740.8662,-354.0284C776.0211,-359.2733 819.6844,-365.7876 855.6683,-371.1562"/>
<polygon fill="#000000" stroke="#000000" stroke-width=".5" points="855.7162,-372.9326 860.9197,-371.9396 856.2327,-369.4709 855.7162,-372.9326"/>
</g>
<!-- ForGenerateStatement -->
<g id="node20" class="node">
<title>ForGenerateStatement</title>
<g id="a_node20"><a xlink:href="../../pyVHDLModel/pyVHDLModel.VHDLModel.html#pyVHDLModel.VHDLModel.ForGenerateStatement" xlink:title="ForGenerateStatement" target="_top">
<polygon fill="#ffffff" stroke="#000000" stroke-width=".5" points="1008.5,-317 841.5,-317 841.5,-298 1008.5,-298 1008.5,-317"/>
<text text-anchor="middle" x="925" y="-305" font-family="Vera Sans, DejaVu Sans, Liberation Sans, Arial, Helvetica, sans" font-size="10.00" fill="#000000">ForGenerateStatement</text>
</a>
</g>
</g>
<!-- GenerateStatement&#45;&gt;ForGenerateStatement -->
<g id="edge16" class="edge">
<title>GenerateStatement&#45;&gt;ForGenerateStatement</title>
<path fill="none" stroke="#000000" stroke-width=".5" d="M740.8662,-334.9716C776.0211,-329.7267 819.6844,-323.2124 855.6683,-317.8438"/>
<polygon fill="#000000" stroke="#000000" stroke-width=".5" points="856.2327,-319.5291 860.9197,-317.0604 855.7162,-316.0674 856.2327,-319.5291"/>
</g>
<!-- IfGenerateStatement -->
<g id="node21" class="node">
<title>IfGenerateStatement</title>
<g id="a_node21"><a xlink:href="../../pyVHDLModel/pyVHDLModel.VHDLModel.html#pyVHDLModel.VHDLModel.IfGenerateStatement" xlink:title="IfGenerateStatement" target="_top">
<polygon fill="#ffffff" stroke="#000000" stroke-width=".5" points="1004.5,-354 845.5,-354 845.5,-335 1004.5,-335 1004.5,-354"/>
<text text-anchor="middle" x="925" y="-342" font-family="Vera Sans, DejaVu Sans, Liberation Sans, Arial, Helvetica, sans" font-size="10.00" fill="#000000">IfGenerateStatement</text>
</a>
</g>
</g>
<!-- GenerateStatement&#45;&gt;IfGenerateStatement -->
<g id="edge20" class="edge">
<title>GenerateStatement&#45;&gt;IfGenerateStatement</title>
<path fill="none" stroke="#000000" stroke-width=".5" d="M749.065,-344.5C777.5905,-344.5 810.5916,-344.5 840.2519,-344.5"/>
<polygon fill="#000000" stroke="#000000" stroke-width=".5" points="840.3645,-346.2501 845.3644,-344.5 840.3644,-342.7501 840.3645,-346.2501"/>
</g>
<!-- ComponentInstantiation -->
<g id="node5" class="node">
<title>ComponentInstantiation</title>
<g id="a_node5"><a xlink:href="../../pyVHDLModel/pyVHDLModel.VHDLModel.html#pyVHDLModel.VHDLModel.ComponentInstantiation" xlink:title="ComponentInstantiation" target="_top">
<polygon fill="#ffffff" stroke="#000000" stroke-width=".5" points="1016,-130 834,-130 834,-111 1016,-111 1016,-130"/>
<text text-anchor="middle" x="925" y="-118" font-family="Vera Sans, DejaVu Sans, Liberation Sans, Arial, Helvetica, sans" font-size="10.00" fill="#000000">ComponentInstantiation</text>
</a>
</g>
</g>
<!-- Instantiation -->
<g id="node6" class="node">
<title>Instantiation</title>
<g id="a_node6"><a xlink:href="../../pyVHDLModel/pyVHDLModel.VHDLModel.html#pyVHDLModel.VHDLModel.Instantiation" xlink:title="Instantiation" target="_top">
<polygon fill="#ffffff" stroke="#000000" stroke-width=".5" points="734,-167 620,-167 620,-148 734,-148 734,-167"/>
<text text-anchor="middle" x="677" y="-155" font-family="Vera Sans, DejaVu Sans, Liberation Sans, Arial, Helvetica, sans" font-size="10.00" fill="#000000">Instantiation</text>
</a>
</g>
</g>
<!-- Instantiation&#45;&gt;ComponentInstantiation -->
<g id="edge2" class="edge">
<title>Instantiation&#45;&gt;ComponentInstantiation</title>
<path fill="none" stroke="#000000" stroke-width=".5" d="M734.2076,-148.965C770.4864,-143.5524 817.6375,-136.5178 855.9886,-130.7961"/>
<polygon fill="#000000" stroke="#000000" stroke-width=".5" points="856.4122,-132.5023 861.0992,-130.0336 855.8957,-129.0406 856.4122,-132.5023"/>
</g>
<!-- ConfigurationInstantiation -->
<g id="node18" class="node">
<title>ConfigurationInstantiation</title>
<g id="a_node18"><a xlink:href="../../pyVHDLModel/pyVHDLModel.VHDLModel.html#pyVHDLModel.VHDLModel.ConfigurationInstantiation" xlink:title="ConfigurationInstantiation" target="_top">
<polygon fill="#ffffff" stroke="#000000" stroke-width=".5" points="1031,-204 819,-204 819,-185 1031,-185 1031,-204"/>
<text text-anchor="middle" x="925" y="-192" font-family="Vera Sans, DejaVu Sans, Liberation Sans, Arial, Helvetica, sans" font-size="10.00" fill="#000000">ConfigurationInstantiation</text>
</a>
</g>
</g>
<!-- Instantiation&#45;&gt;ConfigurationInstantiation -->
<g id="edge14" class="edge">
<title>Instantiation&#45;&gt;ConfigurationInstantiation</title>
<path fill="none" stroke="#000000" stroke-width=".5" d="M734.2076,-166.035C770.4864,-171.4476 817.6375,-178.4822 855.9886,-184.2039"/>
<polygon fill="#000000" stroke="#000000" stroke-width=".5" points="855.8957,-185.9594 861.0992,-184.9664 856.4122,-182.4977 855.8957,-185.9594"/>
</g>
<!-- EntityInstantiation -->
<g id="node19" class="node">
<title>EntityInstantiation</title>
<g id="a_node19"><a xlink:href="../../pyVHDLModel/pyVHDLModel.VHDLModel.html#pyVHDLModel.VHDLModel.EntityInstantiation" xlink:title="EntityInstantiation" target="_top">
<polygon fill="#ffffff" stroke="#000000" stroke-width=".5" points="1004.5,-167 845.5,-167 845.5,-148 1004.5,-148 1004.5,-167"/>
<text text-anchor="middle" x="925" y="-155" font-family="Vera Sans, DejaVu Sans, Liberation Sans, Arial, Helvetica, sans" font-size="10.00" fill="#000000">EntityInstantiation</text>
</a>
</g>
</g>
<!-- Instantiation&#45;&gt;EntityInstantiation -->
<g id="edge15" class="edge">
<title>Instantiation&#45;&gt;EntityInstantiation</title>
<path fill="none" stroke="#000000" stroke-width=".5" d="M734.2076,-157.5C765.5663,-157.5 805.0484,-157.5 839.9488,-157.5"/>
<polygon fill="#000000" stroke="#000000" stroke-width=".5" points="840.0633,-159.2501 845.0633,-157.5 840.0632,-155.7501 840.0633,-159.2501"/>
</g>
<!-- ConcurrentAssertStatement -->
<g id="node7" class="node">
<title>ConcurrentAssertStatement</title>
<g id="a_node7"><a xlink:href="../../pyVHDLModel/pyVHDLModel.VHDLModel.html#pyVHDLModel.VHDLModel.ConcurrentAssertStatement" xlink:title="ConcurrentAssertStatement" target="_top">
<polygon fill="#ffffff" stroke="#000000" stroke-width=".5" points="779,-130 575,-130 575,-111 779,-111 779,-130"/>
<text text-anchor="middle" x="677" y="-118" font-family="Vera Sans, DejaVu Sans, Liberation Sans, Arial, Helvetica, sans" font-size="10.00" fill="#000000">ConcurrentAssertStatement</text>
</a>
</g>
</g>
<!-- ConcurrentStatement -->
<g id="node8" class="node">
<title>ConcurrentStatement</title>
<g id="a_node8"><a xlink:href="../../pyVHDLModel/pyVHDLModel.VHDLModel.html#pyVHDLModel.VHDLModel.ConcurrentStatement" xlink:title="A ``ConcurrentStatement`` is a base&#45;class for all concurrent statements." target="_top">
<polygon fill="#ffffff" stroke="#000000" stroke-width=".5" points="523.5,-167 364.5,-167 364.5,-148 523.5,-148 523.5,-167"/>
<text text-anchor="middle" x="444" y="-155" font-family="Vera Sans, DejaVu Sans, Liberation Sans, Arial, Helvetica, sans" font-size="10.00" fill="#000000">ConcurrentStatement</text>
</a>
</g>
</g>
<!-- ConcurrentStatement&#45;&gt;GenerateStatement -->
<g id="edge19" class="edge">
<title>ConcurrentStatement&#45;&gt;GenerateStatement</title>
<path fill="none" stroke="#000000" stroke-width=".5" d="M448.0771,-167.173C461.0648,-196.6836 504.5572,-286.012 571,-326.5 579.767,-331.8423 589.6596,-335.7199 599.7895,-338.5156"/>
<polygon fill="#000000" stroke="#000000" stroke-width=".5" points="599.4989,-340.2479 604.7776,-339.8028 600.3735,-336.8589 599.4989,-340.2479"/>
</g>
<!-- ConcurrentStatement&#45;&gt;Instantiation -->
<g id="edge21" class="edge">
<title>ConcurrentStatement&#45;&gt;Instantiation</title>
<path fill="none" stroke="#000000" stroke-width=".5" d="M523.5337,-157.5C553.3196,-157.5 586.7022,-157.5 614.7069,-157.5"/>
<polygon fill="#000000" stroke="#000000" stroke-width=".5" points="614.8713,-159.2501 619.8713,-157.5 614.8713,-155.7501 614.8713,-159.2501"/>
</g>
<!-- ConcurrentStatement&#45;&gt;ConcurrentAssertStatement -->
<g id="edge3" class="edge">
<title>ConcurrentStatement&#45;&gt;ConcurrentAssertStatement</title>
<path fill="none" stroke="#000000" stroke-width=".5" d="M504.0033,-147.9716C536.8965,-142.7482 577.7182,-136.2658 611.4457,-130.9099"/>
<polygon fill="#000000" stroke="#000000" stroke-width=".5" points="612.1319,-132.573 616.7955,-130.0604 611.5829,-129.1163 612.1319,-132.573"/>
</g>
<!-- ConcurrentStatement&#45;&gt;ConcurrentBlockStatement -->
<g id="edge5" class="edge">
<title>ConcurrentStatement&#45;&gt;ConcurrentBlockStatement</title>
<path fill="none" stroke="#000000" stroke-width=".5" d="M461.0462,-167.0616C484.8569,-179.9338 529.7942,-202.4891 571,-213.5 653.3721,-235.5113 749.7538,-244.8347 821.1322,-248.7528"/>
<polygon fill="#000000" stroke="#000000" stroke-width=".5" points="821.1413,-250.5057 826.2277,-249.0257 821.3285,-247.0107 821.1413,-250.5057"/>
</g>
<!-- ConcurrentProcedureCall -->
<g id="node13" class="node">
<title>ConcurrentProcedureCall</title>
<g id="a_node13"><a xlink:href="../../pyVHDLModel/pyVHDLModel.VHDLModel.html#pyVHDLModel.VHDLModel.ConcurrentProcedureCall" xlink:title="ConcurrentProcedureCall" target="_top">
<polygon fill="#ffffff" stroke="#000000" stroke-width=".5" points="771.5,-93 582.5,-93 582.5,-74 771.5,-74 771.5,-93"/>
<text text-anchor="middle" x="677" y="-81" font-family="Vera Sans, DejaVu Sans, Liberation Sans, Arial, Helvetica, sans" font-size="10.00" fill="#000000">ConcurrentProcedureCall</text>
</a>
</g>
</g>
<!-- ConcurrentStatement&#45;&gt;ConcurrentProcedureCall -->
<g id="edge9" class="edge">
<title>ConcurrentStatement&#45;&gt;ConcurrentProcedureCall</title>
<path fill="none" stroke="#000000" stroke-width=".5" d="M515.0458,-147.8658C521.9964,-145.6294 528.7719,-142.8797 535,-139.5 555.166,-128.5568 550.7368,-113.2621 571,-102.5 576.7894,-99.4252 582.9814,-96.8362 589.3571,-94.6576"/>
<polygon fill="#000000" stroke="#000000" stroke-width=".5" points="590.0459,-96.2742 594.2648,-93.0705 588.9689,-92.944 590.0459,-96.2742"/>
</g>
<!-- ConcurrentSignalAssignment -->
<g id="node15" class="node">
<title>ConcurrentSignalAssignment</title>
<g id="a_node15"><a xlink:href="../../pyVHDLModel/pyVHDLModel.VHDLModel.html#pyVHDLModel.VHDLModel.ConcurrentSignalAssignment" xlink:title="ConcurrentSignalAssignment" target="_top">
<polygon fill="#ffffff" stroke="#000000" stroke-width=".5" points="783,-391 571,-391 571,-372 783,-372 783,-391"/>
<text text-anchor="middle" x="677" y="-379" font-family="Vera Sans, DejaVu Sans, Liberation Sans, Arial, Helvetica, sans" font-size="10.00" fill="#000000">ConcurrentSignalAssignment</text>
</a>
</g>
</g>
<!-- ConcurrentStatement&#45;&gt;ConcurrentSignalAssignment -->
<g id="edge11" class="edge">
<title>ConcurrentStatement&#45;&gt;ConcurrentSignalAssignment</title>
<path fill="none" stroke="#000000" stroke-width=".5" d="M446.8219,-167.3002C457.0734,-200.9906 495.7569,-312.7636 571,-363.5 574.5596,-365.9002 578.3352,-368.0145 582.2593,-369.8747"/>
<polygon fill="#000000" stroke="#000000" stroke-width=".5" points="581.6496,-371.5186 586.9299,-371.9437 583.0672,-368.3185 581.6496,-371.5186"/>
</g>
<!-- ProcessStatement -->
<g id="node25" class="node">
<title>ProcessStatement</title>
<g id="a_node25"><a xlink:href="../../pyVHDLModel/pyVHDLModel.VHDLModel.html#pyVHDLModel.VHDLModel.ProcessStatement" xlink:title="ProcessStatement" target="_top">
<polygon fill="#ffffff" stroke="#000000" stroke-width=".5" points="745.5,-56 608.5,-56 608.5,-37 745.5,-37 745.5,-56"/>
<text text-anchor="middle" x="677" y="-44" font-family="Vera Sans, DejaVu Sans, Liberation Sans, Arial, Helvetica, sans" font-size="10.00" fill="#000000">ProcessStatement</text>
</a>
</g>
</g>
<!-- ConcurrentStatement&#45;&gt;ProcessStatement -->
<g id="edge23" class="edge">
<title>ConcurrentStatement&#45;&gt;ProcessStatement</title>
<path fill="none" stroke="#000000" stroke-width=".5" d="M520.8266,-147.9094C525.873,-145.615 530.6631,-142.8427 535,-139.5 563.9684,-117.1726 541.8327,-87.5669 571,-65.5 580.4584,-58.3441 591.7382,-53.568 603.3559,-50.4317"/>
<polygon fill="#000000" stroke="#000000" stroke-width=".5" points="603.9234,-52.0938 608.3513,-49.1858 603.0764,-48.6979 603.9234,-52.0938"/>
</g>
<!-- MixinAssertStatement -->
<g id="node9" class="node">
<title>MixinAssertStatement</title>
<g id="a_node9"><a xlink:href="../../pyVHDLModel/pyVHDLModel.VHDLModel.html#pyVHDLModel.VHDLModel.MixinAssertStatement" xlink:title="A ``MixinAssertStatement`` is a mixin&#45;class for all assert statements." target="_top">
<polygon fill="#ffffff" stroke="#000000" stroke-width=".5" points="527.5,-130 360.5,-130 360.5,-111 527.5,-111 527.5,-130"/>
<text text-anchor="middle" x="444" y="-118" font-family="Vera Sans, DejaVu Sans, Liberation Sans, Arial, Helvetica, sans" font-size="10.00" fill="#000000">MixinAssertStatement</text>
</a>
</g>
</g>
<!-- MixinAssertStatement&#45;&gt;ConcurrentAssertStatement -->
<g id="edge4" class="edge">
<title>MixinAssertStatement&#45;&gt;ConcurrentAssertStatement</title>
<path fill="none" stroke="#000000" stroke-width=".5" d="M527.7892,-120.5C541.3842,-120.5 555.6259,-120.5 569.688,-120.5"/>
<polygon fill="#000000" stroke="#000000" stroke-width=".5" points="569.8591,-122.2501 574.8591,-120.5 569.8591,-118.7501 569.8591,-122.2501"/>
</g>
<!-- ConcurrentDeclarations -->
<g id="node11" class="node">
<title>ConcurrentDeclarations</title>
<g id="a_node11"><a xlink:href="../../pyVHDLModel/pyVHDLModel.VHDLModel.html#pyVHDLModel.VHDLModel.ConcurrentDeclarations" xlink:title="ConcurrentDeclarations" target="_top">
<polygon fill="#ffffff" stroke="#000000" stroke-width=".5" points="768,-317 586,-317 586,-298 768,-298 768,-317"/>
<text text-anchor="middle" x="677" y="-305" font-family="Vera Sans, DejaVu Sans, Liberation Sans, Arial, Helvetica, sans" font-size="10.00" fill="#000000">ConcurrentDeclarations</text>
</a>
</g>
</g>
<!-- ConcurrentDeclarations&#45;&gt;ConcurrentBlockStatement -->
<g id="edge7" class="edge">
<title>ConcurrentDeclarations&#45;&gt;ConcurrentBlockStatement</title>
<path fill="none" stroke="#000000" stroke-width=".5" d="M738.8436,-297.9968C753.378,-295.4876 768.7751,-292.604 783,-289.5 818.9442,-281.6566 859.4359,-270.5966 887.9552,-262.43"/>
<polygon fill="#000000" stroke="#000000" stroke-width=".5" points="888.4594,-264.106 892.7814,-261.0429 887.4925,-260.7422 888.4594,-264.106"/>
</g>
<!-- ConcurrentDeclarations&#45;&gt;ForGenerateStatement -->
<g id="edge17" class="edge">
<title>ConcurrentDeclarations&#45;&gt;ForGenerateStatement</title>
<path fill="none" stroke="#000000" stroke-width=".5" d="M768.2895,-307.5C790.4094,-307.5 814.0249,-307.5 836.0359,-307.5"/>
<polygon fill="#000000" stroke="#000000" stroke-width=".5" points="836.2972,-309.2501 841.2972,-307.5 836.2971,-305.7501 836.2972,-309.2501"/>
</g>
<!-- ConcurrentStatements -->
<g id="node12" class="node">
<title>ConcurrentStatements</title>
<g id="a_node12"><a xlink:href="../../pyVHDLModel/pyVHDLModel.VHDLModel.html#pyVHDLModel.VHDLModel.ConcurrentStatements" xlink:title="ConcurrentStatements" target="_top">
<polygon fill="#ffffff" stroke="#000000" stroke-width=".5" points="760.5,-280 593.5,-280 593.5,-261 760.5,-261 760.5,-280"/>
<text text-anchor="middle" x="677" y="-268" font-family="Vera Sans, DejaVu Sans, Liberation Sans, Arial, Helvetica, sans" font-size="10.00" fill="#000000">ConcurrentStatements</text>
</a>
</g>
</g>
<!-- ConcurrentStatements&#45;&gt;ConcurrentBlockStatement -->
<g id="edge8" class="edge">
<title>ConcurrentStatements&#45;&gt;ConcurrentBlockStatement</title>
<path fill="none" stroke="#000000" stroke-width=".5" d="M760.6157,-264.094C780.0608,-262.6042 800.9931,-261.0005 821.191,-259.4531"/>
<polygon fill="#000000" stroke="#000000" stroke-width=".5" points="821.4572,-261.1879 826.3088,-259.061 821.1897,-257.6982 821.4572,-261.1879"/>
</g>
<!-- ConcurrentStatements&#45;&gt;ForGenerateStatement -->
<g id="edge18" class="edge">
<title>ConcurrentStatements&#45;&gt;ForGenerateStatement</title>
<path fill="none" stroke="#000000" stroke-width=".5" d="M740.8662,-280.0284C776.0211,-285.2733 819.6844,-291.7876 855.6683,-297.1562"/>
<polygon fill="#000000" stroke="#000000" stroke-width=".5" points="855.7162,-298.9326 860.9197,-297.9396 856.2327,-295.4709 855.7162,-298.9326"/>
</g>
<!-- ProcedureCall -->
<g id="node14" class="node">
<title>ProcedureCall</title>
<g id="a_node14"><a xlink:href="../../pyVHDLModel/pyVHDLModel.VHDLModel.html#pyVHDLModel.VHDLModel.ProcedureCall" xlink:title="ProcedureCall" target="_top">
<polygon fill="#ffffff" stroke="#000000" stroke-width=".5" points="501,-93 387,-93 387,-74 501,-74 501,-93"/>
<text text-anchor="middle" x="444" y="-81" font-family="Vera Sans, DejaVu Sans, Liberation Sans, Arial, Helvetica, sans" font-size="10.00" fill="#000000">ProcedureCall</text>
</a>
</g>
</g>
<!-- ProcedureCall&#45;&gt;ConcurrentProcedureCall -->
<g id="edge10" class="edge">
<title>ProcedureCall&#45;&gt;ConcurrentProcedureCall</title>
<path fill="none" stroke="#000000" stroke-width=".5" d="M501.2966,-83.5C524.1611,-83.5 551.1692,-83.5 577.063,-83.5"/>
<polygon fill="#000000" stroke="#000000" stroke-width=".5" points="577.2254,-85.2501 582.2254,-83.5 577.2254,-81.7501 577.2254,-85.2501"/>
</g>
<!-- SignalAssignment&#45;&gt;ConcurrentSignalAssignment -->
<g id="edge12" class="edge">
<title>SignalAssignment&#45;&gt;ConcurrentSignalAssignment</title>
<path fill="none" stroke="#000000" stroke-width=".5" d="M512.6475,-381.5C529.3348,-381.5 547.6075,-381.5 565.7121,-381.5"/>
<polygon fill="#000000" stroke="#000000" stroke-width=".5" points="565.8126,-383.2501 570.8126,-381.5 565.8125,-379.7501 565.8126,-383.2501"/>
</g>
<!-- Statement -->
<g id="node17" class="node">
<title>Statement</title>
<g id="a_node17"><a xlink:href="../../pyVHDLModel/pyVHDLModel.VHDLModel.html#pyVHDLModel.VHDLModel.Statement" xlink:title="Statement" target="_top">
<polygon fill="#ffffff" stroke="#000000" stroke-width=".5" points="275.5,-167 191.5,-167 191.5,-148 275.5,-148 275.5,-167"/>
<text text-anchor="middle" x="233.5" y="-155" font-family="Vera Sans, DejaVu Sans, Liberation Sans, Arial, Helvetica, sans" font-size="10.00" fill="#000000">Statement</text>
</a>
</g>
</g>
<!-- Statement&#45;&gt;ConcurrentStatement -->
<g id="edge13" class="edge">
<title>Statement&#45;&gt;ConcurrentStatement</title>
<path fill="none" stroke="#000000" stroke-width=".5" d="M275.5919,-157.5C299.5371,-157.5 330.4033,-157.5 359.1565,-157.5"/>
<polygon fill="#000000" stroke="#000000" stroke-width=".5" points="359.4987,-159.2501 364.4987,-157.5 359.4986,-155.7501 359.4987,-159.2501"/>
</g>
<!-- LabeledEntity -->
<g id="node22" class="node">
<title>LabeledEntity</title>
<g id="a_node22"><a xlink:href="../../pyVHDLModel/pyVHDLModel.VHDLModel.html#pyVHDLModel.VHDLModel.LabeledEntity" xlink:title="A ``LabeledEntity`` is a mixin class for all VHDL entities that can have" target="_top">
<polygon fill="#ffffff" stroke="#000000" stroke-width=".5" points="114,-185 0,-185 0,-166 114,-166 114,-185"/>
<text text-anchor="middle" x="57" y="-173" font-family="Vera Sans, DejaVu Sans, Liberation Sans, Arial, Helvetica, sans" font-size="10.00" fill="#000000">LabeledEntity</text>
</a>
</g>
</g>
<!-- LabeledEntity&#45;&gt;Statement -->
<g id="edge28" class="edge">
<title>LabeledEntity&#45;&gt;Statement</title>
<path fill="none" stroke="#000000" stroke-width=".5" d="M114.3045,-169.6559C137.5081,-167.2895 163.9798,-164.5899 186.0731,-162.3367"/>
<polygon fill="#000000" stroke="#000000" stroke-width=".5" points="186.5017,-164.0522 191.2983,-161.8039 186.1466,-160.5703 186.5017,-164.0522"/>
</g>
<!-- MixinReportStatement -->
<g id="node23" class="node">
<title>MixinReportStatement</title>
<g id="a_node23"><a xlink:href="../../pyVHDLModel/pyVHDLModel.VHDLModel.html#pyVHDLModel.VHDLModel.MixinReportStatement" xlink:title="A ``MixinReportStatement`` is a mixin&#45;class for all report and assert statements." target="_top">
<polygon fill="#ffffff" stroke="#000000" stroke-width=".5" points="317,-130 150,-130 150,-111 317,-111 317,-130"/>
<text text-anchor="middle" x="233.5" y="-118" font-family="Vera Sans, DejaVu Sans, Liberation Sans, Arial, Helvetica, sans" font-size="10.00" fill="#000000">MixinReportStatement</text>
</a>
</g>
</g>
<!-- MixinReportStatement&#45;&gt;MixinAssertStatement -->
<g id="edge22" class="edge">
<title>MixinReportStatement&#45;&gt;MixinAssertStatement</title>
<path fill="none" stroke="#000000" stroke-width=".5" d="M317.3,-120.5C329.8508,-120.5 342.8265,-120.5 355.4718,-120.5"/>
<polygon fill="#000000" stroke="#000000" stroke-width=".5" points="355.4883,-122.2501 360.4883,-120.5 355.4883,-118.7501 355.4883,-122.2501"/>
</g>
<!-- ModelEntity -->
<g id="node24" class="node">
<title>ModelEntity</title>
<g id="a_node24"><a xlink:href="../../pyVHDLModel/pyVHDLModel.VHDLModel.html#pyVHDLModel.VHDLModel.ModelEntity" xlink:title="``ModelEntity`` is a base class for all classes in the VHDL language model," target="_top">
<polygon fill="#ffffff" stroke="#000000" stroke-width=".5" points="106.5,-148 7.5,-148 7.5,-129 106.5,-129 106.5,-148"/>
<text text-anchor="middle" x="57" y="-136" font-family="Vera Sans, DejaVu Sans, Liberation Sans, Arial, Helvetica, sans" font-size="10.00" fill="#000000">ModelEntity</text>
</a>
</g>
</g>
<!-- ModelEntity&#45;&gt;Statement -->
<g id="edge27" class="edge">
<title>ModelEntity&#45;&gt;Statement</title>
<path fill="none" stroke="#000000" stroke-width=".5" d="M106.6348,-143.8431C131.5747,-146.5279 161.64,-149.7644 186.2414,-152.4127"/>
<polygon fill="#000000" stroke="#000000" stroke-width=".5" points="186.2457,-154.1732 191.4043,-152.9685 186.6204,-150.6933 186.2457,-154.1732"/>
</g>
<!-- SequentialDeclarations -->
<g id="node26" class="node">
<title>SequentialDeclarations</title>
<g id="a_node26"><a xlink:href="../../pyVHDLModel/pyVHDLModel.VHDLModel.html#pyVHDLModel.VHDLModel.SequentialDeclarations" xlink:title="SequentialDeclarations" target="_top">
<polygon fill="#ffffff" stroke="#000000" stroke-width=".5" points="535,-56 353,-56 353,-37 535,-37 535,-56"/>
<text text-anchor="middle" x="444" y="-44" font-family="Vera Sans, DejaVu Sans, Liberation Sans, Arial, Helvetica, sans" font-size="10.00" fill="#000000">SequentialDeclarations</text>
</a>
</g>
</g>
<!-- SequentialDeclarations&#45;&gt;ProcessStatement -->
<g id="edge24" class="edge">
<title>SequentialDeclarations&#45;&gt;ProcessStatement</title>
<path fill="none" stroke="#000000" stroke-width=".5" d="M535.0849,-46.5C557.6541,-46.5 581.561,-46.5 603.1897,-46.5"/>
<polygon fill="#000000" stroke="#000000" stroke-width=".5" points="603.3458,-48.2501 608.3458,-46.5 603.3457,-44.7501 603.3458,-48.2501"/>
</g>
<!-- SequentialStatements -->
<g id="node27" class="node">
<title>SequentialStatements</title>
<g id="a_node27"><a xlink:href="../../pyVHDLModel/pyVHDLModel.VHDLModel.html#pyVHDLModel.VHDLModel.SequentialStatements" xlink:title="SequentialStatements" target="_top">
<polygon fill="#ffffff" stroke="#000000" stroke-width=".5" points="527.5,-19 360.5,-19 360.5,0 527.5,0 527.5,-19"/>
<text text-anchor="middle" x="444" y="-7" font-family="Vera Sans, DejaVu Sans, Liberation Sans, Arial, Helvetica, sans" font-size="10.00" fill="#000000">SequentialStatements</text>
</a>
</g>
</g>
<!-- SequentialStatements&#45;&gt;ProcessStatement -->
<g id="edge25" class="edge">
<title>SequentialStatements&#45;&gt;ProcessStatement</title>
<path fill="none" stroke="#000000" stroke-width=".5" d="M504.0033,-19.0284C536.8965,-24.2518 577.7182,-30.7342 611.4457,-36.0901"/>
<polygon fill="#000000" stroke="#000000" stroke-width=".5" points="611.5829,-37.8837 616.7955,-36.9396 612.1319,-34.427 611.5829,-37.8837"/>
</g>
</g>
</svg>
