<?xml version="1.0" encoding="UTF-8" standalone="no"?>
<!DOCTYPE svg PUBLIC "-//W3C//DTD SVG 1.1//EN"
 "http://www.w3.org/Graphics/SVG/1.1/DTD/svg11.dtd">
<!-- Generated by graphviz version 2.40.1 (0)
 -->
<!-- Title: inheritanceb95f21812f Pages: 1 -->
<svg width="576pt" height="114pt"
 viewBox="0.00 0.00 576.00 114.42" xmlns="http://www.w3.org/2000/svg" xmlns:xlink="http://www.w3.org/1999/xlink">
<g id="graph0" class="graph" transform="scale(.6538 .6538) rotate(0) translate(4 171)">
<title>inheritanceb95f21812f</title>
<!-- BaseExpression -->
<g id="node1" class="node">
<title>BaseExpression</title>
<g id="a_node1"><a xlink:href="../../pyVHDLModel/pyVHDLModel.VHDLModel.html#pyVHDLModel.VHDLModel.BaseExpression" xlink:title="A ``BaseExpression`` is a base&#45;class for all expressions." target="_top">
<polygon fill="#ffffff" stroke="#000000" stroke-width=".5" points="257,-93 135,-93 135,-74 257,-74 257,-93"/>
<text text-anchor="middle" x="196" y="-81" font-family="Vera Sans, DejaVu Sans, Liberation Sans, Arial, Helvetica, sans" font-size="10.00" fill="#000000">BaseExpression</text>
</a>
</g>
</g>
<!-- BinaryExpression -->
<g id="node3" class="node">
<title>BinaryExpression</title>
<g id="a_node3"><a xlink:href="../../pyVHDLModel/pyVHDLModel.VHDLModel.html#pyVHDLModel.VHDLModel.BinaryExpression" xlink:title="A ``BinaryExpression`` is a base&#45;class for all binary expressions." target="_top">
<polygon fill="#ffffff" stroke="#000000" stroke-width=".5" points="430,-93 293,-93 293,-74 430,-74 430,-93"/>
<text text-anchor="middle" x="361.5" y="-81" font-family="Vera Sans, DejaVu Sans, Liberation Sans, Arial, Helvetica, sans" font-size="10.00" fill="#000000">BinaryExpression</text>
</a>
</g>
</g>
<!-- BaseExpression&#45;&gt;BinaryExpression -->
<g id="edge2" class="edge">
<title>BaseExpression&#45;&gt;BinaryExpression</title>
<path fill="none" stroke="#000000" stroke-width=".5" d="M257.1559,-83.5C267.1264,-83.5 277.5466,-83.5 287.7803,-83.5"/>
<polygon fill="#000000" stroke="#000000" stroke-width=".5" points="287.7864,-85.2501 292.7864,-83.5 287.7864,-81.7501 287.7864,-85.2501"/>
</g>
<!-- ModelEntity -->
<g id="node2" class="node">
<title>ModelEntity</title>
<g id="a_node2"><a xlink:href="../../pyVHDLModel/pyVHDLModel.VHDLModel.html#pyVHDLModel.VHDLModel.ModelEntity" xlink:title="``ModelEntity`` is a base class for all classes in the VHDL language model," target="_top">
<polygon fill="#ffffff" stroke="#000000" stroke-width=".5" points="99,-93 0,-93 0,-74 99,-74 99,-93"/>
<text text-anchor="middle" x="49.5" y="-81" font-family="Vera Sans, DejaVu Sans, Liberation Sans, Arial, Helvetica, sans" font-size="10.00" fill="#000000">ModelEntity</text>
</a>
</g>
</g>
<!-- ModelEntity&#45;&gt;BaseExpression -->
<g id="edge1" class="edge">
<title>ModelEntity&#45;&gt;BaseExpression</title>
<path fill="none" stroke="#000000" stroke-width=".5" d="M99.0982,-83.5C108.9426,-83.5 119.4255,-83.5 129.7228,-83.5"/>
<polygon fill="#000000" stroke="#000000" stroke-width=".5" points="129.7594,-85.2501 134.7594,-83.5 129.7594,-81.7501 129.7594,-85.2501"/>
</g>
<!-- MultiplyingExpression -->
<g id="node5" class="node">
<title>MultiplyingExpression</title>
<g id="a_node5"><a xlink:href="../../pyVHDLModel/pyVHDLModel.VHDLModel.html#pyVHDLModel.VHDLModel.MultiplyingExpression" xlink:title="A ``MultiplyingExpression`` is a base&#45;class for all multiplying expressions." target="_top">
<polygon fill="#ffffff" stroke="#000000" stroke-width=".5" points="640,-93 466,-93 466,-74 640,-74 640,-93"/>
<text text-anchor="middle" x="553" y="-81" font-family="Vera Sans, DejaVu Sans, Liberation Sans, Arial, Helvetica, sans" font-size="10.00" fill="#000000">MultiplyingExpression</text>
</a>
</g>
</g>
<!-- BinaryExpression&#45;&gt;MultiplyingExpression -->
<g id="edge7" class="edge">
<title>BinaryExpression&#45;&gt;MultiplyingExpression</title>
<path fill="none" stroke="#000000" stroke-width=".5" d="M430.095,-83.5C440.0558,-83.5 450.4441,-83.5 460.7775,-83.5"/>
<polygon fill="#000000" stroke="#000000" stroke-width=".5" points="460.8437,-85.2501 465.8437,-83.5 460.8437,-81.7501 460.8437,-85.2501"/>
</g>
<!-- DivisionExpression -->
<g id="node4" class="node">
<title>DivisionExpression</title>
<g id="a_node4"><a xlink:href="../../pyVHDLModel/pyVHDLModel.VHDLModel.html#pyVHDLModel.VHDLModel.DivisionExpression" xlink:title="DivisionExpression" target="_top">
<polygon fill="#ffffff" stroke="#000000" stroke-width=".5" points="850.5,-167 698.5,-167 698.5,-148 850.5,-148 850.5,-167"/>
<text text-anchor="middle" x="774.5" y="-155" font-family="Vera Sans, DejaVu Sans, Liberation Sans, Arial, Helvetica, sans" font-size="10.00" fill="#000000">DivisionExpression</text>
</a>
</g>
</g>
<!-- MultiplyingExpression&#45;&gt;DivisionExpression -->
<g id="edge3" class="edge">
<title>MultiplyingExpression&#45;&gt;DivisionExpression</title>
<path fill="none" stroke="#000000" stroke-width=".5" d="M570.3826,-93.0798C593.7298,-105.5534 636.8221,-127.2092 676,-139.5 685.1104,-142.3581 694.8458,-144.8184 704.5185,-146.9199"/>
<polygon fill="#000000" stroke="#000000" stroke-width=".5" points="704.3137,-148.6652 709.5674,-147.9864 705.0371,-145.2408 704.3137,-148.6652"/>
</g>
<!-- ExponentiationExpression -->
<g id="node6" class="node">
<title>ExponentiationExpression</title>
<g id="a_node6"><a xlink:href="../../pyVHDLModel/pyVHDLModel.VHDLModel.html#pyVHDLModel.VHDLModel.ExponentiationExpression" xlink:title="ExponentiationExpression" target="_top">
<polygon fill="#ffffff" stroke="#000000" stroke-width=".5" points="873,-130 676,-130 676,-111 873,-111 873,-130"/>
<text text-anchor="middle" x="774.5" y="-118" font-family="Vera Sans, DejaVu Sans, Liberation Sans, Arial, Helvetica, sans" font-size="10.00" fill="#000000">ExponentiationExpression</text>
</a>
</g>
</g>
<!-- MultiplyingExpression&#45;&gt;ExponentiationExpression -->
<g id="edge4" class="edge">
<title>MultiplyingExpression&#45;&gt;ExponentiationExpression</title>
<path fill="none" stroke="#000000" stroke-width=".5" d="M610.0418,-93.0284C641.3115,-98.2518 680.1183,-104.7342 712.1812,-110.0901"/>
<polygon fill="#000000" stroke="#000000" stroke-width=".5" points="712.047,-111.8418 717.267,-110.9396 712.6237,-108.3897 712.047,-111.8418"/>
</g>
<!-- ModuloExpression -->
<g id="node7" class="node">
<title>ModuloExpression</title>
<g id="a_node7"><a xlink:href="../../pyVHDLModel/pyVHDLModel.VHDLModel.html#pyVHDLModel.VHDLModel.ModuloExpression" xlink:title="ModuloExpression" target="_top">
<polygon fill="#ffffff" stroke="#000000" stroke-width=".5" points="843,-93 706,-93 706,-74 843,-74 843,-93"/>
<text text-anchor="middle" x="774.5" y="-81" font-family="Vera Sans, DejaVu Sans, Liberation Sans, Arial, Helvetica, sans" font-size="10.00" fill="#000000">ModuloExpression</text>
</a>
</g>
</g>
<!-- MultiplyingExpression&#45;&gt;ModuloExpression -->
<g id="edge5" class="edge">
<title>MultiplyingExpression&#45;&gt;ModuloExpression</title>
<path fill="none" stroke="#000000" stroke-width=".5" d="M640.2247,-83.5C660.1433,-83.5 681.1263,-83.5 700.4326,-83.5"/>
<polygon fill="#000000" stroke="#000000" stroke-width=".5" points="700.8313,-85.2501 705.8313,-83.5 700.8312,-81.7501 700.8313,-85.2501"/>
</g>
<!-- MultiplyExpression -->
<g id="node8" class="node">
<title>MultiplyExpression</title>
<g id="a_node8"><a xlink:href="../../pyVHDLModel/pyVHDLModel.VHDLModel.html#pyVHDLModel.VHDLModel.MultiplyExpression" xlink:title="MultiplyExpression" target="_top">
<polygon fill="#ffffff" stroke="#000000" stroke-width=".5" points="850.5,-56 698.5,-56 698.5,-37 850.5,-37 850.5,-56"/>
<text text-anchor="middle" x="774.5" y="-44" font-family="Vera Sans, DejaVu Sans, Liberation Sans, Arial, Helvetica, sans" font-size="10.00" fill="#000000">MultiplyExpression</text>
</a>
</g>
</g>
<!-- MultiplyingExpression&#45;&gt;MultiplyExpression -->
<g id="edge6" class="edge">
<title>MultiplyingExpression&#45;&gt;MultiplyExpression</title>
<path fill="none" stroke="#000000" stroke-width=".5" d="M610.0418,-73.9716C641.3115,-68.7482 680.1183,-62.2658 712.1812,-56.9099"/>
<polygon fill="#000000" stroke="#000000" stroke-width=".5" points="712.6237,-58.6103 717.267,-56.0604 712.047,-55.1582 712.6237,-58.6103"/>
</g>
<!-- RemainderExpression -->
<g id="node9" class="node">
<title>RemainderExpression</title>
<g id="a_node9"><a xlink:href="../../pyVHDLModel/pyVHDLModel.VHDLModel.html#pyVHDLModel.VHDLModel.RemainderExpression" xlink:title="RemainderExpression" target="_top">
<polygon fill="#ffffff" stroke="#000000" stroke-width=".5" points="854,-19 695,-19 695,0 854,0 854,-19"/>
<text text-anchor="middle" x="774.5" y="-7" font-family="Vera Sans, DejaVu Sans, Liberation Sans, Arial, Helvetica, sans" font-size="10.00" fill="#000000">RemainderExpression</text>
</a>
</g>
</g>
<!-- MultiplyingExpression&#45;&gt;RemainderExpression -->
<g id="edge8" class="edge">
<title>MultiplyingExpression&#45;&gt;RemainderExpression</title>
<path fill="none" stroke="#000000" stroke-width=".5" d="M570.3826,-73.9202C593.7298,-61.4466 636.8221,-39.7908 676,-27.5 685.1104,-24.6419 694.8458,-22.1816 704.5185,-20.0801"/>
<polygon fill="#000000" stroke="#000000" stroke-width=".5" points="705.0371,-21.7592 709.5674,-19.0136 704.3137,-18.3348 705.0371,-21.7592"/>
</g>
</g>
</svg>
