<?xml version="1.0" encoding="UTF-8" standalone="no"?>
<!DOCTYPE svg PUBLIC "-//W3C//DTD SVG 1.1//EN"
 "http://www.w3.org/Graphics/SVG/1.1/DTD/svg11.dtd">
<!-- Generated by graphviz version 2.40.1 (0)
 -->
<!-- Title: inheritance642f511541 Pages: 1 -->
<svg width="576pt" height="109pt"
 viewBox="0.00 0.00 576.00 108.93" xmlns="http://www.w3.org/2000/svg" xmlns:xlink="http://www.w3.org/1999/xlink">
<g id="graph0" class="graph" transform="scale(.5138 .5138) rotate(0) translate(4 208)">
<title>inheritance642f511541</title>
<!-- BaseExpression -->
<g id="node1" class="node">
<title>BaseExpression</title>
<g id="a_node1"><a xlink:href="../../pyVHDLModel/pyVHDLModel.VHDLModel.html#pyVHDLModel.VHDLModel.BaseExpression" xlink:title="A ``BaseExpression`` is a base&#45;class for all expressions." target="_top">
<polygon fill="#ffffff" stroke="#000000" stroke-width=".5" points="257,-112 135,-112 135,-93 257,-93 257,-112"/>
<text text-anchor="middle" x="196" y="-100" font-family="Vera Sans, DejaVu Sans, Liberation Sans, Arial, Helvetica, sans" font-size="10.00" fill="#000000">BaseExpression</text>
</a>
</g>
</g>
<!-- BinaryExpression -->
<g id="node3" class="node">
<title>BinaryExpression</title>
<g id="a_node3"><a xlink:href="../../pyVHDLModel/pyVHDLModel.VHDLModel.html#pyVHDLModel.VHDLModel.BinaryExpression" xlink:title="A ``BinaryExpression`` is a base&#45;class for all binary expressions." target="_top">
<polygon fill="#ffffff" stroke="#000000" stroke-width=".5" points="430,-112 293,-112 293,-93 430,-93 430,-112"/>
<text text-anchor="middle" x="361.5" y="-100" font-family="Vera Sans, DejaVu Sans, Liberation Sans, Arial, Helvetica, sans" font-size="10.00" fill="#000000">BinaryExpression</text>
</a>
</g>
</g>
<!-- BaseExpression&#45;&gt;BinaryExpression -->
<g id="edge2" class="edge">
<title>BaseExpression&#45;&gt;BinaryExpression</title>
<path fill="none" stroke="#000000" stroke-width=".5" d="M257.1559,-102.5C267.1264,-102.5 277.5466,-102.5 287.7803,-102.5"/>
<polygon fill="#000000" stroke="#000000" stroke-width=".5" points="287.7864,-104.2501 292.7864,-102.5 287.7864,-100.7501 287.7864,-104.2501"/>
</g>
<!-- ModelEntity -->
<g id="node2" class="node">
<title>ModelEntity</title>
<g id="a_node2"><a xlink:href="../../pyVHDLModel/pyVHDLModel.VHDLModel.html#pyVHDLModel.VHDLModel.ModelEntity" xlink:title="``ModelEntity`` is a base class for all classes in the VHDL language model," target="_top">
<polygon fill="#ffffff" stroke="#000000" stroke-width=".5" points="99,-112 0,-112 0,-93 99,-93 99,-112"/>
<text text-anchor="middle" x="49.5" y="-100" font-family="Vera Sans, DejaVu Sans, Liberation Sans, Arial, Helvetica, sans" font-size="10.00" fill="#000000">ModelEntity</text>
</a>
</g>
</g>
<!-- ModelEntity&#45;&gt;BaseExpression -->
<g id="edge1" class="edge">
<title>ModelEntity&#45;&gt;BaseExpression</title>
<path fill="none" stroke="#000000" stroke-width=".5" d="M99.0982,-102.5C108.9426,-102.5 119.4255,-102.5 129.7228,-102.5"/>
<polygon fill="#000000" stroke="#000000" stroke-width=".5" points="129.7594,-104.2501 134.7594,-102.5 129.7594,-100.7501 129.7594,-104.2501"/>
</g>
<!-- ShiftExpression -->
<g id="node5" class="node">
<title>ShiftExpression</title>
<g id="a_node5"><a xlink:href="../../pyVHDLModel/pyVHDLModel.VHDLModel.html#pyVHDLModel.VHDLModel.ShiftExpression" xlink:title="A ``ShiftExpression`` is a base&#45;class for all shifting expressions." target="_top">
<polygon fill="#ffffff" stroke="#000000" stroke-width=".5" points="595,-112 466,-112 466,-93 595,-93 595,-112"/>
<text text-anchor="middle" x="530.5" y="-100" font-family="Vera Sans, DejaVu Sans, Liberation Sans, Arial, Helvetica, sans" font-size="10.00" fill="#000000">ShiftExpression</text>
</a>
</g>
</g>
<!-- BinaryExpression&#45;&gt;ShiftExpression -->
<g id="edge7" class="edge">
<title>BinaryExpression&#45;&gt;ShiftExpression</title>
<path fill="none" stroke="#000000" stroke-width=".5" d="M430.2388,-102.5C440.2774,-102.5 450.6238,-102.5 460.6837,-102.5"/>
<polygon fill="#000000" stroke="#000000" stroke-width=".5" points="460.9152,-104.2501 465.9151,-102.5 460.9151,-100.7501 460.9152,-104.2501"/>
</g>
<!-- RotateExpression -->
<g id="node4" class="node">
<title>RotateExpression</title>
<g id="a_node4"><a xlink:href="../../pyVHDLModel/pyVHDLModel.VHDLModel.html#pyVHDLModel.VHDLModel.RotateExpression" xlink:title="RotateExpression" target="_top">
<polygon fill="#ffffff" stroke="#000000" stroke-width=".5" points="801.5,-167 664.5,-167 664.5,-148 801.5,-148 801.5,-167"/>
<text text-anchor="middle" x="733" y="-155" font-family="Vera Sans, DejaVu Sans, Liberation Sans, Arial, Helvetica, sans" font-size="10.00" fill="#000000">RotateExpression</text>
</a>
</g>
</g>
<!-- RotateLeftExpression -->
<g id="node6" class="node">
<title>RotateLeftExpression</title>
<g id="a_node6"><a xlink:href="../../pyVHDLModel/pyVHDLModel.VHDLModel.html#pyVHDLModel.VHDLModel.RotateLeftExpression" xlink:title="RotateLeftExpression" target="_top">
<polygon fill="#ffffff" stroke="#000000" stroke-width=".5" points="1075.5,-204 908.5,-204 908.5,-185 1075.5,-185 1075.5,-204"/>
<text text-anchor="middle" x="992" y="-192" font-family="Vera Sans, DejaVu Sans, Liberation Sans, Arial, Helvetica, sans" font-size="10.00" fill="#000000">RotateLeftExpression</text>
</a>
</g>
</g>
<!-- RotateExpression&#45;&gt;RotateLeftExpression -->
<g id="edge4" class="edge">
<title>RotateExpression&#45;&gt;RotateLeftExpression</title>
<path fill="none" stroke="#000000" stroke-width=".5" d="M799.6989,-167.0284C836.5636,-172.2948 882.3871,-178.841 920.0547,-184.2221"/>
<polygon fill="#000000" stroke="#000000" stroke-width=".5" points="919.8802,-185.9649 925.0774,-184.9396 920.3752,-182.5 919.8802,-185.9649"/>
</g>
<!-- RotateRightExpression -->
<g id="node7" class="node">
<title>RotateRightExpression</title>
<g id="a_node7"><a xlink:href="../../pyVHDLModel/pyVHDLModel.VHDLModel.html#pyVHDLModel.VHDLModel.RotateRightExpression" xlink:title="RotateRightExpression" target="_top">
<polygon fill="#ffffff" stroke="#000000" stroke-width=".5" points="1079,-167 905,-167 905,-148 1079,-148 1079,-167"/>
<text text-anchor="middle" x="992" y="-155" font-family="Vera Sans, DejaVu Sans, Liberation Sans, Arial, Helvetica, sans" font-size="10.00" fill="#000000">RotateRightExpression</text>
</a>
</g>
</g>
<!-- RotateExpression&#45;&gt;RotateRightExpression -->
<g id="edge5" class="edge">
<title>RotateExpression&#45;&gt;RotateRightExpression</title>
<path fill="none" stroke="#000000" stroke-width=".5" d="M801.7273,-157.5C831.7427,-157.5 867.3913,-157.5 899.6728,-157.5"/>
<polygon fill="#000000" stroke="#000000" stroke-width=".5" points="899.8235,-159.2501 904.8235,-157.5 899.8235,-155.7501 899.8235,-159.2501"/>
</g>
<!-- ShiftExpression&#45;&gt;RotateExpression -->
<g id="edge3" class="edge">
<title>ShiftExpression&#45;&gt;RotateExpression</title>
<path fill="none" stroke="#000000" stroke-width=".5" d="M565.7728,-112.0803C601.2348,-121.7119 655.8222,-136.5381 692.9064,-146.6104"/>
<polygon fill="#000000" stroke="#000000" stroke-width=".5" points="692.5084,-148.3156 697.7923,-147.9374 693.4258,-144.938 692.5084,-148.3156"/>
</g>
<!-- ShiftArithmeticExpression -->
<g id="node8" class="node">
<title>ShiftArithmeticExpression</title>
<g id="a_node8"><a xlink:href="../../pyVHDLModel/pyVHDLModel.VHDLModel.html#pyVHDLModel.VHDLModel.ShiftArithmeticExpression" xlink:title="ShiftArithmeticExpression" target="_top">
<polygon fill="#ffffff" stroke="#000000" stroke-width=".5" points="835,-112 631,-112 631,-93 835,-93 835,-112"/>
<text text-anchor="middle" x="733" y="-100" font-family="Vera Sans, DejaVu Sans, Liberation Sans, Arial, Helvetica, sans" font-size="10.00" fill="#000000">ShiftArithmeticExpression</text>
</a>
</g>
</g>
<!-- ShiftExpression&#45;&gt;ShiftArithmeticExpression -->
<g id="edge6" class="edge">
<title>ShiftExpression&#45;&gt;ShiftArithmeticExpression</title>
<path fill="none" stroke="#000000" stroke-width=".5" d="M595.129,-102.5C604.9767,-102.5 615.3584,-102.5 625.8249,-102.5"/>
<polygon fill="#000000" stroke="#000000" stroke-width=".5" points="625.9679,-104.2501 630.9679,-102.5 625.9678,-100.7501 625.9679,-104.2501"/>
</g>
<!-- ShiftLogicExpression -->
<g id="node11" class="node">
<title>ShiftLogicExpression</title>
<g id="a_node11"><a xlink:href="../../pyVHDLModel/pyVHDLModel.VHDLModel.html#pyVHDLModel.VHDLModel.ShiftLogicExpression" xlink:title="ShiftLogicExpression" target="_top">
<polygon fill="#ffffff" stroke="#000000" stroke-width=".5" points="816.5,-56 649.5,-56 649.5,-37 816.5,-37 816.5,-56"/>
<text text-anchor="middle" x="733" y="-44" font-family="Vera Sans, DejaVu Sans, Liberation Sans, Arial, Helvetica, sans" font-size="10.00" fill="#000000">ShiftLogicExpression</text>
</a>
</g>
</g>
<!-- ShiftExpression&#45;&gt;ShiftLogicExpression -->
<g id="edge10" class="edge">
<title>ShiftExpression&#45;&gt;ShiftLogicExpression</title>
<path fill="none" stroke="#000000" stroke-width=".5" d="M565.311,-92.8733C601.0244,-82.9969 656.4827,-67.6603 693.7386,-57.3575"/>
<polygon fill="#000000" stroke="#000000" stroke-width=".5" points="694.2906,-59.0206 698.6433,-56.0011 693.3577,-55.6472 694.2906,-59.0206"/>
</g>
<!-- ShiftLeftArithmeticExpression -->
<g id="node9" class="node">
<title>ShiftLeftArithmeticExpression</title>
<g id="a_node9"><a xlink:href="../../pyVHDLModel/pyVHDLModel.VHDLModel.html#pyVHDLModel.VHDLModel.ShiftLeftArithmeticExpression" xlink:title="ShiftLeftArithmeticExpression" target="_top">
<polygon fill="#ffffff" stroke="#000000" stroke-width=".5" points="1109,-130 875,-130 875,-111 1109,-111 1109,-130"/>
<text text-anchor="middle" x="992" y="-118" font-family="Vera Sans, DejaVu Sans, Liberation Sans, Arial, Helvetica, sans" font-size="10.00" fill="#000000">ShiftLeftArithmeticExpression</text>
</a>
</g>
</g>
<!-- ShiftArithmeticExpression&#45;&gt;ShiftLeftArithmeticExpression -->
<g id="edge8" class="edge">
<title>ShiftArithmeticExpression&#45;&gt;ShiftLeftArithmeticExpression</title>
<path fill="none" stroke="#000000" stroke-width=".5" d="M835.3637,-109.6141C846.6444,-110.3981 858.2129,-111.2021 869.7054,-112.0008"/>
<polygon fill="#000000" stroke="#000000" stroke-width=".5" points="869.8697,-113.7663 874.9791,-112.3673 870.1125,-110.2747 869.8697,-113.7663"/>
</g>
<!-- ShiftRightArithmeticExpression -->
<g id="node12" class="node">
<title>ShiftRightArithmeticExpression</title>
<g id="a_node12"><a xlink:href="../../pyVHDLModel/pyVHDLModel.VHDLModel.html#pyVHDLModel.VHDLModel.ShiftRightArithmeticExpression" xlink:title="ShiftRightArithmeticExpression" target="_top">
<polygon fill="#ffffff" stroke="#000000" stroke-width=".5" points="1113,-93 871,-93 871,-74 1113,-74 1113,-93"/>
<text text-anchor="middle" x="992" y="-81" font-family="Vera Sans, DejaVu Sans, Liberation Sans, Arial, Helvetica, sans" font-size="10.00" fill="#000000">ShiftRightArithmeticExpression</text>
</a>
</g>
</g>
<!-- ShiftArithmeticExpression&#45;&gt;ShiftRightArithmeticExpression -->
<g id="edge11" class="edge">
<title>ShiftArithmeticExpression&#45;&gt;ShiftRightArithmeticExpression</title>
<path fill="none" stroke="#000000" stroke-width=".5" d="M835.3637,-94.9907C845.2371,-94.2664 855.3309,-93.5259 865.4013,-92.7872"/>
<polygon fill="#000000" stroke="#000000" stroke-width=".5" points="865.8055,-94.5123 870.664,-92.4011 865.5494,-91.0217 865.8055,-94.5123"/>
</g>
<!-- ShiftLeftLogicExpression -->
<g id="node10" class="node">
<title>ShiftLeftLogicExpression</title>
<g id="a_node10"><a xlink:href="../../pyVHDLModel/pyVHDLModel.VHDLModel.html#pyVHDLModel.VHDLModel.ShiftLeftLogicExpression" xlink:title="ShiftLeftLogicExpression" target="_top">
<polygon fill="#ffffff" stroke="#000000" stroke-width=".5" points="1090.5,-56 893.5,-56 893.5,-37 1090.5,-37 1090.5,-56"/>
<text text-anchor="middle" x="992" y="-44" font-family="Vera Sans, DejaVu Sans, Liberation Sans, Arial, Helvetica, sans" font-size="10.00" fill="#000000">ShiftLeftLogicExpression</text>
</a>
</g>
</g>
<!-- ShiftLogicExpression&#45;&gt;ShiftLeftLogicExpression -->
<g id="edge9" class="edge">
<title>ShiftLogicExpression&#45;&gt;ShiftLeftLogicExpression</title>
<path fill="none" stroke="#000000" stroke-width=".5" d="M816.7322,-46.5C839.4988,-46.5 864.4313,-46.5 888.1655,-46.5"/>
<polygon fill="#000000" stroke="#000000" stroke-width=".5" points="888.2108,-48.2501 893.2108,-46.5 888.2107,-44.7501 888.2108,-48.2501"/>
</g>
<!-- ShiftRightLogicExpression -->
<g id="node13" class="node">
<title>ShiftRightLogicExpression</title>
<g id="a_node13"><a xlink:href="../../pyVHDLModel/pyVHDLModel.VHDLModel.html#pyVHDLModel.VHDLModel.ShiftRightLogicExpression" xlink:title="ShiftRightLogicExpression" target="_top">
<polygon fill="#ffffff" stroke="#000000" stroke-width=".5" points="1094,-19 890,-19 890,0 1094,0 1094,-19"/>
<text text-anchor="middle" x="992" y="-7" font-family="Vera Sans, DejaVu Sans, Liberation Sans, Arial, Helvetica, sans" font-size="10.00" fill="#000000">ShiftRightLogicExpression</text>
</a>
</g>
</g>
<!-- ShiftLogicExpression&#45;&gt;ShiftRightLogicExpression -->
<g id="edge12" class="edge">
<title>ShiftLogicExpression&#45;&gt;ShiftRightLogicExpression</title>
<path fill="none" stroke="#000000" stroke-width=".5" d="M799.6989,-36.9716C836.5636,-31.7052 882.3871,-25.159 920.0547,-19.7779"/>
<polygon fill="#000000" stroke="#000000" stroke-width=".5" points="920.3752,-21.5 925.0774,-19.0604 919.8802,-18.0351 920.3752,-21.5"/>
</g>
</g>
</svg>
