<?xml version="1.0" encoding="UTF-8" standalone="no"?>
<!DOCTYPE svg PUBLIC "-//W3C//DTD SVG 1.1//EN"
 "http://www.w3.org/Graphics/SVG/1.1/DTD/svg11.dtd">
<!-- Generated by graphviz version 2.40.1 (0)
 -->
<!-- Title: inheritanceca535f21be Pages: 1 -->
<svg width="576pt" height="80pt"
 viewBox="0.00 0.00 576.00 80.33" xmlns="http://www.w3.org/2000/svg" xmlns:xlink="http://www.w3.org/1999/xlink">
<g id="graph0" class="graph" transform="scale(.9796 .9796) rotate(0) translate(4 78)">
<title>inheritanceca535f21be</title>
<!-- DesignUnit -->
<g id="node1" class="node">
<title>DesignUnit</title>
<g id="a_node1"><a xlink:href="../pyVHDLModel/pyVHDLModel.VHDLModel.html#pyVHDLModel.VHDLModel.DesignUnit" xlink:title="A ``DesignUnit`` is a base&#45;class for all design units." target="_top">
<polygon fill="#ffffff" stroke="#000000" stroke-width=".5" points="227,-37 135,-37 135,-18 227,-18 227,-37"/>
<text text-anchor="middle" x="181" y="-25" font-family="Vera Sans, DejaVu Sans, Liberation Sans, Arial, Helvetica, sans" font-size="10.00" fill="#000000">DesignUnit</text>
</a>
</g>
</g>
<!-- PrimaryUnit -->
<g id="node6" class="node">
<title>PrimaryUnit</title>
<g id="a_node6"><a xlink:href="../pyVHDLModel/pyVHDLModel.VHDLModel.html#pyVHDLModel.VHDLModel.PrimaryUnit" xlink:title="A ``PrimaryUnit`` is a base&#45;class for all primary units." target="_top">
<polygon fill="#ffffff" stroke="#000000" stroke-width=".5" points="418.5,-37 319.5,-37 319.5,-18 418.5,-18 418.5,-37"/>
<text text-anchor="middle" x="369" y="-25" font-family="Vera Sans, DejaVu Sans, Liberation Sans, Arial, Helvetica, sans" font-size="10.00" fill="#000000">PrimaryUnit</text>
</a>
</g>
</g>
<!-- DesignUnit&#45;&gt;PrimaryUnit -->
<g id="edge5" class="edge">
<title>DesignUnit&#45;&gt;PrimaryUnit</title>
<path fill="none" stroke="#000000" stroke-width=".5" d="M227.4719,-27.5C253.7794,-27.5 286.8267,-27.5 314.3698,-27.5"/>
<polygon fill="#000000" stroke="#000000" stroke-width=".5" points="314.4458,-29.2501 319.4458,-27.5 314.4458,-25.7501 314.4458,-29.2501"/>
</g>
<!-- ModelEntity -->
<g id="node2" class="node">
<title>ModelEntity</title>
<g id="a_node2"><a xlink:href="../pyVHDLModel/pyVHDLModel.VHDLModel.html#pyVHDLModel.VHDLModel.ModelEntity" xlink:title="``ModelEntity`` is a base class for all classes in the VHDL language model," target="_top">
<polygon fill="#ffffff" stroke="#000000" stroke-width=".5" points="99,-56 0,-56 0,-37 99,-37 99,-56"/>
<text text-anchor="middle" x="49.5" y="-44" font-family="Vera Sans, DejaVu Sans, Liberation Sans, Arial, Helvetica, sans" font-size="10.00" fill="#000000">ModelEntity</text>
</a>
</g>
</g>
<!-- ModelEntity&#45;&gt;DesignUnit -->
<g id="edge1" class="edge">
<title>ModelEntity&#45;&gt;DesignUnit</title>
<path fill="none" stroke="#000000" stroke-width=".5" d="M99.2145,-39.3169C109.1242,-37.8851 119.5514,-36.3785 129.5189,-34.9383"/>
<polygon fill="#000000" stroke="#000000" stroke-width=".5" points="129.9859,-36.6391 134.6843,-34.192 129.4854,-33.1751 129.9859,-36.6391"/>
</g>
<!-- NamedEntity -->
<g id="node3" class="node">
<title>NamedEntity</title>
<g id="a_node3"><a xlink:href="../pyVHDLModel/pyVHDLModel.VHDLModel.html#pyVHDLModel.VHDLModel.NamedEntity" xlink:title="A ``NamedEntity`` is a mixin class for all VHDL entities that have names." target="_top">
<polygon fill="#ffffff" stroke="#000000" stroke-width=".5" points="99,-19 0,-19 0,0 99,0 99,-19"/>
<text text-anchor="middle" x="49.5" y="-7" font-family="Vera Sans, DejaVu Sans, Liberation Sans, Arial, Helvetica, sans" font-size="10.00" fill="#000000">NamedEntity</text>
</a>
</g>
</g>
<!-- NamedEntity&#45;&gt;DesignUnit -->
<g id="edge2" class="edge">
<title>NamedEntity&#45;&gt;DesignUnit</title>
<path fill="none" stroke="#000000" stroke-width=".5" d="M99.2145,-16.305C109.1242,-17.6615 119.5514,-19.0888 129.5189,-20.4532"/>
<polygon fill="#000000" stroke="#000000" stroke-width=".5" points="129.4931,-22.2159 134.6843,-21.1602 129.9678,-18.7482 129.4931,-22.2159"/>
</g>
<!-- MixinDesignUnitWithContext -->
<g id="node4" class="node">
<title>MixinDesignUnitWithContext</title>
<g id="a_node4"><a xlink:href="../pyVHDLModel/pyVHDLModel.VHDLModel.html#pyVHDLModel.VHDLModel.MixinDesignUnitWithContext" xlink:title="A ``DesignUnitWithReferences`` is a base&#45;class for all design units with contexts." target="_top">
<polygon fill="#ffffff" stroke="#000000" stroke-width=".5" points="475,-74 263,-74 263,-55 475,-55 475,-74"/>
<text text-anchor="middle" x="369" y="-62" font-family="Vera Sans, DejaVu Sans, Liberation Sans, Arial, Helvetica, sans" font-size="10.00" fill="#000000">MixinDesignUnitWithContext</text>
</a>
</g>
</g>
<!-- Package -->
<g id="node5" class="node">
<title>Package</title>
<g id="a_node5"><a xlink:href="../pyVHDLModel/pyVHDLModel.VHDLModel.html#pyVHDLModel.VHDLModel.Package" xlink:title="Package" target="_top">
<polygon fill="#ffffff" stroke="#000000" stroke-width=".5" points="580,-55 511,-55 511,-36 580,-36 580,-55"/>
<text text-anchor="middle" x="545.5" y="-43" font-family="Vera Sans, DejaVu Sans, Liberation Sans, Arial, Helvetica, sans" font-size="10.00" fill="#000000">Package</text>
</a>
</g>
</g>
<!-- MixinDesignUnitWithContext&#45;&gt;Package -->
<g id="edge4" class="edge">
<title>MixinDesignUnitWithContext&#45;&gt;Package</title>
<path fill="none" stroke="#000000" stroke-width=".5" d="M457.5085,-54.9722C474.3617,-53.1579 491.2023,-51.3451 505.5718,-49.7982"/>
<polygon fill="#000000" stroke="#000000" stroke-width=".5" points="505.9655,-51.516 510.7494,-49.2409 505.5908,-48.0361 505.9655,-51.516"/>
</g>
<!-- PrimaryUnit&#45;&gt;Package -->
<g id="edge3" class="edge">
<title>PrimaryUnit&#45;&gt;Package</title>
<path fill="none" stroke="#000000" stroke-width=".5" d="M418.6348,-32.5619C446.1644,-35.3695 479.939,-38.8139 505.7163,-41.4427"/>
<polygon fill="#000000" stroke="#000000" stroke-width=".5" points="505.6092,-43.1908 510.761,-41.9572 505.9643,-39.7089 505.6092,-43.1908"/>
</g>
</g>
</svg>
