<?xml version="1.0" encoding="UTF-8" standalone="no"?>
<!DOCTYPE svg PUBLIC "-//W3C//DTD SVG 1.1//EN"
 "http://www.w3.org/Graphics/SVG/1.1/DTD/svg11.dtd">
<!-- Generated by graphviz version 2.40.1 (0)
 -->
<!-- Title: inheritance90f2c1ffc1 Pages: 1 -->
<svg width="576pt" height="152pt"
 viewBox="0.00 0.00 576.00 151.69" xmlns="http://www.w3.org/2000/svg" xmlns:xlink="http://www.w3.org/1999/xlink">
<g id="graph0" class="graph" transform="scale(.7155 .7155) rotate(0) translate(4 208)">
<title>inheritance90f2c1ffc1</title>
<!-- AbsoluteExpression -->
<g id="node1" class="node">
<title>AbsoluteExpression</title>
<g id="a_node1"><a xlink:href="../../pyVHDLModel/pyVHDLModel.VHDLModel.html#pyVHDLModel.VHDLModel.AbsoluteExpression" xlink:title="AbsoluteExpression" target="_top">
<polygon fill="#ffffff" stroke="#000000" stroke-width=".5" points="797,-204 645,-204 645,-185 797,-185 797,-204"/>
<text text-anchor="middle" x="721" y="-192" font-family="Vera Sans, DejaVu Sans, Liberation Sans, Arial, Helvetica, sans" font-size="10.00" fill="#000000">AbsoluteExpression</text>
</a>
</g>
</g>
<!-- UnaryExpression -->
<g id="node2" class="node">
<title>UnaryExpression</title>
<g id="a_node2"><a xlink:href="../../pyVHDLModel/pyVHDLModel.VHDLModel.html#pyVHDLModel.VHDLModel.UnaryExpression" xlink:title="A ``UnaryExpression`` is a base&#45;class for all unary expressions." target="_top">
<polygon fill="#ffffff" stroke="#000000" stroke-width=".5" points="594,-111 465,-111 465,-92 594,-92 594,-111"/>
<text text-anchor="middle" x="529.5" y="-99" font-family="Vera Sans, DejaVu Sans, Liberation Sans, Arial, Helvetica, sans" font-size="10.00" fill="#000000">UnaryExpression</text>
</a>
</g>
</g>
<!-- UnaryExpression&#45;&gt;AbsoluteExpression -->
<g id="edge1" class="edge">
<title>UnaryExpression&#45;&gt;AbsoluteExpression</title>
<path fill="none" stroke="#000000" stroke-width=".5" d="M593.1061,-111.0159C598.7443,-113.2817 604.1457,-116.0704 609,-119.5 633.4717,-136.7891 620.6141,-159.09 645,-176.5 648.4107,-178.935 652.1056,-181.0444 655.9663,-182.8714"/>
<polygon fill="#000000" stroke="#000000" stroke-width=".5" points="655.2856,-184.4837 660.5675,-184.8889 656.6911,-181.2783 655.2856,-184.4837"/>
</g>
<!-- FunctionCall -->
<g id="node5" class="node">
<title>FunctionCall</title>
<g id="a_node5"><a xlink:href="../../pyVHDLModel/pyVHDLModel.VHDLModel.html#pyVHDLModel.VHDLModel.FunctionCall" xlink:title="FunctionCall" target="_top">
<polygon fill="#ffffff" stroke="#000000" stroke-width=".5" points="774.5,-167 667.5,-167 667.5,-148 774.5,-148 774.5,-167"/>
<text text-anchor="middle" x="721" y="-155" font-family="Vera Sans, DejaVu Sans, Liberation Sans, Arial, Helvetica, sans" font-size="10.00" fill="#000000">FunctionCall</text>
</a>
</g>
</g>
<!-- UnaryExpression&#45;&gt;FunctionCall -->
<g id="edge3" class="edge">
<title>UnaryExpression&#45;&gt;FunctionCall</title>
<path fill="none" stroke="#000000" stroke-width=".5" d="M581.4538,-111.0201C590.7646,-113.3564 600.2749,-116.1672 609,-119.5 626.0984,-126.0313 627.9342,-132.8842 645,-139.5 651.8824,-142.1681 659.2743,-144.5153 666.6479,-146.5576"/>
<polygon fill="#000000" stroke="#000000" stroke-width=".5" points="666.4607,-148.3191 671.7433,-147.923 667.3667,-144.9384 666.4607,-148.3191"/>
</g>
<!-- IdentityExpression -->
<g id="node7" class="node">
<title>IdentityExpression</title>
<g id="a_node7"><a xlink:href="../../pyVHDLModel/pyVHDLModel.VHDLModel.html#pyVHDLModel.VHDLModel.IdentityExpression" xlink:title="IdentityExpression" target="_top">
<polygon fill="#ffffff" stroke="#000000" stroke-width=".5" points="797,-130 645,-130 645,-111 797,-111 797,-130"/>
<text text-anchor="middle" x="721" y="-118" font-family="Vera Sans, DejaVu Sans, Liberation Sans, Arial, Helvetica, sans" font-size="10.00" fill="#000000">IdentityExpression</text>
</a>
</g>
</g>
<!-- UnaryExpression&#45;&gt;IdentityExpression -->
<g id="edge4" class="edge">
<title>UnaryExpression&#45;&gt;IdentityExpression</title>
<path fill="none" stroke="#000000" stroke-width=".5" d="M594.0662,-107.906C608.6994,-109.3579 624.4235,-110.918 639.6504,-112.4288"/>
<polygon fill="#000000" stroke="#000000" stroke-width=".5" points="639.6445,-114.1867 644.7929,-112.939 639.9902,-110.7038 639.6445,-114.1867"/>
</g>
<!-- InverseExpression -->
<g id="node8" class="node">
<title>InverseExpression</title>
<g id="a_node8"><a xlink:href="../../pyVHDLModel/pyVHDLModel.VHDLModel.html#pyVHDLModel.VHDLModel.InverseExpression" xlink:title="InverseExpression" target="_top">
<polygon fill="#ffffff" stroke="#000000" stroke-width=".5" points="793,-93 649,-93 649,-74 793,-74 793,-93"/>
<text text-anchor="middle" x="721" y="-81" font-family="Vera Sans, DejaVu Sans, Liberation Sans, Arial, Helvetica, sans" font-size="10.00" fill="#000000">InverseExpression</text>
</a>
</g>
</g>
<!-- UnaryExpression&#45;&gt;InverseExpression -->
<g id="edge5" class="edge">
<title>UnaryExpression&#45;&gt;InverseExpression</title>
<path fill="none" stroke="#000000" stroke-width=".5" d="M594.0662,-95.4311C610.0075,-93.9327 627.2434,-92.3126 643.7208,-90.7638"/>
<polygon fill="#000000" stroke="#000000" stroke-width=".5" points="643.9935,-92.496 648.8078,-90.2857 643.6659,-89.0114 643.9935,-92.496"/>
</g>
<!-- NegationExpression -->
<g id="node9" class="node">
<title>NegationExpression</title>
<g id="a_node9"><a xlink:href="../../pyVHDLModel/pyVHDLModel.VHDLModel.html#pyVHDLModel.VHDLModel.NegationExpression" xlink:title="NegationExpression" target="_top">
<polygon fill="#ffffff" stroke="#000000" stroke-width=".5" points="797,-56 645,-56 645,-37 797,-37 797,-56"/>
<text text-anchor="middle" x="721" y="-44" font-family="Vera Sans, DejaVu Sans, Liberation Sans, Arial, Helvetica, sans" font-size="10.00" fill="#000000">NegationExpression</text>
</a>
</g>
</g>
<!-- UnaryExpression&#45;&gt;NegationExpression -->
<g id="edge6" class="edge">
<title>UnaryExpression&#45;&gt;NegationExpression</title>
<path fill="none" stroke="#000000" stroke-width=".5" d="M557.3244,-91.918C580.6063,-84.062 614.7742,-72.9071 645,-64.5 654.122,-61.9628 663.9222,-59.4704 673.3519,-57.1873"/>
<polygon fill="#000000" stroke="#000000" stroke-width=".5" points="673.7901,-58.8819 678.2437,-56.0133 672.9733,-55.4785 673.7901,-58.8819"/>
</g>
<!-- TypeConversion -->
<g id="node13" class="node">
<title>TypeConversion</title>
<g id="a_node13"><a xlink:href="../../pyVHDLModel/pyVHDLModel.VHDLModel.html#pyVHDLModel.VHDLModel.TypeConversion" xlink:title="TypeConversion" target="_top">
<polygon fill="#ffffff" stroke="#000000" stroke-width=".5" points="782,-19 660,-19 660,0 782,0 782,-19"/>
<text text-anchor="middle" x="721" y="-7" font-family="Vera Sans, DejaVu Sans, Liberation Sans, Arial, Helvetica, sans" font-size="10.00" fill="#000000">TypeConversion</text>
</a>
</g>
</g>
<!-- UnaryExpression&#45;&gt;TypeConversion -->
<g id="edge11" class="edge">
<title>UnaryExpression&#45;&gt;TypeConversion</title>
<path fill="none" stroke="#000000" stroke-width=".5" d="M541.5378,-91.8072C561.7278,-76.0237 604.2218,-44.7975 645,-27.5 651.2668,-24.8417 657.9984,-22.5338 664.7716,-20.5411"/>
<polygon fill="#000000" stroke="#000000" stroke-width=".5" points="665.616,-22.1212 669.9522,-19.0781 664.6648,-18.7529 665.616,-22.1212"/>
</g>
<!-- BaseExpression -->
<g id="node3" class="node">
<title>BaseExpression</title>
<g id="a_node3"><a xlink:href="../../pyVHDLModel/pyVHDLModel.VHDLModel.html#pyVHDLModel.VHDLModel.BaseExpression" xlink:title="A ``BaseExpression`` is a base&#45;class for all expressions." target="_top">
<polygon fill="#ffffff" stroke="#000000" stroke-width=".5" points="388,-111 266,-111 266,-92 388,-92 388,-111"/>
<text text-anchor="middle" x="327" y="-99" font-family="Vera Sans, DejaVu Sans, Liberation Sans, Arial, Helvetica, sans" font-size="10.00" fill="#000000">BaseExpression</text>
</a>
</g>
</g>
<!-- BaseExpression&#45;&gt;UnaryExpression -->
<g id="edge12" class="edge">
<title>BaseExpression&#45;&gt;UnaryExpression</title>
<path fill="none" stroke="#000000" stroke-width=".5" d="M388.0313,-101.5C410.5507,-101.5 436.2396,-101.5 459.4915,-101.5"/>
<polygon fill="#000000" stroke="#000000" stroke-width=".5" points="459.7229,-103.2501 464.7229,-101.5 459.7229,-99.7501 459.7229,-103.2501"/>
</g>
<!-- QualifiedExpression -->
<g id="node12" class="node">
<title>QualifiedExpression</title>
<g id="a_node12"><a xlink:href="../../pyVHDLModel/pyVHDLModel.VHDLModel.html#pyVHDLModel.VHDLModel.QualifiedExpression" xlink:title="QualifiedExpression" target="_top">
<polygon fill="#ffffff" stroke="#000000" stroke-width=".5" points="609,-148 450,-148 450,-129 609,-129 609,-148"/>
<text text-anchor="middle" x="529.5" y="-136" font-family="Vera Sans, DejaVu Sans, Liberation Sans, Arial, Helvetica, sans" font-size="10.00" fill="#000000">QualifiedExpression</text>
</a>
</g>
</g>
<!-- BaseExpression&#45;&gt;QualifiedExpression -->
<g id="edge9" class="edge">
<title>BaseExpression&#45;&gt;QualifiedExpression</title>
<path fill="none" stroke="#000000" stroke-width=".5" d="M379.1488,-111.0284C407.6186,-116.2303 442.9224,-122.6809 472.1646,-128.0239"/>
<polygon fill="#000000" stroke="#000000" stroke-width=".5" points="471.9432,-129.7624 477.1764,-128.9396 472.5724,-126.3194 471.9432,-129.7624"/>
</g>
<!-- ModelEntity -->
<g id="node4" class="node">
<title>ModelEntity</title>
<g id="a_node4"><a xlink:href="../../pyVHDLModel/pyVHDLModel.VHDLModel.html#pyVHDLModel.VHDLModel.ModelEntity" xlink:title="``ModelEntity`` is a base class for all classes in the VHDL language model," target="_top">
<polygon fill="#ffffff" stroke="#000000" stroke-width=".5" points="204,-111 105,-111 105,-92 204,-92 204,-111"/>
<text text-anchor="middle" x="154.5" y="-99" font-family="Vera Sans, DejaVu Sans, Liberation Sans, Arial, Helvetica, sans" font-size="10.00" fill="#000000">ModelEntity</text>
</a>
</g>
</g>
<!-- ModelEntity&#45;&gt;BaseExpression -->
<g id="edge2" class="edge">
<title>ModelEntity&#45;&gt;BaseExpression</title>
<path fill="none" stroke="#000000" stroke-width=".5" d="M204.3941,-101.5C221.948,-101.5 241.961,-101.5 260.6546,-101.5"/>
<polygon fill="#000000" stroke="#000000" stroke-width=".5" points="260.889,-103.2501 265.889,-101.5 260.8889,-99.7501 260.889,-103.2501"/>
</g>
<!-- Generic -->
<g id="node6" class="node">
<title>Generic</title>
<g id="a_node6"><a xlink:title="Abstract base class for generic types.">
<polygon fill="#ffffff" stroke="#000000" stroke-width=".5" points="69,-148 0,-148 0,-129 69,-129 69,-148"/>
<text text-anchor="middle" x="34.5" y="-136" font-family="Vera Sans, DejaVu Sans, Liberation Sans, Arial, Helvetica, sans" font-size="10.00" fill="#000000">Generic</text>
</a>
</g>
</g>
<!-- Protocol -->
<g id="node11" class="node">
<title>Protocol</title>
<g id="a_node11"><a xlink:title="Base class for protocol classes.">
<polygon fill="#ffffff" stroke="#000000" stroke-width=".5" points="193,-148 116,-148 116,-129 193,-129 193,-148"/>
<text text-anchor="middle" x="154.5" y="-136" font-family="Vera Sans, DejaVu Sans, Liberation Sans, Arial, Helvetica, sans" font-size="10.00" fill="#000000">Protocol</text>
</a>
</g>
</g>
<!-- Generic&#45;&gt;Protocol -->
<g id="edge8" class="edge">
<title>Generic&#45;&gt;Protocol</title>
<path fill="none" stroke="#000000" stroke-width=".5" d="M69.209,-138.5C82.0417,-138.5 96.7637,-138.5 110.3243,-138.5"/>
<polygon fill="#000000" stroke="#000000" stroke-width=".5" points="110.656,-140.2501 115.656,-138.5 110.6559,-136.7501 110.656,-140.2501"/>
</g>
<!-- ParenthesisExpression -->
<g id="node10" class="node">
<title>ParenthesisExpression</title>
<g id="a_node10"><a xlink:href="../../pyVHDLModel/pyVHDLModel.VHDLModel.html#pyVHDLModel.VHDLModel.ParenthesisExpression" xlink:title="ParenthesisExpression" target="_top">
<polygon fill="#ffffff" stroke="#000000" stroke-width=".5" points="414,-148 240,-148 240,-129 414,-129 414,-148"/>
<text text-anchor="middle" x="327" y="-136" font-family="Vera Sans, DejaVu Sans, Liberation Sans, Arial, Helvetica, sans" font-size="10.00" fill="#000000">ParenthesisExpression</text>
</a>
</g>
</g>
<!-- ParenthesisExpression&#45;&gt;QualifiedExpression -->
<g id="edge10" class="edge">
<title>ParenthesisExpression&#45;&gt;QualifiedExpression</title>
<path fill="none" stroke="#000000" stroke-width=".5" d="M414.0534,-138.5C424.186,-138.5 434.512,-138.5 444.6148,-138.5"/>
<polygon fill="#000000" stroke="#000000" stroke-width=".5" points="444.8754,-140.2501 449.8754,-138.5 444.8753,-136.7501 444.8754,-140.2501"/>
</g>
<!-- Protocol&#45;&gt;ParenthesisExpression -->
<g id="edge7" class="edge">
<title>Protocol&#45;&gt;ParenthesisExpression</title>
<path fill="none" stroke="#000000" stroke-width=".5" d="M193.2124,-138.5C205.598,-138.5 219.8856,-138.5 234.4143,-138.5"/>
<polygon fill="#000000" stroke="#000000" stroke-width=".5" points="234.7748,-140.2501 239.7748,-138.5 234.7748,-136.7501 234.7748,-140.2501"/>
</g>
</g>
</svg>
