<?xml version="1.0" encoding="UTF-8" standalone="no"?>
<!DOCTYPE svg PUBLIC "-//W3C//DTD SVG 1.1//EN"
 "http://www.w3.org/Graphics/SVG/1.1/DTD/svg11.dtd">
<!-- Generated by graphviz version 2.40.1 (0)
 -->
<!-- Title: inheritance144f97e80f Pages: 1 -->
<svg width="576pt" height="92pt"
 viewBox="0.00 0.00 576.00 92.39" xmlns="http://www.w3.org/2000/svg" xmlns:xlink="http://www.w3.org/1999/xlink">
<g id="graph0" class="graph" transform="scale(.7218 .7218) rotate(0) translate(4 124)">
<title>inheritance144f97e80f</title>
<!-- InterfaceItem -->
<g id="node1" class="node">
<title>InterfaceItem</title>
<g id="a_node1"><a xlink:href="../../pyVHDLModel/pyVHDLModel.VHDLModel.html#pyVHDLModel.VHDLModel.InterfaceItem" xlink:title="An ``InterfaceItem`` is a base&#45;class for all mixin&#45;classes for all interface" target="_top">
<polygon fill="#ffffff" stroke="#000000" stroke-width=".5" points="279,-111 165,-111 165,-92 279,-92 279,-111"/>
<text text-anchor="middle" x="222" y="-99" font-family="Vera Sans, DejaVu Sans, Liberation Sans, Arial, Helvetica, sans" font-size="10.00" fill="#000000">InterfaceItem</text>
</a>
</g>
</g>
<!-- ParameterInterfaceItem -->
<g id="node5" class="node">
<title>ParameterInterfaceItem</title>
<g id="a_node5"><a xlink:href="../../pyVHDLModel/pyVHDLModel.VHDLModel.html#pyVHDLModel.VHDLModel.ParameterInterfaceItem" xlink:title="A ``ParameterInterfaceItem`` is a mixin class for all parameter interface items." target="_top">
<polygon fill="#ffffff" stroke="#000000" stroke-width=".5" points="527,-120 345,-120 345,-101 527,-101 527,-120"/>
<text text-anchor="middle" x="436" y="-108" font-family="Vera Sans, DejaVu Sans, Liberation Sans, Arial, Helvetica, sans" font-size="10.00" fill="#000000">ParameterInterfaceItem</text>
</a>
</g>
</g>
<!-- InterfaceItem&#45;&gt;ParameterInterfaceItem -->
<g id="edge3" class="edge">
<title>InterfaceItem&#45;&gt;ParameterInterfaceItem</title>
<path fill="none" stroke="#000000" stroke-width=".5" d="M279.067,-103.9C297.6724,-104.6825 318.8744,-105.5742 339.5461,-106.4435"/>
<polygon fill="#000000" stroke="#000000" stroke-width=".5" points="339.7192,-108.2023 344.7883,-106.664 339.8663,-104.7054 339.7192,-108.2023"/>
</g>
<!-- PortInterfaceItem -->
<g id="node8" class="node">
<title>PortInterfaceItem</title>
<g id="a_node8"><a xlink:href="../../pyVHDLModel/pyVHDLModel.VHDLModel.html#pyVHDLModel.VHDLModel.PortInterfaceItem" xlink:title="A ``PortInterfaceItem`` is a mixin class for all port interface items." target="_top">
<polygon fill="#ffffff" stroke="#000000" stroke-width=".5" points="508,-83 364,-83 364,-64 508,-64 508,-83"/>
<text text-anchor="middle" x="436" y="-71" font-family="Vera Sans, DejaVu Sans, Liberation Sans, Arial, Helvetica, sans" font-size="10.00" fill="#000000">PortInterfaceItem</text>
</a>
</g>
</g>
<!-- InterfaceItem&#45;&gt;PortInterfaceItem -->
<g id="edge6" class="edge">
<title>InterfaceItem&#45;&gt;PortInterfaceItem</title>
<path fill="none" stroke="#000000" stroke-width=".5" d="M279.067,-94.0333C303.4435,-90.8438 332.277,-87.0712 358.5357,-83.6355"/>
<polygon fill="#000000" stroke="#000000" stroke-width=".5" points="359.0203,-85.3371 363.751,-82.9531 358.5662,-81.8667 359.0203,-85.3371"/>
</g>
<!-- ModelEntity -->
<g id="node2" class="node">
<title>ModelEntity</title>
<g id="a_node2"><a xlink:href="../../pyVHDLModel/pyVHDLModel.VHDLModel.html#pyVHDLModel.VHDLModel.ModelEntity" xlink:title="``ModelEntity`` is a base class for all classes in the VHDL language model," target="_top">
<polygon fill="#ffffff" stroke="#000000" stroke-width=".5" points="99,-74 0,-74 0,-55 99,-55 99,-74"/>
<text text-anchor="middle" x="49.5" y="-62" font-family="Vera Sans, DejaVu Sans, Liberation Sans, Arial, Helvetica, sans" font-size="10.00" fill="#000000">ModelEntity</text>
</a>
</g>
</g>
<!-- Object -->
<g id="node4" class="node">
<title>Object</title>
<g id="a_node4"><a xlink:href="../../pyVHDLModel/pyVHDLModel.VHDLModel.html#pyVHDLModel.VHDLModel.Object" xlink:title="Object" target="_top">
<polygon fill="#ffffff" stroke="#000000" stroke-width=".5" points="253,-56 191,-56 191,-37 253,-37 253,-56"/>
<text text-anchor="middle" x="222" y="-44" font-family="Vera Sans, DejaVu Sans, Liberation Sans, Arial, Helvetica, sans" font-size="10.00" fill="#000000">Object</text>
</a>
</g>
</g>
<!-- ModelEntity&#45;&gt;Object -->
<g id="edge1" class="edge">
<title>ModelEntity&#45;&gt;Object</title>
<path fill="none" stroke="#000000" stroke-width=".5" d="M99.3941,-59.2937C126.9842,-56.4147 160.6495,-52.9018 185.718,-50.2859"/>
<polygon fill="#000000" stroke="#000000" stroke-width=".5" points="186.1403,-52.0015 190.9316,-49.7419 185.777,-48.5204 186.1403,-52.0015"/>
</g>
<!-- NamedEntity -->
<g id="node3" class="node">
<title>NamedEntity</title>
<g id="a_node3"><a xlink:href="../../pyVHDLModel/pyVHDLModel.VHDLModel.html#pyVHDLModel.VHDLModel.NamedEntity" xlink:title="A ``NamedEntity`` is a mixin class for all VHDL entities that have names." target="_top">
<polygon fill="#ffffff" stroke="#000000" stroke-width=".5" points="99,-37 0,-37 0,-18 99,-18 99,-37"/>
<text text-anchor="middle" x="49.5" y="-25" font-family="Vera Sans, DejaVu Sans, Liberation Sans, Arial, Helvetica, sans" font-size="10.00" fill="#000000">NamedEntity</text>
</a>
</g>
</g>
<!-- NamedEntity&#45;&gt;Object -->
<g id="edge2" class="edge">
<title>NamedEntity&#45;&gt;Object</title>
<path fill="none" stroke="#000000" stroke-width=".5" d="M99.3941,-32.9956C126.9842,-36.0345 160.6495,-39.7425 185.718,-42.5037"/>
<polygon fill="#000000" stroke="#000000" stroke-width=".5" points="185.7701,-44.27 190.9316,-43.078 186.1533,-40.791 185.7701,-44.27"/>
</g>
<!-- Signal -->
<g id="node7" class="node">
<title>Signal</title>
<g id="a_node7"><a xlink:href="../../pyVHDLModel/pyVHDLModel.VHDLModel.html#pyVHDLModel.VHDLModel.Signal" xlink:title="Signal" target="_top">
<polygon fill="#ffffff" stroke="#000000" stroke-width=".5" points="467,-46 405,-46 405,-27 467,-27 467,-46"/>
<text text-anchor="middle" x="436" y="-34" font-family="Vera Sans, DejaVu Sans, Liberation Sans, Arial, Helvetica, sans" font-size="10.00" fill="#000000">Signal</text>
</a>
</g>
</g>
<!-- Object&#45;&gt;Signal -->
<g id="edge9" class="edge">
<title>Object&#45;&gt;Signal</title>
<path fill="none" stroke="#000000" stroke-width=".5" d="M253.1174,-45.0459C292.0262,-43.2277 358.5156,-40.1208 399.7032,-38.1961"/>
<polygon fill="#000000" stroke="#000000" stroke-width=".5" points="399.9322,-39.9374 404.845,-37.9558 399.7687,-36.4412 399.9322,-39.9374"/>
</g>
<!-- ParameterSignalInterfaceItem -->
<g id="node6" class="node">
<title>ParameterSignalInterfaceItem</title>
<g id="a_node6"><a xlink:href="../../pyVHDLModel/pyVHDLModel.VHDLModel.html#pyVHDLModel.VHDLModel.ParameterSignalInterfaceItem" xlink:title="ParameterSignalInterfaceItem" target="_top">
<polygon fill="#ffffff" stroke="#000000" stroke-width=".5" points="790,-110 563,-110 563,-91 790,-91 790,-110"/>
<text text-anchor="middle" x="676.5" y="-98" font-family="Vera Sans, DejaVu Sans, Liberation Sans, Arial, Helvetica, sans" font-size="10.00" fill="#000000">ParameterSignalInterfaceItem</text>
</a>
</g>
</g>
<!-- ParameterInterfaceItem&#45;&gt;ParameterSignalInterfaceItem -->
<g id="edge5" class="edge">
<title>ParameterInterfaceItem&#45;&gt;ParameterSignalInterfaceItem</title>
<path fill="none" stroke="#000000" stroke-width=".5" d="M527.2657,-106.7052C537.2007,-106.2921 547.4164,-105.8673 557.6189,-105.4431"/>
<polygon fill="#000000" stroke="#000000" stroke-width=".5" points="557.7022,-107.1912 562.6251,-105.2349 557.5567,-103.6942 557.7022,-107.1912"/>
</g>
<!-- Signal&#45;&gt;ParameterSignalInterfaceItem -->
<g id="edge4" class="edge">
<title>Signal&#45;&gt;ParameterSignalInterfaceItem</title>
<path fill="none" stroke="#000000" stroke-width=".5" d="M467.286,-40.9818C485.0936,-44.0376 507.6408,-48.7663 527,-55.5 543.8956,-61.3768 546.1874,-67.3897 563,-73.5 581.2706,-80.1402 601.7947,-85.5965 620.3146,-89.8233"/>
<polygon fill="#000000" stroke="#000000" stroke-width=".5" points="620.2196,-91.5954 625.4815,-90.9828 620.986,-88.1804 620.2196,-91.5954"/>
</g>
<!-- PortSignalInterfaceItem -->
<g id="node9" class="node">
<title>PortSignalInterfaceItem</title>
<g id="a_node9"><a xlink:href="../../pyVHDLModel/pyVHDLModel.VHDLModel.html#pyVHDLModel.VHDLModel.PortSignalInterfaceItem" xlink:title="PortSignalInterfaceItem" target="_top">
<polygon fill="#ffffff" stroke="#000000" stroke-width=".5" points="771,-64 582,-64 582,-45 771,-45 771,-64"/>
<text text-anchor="middle" x="676.5" y="-52" font-family="Vera Sans, DejaVu Sans, Liberation Sans, Arial, Helvetica, sans" font-size="10.00" fill="#000000">PortSignalInterfaceItem</text>
</a>
</g>
</g>
<!-- Signal&#45;&gt;PortSignalInterfaceItem -->
<g id="edge7" class="edge">
<title>Signal&#45;&gt;PortSignalInterfaceItem</title>
<path fill="none" stroke="#000000" stroke-width=".5" d="M467.4412,-38.8532C495.2848,-40.9371 537.4813,-44.0953 576.6907,-47.0299"/>
<polygon fill="#000000" stroke="#000000" stroke-width=".5" points="576.8356,-48.7955 581.9523,-47.4237 577.0969,-45.3053 576.8356,-48.7955"/>
</g>
<!-- PortInterfaceItem&#45;&gt;PortSignalInterfaceItem -->
<g id="edge8" class="edge">
<title>PortInterfaceItem&#45;&gt;PortSignalInterfaceItem</title>
<path fill="none" stroke="#000000" stroke-width=".5" d="M508.1579,-67.7994C529.6395,-66.1023 553.5727,-64.2115 576.4952,-62.4006"/>
<polygon fill="#000000" stroke="#000000" stroke-width=".5" points="576.8307,-64.1296 581.6773,-61.9912 576.555,-60.6405 576.8307,-64.1296"/>
</g>
<!-- WithDefaultExpression -->
<g id="node10" class="node">
<title>WithDefaultExpression</title>
<g id="a_node10"><a xlink:href="../../pyVHDLModel/pyVHDLModel.VHDLModel.html#pyVHDLModel.VHDLModel.WithDefaultExpression" xlink:title="A ``WithDefaultExpression`` is a mixin class for all objects declarations" target="_top">
<polygon fill="#ffffff" stroke="#000000" stroke-width=".5" points="309,-19 135,-19 135,0 309,0 309,-19"/>
<text text-anchor="middle" x="222" y="-7" font-family="Vera Sans, DejaVu Sans, Liberation Sans, Arial, Helvetica, sans" font-size="10.00" fill="#000000">WithDefaultExpression</text>
</a>
</g>
</g>
<!-- WithDefaultExpression&#45;&gt;Signal -->
<g id="edge10" class="edge">
<title>WithDefaultExpression&#45;&gt;Signal</title>
<path fill="none" stroke="#000000" stroke-width=".5" d="M297.4484,-19.0192C332.2268,-23.4071 371.8892,-28.4113 399.8402,-31.9378"/>
<polygon fill="#000000" stroke="#000000" stroke-width=".5" points="399.7394,-33.6889 404.9192,-32.5786 400.1776,-30.2164 399.7394,-33.6889"/>
</g>
</g>
</svg>
