<?xml version="1.0" encoding="UTF-8" standalone="no"?>
<!DOCTYPE svg PUBLIC "-//W3C//DTD SVG 1.1//EN"
 "http://www.w3.org/Graphics/SVG/1.1/DTD/svg11.dtd">
<!-- Generated by graphviz version 2.40.1 (0)
 -->
<!-- Title: inheritance8e019ee726 Pages: 1 -->
<svg width="576pt" height="80pt"
 viewBox="0.00 0.00 576.00 80.46" xmlns="http://www.w3.org/2000/svg" xmlns:xlink="http://www.w3.org/1999/xlink">
<g id="graph0" class="graph" transform="scale(.7967 .7967) rotate(0) translate(4 97)">
<title>inheritance8e019ee726</title>
<!-- Function -->
<g id="node1" class="node">
<title>Function</title>
<g id="a_node1"><a xlink:href="../../pyVHDLModel/pyVHDLModel.VHDLModel.html#pyVHDLModel.VHDLModel.Function" xlink:title="Function" target="_top">
<polygon fill="#ffffff" stroke="#000000" stroke-width=".5" points="407,-56 330,-56 330,-37 407,-37 407,-56"/>
<text text-anchor="middle" x="368.5" y="-44" font-family="Vera Sans, DejaVu Sans, Liberation Sans, Arial, Helvetica, sans" font-size="10.00" fill="#000000">Function</text>
</a>
</g>
</g>
<!-- FunctionMethod -->
<g id="node3" class="node">
<title>FunctionMethod</title>
<g id="a_node3"><a xlink:href="../../pyVHDLModel/pyVHDLModel.VHDLModel.html#pyVHDLModel.VHDLModel.FunctionMethod" xlink:title="FunctionMethod" target="_top">
<polygon fill="#ffffff" stroke="#000000" stroke-width=".5" points="662.5,-56 540.5,-56 540.5,-37 662.5,-37 662.5,-56"/>
<text text-anchor="middle" x="601.5" y="-44" font-family="Vera Sans, DejaVu Sans, Liberation Sans, Arial, Helvetica, sans" font-size="10.00" fill="#000000">FunctionMethod</text>
</a>
</g>
</g>
<!-- Function&#45;&gt;FunctionMethod -->
<g id="edge2" class="edge">
<title>Function&#45;&gt;FunctionMethod</title>
<path fill="none" stroke="#000000" stroke-width=".5" d="M407.2368,-46.5C441.9836,-46.5 493.7154,-46.5 535.06,-46.5"/>
<polygon fill="#000000" stroke="#000000" stroke-width=".5" points="535.3058,-48.2501 540.3058,-46.5 535.3058,-44.7501 535.3058,-48.2501"/>
</g>
<!-- GenericFunctionInterfaceItem -->
<g id="node5" class="node">
<title>GenericFunctionInterfaceItem</title>
<g id="a_node5"><a xlink:href="../../pyVHDLModel/pyVHDLModel.VHDLModel.html#pyVHDLModel.VHDLModel.GenericFunctionInterfaceItem" xlink:title="GenericFunctionInterfaceItem" target="_top">
<polygon fill="#ffffff" stroke="#000000" stroke-width=".5" points="715,-19 488,-19 488,0 715,0 715,-19"/>
<text text-anchor="middle" x="601.5" y="-7" font-family="Vera Sans, DejaVu Sans, Liberation Sans, Arial, Helvetica, sans" font-size="10.00" fill="#000000">GenericFunctionInterfaceItem</text>
</a>
</g>
</g>
<!-- Function&#45;&gt;GenericFunctionInterfaceItem -->
<g id="edge4" class="edge">
<title>Function&#45;&gt;GenericFunctionInterfaceItem</title>
<path fill="none" stroke="#000000" stroke-width=".5" d="M407.2368,-40.3487C442.4274,-34.7605 495.0397,-26.4057 536.6391,-19.7998"/>
<polygon fill="#000000" stroke="#000000" stroke-width=".5" points="536.9921,-21.5158 541.6557,-19.0032 536.4431,-18.0591 536.9921,-21.5158"/>
</g>
<!-- SubProgramm -->
<g id="node2" class="node">
<title>SubProgramm</title>
<g id="a_node2"><a xlink:href="../../pyVHDLModel/pyVHDLModel.VHDLModel.html#pyVHDLModel.VHDLModel.SubProgramm" xlink:title="SubProgramm" target="_top">
<polygon fill="#ffffff" stroke="#000000" stroke-width=".5" points="241.5,-56 142.5,-56 142.5,-37 241.5,-37 241.5,-56"/>
<text text-anchor="middle" x="192" y="-44" font-family="Vera Sans, DejaVu Sans, Liberation Sans, Arial, Helvetica, sans" font-size="10.00" fill="#000000">SubProgramm</text>
</a>
</g>
</g>
<!-- SubProgramm&#45;&gt;Function -->
<g id="edge1" class="edge">
<title>SubProgramm&#45;&gt;Function</title>
<path fill="none" stroke="#000000" stroke-width=".5" d="M241.6348,-46.5C267.717,-46.5 299.4049,-46.5 324.5863,-46.5"/>
<polygon fill="#000000" stroke="#000000" stroke-width=".5" points="324.8567,-48.2501 329.8567,-46.5 324.8566,-44.7501 324.8567,-48.2501"/>
</g>
<!-- Method -->
<g id="node4" class="node">
<title>Method</title>
<g id="a_node4"><a xlink:href="../../pyVHDLModel/pyVHDLModel.VHDLModel.html#pyVHDLModel.VHDLModel.Method" xlink:title="A ``Method`` is a mixin class for all subprograms in a protected type." target="_top">
<polygon fill="#ffffff" stroke="#000000" stroke-width=".5" points="399.5,-93 337.5,-93 337.5,-74 399.5,-74 399.5,-93"/>
<text text-anchor="middle" x="368.5" y="-81" font-family="Vera Sans, DejaVu Sans, Liberation Sans, Arial, Helvetica, sans" font-size="10.00" fill="#000000">Method</text>
</a>
</g>
</g>
<!-- Method&#45;&gt;FunctionMethod -->
<g id="edge3" class="edge">
<title>Method&#45;&gt;FunctionMethod</title>
<path fill="none" stroke="#000000" stroke-width=".5" d="M399.9234,-78.51C434.7291,-72.9829 491.8114,-63.9184 536.3633,-56.8436"/>
<polygon fill="#000000" stroke="#000000" stroke-width=".5" points="536.7929,-58.5474 541.4565,-56.0348 536.2439,-55.0907 536.7929,-58.5474"/>
</g>
<!-- GenericInterfaceItem -->
<g id="node6" class="node">
<title>GenericInterfaceItem</title>
<g id="a_node6"><a xlink:href="../../pyVHDLModel/pyVHDLModel.VHDLModel.html#pyVHDLModel.VHDLModel.GenericInterfaceItem" xlink:title="A ``GenericInterfaceItem`` is a mixin class for all generic interface items." target="_top">
<polygon fill="#ffffff" stroke="#000000" stroke-width=".5" points="452,-19 285,-19 285,0 452,0 452,-19"/>
<text text-anchor="middle" x="368.5" y="-7" font-family="Vera Sans, DejaVu Sans, Liberation Sans, Arial, Helvetica, sans" font-size="10.00" fill="#000000">GenericInterfaceItem</text>
</a>
</g>
</g>
<!-- GenericInterfaceItem&#45;&gt;GenericFunctionInterfaceItem -->
<g id="edge5" class="edge">
<title>GenericInterfaceItem&#45;&gt;GenericFunctionInterfaceItem</title>
<path fill="none" stroke="#000000" stroke-width=".5" d="M452.2892,-9.5C462.1557,-9.5 472.3628,-9.5 482.5947,-9.5"/>
<polygon fill="#000000" stroke="#000000" stroke-width=".5" points="482.6183,-11.2501 487.6183,-9.5 482.6182,-7.7501 482.6183,-11.2501"/>
</g>
<!-- InterfaceItem -->
<g id="node7" class="node">
<title>InterfaceItem</title>
<g id="a_node7"><a xlink:href="../../pyVHDLModel/pyVHDLModel.VHDLModel.html#pyVHDLModel.VHDLModel.InterfaceItem" xlink:title="An ``InterfaceItem`` is a base&#45;class for all mixin&#45;classes for all interface" target="_top">
<polygon fill="#ffffff" stroke="#000000" stroke-width=".5" points="249,-19 135,-19 135,0 249,0 249,-19"/>
<text text-anchor="middle" x="192" y="-7" font-family="Vera Sans, DejaVu Sans, Liberation Sans, Arial, Helvetica, sans" font-size="10.00" fill="#000000">InterfaceItem</text>
</a>
</g>
</g>
<!-- InterfaceItem&#45;&gt;GenericInterfaceItem -->
<g id="edge6" class="edge">
<title>InterfaceItem&#45;&gt;GenericInterfaceItem</title>
<path fill="none" stroke="#000000" stroke-width=".5" d="M249.3045,-9.5C259.0793,-9.5 269.4341,-9.5 279.7972,-9.5"/>
<polygon fill="#000000" stroke="#000000" stroke-width=".5" points="279.8828,-11.2501 284.8827,-9.5 279.8827,-7.7501 279.8828,-11.2501"/>
</g>
<!-- ModelEntity -->
<g id="node8" class="node">
<title>ModelEntity</title>
<g id="a_node8"><a xlink:href="../../pyVHDLModel/pyVHDLModel.VHDLModel.html#pyVHDLModel.VHDLModel.ModelEntity" xlink:title="``ModelEntity`` is a base class for all classes in the VHDL language model," target="_top">
<polygon fill="#ffffff" stroke="#000000" stroke-width=".5" points="99,-74 0,-74 0,-55 99,-55 99,-74"/>
<text text-anchor="middle" x="49.5" y="-62" font-family="Vera Sans, DejaVu Sans, Liberation Sans, Arial, Helvetica, sans" font-size="10.00" fill="#000000">ModelEntity</text>
</a>
</g>
</g>
<!-- ModelEntity&#45;&gt;SubProgramm -->
<g id="edge7" class="edge">
<title>ModelEntity&#45;&gt;SubProgramm</title>
<path fill="none" stroke="#000000" stroke-width=".5" d="M99.3396,-58.2045C111.5591,-56.661 124.7048,-55.0004 137.1454,-53.429"/>
<polygon fill="#000000" stroke="#000000" stroke-width=".5" points="137.6879,-55.1245 142.4292,-52.7616 137.2493,-51.6521 137.6879,-55.1245"/>
</g>
<!-- NamedEntity -->
<g id="node9" class="node">
<title>NamedEntity</title>
<g id="a_node9"><a xlink:href="../../pyVHDLModel/pyVHDLModel.VHDLModel.html#pyVHDLModel.VHDLModel.NamedEntity" xlink:title="A ``NamedEntity`` is a mixin class for all VHDL entities that have names." target="_top">
<polygon fill="#ffffff" stroke="#000000" stroke-width=".5" points="99,-37 0,-37 0,-18 99,-18 99,-37"/>
<text text-anchor="middle" x="49.5" y="-25" font-family="Vera Sans, DejaVu Sans, Liberation Sans, Arial, Helvetica, sans" font-size="10.00" fill="#000000">NamedEntity</text>
</a>
</g>
</g>
<!-- NamedEntity&#45;&gt;SubProgramm -->
<g id="edge8" class="edge">
<title>NamedEntity&#45;&gt;SubProgramm</title>
<path fill="none" stroke="#000000" stroke-width=".5" d="M99.3396,-34.1453C111.5591,-35.7745 124.7048,-37.5273 137.1454,-39.1861"/>
<polygon fill="#000000" stroke="#000000" stroke-width=".5" points="137.2417,-40.9643 142.4292,-39.8906 137.7044,-37.495 137.2417,-40.9643"/>
</g>
</g>
</svg>
