<?xml version="1.0" encoding="UTF-8" standalone="no"?>
<!DOCTYPE svg PUBLIC "-//W3C//DTD SVG 1.1//EN"
 "http://www.w3.org/Graphics/SVG/1.1/DTD/svg11.dtd">
<!-- Generated by graphviz version 2.40.1 (0)
 -->
<!-- Title: inheritance6e54c1d4c1 Pages: 1 -->
<svg width="576pt" height="193pt"
 viewBox="0.00 0.00 576.00 192.91" xmlns="http://www.w3.org/2000/svg" xmlns:xlink="http://www.w3.org/1999/xlink">
<g id="graph0" class="graph" transform="scale(.91 .91) rotate(0) translate(4 208)">
<title>inheritance6e54c1d4c1</title>
<!-- Architecture -->
<g id="node1" class="node">
<title>Architecture</title>
<g id="a_node1"><a xlink:href="../../pyVHDLModel/pyVHDLModel.VHDLModel.html#pyVHDLModel.VHDLModel.Architecture" xlink:title="Architecture" target="_top">
<polygon fill="#ffffff" stroke="#000000" stroke-width=".5" points="621.5,-56 514.5,-56 514.5,-37 621.5,-37 621.5,-56"/>
<text text-anchor="middle" x="568" y="-44" font-family="Vera Sans, DejaVu Sans, Liberation Sans, Arial, Helvetica, sans" font-size="10.00" fill="#000000">Architecture</text>
</a>
</g>
</g>
<!-- SecondaryUnit -->
<g id="node2" class="node">
<title>SecondaryUnit</title>
<g id="a_node2"><a xlink:href="../../pyVHDLModel/pyVHDLModel.VHDLModel.html#pyVHDLModel.VHDLModel.SecondaryUnit" xlink:title="A ``SecondaryUnit`` is a base&#45;class for all secondary units." target="_top">
<polygon fill="#ffffff" stroke="#000000" stroke-width=".5" points="426,-56 312,-56 312,-37 426,-37 426,-56"/>
<text text-anchor="middle" x="369" y="-44" font-family="Vera Sans, DejaVu Sans, Liberation Sans, Arial, Helvetica, sans" font-size="10.00" fill="#000000">SecondaryUnit</text>
</a>
</g>
</g>
<!-- SecondaryUnit&#45;&gt;Architecture -->
<g id="edge1" class="edge">
<title>SecondaryUnit&#45;&gt;Architecture</title>
<path fill="none" stroke="#000000" stroke-width=".5" d="M426.0254,-46.5C452.0824,-46.5 482.9238,-46.5 509.1931,-46.5"/>
<polygon fill="#000000" stroke="#000000" stroke-width=".5" points="509.3833,-48.2501 514.3833,-46.5 509.3832,-44.7501 509.3833,-48.2501"/>
</g>
<!-- PackageBody -->
<g id="node12" class="node">
<title>PackageBody</title>
<g id="a_node12"><a xlink:href="../../pyVHDLModel/pyVHDLModel.VHDLModel.html#pyVHDLModel.VHDLModel.PackageBody" xlink:title="PackageBody" target="_top">
<polygon fill="#ffffff" stroke="#000000" stroke-width=".5" points="617.5,-19 518.5,-19 518.5,0 617.5,0 617.5,-19"/>
<text text-anchor="middle" x="568" y="-7" font-family="Vera Sans, DejaVu Sans, Liberation Sans, Arial, Helvetica, sans" font-size="10.00" fill="#000000">PackageBody</text>
</a>
</g>
</g>
<!-- SecondaryUnit&#45;&gt;PackageBody -->
<g id="edge12" class="edge">
<title>SecondaryUnit&#45;&gt;PackageBody</title>
<path fill="none" stroke="#000000" stroke-width=".5" d="M420.2474,-36.9716C448.7695,-31.6685 484.2713,-25.0676 513.326,-19.6655"/>
<polygon fill="#000000" stroke="#000000" stroke-width=".5" points="513.7054,-21.3751 518.3012,-18.7405 513.0656,-17.934 513.7054,-21.3751"/>
</g>
<!-- MixinDesignUnitWithContext -->
<g id="node3" class="node">
<title>MixinDesignUnitWithContext</title>
<g id="a_node3"><a xlink:href="../../pyVHDLModel/pyVHDLModel.VHDLModel.html#pyVHDLModel.VHDLModel.MixinDesignUnitWithContext" xlink:title="A ``DesignUnitWithReferences`` is a base&#45;class for all design units with contexts." target="_top">
<polygon fill="#ffffff" stroke="#000000" stroke-width=".5" points="475,-93 263,-93 263,-74 475,-74 475,-93"/>
<text text-anchor="middle" x="369" y="-81" font-family="Vera Sans, DejaVu Sans, Liberation Sans, Arial, Helvetica, sans" font-size="10.00" fill="#000000">MixinDesignUnitWithContext</text>
</a>
</g>
</g>
<!-- MixinDesignUnitWithContext&#45;&gt;Architecture -->
<g id="edge2" class="edge">
<title>MixinDesignUnitWithContext&#45;&gt;Architecture</title>
<path fill="none" stroke="#000000" stroke-width=".5" d="M422.9512,-73.9782C439.6452,-70.9919 458.0908,-67.6517 475,-64.5 487.7025,-62.1324 501.3681,-59.5226 514.2092,-57.0422"/>
<polygon fill="#000000" stroke="#000000" stroke-width=".5" points="514.6985,-58.7301 519.2751,-56.0622 514.0337,-55.2938 514.6985,-58.7301"/>
</g>
<!-- Configuration -->
<g id="node4" class="node">
<title>Configuration</title>
<g id="a_node4"><a xlink:href="../../pyVHDLModel/pyVHDLModel.VHDLModel.html#pyVHDLModel.VHDLModel.Configuration" xlink:title="Configuration" target="_top">
<polygon fill="#ffffff" stroke="#000000" stroke-width=".5" points="625,-93 511,-93 511,-74 625,-74 625,-93"/>
<text text-anchor="middle" x="568" y="-81" font-family="Vera Sans, DejaVu Sans, Liberation Sans, Arial, Helvetica, sans" font-size="10.00" fill="#000000">Configuration</text>
</a>
</g>
</g>
<!-- MixinDesignUnitWithContext&#45;&gt;Configuration -->
<g id="edge4" class="edge">
<title>MixinDesignUnitWithContext&#45;&gt;Configuration</title>
<path fill="none" stroke="#000000" stroke-width=".5" d="M475.2001,-83.5C485.6895,-83.5 496.0792,-83.5 505.9,-83.5"/>
<polygon fill="#000000" stroke="#000000" stroke-width=".5" points="505.9814,-85.2501 510.9814,-83.5 505.9813,-81.7501 505.9814,-85.2501"/>
</g>
<!-- Entity -->
<g id="node10" class="node">
<title>Entity</title>
<g id="a_node10"><a xlink:href="../../pyVHDLModel/pyVHDLModel.VHDLModel.html#pyVHDLModel.VHDLModel.Entity" xlink:title="Entity" target="_top">
<polygon fill="#ffffff" stroke="#000000" stroke-width=".5" points="599,-167 537,-167 537,-148 599,-148 599,-167"/>
<text text-anchor="middle" x="568" y="-155" font-family="Vera Sans, DejaVu Sans, Liberation Sans, Arial, Helvetica, sans" font-size="10.00" fill="#000000">Entity</text>
</a>
</g>
</g>
<!-- MixinDesignUnitWithContext&#45;&gt;Entity -->
<g id="edge9" class="edge">
<title>MixinDesignUnitWithContext&#45;&gt;Entity</title>
<path fill="none" stroke="#000000" stroke-width=".5" d="M451.7352,-93.0705C459.8357,-95.5479 467.7348,-98.6414 475,-102.5 495.2632,-113.2621 491.4697,-127.4589 511,-139.5 517.3878,-143.4383 524.7149,-146.5879 531.9409,-149.0801"/>
<polygon fill="#000000" stroke="#000000" stroke-width=".5" points="531.6184,-150.8156 536.9146,-150.7021 532.7036,-147.4881 531.6184,-150.8156"/>
</g>
<!-- Package -->
<g id="node11" class="node">
<title>Package</title>
<g id="a_node11"><a xlink:href="../../pyVHDLModel/pyVHDLModel.VHDLModel.html#pyVHDLModel.VHDLModel.Package" xlink:title="Package" target="_top">
<polygon fill="#ffffff" stroke="#000000" stroke-width=".5" points="602.5,-130 533.5,-130 533.5,-111 602.5,-111 602.5,-130"/>
<text text-anchor="middle" x="568" y="-118" font-family="Vera Sans, DejaVu Sans, Liberation Sans, Arial, Helvetica, sans" font-size="10.00" fill="#000000">Package</text>
</a>
</g>
</g>
<!-- MixinDesignUnitWithContext&#45;&gt;Package -->
<g id="edge11" class="edge">
<title>MixinDesignUnitWithContext&#45;&gt;Package</title>
<path fill="none" stroke="#000000" stroke-width=".5" d="M422.9512,-93.0218C439.6452,-96.0081 458.0908,-99.3483 475,-102.5 492.4351,-105.7497 511.6848,-109.4558 528.1261,-112.657"/>
<polygon fill="#000000" stroke="#000000" stroke-width=".5" points="527.8908,-114.394 533.1333,-113.6332 528.5606,-110.9587 527.8908,-114.394"/>
</g>
<!-- MixinDesignUnitWithContext&#45;&gt;PackageBody -->
<g id="edge13" class="edge">
<title>MixinDesignUnitWithContext&#45;&gt;PackageBody</title>
<path fill="none" stroke="#000000" stroke-width=".5" d="M451.7352,-73.9295C459.8357,-71.4521 467.7348,-68.3586 475,-64.5 495.2632,-53.7379 491.4697,-39.5411 511,-27.5 515.022,-25.0203 519.4165,-22.8532 523.9236,-20.9661"/>
<polygon fill="#000000" stroke="#000000" stroke-width=".5" points="524.8358,-22.4877 528.8462,-19.0266 523.5527,-19.2313 524.8358,-22.4877"/>
</g>
<!-- PrimaryUnit -->
<g id="node5" class="node">
<title>PrimaryUnit</title>
<g id="a_node5"><a xlink:href="../../pyVHDLModel/pyVHDLModel.VHDLModel.html#pyVHDLModel.VHDLModel.PrimaryUnit" xlink:title="A ``PrimaryUnit`` is a base&#45;class for all primary units." target="_top">
<polygon fill="#ffffff" stroke="#000000" stroke-width=".5" points="418.5,-130 319.5,-130 319.5,-111 418.5,-111 418.5,-130"/>
<text text-anchor="middle" x="369" y="-118" font-family="Vera Sans, DejaVu Sans, Liberation Sans, Arial, Helvetica, sans" font-size="10.00" fill="#000000">PrimaryUnit</text>
</a>
</g>
</g>
<!-- PrimaryUnit&#45;&gt;Configuration -->
<g id="edge3" class="edge">
<title>PrimaryUnit&#45;&gt;Configuration</title>
<path fill="none" stroke="#000000" stroke-width=".5" d="M418.6731,-112.4163C436.4639,-109.4283 456.6518,-105.9312 475,-102.5 488.8498,-99.9101 503.822,-96.9308 517.6222,-94.1111"/>
<polygon fill="#000000" stroke="#000000" stroke-width=".5" points="518.1025,-95.7991 522.6491,-93.0805 517.3995,-92.3704 518.1025,-95.7991"/>
</g>
<!-- Context -->
<g id="node6" class="node">
<title>Context</title>
<g id="a_node6"><a xlink:href="../../pyVHDLModel/pyVHDLModel.VHDLModel.html#pyVHDLModel.VHDLModel.Context" xlink:title="Context" target="_top">
<polygon fill="#ffffff" stroke="#000000" stroke-width=".5" points="602.5,-204 533.5,-204 533.5,-185 602.5,-185 602.5,-204"/>
<text text-anchor="middle" x="568" y="-192" font-family="Vera Sans, DejaVu Sans, Liberation Sans, Arial, Helvetica, sans" font-size="10.00" fill="#000000">Context</text>
</a>
</g>
</g>
<!-- PrimaryUnit&#45;&gt;Context -->
<g id="edge5" class="edge">
<title>PrimaryUnit&#45;&gt;Context</title>
<path fill="none" stroke="#000000" stroke-width=".5" d="M391.9333,-130.1159C419.8528,-141.6893 468.5394,-161.4438 511,-176.5 517.547,-178.8215 524.5674,-181.1597 531.3658,-183.347"/>
<polygon fill="#000000" stroke="#000000" stroke-width=".5" points="531.2145,-185.1355 536.5099,-184.9875 532.278,-181.801 531.2145,-185.1355"/>
</g>
<!-- PrimaryUnit&#45;&gt;Entity -->
<g id="edge8" class="edge">
<title>PrimaryUnit&#45;&gt;Entity</title>
<path fill="none" stroke="#000000" stroke-width=".5" d="M418.7028,-129.7412C453.8896,-136.2835 500.2709,-144.9072 531.9416,-150.7957"/>
<polygon fill="#000000" stroke="#000000" stroke-width=".5" points="531.6586,-152.523 536.8943,-151.7165 532.2985,-149.0819 531.6586,-152.523"/>
</g>
<!-- PrimaryUnit&#45;&gt;Package -->
<g id="edge10" class="edge">
<title>PrimaryUnit&#45;&gt;Package</title>
<path fill="none" stroke="#000000" stroke-width=".5" d="M418.7028,-120.5C452.4389,-120.5 496.4655,-120.5 527.9512,-120.5"/>
<polygon fill="#000000" stroke="#000000" stroke-width=".5" points="528.2853,-122.2501 533.2853,-120.5 528.2853,-118.7501 528.2853,-122.2501"/>
</g>
<!-- DesignUnit -->
<g id="node7" class="node">
<title>DesignUnit</title>
<g id="a_node7"><a xlink:href="../../pyVHDLModel/pyVHDLModel.VHDLModel.html#pyVHDLModel.VHDLModel.DesignUnit" xlink:title="A ``DesignUnit`` is a base&#45;class for all design units." target="_top">
<polygon fill="#ffffff" stroke="#000000" stroke-width=".5" points="227,-93 135,-93 135,-74 227,-74 227,-93"/>
<text text-anchor="middle" x="181" y="-81" font-family="Vera Sans, DejaVu Sans, Liberation Sans, Arial, Helvetica, sans" font-size="10.00" fill="#000000">DesignUnit</text>
</a>
</g>
</g>
<!-- DesignUnit&#45;&gt;SecondaryUnit -->
<g id="edge15" class="edge">
<title>DesignUnit&#45;&gt;SecondaryUnit</title>
<path fill="none" stroke="#000000" stroke-width=".5" d="M220.1042,-73.9397C233.651,-70.7608 248.9587,-67.3163 263,-64.5 277.0995,-61.672 292.3124,-58.916 306.6918,-56.4447"/>
<polygon fill="#000000" stroke="#000000" stroke-width=".5" points="307.3139,-58.1139 311.9481,-55.5475 306.7249,-54.6638 307.3139,-58.1139"/>
</g>
<!-- DesignUnit&#45;&gt;PrimaryUnit -->
<g id="edge14" class="edge">
<title>DesignUnit&#45;&gt;PrimaryUnit</title>
<path fill="none" stroke="#000000" stroke-width=".5" d="M220.1042,-93.0603C233.651,-96.2392 248.9587,-99.6837 263,-102.5 279.5859,-105.8267 297.7127,-109.0538 314.2108,-111.835"/>
<polygon fill="#000000" stroke="#000000" stroke-width=".5" points="314.0547,-113.5831 319.2751,-112.6834 314.633,-110.1312 314.0547,-113.5831"/>
</g>
<!-- ModelEntity -->
<g id="node8" class="node">
<title>ModelEntity</title>
<g id="a_node8"><a xlink:href="../../pyVHDLModel/pyVHDLModel.VHDLModel.html#pyVHDLModel.VHDLModel.ModelEntity" xlink:title="``ModelEntity`` is a base class for all classes in the VHDL language model," target="_top">
<polygon fill="#ffffff" stroke="#000000" stroke-width=".5" points="99,-112 0,-112 0,-93 99,-93 99,-112"/>
<text text-anchor="middle" x="49.5" y="-100" font-family="Vera Sans, DejaVu Sans, Liberation Sans, Arial, Helvetica, sans" font-size="10.00" fill="#000000">ModelEntity</text>
</a>
</g>
</g>
<!-- ModelEntity&#45;&gt;DesignUnit -->
<g id="edge6" class="edge">
<title>ModelEntity&#45;&gt;DesignUnit</title>
<path fill="none" stroke="#000000" stroke-width=".5" d="M99.2145,-95.3169C109.1242,-93.8851 119.5514,-92.3785 129.5189,-90.9383"/>
<polygon fill="#000000" stroke="#000000" stroke-width=".5" points="129.9859,-92.6391 134.6843,-90.192 129.4854,-89.1751 129.9859,-92.6391"/>
</g>
<!-- NamedEntity -->
<g id="node9" class="node">
<title>NamedEntity</title>
<g id="a_node9"><a xlink:href="../../pyVHDLModel/pyVHDLModel.VHDLModel.html#pyVHDLModel.VHDLModel.NamedEntity" xlink:title="A ``NamedEntity`` is a mixin class for all VHDL entities that have names." target="_top">
<polygon fill="#ffffff" stroke="#000000" stroke-width=".5" points="99,-75 0,-75 0,-56 99,-56 99,-75"/>
<text text-anchor="middle" x="49.5" y="-63" font-family="Vera Sans, DejaVu Sans, Liberation Sans, Arial, Helvetica, sans" font-size="10.00" fill="#000000">NamedEntity</text>
</a>
</g>
</g>
<!-- NamedEntity&#45;&gt;DesignUnit -->
<g id="edge7" class="edge">
<title>NamedEntity&#45;&gt;DesignUnit</title>
<path fill="none" stroke="#000000" stroke-width=".5" d="M99.2145,-72.305C109.1242,-73.6615 119.5514,-75.0888 129.5189,-76.4532"/>
<polygon fill="#000000" stroke="#000000" stroke-width=".5" points="129.4931,-78.2159 134.6843,-77.1602 129.9678,-74.7482 129.4931,-78.2159"/>
</g>
</g>
</svg>
