<?xml version="1.0" encoding="UTF-8" standalone="no"?>
<!DOCTYPE svg PUBLIC "-//W3C//DTD SVG 1.1//EN"
 "http://www.w3.org/Graphics/SVG/1.1/DTD/svg11.dtd">
<!-- Generated by graphviz version 2.40.1 (0)
 -->
<!-- Title: inheritance9aa24fd915 Pages: 1 -->
<svg width="576pt" height="109pt"
 viewBox="0.00 0.00 576.00 109.50" xmlns="http://www.w3.org/2000/svg" xmlns:xlink="http://www.w3.org/1999/xlink">
<g id="graph0" class="graph" transform="scale(.9201 .9201) rotate(0) translate(4 115)">
<title>inheritance9aa24fd915</title>
<!-- Branch -->
<g id="node1" class="node">
<title>Branch</title>
<g id="a_node1"><a xlink:href="../pyVHDLModel/pyVHDLModel.VHDLModel.html#pyVHDLModel.VHDLModel.Branch" xlink:title="A ``Branch`` is a base&#45;class for all branches." target="_top">
<polygon fill="#ffffff" stroke="#000000" stroke-width=".5" points="479,-56 417,-56 417,-37 479,-37 479,-56"/>
<text text-anchor="middle" x="448" y="-44" font-family="Vera Sans, DejaVu Sans, Liberation Sans, Arial, Helvetica, sans" font-size="10.00" fill="#000000">Branch</text>
</a>
</g>
</g>
<!-- IfBranch -->
<g id="node4" class="node">
<title>IfBranch</title>
<g id="a_node4"><a xlink:href="../pyVHDLModel/pyVHDLModel.VHDLModel.html#pyVHDLModel.VHDLModel.IfBranch" xlink:title="IfBranch" target="_top">
<polygon fill="#ffffff" stroke="#000000" stroke-width=".5" points="618,-74 541,-74 541,-55 618,-55 618,-74"/>
<text text-anchor="middle" x="579.5" y="-62" font-family="Vera Sans, DejaVu Sans, Liberation Sans, Arial, Helvetica, sans" font-size="10.00" fill="#000000">IfBranch</text>
</a>
</g>
</g>
<!-- Branch&#45;&gt;IfBranch -->
<g id="edge3" class="edge">
<title>Branch&#45;&gt;IfBranch</title>
<path fill="none" stroke="#000000" stroke-width=".5" d="M479.1637,-50.7657C495.964,-53.0654 516.976,-55.9416 535.4246,-58.4669"/>
<polygon fill="#000000" stroke="#000000" stroke-width=".5" points="535.3633,-60.2247 540.5544,-59.169 535.838,-56.757 535.3633,-60.2247"/>
</g>
<!-- ModelEntity -->
<g id="node2" class="node">
<title>ModelEntity</title>
<g id="a_node2"><a xlink:href="../pyVHDLModel/pyVHDLModel.VHDLModel.html#pyVHDLModel.VHDLModel.ModelEntity" xlink:title="``ModelEntity`` is a base class for all classes in the VHDL language model," target="_top">
<polygon fill="#ffffff" stroke="#000000" stroke-width=".5" points="313.5,-56 214.5,-56 214.5,-37 313.5,-37 313.5,-56"/>
<text text-anchor="middle" x="264" y="-44" font-family="Vera Sans, DejaVu Sans, Liberation Sans, Arial, Helvetica, sans" font-size="10.00" fill="#000000">ModelEntity</text>
</a>
</g>
</g>
<!-- ModelEntity&#45;&gt;Branch -->
<g id="edge1" class="edge">
<title>ModelEntity&#45;&gt;Branch</title>
<path fill="none" stroke="#000000" stroke-width=".5" d="M313.793,-46.5C344.7531,-46.5 383.8548,-46.5 411.8529,-46.5"/>
<polygon fill="#000000" stroke="#000000" stroke-width=".5" points="411.9471,-48.2501 416.9471,-46.5 411.947,-44.7501 411.9471,-48.2501"/>
</g>
<!-- SequentialStatements -->
<g id="node3" class="node">
<title>SequentialStatements</title>
<g id="a_node3"><a xlink:href="../pyVHDLModel/pyVHDLModel.VHDLModel.html#pyVHDLModel.VHDLModel.SequentialStatements" xlink:title="SequentialStatements" target="_top">
<polygon fill="#ffffff" stroke="#000000" stroke-width=".5" points="347.5,-19 180.5,-19 180.5,0 347.5,0 347.5,-19"/>
<text text-anchor="middle" x="264" y="-7" font-family="Vera Sans, DejaVu Sans, Liberation Sans, Arial, Helvetica, sans" font-size="10.00" fill="#000000">SequentialStatements</text>
</a>
</g>
</g>
<!-- SequentialStatements&#45;&gt;Branch -->
<g id="edge2" class="edge">
<title>SequentialStatements&#45;&gt;Branch</title>
<path fill="none" stroke="#000000" stroke-width=".5" d="M312.6547,-19.0657C326.3539,-21.7749 341.2638,-24.7383 355,-27.5 373.5946,-31.2384 394.2673,-35.4558 411.391,-38.9658"/>
<polygon fill="#000000" stroke="#000000" stroke-width=".5" points="411.3354,-40.7408 416.5851,-40.0311 412.0387,-37.3121 411.3354,-40.7408"/>
</g>
<!-- MixinIfBranch -->
<g id="node5" class="node">
<title>MixinIfBranch</title>
<g id="a_node5"><a xlink:href="../pyVHDLModel/pyVHDLModel.VHDLModel.html#pyVHDLModel.VHDLModel.MixinIfBranch" xlink:title="A ``BaseIfBranch`` is a mixin&#45;class for all if&#45;branches." target="_top">
<polygon fill="#ffffff" stroke="#000000" stroke-width=".5" points="505,-93 391,-93 391,-74 505,-74 505,-93"/>
<text text-anchor="middle" x="448" y="-81" font-family="Vera Sans, DejaVu Sans, Liberation Sans, Arial, Helvetica, sans" font-size="10.00" fill="#000000">MixinIfBranch</text>
</a>
</g>
</g>
<!-- MixinIfBranch&#45;&gt;IfBranch -->
<g id="edge4" class="edge">
<title>MixinIfBranch&#45;&gt;IfBranch</title>
<path fill="none" stroke="#000000" stroke-width=".5" d="M505.2953,-75.2216C515.5505,-73.7398 526.0848,-72.2178 535.8778,-70.8028"/>
<polygon fill="#000000" stroke="#000000" stroke-width=".5" points="536.2275,-72.5206 540.9259,-70.0734 535.727,-69.0565 536.2275,-72.5206"/>
</g>
<!-- MixinBranch -->
<g id="node6" class="node">
<title>MixinBranch</title>
<g id="a_node6"><a xlink:href="../pyVHDLModel/pyVHDLModel.VHDLModel.html#pyVHDLModel.VHDLModel.MixinBranch" xlink:title="A ``BaseBranch`` is a mixin&#45;class for all statements with branches." target="_top">
<polygon fill="#ffffff" stroke="#000000" stroke-width=".5" points="118,-111 19,-111 19,-92 118,-92 118,-111"/>
<text text-anchor="middle" x="68.5" y="-99" font-family="Vera Sans, DejaVu Sans, Liberation Sans, Arial, Helvetica, sans" font-size="10.00" fill="#000000">MixinBranch</text>
</a>
</g>
</g>
<!-- MixinConditionalBranch -->
<g id="node8" class="node">
<title>MixinConditionalBranch</title>
<g id="a_node8"><a xlink:href="../pyVHDLModel/pyVHDLModel.VHDLModel.html#pyVHDLModel.VHDLModel.MixinConditionalBranch" xlink:title="A ``BaseBranch`` is a mixin&#45;class for all branch statements with a condition." target="_top">
<polygon fill="#ffffff" stroke="#000000" stroke-width=".5" points="355,-93 173,-93 173,-74 355,-74 355,-93"/>
<text text-anchor="middle" x="264" y="-81" font-family="Vera Sans, DejaVu Sans, Liberation Sans, Arial, Helvetica, sans" font-size="10.00" fill="#000000">MixinConditionalBranch</text>
</a>
</g>
</g>
<!-- MixinBranch&#45;&gt;MixinConditionalBranch -->
<g id="edge5" class="edge">
<title>MixinBranch&#45;&gt;MixinConditionalBranch</title>
<path fill="none" stroke="#000000" stroke-width=".5" d="M118.0856,-96.9346C133.2582,-95.5376 150.4948,-93.9506 167.6728,-92.369"/>
<polygon fill="#000000" stroke="#000000" stroke-width=".5" points="168.1812,-94.0797 172.9997,-91.8785 167.8603,-90.5944 168.1812,-94.0797"/>
</g>
<!-- MixinConditional -->
<g id="node7" class="node">
<title>MixinConditional</title>
<g id="a_node7"><a xlink:href="../pyVHDLModel/pyVHDLModel.VHDLModel.html#pyVHDLModel.VHDLModel.MixinConditional" xlink:title="A ``BaseConditional`` is a mixin&#45;class for all statements with a condition." target="_top">
<polygon fill="#ffffff" stroke="#000000" stroke-width=".5" points="137,-74 0,-74 0,-55 137,-55 137,-74"/>
<text text-anchor="middle" x="68.5" y="-62" font-family="Vera Sans, DejaVu Sans, Liberation Sans, Arial, Helvetica, sans" font-size="10.00" fill="#000000">MixinConditional</text>
</a>
</g>
</g>
<!-- MixinConditional&#45;&gt;MixinConditionalBranch -->
<g id="edge6" class="edge">
<title>MixinConditional&#45;&gt;MixinConditionalBranch</title>
<path fill="none" stroke="#000000" stroke-width=".5" d="M137.1511,-71.172C147.0789,-72.1368 157.4473,-73.1445 167.7927,-74.1499"/>
<polygon fill="#000000" stroke="#000000" stroke-width=".5" points="167.7215,-75.9012 172.8674,-74.6431 168.0602,-72.4176 167.7215,-75.9012"/>
</g>
<!-- MixinConditionalBranch&#45;&gt;MixinIfBranch -->
<g id="edge7" class="edge">
<title>MixinConditionalBranch&#45;&gt;MixinIfBranch</title>
<path fill="none" stroke="#000000" stroke-width=".5" d="M355.1914,-83.5C365.5801,-83.5 375.9825,-83.5 385.8688,-83.5"/>
<polygon fill="#000000" stroke="#000000" stroke-width=".5" points="385.9888,-85.2501 390.9888,-83.5 385.9888,-81.7501 385.9888,-85.2501"/>
</g>
</g>
</svg>
