<?xml version="1.0" encoding="UTF-8" standalone="no"?>
<!DOCTYPE svg PUBLIC "-//W3C//DTD SVG 1.1//EN"
 "http://www.w3.org/Graphics/SVG/1.1/DTD/svg11.dtd">
<!-- Generated by graphviz version 2.40.1 (0)
 -->
<!-- Title: inheritance9497273ad0 Pages: 1 -->
<svg width="576pt" height="76pt"
 viewBox="0.00 0.00 576.00 75.75" xmlns="http://www.w3.org/2000/svg" xmlns:xlink="http://www.w3.org/1999/xlink">
<g id="graph0" class="graph" transform="scale(.75 .75) rotate(0) translate(4 97)">
<title>inheritance9497273ad0</title>
<!-- Function -->
<g id="node1" class="node">
<title>Function</title>
<g id="a_node1"><a xlink:href="../pyVHDLModel/pyVHDLModel.VHDLModel.html#pyVHDLModel.VHDLModel.Function" xlink:title="Function" target="_top">
<polygon fill="#ffffff" stroke="#000000" stroke-width=".5" points="550,-37 473,-37 473,-18 550,-18 550,-37"/>
<text text-anchor="middle" x="511.5" y="-25" font-family="Vera Sans, DejaVu Sans, Liberation Sans, Arial, Helvetica, sans" font-size="10.00" fill="#000000">Function</text>
</a>
</g>
</g>
<!-- FunctionInstantiation -->
<g id="node3" class="node">
<title>FunctionInstantiation</title>
<g id="a_node3"><a xlink:href="../pyVHDLModel/pyVHDLModel.VHDLModel.html#pyVHDLModel.VHDLModel.FunctionInstantiation" xlink:title="FunctionInstantiation" target="_top">
<polygon fill="#ffffff" stroke="#000000" stroke-width=".5" points="760,-56 586,-56 586,-37 760,-37 760,-56"/>
<text text-anchor="middle" x="673" y="-44" font-family="Vera Sans, DejaVu Sans, Liberation Sans, Arial, Helvetica, sans" font-size="10.00" fill="#000000">FunctionInstantiation</text>
</a>
</g>
</g>
<!-- Function&#45;&gt;FunctionInstantiation -->
<g id="edge2" class="edge">
<title>Function&#45;&gt;FunctionInstantiation</title>
<path fill="none" stroke="#000000" stroke-width=".5" d="M550.1833,-32.051C561.3872,-33.3691 574.09,-34.8635 586.9728,-36.3792"/>
<polygon fill="#000000" stroke="#000000" stroke-width=".5" points="586.9393,-38.1372 592.1095,-36.9835 587.3483,-34.6612 586.9393,-38.1372"/>
</g>
<!-- SubProgramm -->
<g id="node2" class="node">
<title>SubProgramm</title>
<g id="a_node2"><a xlink:href="../pyVHDLModel/pyVHDLModel.VHDLModel.html#pyVHDLModel.VHDLModel.SubProgramm" xlink:title="SubProgramm" target="_top">
<polygon fill="#ffffff" stroke="#000000" stroke-width=".5" points="392,-37 293,-37 293,-18 392,-18 392,-37"/>
<text text-anchor="middle" x="342.5" y="-25" font-family="Vera Sans, DejaVu Sans, Liberation Sans, Arial, Helvetica, sans" font-size="10.00" fill="#000000">SubProgramm</text>
</a>
</g>
</g>
<!-- SubProgramm&#45;&gt;Function -->
<g id="edge1" class="edge">
<title>SubProgramm&#45;&gt;Function</title>
<path fill="none" stroke="#000000" stroke-width=".5" d="M392.2915,-27.5C416.1885,-27.5 444.5681,-27.5 467.6412,-27.5"/>
<polygon fill="#000000" stroke="#000000" stroke-width=".5" points="467.781,-29.2501 472.781,-27.5 467.7809,-25.7501 467.781,-29.2501"/>
</g>
<!-- SubprogramInstantiation -->
<g id="node4" class="node">
<title>SubprogramInstantiation</title>
<g id="a_node4"><a xlink:href="../pyVHDLModel/pyVHDLModel.VHDLModel.html#pyVHDLModel.VHDLModel.SubprogramInstantiation" xlink:title="SubprogramInstantiation" target="_top">
<polygon fill="#ffffff" stroke="#000000" stroke-width=".5" points="437,-75 248,-75 248,-56 437,-56 437,-75"/>
<text text-anchor="middle" x="342.5" y="-63" font-family="Vera Sans, DejaVu Sans, Liberation Sans, Arial, Helvetica, sans" font-size="10.00" fill="#000000">SubprogramInstantiation</text>
</a>
</g>
</g>
<!-- SubprogramInstantiation&#45;&gt;FunctionInstantiation -->
<g id="edge3" class="edge">
<title>SubprogramInstantiation&#45;&gt;FunctionInstantiation</title>
<path fill="none" stroke="#000000" stroke-width=".5" d="M437.208,-60.0554C482.2985,-57.4632 536.0153,-54.3751 580.7811,-51.8015"/>
<polygon fill="#000000" stroke="#000000" stroke-width=".5" points="581.0247,-53.5405 585.916,-51.5063 580.8238,-50.0463 581.0247,-53.5405"/>
</g>
<!-- GenericEntityInstantiation -->
<g id="node5" class="node">
<title>GenericEntityInstantiation</title>
<g id="a_node5"><a xlink:href="../pyVHDLModel/pyVHDLModel.VHDLModel.html#pyVHDLModel.VHDLModel.GenericEntityInstantiation" xlink:title="GenericEntityInstantiation" target="_top">
<polygon fill="#ffffff" stroke="#000000" stroke-width=".5" points="212,-93 0,-93 0,-74 212,-74 212,-93"/>
<text text-anchor="middle" x="106" y="-81" font-family="Vera Sans, DejaVu Sans, Liberation Sans, Arial, Helvetica, sans" font-size="10.00" fill="#000000">GenericEntityInstantiation</text>
</a>
</g>
</g>
<!-- GenericEntityInstantiation&#45;&gt;SubprogramInstantiation -->
<g id="edge7" class="edge">
<title>GenericEntityInstantiation&#45;&gt;SubprogramInstantiation</title>
<path fill="none" stroke="#000000" stroke-width=".5" d="M212.1436,-75.4214C222.2868,-74.6494 232.55,-73.8683 242.6305,-73.1011"/>
<polygon fill="#000000" stroke="#000000" stroke-width=".5" points="243.031,-74.8257 247.8838,-72.7012 242.7653,-71.3358 243.031,-74.8257"/>
</g>
<!-- ModelEntity -->
<g id="node6" class="node">
<title>ModelEntity</title>
<g id="a_node6"><a xlink:href="../pyVHDLModel/pyVHDLModel.VHDLModel.html#pyVHDLModel.VHDLModel.ModelEntity" xlink:title="``ModelEntity`` is a base class for all classes in the VHDL language model," target="_top">
<polygon fill="#ffffff" stroke="#000000" stroke-width=".5" points="155.5,-56 56.5,-56 56.5,-37 155.5,-37 155.5,-56"/>
<text text-anchor="middle" x="106" y="-44" font-family="Vera Sans, DejaVu Sans, Liberation Sans, Arial, Helvetica, sans" font-size="10.00" fill="#000000">ModelEntity</text>
</a>
</g>
</g>
<!-- ModelEntity&#45;&gt;SubProgramm -->
<g id="edge4" class="edge">
<title>ModelEntity&#45;&gt;SubProgramm</title>
<path fill="none" stroke="#000000" stroke-width=".5" d="M155.5781,-42.517C194.2073,-39.4136 247.7988,-35.1081 287.6983,-31.9027"/>
<polygon fill="#000000" stroke="#000000" stroke-width=".5" points="288.1433,-33.6226 292.9871,-31.4778 287.863,-30.1339 288.1433,-33.6226"/>
</g>
<!-- ModelEntity&#45;&gt;SubprogramInstantiation -->
<g id="edge6" class="edge">
<title>ModelEntity&#45;&gt;SubprogramInstantiation</title>
<path fill="none" stroke="#000000" stroke-width=".5" d="M155.5781,-50.483C180.8022,-52.5095 212.4059,-55.0485 242.4113,-57.459"/>
<polygon fill="#000000" stroke="#000000" stroke-width=".5" points="242.4772,-59.2199 247.6013,-57.876 242.7575,-55.7311 242.4772,-59.2199"/>
</g>
<!-- NamedEntity -->
<g id="node7" class="node">
<title>NamedEntity</title>
<g id="a_node7"><a xlink:href="../pyVHDLModel/pyVHDLModel.VHDLModel.html#pyVHDLModel.VHDLModel.NamedEntity" xlink:title="A ``NamedEntity`` is a mixin class for all VHDL entities that have names." target="_top">
<polygon fill="#ffffff" stroke="#000000" stroke-width=".5" points="155.5,-19 56.5,-19 56.5,0 155.5,0 155.5,-19"/>
<text text-anchor="middle" x="106" y="-7" font-family="Vera Sans, DejaVu Sans, Liberation Sans, Arial, Helvetica, sans" font-size="10.00" fill="#000000">NamedEntity</text>
</a>
</g>
</g>
<!-- NamedEntity&#45;&gt;SubProgramm -->
<g id="edge5" class="edge">
<title>NamedEntity&#45;&gt;SubProgramm</title>
<path fill="none" stroke="#000000" stroke-width=".5" d="M155.5781,-13.2734C194.2073,-16.2135 247.7988,-20.2923 287.6983,-23.329"/>
<polygon fill="#000000" stroke="#000000" stroke-width=".5" points="287.8687,-25.097 292.9871,-23.7316 288.1344,-21.6071 287.8687,-25.097"/>
</g>
</g>
</svg>
