<?xml version="1.0" encoding="UTF-8" standalone="no"?>
<!DOCTYPE svg PUBLIC "-//W3C//DTD SVG 1.1//EN"
 "http://www.w3.org/Graphics/SVG/1.1/DTD/svg11.dtd">
<!-- Generated by graphviz version 2.40.1 (0)
 -->
<!-- Title: inheritancef6e94dce00 Pages: 1 -->
<svg width="197pt" height="64pt"
 viewBox="0.00 0.00 197.00 64.00" xmlns="http://www.w3.org/2000/svg" xmlns:xlink="http://www.w3.org/1999/xlink">
<g id="graph0" class="graph" transform="scale(1 1) rotate(0) translate(4 60)">
<title>inheritancef6e94dce00</title>
<!-- Alias -->
<g id="node1" class="node">
<title>Alias</title>
<g id="a_node1"><a xlink:href="../pyVHDLModel/pyVHDLModel.VHDLModel.html#pyVHDLModel.VHDLModel.Alias" xlink:title="Alias" target="_top">
<polygon fill="#ffffff" stroke="#000000" stroke-width=".5" points="189,-37 135,-37 135,-18 189,-18 189,-37"/>
<text text-anchor="middle" x="162" y="-25" font-family="Vera Sans, DejaVu Sans, Liberation Sans, Arial, Helvetica, sans" font-size="10.00" fill="#000000">Alias</text>
</a>
</g>
</g>
<!-- ModelEntity -->
<g id="node2" class="node">
<title>ModelEntity</title>
<g id="a_node2"><a xlink:href="../pyVHDLModel/pyVHDLModel.VHDLModel.html#pyVHDLModel.VHDLModel.ModelEntity" xlink:title="``ModelEntity`` is a base class for all classes in the VHDL language model," target="_top">
<polygon fill="#ffffff" stroke="#000000" stroke-width=".5" points="99,-56 0,-56 0,-37 99,-37 99,-56"/>
<text text-anchor="middle" x="49.5" y="-44" font-family="Vera Sans, DejaVu Sans, Liberation Sans, Arial, Helvetica, sans" font-size="10.00" fill="#000000">ModelEntity</text>
</a>
</g>
</g>
<!-- ModelEntity&#45;&gt;Alias -->
<g id="edge1" class="edge">
<title>ModelEntity&#45;&gt;Alias</title>
<path fill="none" stroke="#000000" stroke-width=".5" d="M99.1716,-38.111C109.5018,-36.3664 120.1322,-34.571 129.6431,-32.9647"/>
<polygon fill="#000000" stroke="#000000" stroke-width=".5" points="130.164,-34.6516 134.8028,-32.0933 129.5811,-31.2005 130.164,-34.6516"/>
</g>
<!-- NamedEntity -->
<g id="node3" class="node">
<title>NamedEntity</title>
<g id="a_node3"><a xlink:href="../pyVHDLModel/pyVHDLModel.VHDLModel.html#pyVHDLModel.VHDLModel.NamedEntity" xlink:title="A ``NamedEntity`` is a mixin class for all VHDL entities that have names." target="_top">
<polygon fill="#ffffff" stroke="#000000" stroke-width=".5" points="99,-19 0,-19 0,0 99,0 99,-19"/>
<text text-anchor="middle" x="49.5" y="-7" font-family="Vera Sans, DejaVu Sans, Liberation Sans, Arial, Helvetica, sans" font-size="10.00" fill="#000000">NamedEntity</text>
</a>
</g>
</g>
<!-- NamedEntity&#45;&gt;Alias -->
<g id="edge2" class="edge">
<title>NamedEntity&#45;&gt;Alias</title>
<path fill="none" stroke="#000000" stroke-width=".5" d="M99.1716,-17.4475C109.5018,-19.1003 120.1322,-20.8011 129.6431,-22.3229"/>
<polygon fill="#000000" stroke="#000000" stroke-width=".5" points="129.589,-24.0864 134.8028,-23.1484 130.1421,-20.6304 129.589,-24.0864"/>
</g>
</g>
</svg>
