<?xml version="1.0" encoding="UTF-8" standalone="no"?>
<!DOCTYPE svg PUBLIC "-//W3C//DTD SVG 1.1//EN"
 "http://www.w3.org/Graphics/SVG/1.1/DTD/svg11.dtd">
<!-- Generated by graphviz version 2.40.1 (0)
 -->
<!-- Title: inheritance4f7ab58da6 Pages: 1 -->
<svg width="576pt" height="75pt"
 viewBox="0.00 0.00 576.00 75.24" xmlns="http://www.w3.org/2000/svg" xmlns:xlink="http://www.w3.org/1999/xlink">
<g id="graph0" class="graph" transform="scale(.6323 .6323) rotate(0) translate(4 115)">
<title>inheritance4f7ab58da6</title>
<!-- BaseConstant -->
<g id="node1" class="node">
<title>BaseConstant</title>
<g id="a_node1"><a xlink:href="../pyVHDLModel/pyVHDLModel.VHDLModel.html#pyVHDLModel.VHDLModel.BaseConstant" xlink:title="BaseConstant" target="_top">
<polygon fill="#ffffff" stroke="#000000" stroke-width=".5" points="373.5,-37 266.5,-37 266.5,-18 373.5,-18 373.5,-37"/>
<text text-anchor="middle" x="320" y="-25" font-family="Vera Sans, DejaVu Sans, Liberation Sans, Arial, Helvetica, sans" font-size="10.00" fill="#000000">BaseConstant</text>
</a>
</g>
</g>
<!-- Constant -->
<g id="node3" class="node">
<title>Constant</title>
<g id="a_node3"><a xlink:href="../pyVHDLModel/pyVHDLModel.VHDLModel.html#pyVHDLModel.VHDLModel.Constant" xlink:title="Constant" target="_top">
<polygon fill="#ffffff" stroke="#000000" stroke-width=".5" points="572.5,-74 495.5,-74 495.5,-55 572.5,-55 572.5,-74"/>
<text text-anchor="middle" x="534" y="-62" font-family="Vera Sans, DejaVu Sans, Liberation Sans, Arial, Helvetica, sans" font-size="10.00" fill="#000000">Constant</text>
</a>
</g>
</g>
<!-- BaseConstant&#45;&gt;Constant -->
<g id="edge2" class="edge">
<title>BaseConstant&#45;&gt;Constant</title>
<path fill="none" stroke="#000000" stroke-width=".5" d="M373.725,-36.7889C409.6871,-43.0066 456.4285,-51.0881 490.145,-56.9176"/>
<polygon fill="#000000" stroke="#000000" stroke-width=".5" points="490.2157,-58.7057 495.4408,-57.8332 490.812,-55.2569 490.2157,-58.7057"/>
</g>
<!-- Object -->
<g id="node2" class="node">
<title>Object</title>
<g id="a_node2"><a xlink:href="../pyVHDLModel/pyVHDLModel.VHDLModel.html#pyVHDLModel.VHDLModel.Object" xlink:title="Object" target="_top">
<polygon fill="#ffffff" stroke="#000000" stroke-width=".5" points="197,-37 135,-37 135,-18 197,-18 197,-37"/>
<text text-anchor="middle" x="166" y="-25" font-family="Vera Sans, DejaVu Sans, Liberation Sans, Arial, Helvetica, sans" font-size="10.00" fill="#000000">Object</text>
</a>
</g>
</g>
<!-- Object&#45;&gt;BaseConstant -->
<g id="edge1" class="edge">
<title>Object&#45;&gt;BaseConstant</title>
<path fill="none" stroke="#000000" stroke-width=".5" d="M197.1642,-27.5C215.5529,-27.5 239.4252,-27.5 261.2287,-27.5"/>
<polygon fill="#000000" stroke="#000000" stroke-width=".5" points="261.4288,-29.2501 266.4287,-27.5 261.4287,-25.7501 261.4288,-29.2501"/>
</g>
<!-- ParameterConstantInterfaceItem -->
<g id="node8" class="node">
<title>ParameterConstantInterfaceItem</title>
<g id="a_node8"><a xlink:href="../pyVHDLModel/pyVHDLModel.VHDLModel.html#pyVHDLModel.VHDLModel.ParameterConstantInterfaceItem" xlink:title="ParameterConstantInterfaceItem" target="_top">
<polygon fill="#ffffff" stroke="#000000" stroke-width=".5" points="903,-92 661,-92 661,-73 903,-73 903,-92"/>
<text text-anchor="middle" x="782" y="-80" font-family="Vera Sans, DejaVu Sans, Liberation Sans, Arial, Helvetica, sans" font-size="10.00" fill="#000000">ParameterConstantInterfaceItem</text>
</a>
</g>
</g>
<!-- Constant&#45;&gt;ParameterConstantInterfaceItem -->
<g id="edge6" class="edge">
<title>Constant&#45;&gt;ParameterConstantInterfaceItem</title>
<path fill="none" stroke="#000000" stroke-width=".5" d="M572.75,-67.3125C595.4153,-68.9576 625.4458,-71.1372 655.6615,-73.3303"/>
<polygon fill="#000000" stroke="#000000" stroke-width=".5" points="655.7924,-75.0943 660.906,-73.7109 656.0458,-71.6035 655.7924,-75.0943"/>
</g>
<!-- WithDefaultExpression -->
<g id="node4" class="node">
<title>WithDefaultExpression</title>
<g id="a_node4"><a xlink:href="../pyVHDLModel/pyVHDLModel.VHDLModel.html#pyVHDLModel.VHDLModel.WithDefaultExpression" xlink:title="A ``WithDefaultExpression`` is a mixin class for all objects declarations" target="_top">
<polygon fill="#ffffff" stroke="#000000" stroke-width=".5" points="407,-74 233,-74 233,-55 407,-55 407,-74"/>
<text text-anchor="middle" x="320" y="-62" font-family="Vera Sans, DejaVu Sans, Liberation Sans, Arial, Helvetica, sans" font-size="10.00" fill="#000000">WithDefaultExpression</text>
</a>
</g>
</g>
<!-- WithDefaultExpression&#45;&gt;Constant -->
<g id="edge3" class="edge">
<title>WithDefaultExpression&#45;&gt;Constant</title>
<path fill="none" stroke="#000000" stroke-width=".5" d="M407.042,-64.5C435.6706,-64.5 466.2755,-64.5 490.2622,-64.5"/>
<polygon fill="#000000" stroke="#000000" stroke-width=".5" points="490.2772,-66.2501 495.2772,-64.5 490.2772,-62.7501 490.2772,-66.2501"/>
</g>
<!-- InterfaceItem -->
<g id="node5" class="node">
<title>InterfaceItem</title>
<g id="a_node5"><a xlink:href="../pyVHDLModel/pyVHDLModel.VHDLModel.html#pyVHDLModel.VHDLModel.InterfaceItem" xlink:title="An ``InterfaceItem`` is a base&#45;class for all mixin&#45;classes for all interface" target="_top">
<polygon fill="#ffffff" stroke="#000000" stroke-width=".5" points="377,-111 263,-111 263,-92 377,-92 377,-111"/>
<text text-anchor="middle" x="320" y="-99" font-family="Vera Sans, DejaVu Sans, Liberation Sans, Arial, Helvetica, sans" font-size="10.00" fill="#000000">InterfaceItem</text>
</a>
</g>
</g>
<!-- ParameterInterfaceItem -->
<g id="node9" class="node">
<title>ParameterInterfaceItem</title>
<g id="a_node9"><a xlink:href="../pyVHDLModel/pyVHDLModel.VHDLModel.html#pyVHDLModel.VHDLModel.ParameterInterfaceItem" xlink:title="A ``ParameterInterfaceItem`` is a mixin class for all parameter interface items." target="_top">
<polygon fill="#ffffff" stroke="#000000" stroke-width=".5" points="625,-111 443,-111 443,-92 625,-92 625,-111"/>
<text text-anchor="middle" x="534" y="-99" font-family="Vera Sans, DejaVu Sans, Liberation Sans, Arial, Helvetica, sans" font-size="10.00" fill="#000000">ParameterInterfaceItem</text>
</a>
</g>
</g>
<!-- InterfaceItem&#45;&gt;ParameterInterfaceItem -->
<g id="edge8" class="edge">
<title>InterfaceItem&#45;&gt;ParameterInterfaceItem</title>
<path fill="none" stroke="#000000" stroke-width=".5" d="M377.067,-101.5C395.6724,-101.5 416.8744,-101.5 437.5461,-101.5"/>
<polygon fill="#000000" stroke="#000000" stroke-width=".5" points="437.7884,-103.2501 442.7883,-101.5 437.7883,-99.7501 437.7884,-103.2501"/>
</g>
<!-- ModelEntity -->
<g id="node6" class="node">
<title>ModelEntity</title>
<g id="a_node6"><a xlink:href="../pyVHDLModel/pyVHDLModel.VHDLModel.html#pyVHDLModel.VHDLModel.ModelEntity" xlink:title="``ModelEntity`` is a base class for all classes in the VHDL language model," target="_top">
<polygon fill="#ffffff" stroke="#000000" stroke-width=".5" points="99,-56 0,-56 0,-37 99,-37 99,-56"/>
<text text-anchor="middle" x="49.5" y="-44" font-family="Vera Sans, DejaVu Sans, Liberation Sans, Arial, Helvetica, sans" font-size="10.00" fill="#000000">ModelEntity</text>
</a>
</g>
</g>
<!-- ModelEntity&#45;&gt;Object -->
<g id="edge4" class="edge">
<title>ModelEntity&#45;&gt;Object</title>
<path fill="none" stroke="#000000" stroke-width=".5" d="M99.2444,-38.3872C109.5666,-36.7037 120.253,-34.9609 129.9692,-33.3763"/>
<polygon fill="#000000" stroke="#000000" stroke-width=".5" points="130.3016,-35.0953 134.9547,-32.5632 129.7382,-31.6409 130.3016,-35.0953"/>
</g>
<!-- NamedEntity -->
<g id="node7" class="node">
<title>NamedEntity</title>
<g id="a_node7"><a xlink:href="../pyVHDLModel/pyVHDLModel.VHDLModel.html#pyVHDLModel.VHDLModel.NamedEntity" xlink:title="A ``NamedEntity`` is a mixin class for all VHDL entities that have names." target="_top">
<polygon fill="#ffffff" stroke="#000000" stroke-width=".5" points="99,-19 0,-19 0,0 99,0 99,-19"/>
<text text-anchor="middle" x="49.5" y="-7" font-family="Vera Sans, DejaVu Sans, Liberation Sans, Arial, Helvetica, sans" font-size="10.00" fill="#000000">NamedEntity</text>
</a>
</g>
</g>
<!-- NamedEntity&#45;&gt;Object -->
<g id="edge5" class="edge">
<title>NamedEntity&#45;&gt;Object</title>
<path fill="none" stroke="#000000" stroke-width=".5" d="M99.2444,-17.1858C109.5666,-18.7807 120.253,-20.4318 129.9692,-21.933"/>
<polygon fill="#000000" stroke="#000000" stroke-width=".5" points="129.7461,-23.6692 134.9547,-22.7033 130.2806,-20.2103 129.7461,-23.6692"/>
</g>
<!-- ParameterInterfaceItem&#45;&gt;ParameterConstantInterfaceItem -->
<g id="edge7" class="edge">
<title>ParameterInterfaceItem&#45;&gt;ParameterConstantInterfaceItem</title>
<path fill="none" stroke="#000000" stroke-width=".5" d="M625.2895,-94.506C635.2594,-93.7422 645.5331,-92.9551 655.8268,-92.1665"/>
<polygon fill="#000000" stroke="#000000" stroke-width=".5" points="656.0288,-93.9062 660.8805,-91.7793 655.7614,-90.4165 656.0288,-93.9062"/>
</g>
</g>
</svg>
