<?xml version="1.0" encoding="UTF-8" standalone="no"?>
<!DOCTYPE svg PUBLIC "-//W3C//DTD SVG 1.1//EN"
 "http://www.w3.org/Graphics/SVG/1.1/DTD/svg11.dtd">
<!-- Generated by graphviz version 2.40.1 (0)
 -->
<!-- Title: inheritance8fa4d3ddc2 Pages: 1 -->
<svg width="576pt" height="58pt"
 viewBox="0.00 0.00 576.00 57.54" xmlns="http://www.w3.org/2000/svg" xmlns:xlink="http://www.w3.org/1999/xlink">
<g id="graph0" class="graph" transform="scale(.5754 .5754) rotate(0) translate(4 96)">
<title>inheritance8fa4d3ddc2</title>
<!-- CompoundStatement -->
<g id="node1" class="node">
<title>CompoundStatement</title>
<g id="a_node1"><a xlink:href="../pyVHDLModel/pyVHDLModel.VHDLModel.html#pyVHDLModel.VHDLModel.CompoundStatement" xlink:title="A ``CompoundStatement`` is a base&#45;class for all compound statements." target="_top">
<polygon fill="#ffffff" stroke="#000000" stroke-width=".5" points="620.5,-37 476.5,-37 476.5,-18 620.5,-18 620.5,-37"/>
<text text-anchor="middle" x="548.5" y="-25" font-family="Vera Sans, DejaVu Sans, Liberation Sans, Arial, Helvetica, sans" font-size="10.00" fill="#000000">CompoundStatement</text>
</a>
</g>
</g>
<!-- LoopStatement -->
<g id="node4" class="node">
<title>LoopStatement</title>
<g id="a_node4"><a xlink:href="../pyVHDLModel/pyVHDLModel.VHDLModel.html#pyVHDLModel.VHDLModel.LoopStatement" xlink:title="A ``LoopStatement`` is a base&#45;class for all loop statements." target="_top">
<polygon fill="#ffffff" stroke="#000000" stroke-width=".5" points="793.5,-55 679.5,-55 679.5,-36 793.5,-36 793.5,-55"/>
<text text-anchor="middle" x="736.5" y="-43" font-family="Vera Sans, DejaVu Sans, Liberation Sans, Arial, Helvetica, sans" font-size="10.00" fill="#000000">LoopStatement</text>
</a>
</g>
</g>
<!-- CompoundStatement&#45;&gt;LoopStatement -->
<g id="edge2" class="edge">
<title>CompoundStatement&#45;&gt;LoopStatement</title>
<path fill="none" stroke="#000000" stroke-width=".5" d="M620.648,-34.4078C638.2902,-36.0969 657.0195,-37.8902 674.1588,-39.5312"/>
<polygon fill="#000000" stroke="#000000" stroke-width=".5" points="674.2799,-41.3007 679.4239,-40.0353 674.6135,-37.8166 674.2799,-41.3007"/>
</g>
<!-- SequentialStatement -->
<g id="node2" class="node">
<title>SequentialStatement</title>
<g id="a_node2"><a xlink:href="../pyVHDLModel/pyVHDLModel.VHDLModel.html#pyVHDLModel.VHDLModel.SequentialStatement" xlink:title="A ``SequentialStatement`` is a base&#45;class for all sequential statements." target="_top">
<polygon fill="#ffffff" stroke="#000000" stroke-width=".5" points="429,-37 270,-37 270,-18 429,-18 429,-37"/>
<text text-anchor="middle" x="349.5" y="-25" font-family="Vera Sans, DejaVu Sans, Liberation Sans, Arial, Helvetica, sans" font-size="10.00" fill="#000000">SequentialStatement</text>
</a>
</g>
</g>
<!-- SequentialStatement&#45;&gt;CompoundStatement -->
<g id="edge1" class="edge">
<title>SequentialStatement&#45;&gt;CompoundStatement</title>
<path fill="none" stroke="#000000" stroke-width=".5" d="M429.008,-27.5C442.8924,-27.5 457.3185,-27.5 471.1437,-27.5"/>
<polygon fill="#000000" stroke="#000000" stroke-width=".5" points="471.2079,-29.2501 476.2079,-27.5 471.2079,-25.7501 471.2079,-29.2501"/>
</g>
<!-- LabeledEntity -->
<g id="node3" class="node">
<title>LabeledEntity</title>
<g id="a_node3"><a xlink:href="../pyVHDLModel/pyVHDLModel.VHDLModel.html#pyVHDLModel.VHDLModel.LabeledEntity" xlink:title="A ``LabeledEntity`` is a mixin class for all VHDL entities that can have" target="_top">
<polygon fill="#ffffff" stroke="#000000" stroke-width=".5" points="114,-56 0,-56 0,-37 114,-37 114,-56"/>
<text text-anchor="middle" x="57" y="-44" font-family="Vera Sans, DejaVu Sans, Liberation Sans, Arial, Helvetica, sans" font-size="10.00" fill="#000000">LabeledEntity</text>
</a>
</g>
</g>
<!-- Statement -->
<g id="node8" class="node">
<title>Statement</title>
<g id="a_node8"><a xlink:href="../pyVHDLModel/pyVHDLModel.VHDLModel.html#pyVHDLModel.VHDLModel.Statement" xlink:title="Statement" target="_top">
<polygon fill="#ffffff" stroke="#000000" stroke-width=".5" points="234,-37 150,-37 150,-18 234,-18 234,-37"/>
<text text-anchor="middle" x="192" y="-25" font-family="Vera Sans, DejaVu Sans, Liberation Sans, Arial, Helvetica, sans" font-size="10.00" fill="#000000">Statement</text>
</a>
</g>
</g>
<!-- LabeledEntity&#45;&gt;Statement -->
<g id="edge6" class="edge">
<title>LabeledEntity&#45;&gt;Statement</title>
<path fill="none" stroke="#000000" stroke-width=".5" d="M114.2522,-38.4423C124.4108,-37.0126 134.8864,-35.5382 144.7297,-34.1529"/>
<polygon fill="#000000" stroke="#000000" stroke-width=".5" points="145.1072,-35.8671 149.8145,-33.4372 144.6193,-32.4012 145.1072,-35.8671"/>
</g>
<!-- WhileLoopStatement -->
<g id="node9" class="node">
<title>WhileLoopStatement</title>
<g id="a_node9"><a xlink:href="../pyVHDLModel/pyVHDLModel.VHDLModel.html#pyVHDLModel.VHDLModel.WhileLoopStatement" xlink:title="WhileLoopStatement" target="_top">
<polygon fill="#ffffff" stroke="#000000" stroke-width=".5" points="993,-73 841,-73 841,-54 993,-54 993,-73"/>
<text text-anchor="middle" x="917" y="-61" font-family="Vera Sans, DejaVu Sans, Liberation Sans, Arial, Helvetica, sans" font-size="10.00" fill="#000000">WhileLoopStatement</text>
</a>
</g>
</g>
<!-- LoopStatement&#45;&gt;WhileLoopStatement -->
<g id="edge7" class="edge">
<title>LoopStatement&#45;&gt;WhileLoopStatement</title>
<path fill="none" stroke="#000000" stroke-width=".5" d="M793.6113,-51.1953C806.9494,-52.5254 821.4088,-53.9674 835.5754,-55.3801"/>
<polygon fill="#000000" stroke="#000000" stroke-width=".5" points="835.6298,-57.1441 840.7788,-55.899 835.9771,-53.6614 835.6298,-57.1441"/>
</g>
<!-- SequentialStatements -->
<g id="node5" class="node">
<title>SequentialStatements</title>
<g id="a_node5"><a xlink:href="../pyVHDLModel/pyVHDLModel.VHDLModel.html#pyVHDLModel.VHDLModel.SequentialStatements" xlink:title="SequentialStatements" target="_top">
<polygon fill="#ffffff" stroke="#000000" stroke-width=".5" points="632,-74 465,-74 465,-55 632,-55 632,-74"/>
<text text-anchor="middle" x="548.5" y="-62" font-family="Vera Sans, DejaVu Sans, Liberation Sans, Arial, Helvetica, sans" font-size="10.00" fill="#000000">SequentialStatements</text>
</a>
</g>
</g>
<!-- SequentialStatements&#45;&gt;LoopStatement -->
<g id="edge3" class="edge">
<title>SequentialStatements&#45;&gt;LoopStatement</title>
<path fill="none" stroke="#000000" stroke-width=".5" d="M632.0544,-56.0557C646.166,-54.6295 660.5956,-53.1712 674.0498,-51.8115"/>
<polygon fill="#000000" stroke="#000000" stroke-width=".5" points="674.5544,-53.5195 679.3531,-51.2755 674.2024,-50.0372 674.5544,-53.5195"/>
</g>
<!-- MixinConditional -->
<g id="node6" class="node">
<title>MixinConditional</title>
<g id="a_node6"><a xlink:href="../pyVHDLModel/pyVHDLModel.VHDLModel.html#pyVHDLModel.VHDLModel.MixinConditional" xlink:title="A ``BaseConditional`` is a mixin&#45;class for all statements with a condition." target="_top">
<polygon fill="#ffffff" stroke="#000000" stroke-width=".5" points="805,-92 668,-92 668,-73 805,-73 805,-92"/>
<text text-anchor="middle" x="736.5" y="-80" font-family="Vera Sans, DejaVu Sans, Liberation Sans, Arial, Helvetica, sans" font-size="10.00" fill="#000000">MixinConditional</text>
</a>
</g>
</g>
<!-- MixinConditional&#45;&gt;WhileLoopStatement -->
<g id="edge8" class="edge">
<title>MixinConditional&#45;&gt;WhileLoopStatement</title>
<path fill="none" stroke="#000000" stroke-width=".5" d="M805.2542,-75.2627C815.2714,-74.2083 825.6638,-73.1143 835.8976,-72.0371"/>
<polygon fill="#000000" stroke="#000000" stroke-width=".5" points="836.1172,-73.7737 840.9065,-71.5098 835.7507,-70.293 836.1172,-73.7737"/>
</g>
<!-- ModelEntity -->
<g id="node7" class="node">
<title>ModelEntity</title>
<g id="a_node7"><a xlink:href="../pyVHDLModel/pyVHDLModel.VHDLModel.html#pyVHDLModel.VHDLModel.ModelEntity" xlink:title="``ModelEntity`` is a base class for all classes in the VHDL language model," target="_top">
<polygon fill="#ffffff" stroke="#000000" stroke-width=".5" points="106.5,-19 7.5,-19 7.5,0 106.5,0 106.5,-19"/>
<text text-anchor="middle" x="57" y="-7" font-family="Vera Sans, DejaVu Sans, Liberation Sans, Arial, Helvetica, sans" font-size="10.00" fill="#000000">ModelEntity</text>
</a>
</g>
</g>
<!-- ModelEntity&#45;&gt;Statement -->
<g id="edge5" class="edge">
<title>ModelEntity&#45;&gt;Statement</title>
<path fill="none" stroke="#000000" stroke-width=".5" d="M106.5024,-16.1003C118.8814,-17.7508 132.1315,-19.5175 144.4152,-21.1554"/>
<polygon fill="#000000" stroke="#000000" stroke-width=".5" points="144.4276,-22.9224 149.6151,-21.8487 144.8903,-19.4531 144.4276,-22.9224"/>
</g>
<!-- Statement&#45;&gt;SequentialStatement -->
<g id="edge4" class="edge">
<title>Statement&#45;&gt;SequentialStatement</title>
<path fill="none" stroke="#000000" stroke-width=".5" d="M234.2071,-27.5C243.6822,-27.5 254.0641,-27.5 264.5937,-27.5"/>
<polygon fill="#000000" stroke="#000000" stroke-width=".5" points="264.7713,-29.2501 269.7713,-27.5 264.7713,-25.7501 264.7713,-29.2501"/>
</g>
</g>
</svg>
