<?xml version="1.0" encoding="UTF-8" standalone="no"?>
<!DOCTYPE svg PUBLIC "-//W3C//DTD SVG 1.1//EN"
 "http://www.w3.org/Graphics/SVG/1.1/DTD/svg11.dtd">
<!-- Generated by graphviz version 2.40.1 (0)
 -->
<!-- Title: inheritanced3f9905166 Pages: 1 -->
<svg width="400pt" height="27pt"
 viewBox="0.00 0.00 400.00 27.00" xmlns="http://www.w3.org/2000/svg" xmlns:xlink="http://www.w3.org/1999/xlink">
<g id="graph0" class="graph" transform="scale(1 1) rotate(0) translate(4 23)">
<title>inheritanced3f9905166</title>
<!-- ConfigurationSymbol -->
<g id="node1" class="node">
<title>ConfigurationSymbol</title>
<g id="a_node1"><a xlink:href="../pyVHDLModel/pyVHDLModel.VHDLModel.html#pyVHDLModel.VHDLModel.ConfigurationSymbol" xlink:title="ConfigurationSymbol" target="_top">
<polygon fill="#ffffff" stroke="#000000" stroke-width=".5" points="392,-19 233,-19 233,0 392,0 392,-19"/>
<text text-anchor="middle" x="312.5" y="-7" font-family="Vera Sans, DejaVu Sans, Liberation Sans, Arial, Helvetica, sans" font-size="10.00" fill="#000000">ConfigurationSymbol</text>
</a>
</g>
</g>
<!-- Symbol -->
<g id="node2" class="node">
<title>Symbol</title>
<g id="a_node2"><a xlink:href="../pyVHDLModel/pyVHDLModel.VHDLModel.html#pyVHDLModel.VHDLModel.Symbol" xlink:title="Symbol" target="_top">
<polygon fill="#ffffff" stroke="#000000" stroke-width=".5" points="197,-19 135,-19 135,0 197,0 197,-19"/>
<text text-anchor="middle" x="166" y="-7" font-family="Vera Sans, DejaVu Sans, Liberation Sans, Arial, Helvetica, sans" font-size="10.00" fill="#000000">Symbol</text>
</a>
</g>
</g>
<!-- Symbol&#45;&gt;ConfigurationSymbol -->
<g id="edge1" class="edge">
<title>Symbol&#45;&gt;ConfigurationSymbol</title>
<path fill="none" stroke="#000000" stroke-width=".5" d="M197.0689,-9.5C206.3191,-9.5 216.9308,-9.5 227.8902,-9.5"/>
<polygon fill="#000000" stroke="#000000" stroke-width=".5" points="227.9464,-11.2501 232.9464,-9.5 227.9463,-7.7501 227.9464,-11.2501"/>
</g>
<!-- ModelEntity -->
<g id="node3" class="node">
<title>ModelEntity</title>
<g id="a_node3"><a xlink:href="../pyVHDLModel/pyVHDLModel.VHDLModel.html#pyVHDLModel.VHDLModel.ModelEntity" xlink:title="``ModelEntity`` is a base class for all classes in the VHDL language model," target="_top">
<polygon fill="#ffffff" stroke="#000000" stroke-width=".5" points="99,-19 0,-19 0,0 99,0 99,-19"/>
<text text-anchor="middle" x="49.5" y="-7" font-family="Vera Sans, DejaVu Sans, Liberation Sans, Arial, Helvetica, sans" font-size="10.00" fill="#000000">ModelEntity</text>
</a>
</g>
</g>
<!-- ModelEntity&#45;&gt;Symbol -->
<g id="edge2" class="edge">
<title>ModelEntity&#45;&gt;Symbol</title>
<path fill="none" stroke="#000000" stroke-width=".5" d="M99.2444,-9.5C109.4719,-9.5 120.057,-9.5 129.7016,-9.5"/>
<polygon fill="#000000" stroke="#000000" stroke-width=".5" points="129.9547,-11.2501 134.9547,-9.5 129.9546,-7.7501 129.9547,-11.2501"/>
</g>
</g>
</svg>
