<?xml version="1.0" encoding="UTF-8" standalone="no"?>
<!DOCTYPE svg PUBLIC "-//W3C//DTD SVG 1.1//EN"
 "http://www.w3.org/Graphics/SVG/1.1/DTD/svg11.dtd">
<!-- Generated by graphviz version 2.40.1 (0)
 -->
<!-- Title: inheritance9f8074caf4 Pages: 1 -->
<svg width="576pt" height="68pt"
 viewBox="0.00 0.00 576.00 68.16" xmlns="http://www.w3.org/2000/svg" xmlns:xlink="http://www.w3.org/1999/xlink">
<g id="graph0" class="graph" transform="scale(.8312 .8312) rotate(0) translate(4 78)">
<title>inheritance9f8074caf4</title>
<!-- Assignment -->
<g id="node1" class="node">
<title>Assignment</title>
<g id="a_node1"><a xlink:href="../pyVHDLModel/pyVHDLModel.VHDLModel.html#pyVHDLModel.VHDLModel.Assignment" xlink:title="An ``Assignment`` is a base&#45;class for all assignment statements." target="_top">
<polygon fill="#ffffff" stroke="#000000" stroke-width=".5" points="242,-74 150,-74 150,-55 242,-55 242,-74"/>
<text text-anchor="middle" x="196" y="-62" font-family="Vera Sans, DejaVu Sans, Liberation Sans, Arial, Helvetica, sans" font-size="10.00" fill="#000000">Assignment</text>
</a>
</g>
</g>
<!-- SignalAssignment -->
<g id="node6" class="node">
<title>SignalAssignment</title>
<g id="a_node6"><a xlink:href="../pyVHDLModel/pyVHDLModel.VHDLModel.html#pyVHDLModel.VHDLModel.SignalAssignment" xlink:title="An ``SignalAssignment`` is a base&#45;class for all signal assignment statements." target="_top">
<polygon fill="#ffffff" stroke="#000000" stroke-width=".5" points="426,-74 289,-74 289,-55 426,-55 426,-74"/>
<text text-anchor="middle" x="357.5" y="-62" font-family="Vera Sans, DejaVu Sans, Liberation Sans, Arial, Helvetica, sans" font-size="10.00" fill="#000000">SignalAssignment</text>
</a>
</g>
</g>
<!-- Assignment&#45;&gt;SignalAssignment -->
<g id="edge4" class="edge">
<title>Assignment&#45;&gt;SignalAssignment</title>
<path fill="none" stroke="#000000" stroke-width=".5" d="M242.2794,-64.5C255.2296,-64.5 269.636,-64.5 283.7546,-64.5"/>
<polygon fill="#000000" stroke="#000000" stroke-width=".5" points="283.94,-66.2501 288.9399,-64.5 283.9399,-62.7501 283.94,-66.2501"/>
</g>
<!-- LabeledEntity -->
<g id="node2" class="node">
<title>LabeledEntity</title>
<g id="a_node2"><a xlink:href="../pyVHDLModel/pyVHDLModel.VHDLModel.html#pyVHDLModel.VHDLModel.LabeledEntity" xlink:title="A ``LabeledEntity`` is a mixin class for all VHDL entities that can have" target="_top">
<polygon fill="#ffffff" stroke="#000000" stroke-width=".5" points="114,-56 0,-56 0,-37 114,-37 114,-56"/>
<text text-anchor="middle" x="57" y="-44" font-family="Vera Sans, DejaVu Sans, Liberation Sans, Arial, Helvetica, sans" font-size="10.00" fill="#000000">LabeledEntity</text>
</a>
</g>
</g>
<!-- Statement -->
<g id="node7" class="node">
<title>Statement</title>
<g id="a_node7"><a xlink:href="../pyVHDLModel/pyVHDLModel.VHDLModel.html#pyVHDLModel.VHDLModel.Statement" xlink:title="Statement" target="_top">
<polygon fill="#ffffff" stroke="#000000" stroke-width=".5" points="238,-37 154,-37 154,-18 238,-18 238,-37"/>
<text text-anchor="middle" x="196" y="-25" font-family="Vera Sans, DejaVu Sans, Liberation Sans, Arial, Helvetica, sans" font-size="10.00" fill="#000000">Statement</text>
</a>
</g>
</g>
<!-- LabeledEntity&#45;&gt;Statement -->
<g id="edge6" class="edge">
<title>LabeledEntity&#45;&gt;Statement</title>
<path fill="none" stroke="#000000" stroke-width=".5" d="M114.3391,-38.6623C125.753,-37.1021 137.6184,-35.4802 148.652,-33.972"/>
<polygon fill="#000000" stroke="#000000" stroke-width=".5" points="148.9415,-35.6988 153.6584,-33.2877 148.4674,-32.2311 148.9415,-35.6988"/>
</g>
<!-- ModelEntity -->
<g id="node3" class="node">
<title>ModelEntity</title>
<g id="a_node3"><a xlink:href="../pyVHDLModel/pyVHDLModel.VHDLModel.html#pyVHDLModel.VHDLModel.ModelEntity" xlink:title="``ModelEntity`` is a base class for all classes in the VHDL language model," target="_top">
<polygon fill="#ffffff" stroke="#000000" stroke-width=".5" points="106.5,-19 7.5,-19 7.5,0 106.5,0 106.5,-19"/>
<text text-anchor="middle" x="57" y="-7" font-family="Vera Sans, DejaVu Sans, Liberation Sans, Arial, Helvetica, sans" font-size="10.00" fill="#000000">ModelEntity</text>
</a>
</g>
</g>
<!-- ModelEntity&#45;&gt;Statement -->
<g id="edge5" class="edge">
<title>ModelEntity&#45;&gt;Statement</title>
<path fill="none" stroke="#000000" stroke-width=".5" d="M106.7896,-15.9476C120.4062,-17.7109 135.1232,-19.6167 148.6022,-21.3622"/>
<polygon fill="#000000" stroke="#000000" stroke-width=".5" points="148.7157,-23.1414 153.899,-22.0481 149.1652,-19.6704 148.7157,-23.1414"/>
</g>
<!-- SequentialSignalAssignment -->
<g id="node4" class="node">
<title>SequentialSignalAssignment</title>
<g id="a_node4"><a xlink:href="../pyVHDLModel/pyVHDLModel.VHDLModel.html#pyVHDLModel.VHDLModel.SequentialSignalAssignment" xlink:title="SequentialSignalAssignment" target="_top">
<polygon fill="#ffffff" stroke="#000000" stroke-width=".5" points="685,-55 473,-55 473,-36 685,-36 685,-55"/>
<text text-anchor="middle" x="579" y="-43" font-family="Vera Sans, DejaVu Sans, Liberation Sans, Arial, Helvetica, sans" font-size="10.00" fill="#000000">SequentialSignalAssignment</text>
</a>
</g>
</g>
<!-- SequentialStatement -->
<g id="node5" class="node">
<title>SequentialStatement</title>
<g id="a_node5"><a xlink:href="../pyVHDLModel/pyVHDLModel.VHDLModel.html#pyVHDLModel.VHDLModel.SequentialStatement" xlink:title="A ``SequentialStatement`` is a base&#45;class for all sequential statements." target="_top">
<polygon fill="#ffffff" stroke="#000000" stroke-width=".5" points="437,-37 278,-37 278,-18 437,-18 437,-37"/>
<text text-anchor="middle" x="357.5" y="-25" font-family="Vera Sans, DejaVu Sans, Liberation Sans, Arial, Helvetica, sans" font-size="10.00" fill="#000000">SequentialStatement</text>
</a>
</g>
</g>
<!-- SequentialStatement&#45;&gt;SequentialSignalAssignment -->
<g id="edge1" class="edge">
<title>SequentialStatement&#45;&gt;SequentialSignalAssignment</title>
<path fill="none" stroke="#000000" stroke-width=".5" d="M437.1536,-33.973C447.0661,-34.7785 457.3403,-35.6134 467.6216,-36.4489"/>
<polygon fill="#000000" stroke="#000000" stroke-width=".5" points="467.5425,-38.1982 472.6679,-36.859 467.8261,-34.7097 467.5425,-38.1982"/>
</g>
<!-- SignalAssignment&#45;&gt;SequentialSignalAssignment -->
<g id="edge2" class="edge">
<title>SignalAssignment&#45;&gt;SequentialSignalAssignment</title>
<path fill="none" stroke="#000000" stroke-width=".5" d="M426.0671,-58.6184C439.3066,-57.4827 453.4918,-56.2659 467.6892,-55.0481"/>
<polygon fill="#000000" stroke="#000000" stroke-width=".5" points="468.0865,-56.7705 472.9186,-54.5995 467.7873,-53.2833 468.0865,-56.7705"/>
</g>
<!-- Statement&#45;&gt;SequentialStatement -->
<g id="edge3" class="edge">
<title>Statement&#45;&gt;SequentialStatement</title>
<path fill="none" stroke="#000000" stroke-width=".5" d="M238.0106,-27.5C248.7235,-27.5 260.6286,-27.5 272.6551,-27.5"/>
<polygon fill="#000000" stroke="#000000" stroke-width=".5" points="272.8137,-29.2501 277.8136,-27.5 272.8136,-25.7501 272.8137,-29.2501"/>
</g>
</g>
</svg>
