<?xml version="1.0" encoding="UTF-8" standalone="no"?>
<!DOCTYPE svg PUBLIC "-//W3C//DTD SVG 1.1//EN"
 "http://www.w3.org/Graphics/SVG/1.1/DTD/svg11.dtd">
<!-- Generated by graphviz version 2.40.1 (0)
 -->
<!-- Title: inheritanceab30f1ce04 Pages: 1 -->
<svg width="576pt" height="73pt"
 viewBox="0.00 0.00 576.00 72.90" xmlns="http://www.w3.org/2000/svg" xmlns:xlink="http://www.w3.org/1999/xlink">
<g id="graph0" class="graph" transform="scale(.7218 .7218) rotate(0) translate(4 97)">
<title>inheritanceab30f1ce04</title>
<!-- InterfaceItem -->
<g id="node1" class="node">
<title>InterfaceItem</title>
<g id="a_node1"><a xlink:href="../pyVHDLModel/pyVHDLModel.VHDLModel.html#pyVHDLModel.VHDLModel.InterfaceItem" xlink:title="An ``InterfaceItem`` is a base&#45;class for all mixin&#45;classes for all interface" target="_top">
<polygon fill="#ffffff" stroke="#000000" stroke-width=".5" points="279,-93 165,-93 165,-74 279,-74 279,-93"/>
<text text-anchor="middle" x="222" y="-81" font-family="Vera Sans, DejaVu Sans, Liberation Sans, Arial, Helvetica, sans" font-size="10.00" fill="#000000">InterfaceItem</text>
</a>
</g>
</g>
<!-- ParameterInterfaceItem -->
<g id="node5" class="node">
<title>ParameterInterfaceItem</title>
<g id="a_node5"><a xlink:href="../pyVHDLModel/pyVHDLModel.VHDLModel.html#pyVHDLModel.VHDLModel.ParameterInterfaceItem" xlink:title="A ``ParameterInterfaceItem`` is a mixin class for all parameter interface items." target="_top">
<polygon fill="#ffffff" stroke="#000000" stroke-width=".5" points="527,-93 345,-93 345,-74 527,-74 527,-93"/>
<text text-anchor="middle" x="436" y="-81" font-family="Vera Sans, DejaVu Sans, Liberation Sans, Arial, Helvetica, sans" font-size="10.00" fill="#000000">ParameterInterfaceItem</text>
</a>
</g>
</g>
<!-- InterfaceItem&#45;&gt;ParameterInterfaceItem -->
<g id="edge3" class="edge">
<title>InterfaceItem&#45;&gt;ParameterInterfaceItem</title>
<path fill="none" stroke="#000000" stroke-width=".5" d="M279.067,-83.5C297.6724,-83.5 318.8744,-83.5 339.5461,-83.5"/>
<polygon fill="#000000" stroke="#000000" stroke-width=".5" points="339.7884,-85.2501 344.7883,-83.5 339.7883,-81.7501 339.7884,-85.2501"/>
</g>
<!-- ModelEntity -->
<g id="node2" class="node">
<title>ModelEntity</title>
<g id="a_node2"><a xlink:href="../pyVHDLModel/pyVHDLModel.VHDLModel.html#pyVHDLModel.VHDLModel.ModelEntity" xlink:title="``ModelEntity`` is a base class for all classes in the VHDL language model," target="_top">
<polygon fill="#ffffff" stroke="#000000" stroke-width=".5" points="99,-74 0,-74 0,-55 99,-55 99,-74"/>
<text text-anchor="middle" x="49.5" y="-62" font-family="Vera Sans, DejaVu Sans, Liberation Sans, Arial, Helvetica, sans" font-size="10.00" fill="#000000">ModelEntity</text>
</a>
</g>
</g>
<!-- Object -->
<g id="node4" class="node">
<title>Object</title>
<g id="a_node4"><a xlink:href="../pyVHDLModel/pyVHDLModel.VHDLModel.html#pyVHDLModel.VHDLModel.Object" xlink:title="Object" target="_top">
<polygon fill="#ffffff" stroke="#000000" stroke-width=".5" points="253,-56 191,-56 191,-37 253,-37 253,-56"/>
<text text-anchor="middle" x="222" y="-44" font-family="Vera Sans, DejaVu Sans, Liberation Sans, Arial, Helvetica, sans" font-size="10.00" fill="#000000">Object</text>
</a>
</g>
</g>
<!-- ModelEntity&#45;&gt;Object -->
<g id="edge1" class="edge">
<title>ModelEntity&#45;&gt;Object</title>
<path fill="none" stroke="#000000" stroke-width=".5" d="M99.3941,-59.2937C126.9842,-56.4147 160.6495,-52.9018 185.718,-50.2859"/>
<polygon fill="#000000" stroke="#000000" stroke-width=".5" points="186.1403,-52.0015 190.9316,-49.7419 185.777,-48.5204 186.1403,-52.0015"/>
</g>
<!-- NamedEntity -->
<g id="node3" class="node">
<title>NamedEntity</title>
<g id="a_node3"><a xlink:href="../pyVHDLModel/pyVHDLModel.VHDLModel.html#pyVHDLModel.VHDLModel.NamedEntity" xlink:title="A ``NamedEntity`` is a mixin class for all VHDL entities that have names." target="_top">
<polygon fill="#ffffff" stroke="#000000" stroke-width=".5" points="99,-37 0,-37 0,-18 99,-18 99,-37"/>
<text text-anchor="middle" x="49.5" y="-25" font-family="Vera Sans, DejaVu Sans, Liberation Sans, Arial, Helvetica, sans" font-size="10.00" fill="#000000">NamedEntity</text>
</a>
</g>
</g>
<!-- NamedEntity&#45;&gt;Object -->
<g id="edge2" class="edge">
<title>NamedEntity&#45;&gt;Object</title>
<path fill="none" stroke="#000000" stroke-width=".5" d="M99.3941,-32.9956C126.9842,-36.0345 160.6495,-39.7425 185.718,-42.5037"/>
<polygon fill="#000000" stroke="#000000" stroke-width=".5" points="185.7701,-44.27 190.9316,-43.078 186.1533,-40.791 185.7701,-44.27"/>
</g>
<!-- Signal -->
<g id="node7" class="node">
<title>Signal</title>
<g id="a_node7"><a xlink:href="../pyVHDLModel/pyVHDLModel.VHDLModel.html#pyVHDLModel.VHDLModel.Signal" xlink:title="Signal" target="_top">
<polygon fill="#ffffff" stroke="#000000" stroke-width=".5" points="467,-56 405,-56 405,-37 467,-37 467,-56"/>
<text text-anchor="middle" x="436" y="-44" font-family="Vera Sans, DejaVu Sans, Liberation Sans, Arial, Helvetica, sans" font-size="10.00" fill="#000000">Signal</text>
</a>
</g>
</g>
<!-- Object&#45;&gt;Signal -->
<g id="edge6" class="edge">
<title>Object&#45;&gt;Signal</title>
<path fill="none" stroke="#000000" stroke-width=".5" d="M253.1174,-46.5C292.0262,-46.5 358.5156,-46.5 399.7032,-46.5"/>
<polygon fill="#000000" stroke="#000000" stroke-width=".5" points="399.845,-48.2501 404.845,-46.5 399.845,-44.7501 399.845,-48.2501"/>
</g>
<!-- ParameterSignalInterfaceItem -->
<g id="node6" class="node">
<title>ParameterSignalInterfaceItem</title>
<g id="a_node6"><a xlink:href="../pyVHDLModel/pyVHDLModel.VHDLModel.html#pyVHDLModel.VHDLModel.ParameterSignalInterfaceItem" xlink:title="ParameterSignalInterfaceItem" target="_top">
<polygon fill="#ffffff" stroke="#000000" stroke-width=".5" points="790,-74 563,-74 563,-55 790,-55 790,-74"/>
<text text-anchor="middle" x="676.5" y="-62" font-family="Vera Sans, DejaVu Sans, Liberation Sans, Arial, Helvetica, sans" font-size="10.00" fill="#000000">ParameterSignalInterfaceItem</text>
</a>
</g>
</g>
<!-- ParameterInterfaceItem&#45;&gt;ParameterSignalInterfaceItem -->
<g id="edge5" class="edge">
<title>ParameterInterfaceItem&#45;&gt;ParameterSignalInterfaceItem</title>
<path fill="none" stroke="#000000" stroke-width=".5" d="M527.2657,-76.2898C537.2007,-75.5049 547.4164,-74.6979 557.6189,-73.8919"/>
<polygon fill="#000000" stroke="#000000" stroke-width=".5" points="557.7785,-75.6348 562.6251,-73.4964 557.5028,-72.1457 557.7785,-75.6348"/>
</g>
<!-- Signal&#45;&gt;ParameterSignalInterfaceItem -->
<g id="edge4" class="edge">
<title>Signal&#45;&gt;ParameterSignalInterfaceItem</title>
<path fill="none" stroke="#000000" stroke-width=".5" d="M467.4412,-48.8532C490.767,-50.599 524.1659,-53.0987 557.443,-55.5893"/>
<polygon fill="#000000" stroke="#000000" stroke-width=".5" points="557.6644,-57.3607 562.7811,-55.9888 557.9257,-53.8704 557.6644,-57.3607"/>
</g>
<!-- WithDefaultExpression -->
<g id="node8" class="node">
<title>WithDefaultExpression</title>
<g id="a_node8"><a xlink:href="../pyVHDLModel/pyVHDLModel.VHDLModel.html#pyVHDLModel.VHDLModel.WithDefaultExpression" xlink:title="A ``WithDefaultExpression`` is a mixin class for all objects declarations" target="_top">
<polygon fill="#ffffff" stroke="#000000" stroke-width=".5" points="309,-19 135,-19 135,0 309,0 309,-19"/>
<text text-anchor="middle" x="222" y="-7" font-family="Vera Sans, DejaVu Sans, Liberation Sans, Arial, Helvetica, sans" font-size="10.00" fill="#000000">WithDefaultExpression</text>
</a>
</g>
</g>
<!-- WithDefaultExpression&#45;&gt;Signal -->
<g id="edge7" class="edge">
<title>WithDefaultExpression&#45;&gt;Signal</title>
<path fill="none" stroke="#000000" stroke-width=".5" d="M277.1103,-19.0284C315.6675,-25.6948 366.0858,-34.412 399.6823,-40.2208"/>
<polygon fill="#000000" stroke="#000000" stroke-width=".5" points="399.7004,-41.9998 404.9255,-41.1273 400.2967,-38.551 399.7004,-41.9998"/>
</g>
</g>
</svg>
