<?xml version="1.0" encoding="UTF-8" standalone="no"?>
<!DOCTYPE svg PUBLIC "-//W3C//DTD SVG 1.1//EN"
 "http://www.w3.org/Graphics/SVG/1.1/DTD/svg11.dtd">
<!-- Generated by graphviz version 2.40.1 (0)
 -->
<!-- Title: inheritance71fa07082e Pages: 1 -->
<svg width="370pt" height="64pt"
 viewBox="0.00 0.00 370.00 64.00" xmlns="http://www.w3.org/2000/svg" xmlns:xlink="http://www.w3.org/1999/xlink">
<g id="graph0" class="graph" transform="scale(1 1) rotate(0) translate(4 60)">
<title>inheritance71fa07082e</title>
<!-- DesignUnit -->
<g id="node1" class="node">
<title>DesignUnit</title>
<g id="a_node1"><a xlink:href="../pyVHDLModel/pyVHDLModel.VHDLModel.html#pyVHDLModel.VHDLModel.DesignUnit" xlink:title="A ``DesignUnit`` is a base&#45;class for all design units." target="_top">
<polygon fill="#ffffff" stroke="#000000" stroke-width=".5" points="227,-37 135,-37 135,-18 227,-18 227,-37"/>
<text text-anchor="middle" x="181" y="-25" font-family="Vera Sans, DejaVu Sans, Liberation Sans, Arial, Helvetica, sans" font-size="10.00" fill="#000000">DesignUnit</text>
</a>
</g>
</g>
<!-- PrimaryUnit -->
<g id="node4" class="node">
<title>PrimaryUnit</title>
<g id="a_node4"><a xlink:href="../pyVHDLModel/pyVHDLModel.VHDLModel.html#pyVHDLModel.VHDLModel.PrimaryUnit" xlink:title="A ``PrimaryUnit`` is a base&#45;class for all primary units." target="_top">
<polygon fill="#ffffff" stroke="#000000" stroke-width=".5" points="362,-37 263,-37 263,-18 362,-18 362,-37"/>
<text text-anchor="middle" x="312.5" y="-25" font-family="Vera Sans, DejaVu Sans, Liberation Sans, Arial, Helvetica, sans" font-size="10.00" fill="#000000">PrimaryUnit</text>
</a>
</g>
</g>
<!-- DesignUnit&#45;&gt;PrimaryUnit -->
<g id="edge3" class="edge">
<title>DesignUnit&#45;&gt;PrimaryUnit</title>
<path fill="none" stroke="#000000" stroke-width=".5" d="M227.362,-27.5C237.1851,-27.5 247.6422,-27.5 257.7431,-27.5"/>
<polygon fill="#000000" stroke="#000000" stroke-width=".5" points="257.9875,-29.2501 262.9875,-27.5 257.9875,-25.7501 257.9875,-29.2501"/>
</g>
<!-- ModelEntity -->
<g id="node2" class="node">
<title>ModelEntity</title>
<g id="a_node2"><a xlink:href="../pyVHDLModel/pyVHDLModel.VHDLModel.html#pyVHDLModel.VHDLModel.ModelEntity" xlink:title="``ModelEntity`` is a base class for all classes in the VHDL language model," target="_top">
<polygon fill="#ffffff" stroke="#000000" stroke-width=".5" points="99,-56 0,-56 0,-37 99,-37 99,-56"/>
<text text-anchor="middle" x="49.5" y="-44" font-family="Vera Sans, DejaVu Sans, Liberation Sans, Arial, Helvetica, sans" font-size="10.00" fill="#000000">ModelEntity</text>
</a>
</g>
</g>
<!-- ModelEntity&#45;&gt;DesignUnit -->
<g id="edge1" class="edge">
<title>ModelEntity&#45;&gt;DesignUnit</title>
<path fill="none" stroke="#000000" stroke-width=".5" d="M99.2145,-39.3169C109.1242,-37.8851 119.5514,-36.3785 129.5189,-34.9383"/>
<polygon fill="#000000" stroke="#000000" stroke-width=".5" points="129.9859,-36.6391 134.6843,-34.192 129.4854,-33.1751 129.9859,-36.6391"/>
</g>
<!-- NamedEntity -->
<g id="node3" class="node">
<title>NamedEntity</title>
<g id="a_node3"><a xlink:href="../pyVHDLModel/pyVHDLModel.VHDLModel.html#pyVHDLModel.VHDLModel.NamedEntity" xlink:title="A ``NamedEntity`` is a mixin class for all VHDL entities that have names." target="_top">
<polygon fill="#ffffff" stroke="#000000" stroke-width=".5" points="99,-19 0,-19 0,0 99,0 99,-19"/>
<text text-anchor="middle" x="49.5" y="-7" font-family="Vera Sans, DejaVu Sans, Liberation Sans, Arial, Helvetica, sans" font-size="10.00" fill="#000000">NamedEntity</text>
</a>
</g>
</g>
<!-- NamedEntity&#45;&gt;DesignUnit -->
<g id="edge2" class="edge">
<title>NamedEntity&#45;&gt;DesignUnit</title>
<path fill="none" stroke="#000000" stroke-width=".5" d="M99.2145,-16.305C109.1242,-17.6615 119.5514,-19.0888 129.5189,-20.4532"/>
<polygon fill="#000000" stroke="#000000" stroke-width=".5" points="129.4931,-22.2159 134.6843,-21.1602 129.9678,-18.7482 129.4931,-22.2159"/>
</g>
</g>
</svg>
