<?xml version="1.0" encoding="UTF-8" standalone="no"?>
<!DOCTYPE svg PUBLIC "-//W3C//DTD SVG 1.1//EN"
 "http://www.w3.org/Graphics/SVG/1.1/DTD/svg11.dtd">
<!-- Generated by graphviz version 2.40.1 (0)
 -->
<!-- Title: inheritance044cb41eb3 Pages: 1 -->
<svg width="576pt" height="194pt"
 viewBox="0.00 0.00 576.00 194.38" xmlns="http://www.w3.org/2000/svg" xmlns:xlink="http://www.w3.org/1999/xlink">
<g id="graph0" class="graph" transform="scale(.528 .528) rotate(0) translate(4 364.1727)">
<title>inheritance044cb41eb3</title>
<!-- BaseConstant -->
<g id="node1" class="node">
<title>BaseConstant</title>
<g id="a_node1"><a xlink:href="../../pyVHDLModel/pyVHDLModel.VHDLModel.html#pyVHDLModel.VHDLModel.BaseConstant" xlink:title="BaseConstant" target="_top">
<polygon fill="#ffffff" stroke="#000000" stroke-width=".5" points="489.5,-43.1727 382.5,-43.1727 382.5,-24.1727 489.5,-24.1727 489.5,-43.1727"/>
<text text-anchor="middle" x="436" y="-31.1727" font-family="Vera Sans, DejaVu Sans, Liberation Sans, Arial, Helvetica, sans" font-size="10.00" fill="#000000">BaseConstant</text>
</a>
</g>
</g>
<!-- Constant -->
<g id="node3" class="node">
<title>Constant</title>
<g id="a_node3"><a xlink:href="../../pyVHDLModel/pyVHDLModel.VHDLModel.html#pyVHDLModel.VHDLModel.Constant" xlink:title="Constant" target="_top">
<polygon fill="#ffffff" stroke="#000000" stroke-width=".5" points="722.5,-23.1727 645.5,-23.1727 645.5,-4.1727 722.5,-4.1727 722.5,-23.1727"/>
<text text-anchor="middle" x="684" y="-11.1727" font-family="Vera Sans, DejaVu Sans, Liberation Sans, Arial, Helvetica, sans" font-size="10.00" fill="#000000">Constant</text>
</a>
</g>
</g>
<!-- BaseConstant&#45;&gt;Constant -->
<g id="edge2" class="edge">
<title>BaseConstant&#45;&gt;Constant</title>
<path fill="none" stroke="#000000" stroke-width=".5" d="M489.507,-29.3576C534.5243,-25.7272 598.1032,-20.5999 640.1569,-17.2085"/>
<polygon fill="#000000" stroke="#000000" stroke-width=".5" points="640.3329,-18.95 645.176,-16.8037 640.0515,-15.4614 640.3329,-18.95"/>
</g>
<!-- Object -->
<g id="node2" class="node">
<title>Object</title>
<g id="a_node2"><a xlink:href="../../pyVHDLModel/pyVHDLModel.VHDLModel.html#pyVHDLModel.VHDLModel.Object" xlink:title="Object" target="_top">
<polygon fill="#ffffff" stroke="#000000" stroke-width=".5" points="253,-131.1727 191,-131.1727 191,-112.1727 253,-112.1727 253,-131.1727"/>
<text text-anchor="middle" x="222" y="-119.1727" font-family="Vera Sans, DejaVu Sans, Liberation Sans, Arial, Helvetica, sans" font-size="10.00" fill="#000000">Object</text>
</a>
</g>
</g>
<!-- Object&#45;&gt;BaseConstant -->
<g id="edge1" class="edge">
<title>Object&#45;&gt;BaseConstant</title>
<path fill="none" stroke="#000000" stroke-width=".5" d="M253.3551,-113.4263C270.642,-108.0101 291.9835,-99.8413 309,-88.6727 328.1813,-76.0832 324.834,-62.6159 345,-51.6727 354.8199,-46.3439 366.0005,-42.5813 377.083,-39.9275"/>
<polygon fill="#000000" stroke="#000000" stroke-width=".5" points="377.669,-41.5895 382.1629,-38.7845 376.9007,-38.1748 377.669,-41.5895"/>
</g>
<!-- File -->
<g id="node5" class="node">
<title>File</title>
<g id="a_node5"><a xlink:href="../../pyVHDLModel/pyVHDLModel.VHDLModel.html#pyVHDLModel.VHDLModel.File" xlink:title="File" target="_top">
<polygon fill="#ffffff" stroke="#000000" stroke-width=".5" points="463,-228.1727 409,-228.1727 409,-209.1727 463,-209.1727 463,-228.1727"/>
<text text-anchor="middle" x="436" y="-216.1727" font-family="Vera Sans, DejaVu Sans, Liberation Sans, Arial, Helvetica, sans" font-size="10.00" fill="#000000">File</text>
</a>
</g>
</g>
<!-- Object&#45;&gt;File -->
<g id="edge4" class="edge">
<title>Object&#45;&gt;File</title>
<path fill="none" stroke="#000000" stroke-width=".5" d="M248.4571,-131.2446C266.4271,-138.4205 290.2429,-149.2891 309,-162.6727 327.6769,-175.9992 324.8921,-188.6233 345,-199.6727 362.9712,-209.548 385.5191,-214.3011 403.6742,-216.5838"/>
<polygon fill="#000000" stroke="#000000" stroke-width=".5" points="403.5023,-218.3255 408.6709,-217.1643 403.9063,-214.8489 403.5023,-218.3255"/>
</g>
<!-- Signal -->
<g id="node21" class="node">
<title>Signal</title>
<g id="a_node21"><a xlink:href="../../pyVHDLModel/pyVHDLModel.VHDLModel.html#pyVHDLModel.VHDLModel.Signal" xlink:title="Signal" target="_top">
<polygon fill="#ffffff" stroke="#000000" stroke-width=".5" points="467,-80.1727 405,-80.1727 405,-61.1727 467,-61.1727 467,-80.1727"/>
<text text-anchor="middle" x="436" y="-68.1727" font-family="Vera Sans, DejaVu Sans, Liberation Sans, Arial, Helvetica, sans" font-size="10.00" fill="#000000">Signal</text>
</a>
</g>
</g>
<!-- Object&#45;&gt;Signal -->
<g id="edge29" class="edge">
<title>Object&#45;&gt;Signal</title>
<path fill="none" stroke="#000000" stroke-width=".5" d="M253.1989,-112.6838C277.9754,-105.6953 313.5608,-95.9909 345,-88.6727 362.9107,-84.5036 382.9485,-80.4725 399.6523,-77.2858"/>
<polygon fill="#000000" stroke="#000000" stroke-width=".5" points="400.1366,-78.9752 404.7232,-76.3247 399.4847,-75.5364 400.1366,-78.9752"/>
</g>
<!-- Variable -->
<g id="node23" class="node">
<title>Variable</title>
<g id="a_node23"><a xlink:href="../../pyVHDLModel/pyVHDLModel.VHDLModel.html#pyVHDLModel.VHDLModel.Variable" xlink:title="Variable" target="_top">
<polygon fill="#ffffff" stroke="#000000" stroke-width=".5" points="474.5,-117.1727 397.5,-117.1727 397.5,-98.1727 474.5,-98.1727 474.5,-117.1727"/>
<text text-anchor="middle" x="436" y="-105.1727" font-family="Vera Sans, DejaVu Sans, Liberation Sans, Arial, Helvetica, sans" font-size="10.00" fill="#000000">Variable</text>
</a>
</g>
</g>
<!-- Object&#45;&gt;Variable -->
<g id="edge33" class="edge">
<title>Object&#45;&gt;Variable</title>
<path fill="none" stroke="#000000" stroke-width=".5" d="M253.1174,-119.637C289.6917,-117.2443 350.6362,-113.2573 392.0276,-110.5494"/>
<polygon fill="#000000" stroke="#000000" stroke-width=".5" points="392.3527,-112.282 397.2278,-110.2092 392.1242,-108.7895 392.3527,-112.282"/>
</g>
<!-- GenericConstantInterfaceItem -->
<g id="node8" class="node">
<title>GenericConstantInterfaceItem</title>
<g id="a_node8"><a xlink:href="../../pyVHDLModel/pyVHDLModel.VHDLModel.html#pyVHDLModel.VHDLModel.GenericConstantInterfaceItem" xlink:title="GenericConstantInterfaceItem" target="_top">
<polygon fill="#ffffff" stroke="#000000" stroke-width=".5" points="1075.5,-209.1727 848.5,-209.1727 848.5,-190.1727 1075.5,-190.1727 1075.5,-209.1727"/>
<text text-anchor="middle" x="962" y="-197.1727" font-family="Vera Sans, DejaVu Sans, Liberation Sans, Arial, Helvetica, sans" font-size="10.00" fill="#000000">GenericConstantInterfaceItem</text>
</a>
</g>
</g>
<!-- Constant&#45;&gt;GenericConstantInterfaceItem -->
<g id="edge6" class="edge">
<title>Constant&#45;&gt;GenericConstantInterfaceItem</title>
<path fill="none" stroke="#000000" stroke-width=".5" d="M722.6408,-10.5704C748.2935,-10.4903 781.4527,-14.4012 805,-31.6727 834.4916,-53.3043 817.9582,-77.2693 841,-105.6727 869.8327,-141.2146 914.562,-171.4403 940.7984,-187.4425"/>
<polygon fill="#000000" stroke="#000000" stroke-width=".5" points="939.9746,-188.9893 945.1595,-190.0752 941.7834,-185.9929 939.9746,-188.9893"/>
</g>
<!-- ParameterConstantInterfaceItem -->
<g id="node17" class="node">
<title>ParameterConstantInterfaceItem</title>
<g id="a_node17"><a xlink:href="../../pyVHDLModel/pyVHDLModel.VHDLModel.html#pyVHDLModel.VHDLModel.ParameterConstantInterfaceItem" xlink:title="ParameterConstantInterfaceItem" target="_top">
<polygon fill="#ffffff" stroke="#000000" stroke-width=".5" points="1083,-97.1727 841,-97.1727 841,-78.1727 1083,-78.1727 1083,-97.1727"/>
<text text-anchor="middle" x="962" y="-85.1727" font-family="Vera Sans, DejaVu Sans, Liberation Sans, Arial, Helvetica, sans" font-size="10.00" fill="#000000">ParameterConstantInterfaceItem</text>
</a>
</g>
</g>
<!-- Constant&#45;&gt;ParameterConstantInterfaceItem -->
<g id="edge16" class="edge">
<title>Constant&#45;&gt;ParameterConstantInterfaceItem</title>
<path fill="none" stroke="#000000" stroke-width=".5" d="M722.5228,-17.462C746.4836,-20.2958 777.8039,-24.8688 805,-31.6727 851.6342,-43.3397 903.8525,-63.4443 934.773,-76.1241"/>
<polygon fill="#000000" stroke="#000000" stroke-width=".5" points="934.2589,-77.8051 939.5485,-78.093 935.593,-74.5693 934.2589,-77.8051"/>
</g>
<!-- WithDefaultExpression -->
<g id="node4" class="node">
<title>WithDefaultExpression</title>
<g id="a_node4"><a xlink:href="../../pyVHDLModel/pyVHDLModel.VHDLModel.html#pyVHDLModel.VHDLModel.WithDefaultExpression" xlink:title="A ``WithDefaultExpression`` is a mixin class for all objects declarations" target="_top">
<polygon fill="#ffffff" stroke="#000000" stroke-width=".5" points="309,-80.1727 135,-80.1727 135,-61.1727 309,-61.1727 309,-80.1727"/>
<text text-anchor="middle" x="222" y="-68.1727" font-family="Vera Sans, DejaVu Sans, Liberation Sans, Arial, Helvetica, sans" font-size="10.00" fill="#000000">WithDefaultExpression</text>
</a>
</g>
</g>
<!-- WithDefaultExpression&#45;&gt;Constant -->
<g id="edge3" class="edge">
<title>WithDefaultExpression&#45;&gt;Constant</title>
<path fill="none" stroke="#000000" stroke-width=".5" d="M237.5529,-60.9545C260.1816,-47.4441 303.9687,-23.637 345,-14.6727 448.7427,7.9924 574.6444,-.7943 639.9372,-7.9572"/>
<polygon fill="#000000" stroke="#000000" stroke-width=".5" points="640.1347,-9.7401 645.2983,-8.5567 640.5238,-6.2618 640.1347,-9.7401"/>
</g>
<!-- WithDefaultExpression&#45;&gt;Signal -->
<g id="edge30" class="edge">
<title>WithDefaultExpression&#45;&gt;Signal</title>
<path fill="none" stroke="#000000" stroke-width=".5" d="M309.042,-70.6727C340.6955,-70.6727 374.765,-70.6727 399.6338,-70.6727"/>
<polygon fill="#000000" stroke="#000000" stroke-width=".5" points="399.7967,-72.4228 404.7967,-70.6727 399.7967,-68.9228 399.7967,-72.4228"/>
</g>
<!-- WithDefaultExpression&#45;&gt;Variable -->
<g id="edge34" class="edge">
<title>WithDefaultExpression&#45;&gt;Variable</title>
<path fill="none" stroke="#000000" stroke-width=".5" d="M277.1103,-80.2011C312.8462,-86.3798 358.771,-94.32 392.0485,-100.0736"/>
<polygon fill="#000000" stroke="#000000" stroke-width=".5" points="392.0521,-101.8502 397.2772,-100.9777 392.6485,-98.4013 392.0521,-101.8502"/>
</g>
<!-- ParameterFileInterfaceItem -->
<g id="node19" class="node">
<title>ParameterFileInterfaceItem</title>
<g id="a_node19"><a xlink:href="../../pyVHDLModel/pyVHDLModel.VHDLModel.html#pyVHDLModel.VHDLModel.ParameterFileInterfaceItem" xlink:title="ParameterFileInterfaceItem" target="_top">
<polygon fill="#ffffff" stroke="#000000" stroke-width=".5" points="790,-210.1727 578,-210.1727 578,-191.1727 790,-191.1727 790,-210.1727"/>
<text text-anchor="middle" x="684" y="-198.1727" font-family="Vera Sans, DejaVu Sans, Liberation Sans, Arial, Helvetica, sans" font-size="10.00" fill="#000000">ParameterFileInterfaceItem</text>
</a>
</g>
</g>
<!-- File&#45;&gt;ParameterFileInterfaceItem -->
<g id="edge18" class="edge">
<title>File&#45;&gt;ParameterFileInterfaceItem</title>
<path fill="none" stroke="#000000" stroke-width=".5" d="M463.0124,-216.7121C489.5645,-214.785 531.8903,-211.7129 572.4268,-208.7708"/>
<polygon fill="#000000" stroke="#000000" stroke-width=".5" points="573.0142,-210.4828 577.8744,-208.3754 572.7608,-206.992 573.0142,-210.4828"/>
</g>
<!-- Function -->
<g id="node6" class="node">
<title>Function</title>
<g id="a_node6"><a xlink:href="../../pyVHDLModel/pyVHDLModel.VHDLModel.html#pyVHDLModel.VHDLModel.Function" xlink:title="Function" target="_top">
<polygon fill="#ffffff" stroke="#000000" stroke-width=".5" points="474.5,-359.1727 397.5,-359.1727 397.5,-340.1727 474.5,-340.1727 474.5,-359.1727"/>
<text text-anchor="middle" x="436" y="-347.1727" font-family="Vera Sans, DejaVu Sans, Liberation Sans, Arial, Helvetica, sans" font-size="10.00" fill="#000000">Function</text>
</a>
</g>
</g>
<!-- GenericFunctionInterfaceItem -->
<g id="node10" class="node">
<title>GenericFunctionInterfaceItem</title>
<g id="a_node10"><a xlink:href="../../pyVHDLModel/pyVHDLModel.VHDLModel.html#pyVHDLModel.VHDLModel.GenericFunctionInterfaceItem" xlink:title="GenericFunctionInterfaceItem" target="_top">
<polygon fill="#ffffff" stroke="#000000" stroke-width=".5" points="797.5,-360.1727 570.5,-360.1727 570.5,-341.1727 797.5,-341.1727 797.5,-360.1727"/>
<text text-anchor="middle" x="684" y="-348.1727" font-family="Vera Sans, DejaVu Sans, Liberation Sans, Arial, Helvetica, sans" font-size="10.00" fill="#000000">GenericFunctionInterfaceItem</text>
</a>
</g>
</g>
<!-- Function&#45;&gt;GenericFunctionInterfaceItem -->
<g id="edge8" class="edge">
<title>Function&#45;&gt;GenericFunctionInterfaceItem</title>
<path fill="none" stroke="#000000" stroke-width=".5" d="M474.75,-349.829C499.2547,-349.9278 532.3685,-350.0613 565.0177,-350.193"/>
<polygon fill="#000000" stroke="#000000" stroke-width=".5" points="565.2452,-351.9438 570.2523,-350.2141 565.2594,-348.4438 565.2452,-351.9438"/>
</g>
<!-- SubProgramm -->
<g id="node7" class="node">
<title>SubProgramm</title>
<g id="a_node7"><a xlink:href="../../pyVHDLModel/pyVHDLModel.VHDLModel.html#pyVHDLModel.VHDLModel.SubProgramm" xlink:title="SubProgramm" target="_top">
<polygon fill="#ffffff" stroke="#000000" stroke-width=".5" points="271.5,-266.1727 172.5,-266.1727 172.5,-247.1727 271.5,-247.1727 271.5,-266.1727"/>
<text text-anchor="middle" x="222" y="-254.1727" font-family="Vera Sans, DejaVu Sans, Liberation Sans, Arial, Helvetica, sans" font-size="10.00" fill="#000000">SubProgramm</text>
</a>
</g>
</g>
<!-- SubProgramm&#45;&gt;Function -->
<g id="edge5" class="edge">
<title>SubProgramm&#45;&gt;Function</title>
<path fill="none" stroke="#000000" stroke-width=".5" d="M234.4918,-266.3817C255.8761,-282.5034 301.4189,-314.6979 345,-331.6727 359.8307,-337.4493 376.7727,-341.4484 391.9855,-344.1815"/>
<polygon fill="#000000" stroke="#000000" stroke-width=".5" points="391.8479,-345.9336 397.0728,-345.0606 392.4439,-342.4847 391.8479,-345.9336"/>
</g>
<!-- Procedure -->
<g id="node13" class="node">
<title>Procedure</title>
<g id="a_node13"><a xlink:href="../../pyVHDLModel/pyVHDLModel.VHDLModel.html#pyVHDLModel.VHDLModel.Procedure" xlink:title="Procedure" target="_top">
<polygon fill="#ffffff" stroke="#000000" stroke-width=".5" points="478,-322.1727 394,-322.1727 394,-303.1727 478,-303.1727 478,-322.1727"/>
<text text-anchor="middle" x="436" y="-310.1727" font-family="Vera Sans, DejaVu Sans, Liberation Sans, Arial, Helvetica, sans" font-size="10.00" fill="#000000">Procedure</text>
</a>
</g>
</g>
<!-- SubProgramm&#45;&gt;Procedure -->
<g id="edge28" class="edge">
<title>SubProgramm&#45;&gt;Procedure</title>
<path fill="none" stroke="#000000" stroke-width=".5" d="M250.0981,-266.2716C274.8762,-274.5152 312.0628,-286.3515 345,-294.6727 359.0454,-298.2211 374.4558,-301.4983 388.5378,-304.2567"/>
<polygon fill="#000000" stroke="#000000" stroke-width=".5" points="388.4192,-306.0162 393.6608,-305.249 389.0849,-302.5801 388.4192,-306.0162"/>
</g>
<!-- GenericInterfaceItem -->
<g id="node9" class="node">
<title>GenericInterfaceItem</title>
<g id="a_node9"><a xlink:href="../../pyVHDLModel/pyVHDLModel.VHDLModel.html#pyVHDLModel.VHDLModel.GenericInterfaceItem" xlink:title="A ``GenericInterfaceItem`` is a mixin class for all generic interface items." target="_top">
<polygon fill="#ffffff" stroke="#000000" stroke-width=".5" points="519.5,-285.1727 352.5,-285.1727 352.5,-266.1727 519.5,-266.1727 519.5,-285.1727"/>
<text text-anchor="middle" x="436" y="-273.1727" font-family="Vera Sans, DejaVu Sans, Liberation Sans, Arial, Helvetica, sans" font-size="10.00" fill="#000000">GenericInterfaceItem</text>
</a>
</g>
</g>
<!-- GenericInterfaceItem&#45;&gt;GenericConstantInterfaceItem -->
<g id="edge7" class="edge">
<title>GenericInterfaceItem&#45;&gt;GenericConstantInterfaceItem</title>
<path fill="none" stroke="#000000" stroke-width=".5" d="M519.6617,-277.956C595.0185,-278.4057 708.4513,-275.0817 805,-255.6727 852.9365,-246.0361 905.9864,-224.726 936.5186,-211.3493"/>
<polygon fill="#000000" stroke="#000000" stroke-width=".5" points="937.3538,-212.8936 941.2213,-209.2735 935.9404,-209.6917 937.3538,-212.8936"/>
</g>
<!-- GenericInterfaceItem&#45;&gt;GenericFunctionInterfaceItem -->
<g id="edge9" class="edge">
<title>GenericInterfaceItem&#45;&gt;GenericFunctionInterfaceItem</title>
<path fill="none" stroke="#000000" stroke-width=".5" d="M504.7301,-285.2902C512.499,-287.743 520.0947,-290.8181 527,-294.6727 547.3138,-306.0122 542.3651,-321.9287 563,-332.6727 567.9758,-335.2635 573.2129,-337.5112 578.6046,-339.4592"/>
<polygon fill="#000000" stroke="#000000" stroke-width=".5" points="578.2991,-341.2041 583.5964,-341.1651 579.431,-337.8922 578.2991,-341.2041"/>
</g>
<!-- GenericProcedureInterfaceItem -->
<g id="node12" class="node">
<title>GenericProcedureInterfaceItem</title>
<g id="a_node12"><a xlink:href="../../pyVHDLModel/pyVHDLModel.VHDLModel.html#pyVHDLModel.VHDLModel.GenericProcedureInterfaceItem" xlink:title="GenericProcedureInterfaceItem" target="_top">
<polygon fill="#ffffff" stroke="#000000" stroke-width=".5" points="801,-323.1727 567,-323.1727 567,-304.1727 801,-304.1727 801,-323.1727"/>
<text text-anchor="middle" x="684" y="-311.1727" font-family="Vera Sans, DejaVu Sans, Liberation Sans, Arial, Helvetica, sans" font-size="10.00" fill="#000000">GenericProcedureInterfaceItem</text>
</a>
</g>
</g>
<!-- GenericInterfaceItem&#45;&gt;GenericProcedureInterfaceItem -->
<g id="edge12" class="edge">
<title>GenericInterfaceItem&#45;&gt;GenericProcedureInterfaceItem</title>
<path fill="none" stroke="#000000" stroke-width=".5" d="M498.2608,-285.2127C534.2275,-290.7237 579.4981,-297.6603 616.341,-303.3056"/>
<polygon fill="#000000" stroke="#000000" stroke-width=".5" points="616.5062,-305.1013 621.7136,-304.1288 617.0364,-301.6417 616.5062,-305.1013"/>
</g>
<!-- GenericTypeInterfaceItem -->
<g id="node14" class="node">
<title>GenericTypeInterfaceItem</title>
<g id="a_node14"><a xlink:href="../../pyVHDLModel/pyVHDLModel.VHDLModel.html#pyVHDLModel.VHDLModel.GenericTypeInterfaceItem" xlink:title="GenericTypeInterfaceItem" target="_top">
<polygon fill="#ffffff" stroke="#000000" stroke-width=".5" points="782.5,-247.1727 585.5,-247.1727 585.5,-228.1727 782.5,-228.1727 782.5,-247.1727"/>
<text text-anchor="middle" x="684" y="-235.1727" font-family="Vera Sans, DejaVu Sans, Liberation Sans, Arial, Helvetica, sans" font-size="10.00" fill="#000000">GenericTypeInterfaceItem</text>
</a>
</g>
</g>
<!-- GenericInterfaceItem&#45;&gt;GenericTypeInterfaceItem -->
<g id="edge13" class="edge">
<title>GenericInterfaceItem&#45;&gt;GenericTypeInterfaceItem</title>
<path fill="none" stroke="#000000" stroke-width=".5" d="M498.2608,-266.1328C534.2275,-260.6217 579.4981,-253.6851 616.341,-248.0398"/>
<polygon fill="#000000" stroke="#000000" stroke-width=".5" points="617.0364,-249.7038 621.7136,-247.2166 616.5062,-246.2442 617.0364,-249.7038"/>
</g>
<!-- InterfaceItem -->
<g id="node11" class="node">
<title>InterfaceItem</title>
<g id="a_node11"><a xlink:href="../../pyVHDLModel/pyVHDLModel.VHDLModel.html#pyVHDLModel.VHDLModel.InterfaceItem" xlink:title="An ``InterfaceItem`` is a base&#45;class for all mixin&#45;classes for all interface" target="_top">
<polygon fill="#ffffff" stroke="#000000" stroke-width=".5" points="279,-191.1727 165,-191.1727 165,-172.1727 279,-172.1727 279,-191.1727"/>
<text text-anchor="middle" x="222" y="-179.1727" font-family="Vera Sans, DejaVu Sans, Liberation Sans, Arial, Helvetica, sans" font-size="10.00" fill="#000000">InterfaceItem</text>
</a>
</g>
</g>
<!-- InterfaceItem&#45;&gt;GenericInterfaceItem -->
<g id="edge10" class="edge">
<title>InterfaceItem&#45;&gt;GenericInterfaceItem</title>
<path fill="none" stroke="#000000" stroke-width=".5" d="M243.287,-191.3123C267.7755,-202.3734 309.2153,-221.0051 345,-236.6727 366.3005,-245.9987 390.5007,-256.359 408.5878,-264.0562"/>
<polygon fill="#000000" stroke="#000000" stroke-width=".5" points="408.2335,-265.8072 413.5196,-266.1535 409.6033,-262.5863 408.2335,-265.8072"/>
</g>
<!-- ParameterInterfaceItem -->
<g id="node18" class="node">
<title>ParameterInterfaceItem</title>
<g id="a_node18"><a xlink:href="../../pyVHDLModel/pyVHDLModel.VHDLModel.html#pyVHDLModel.VHDLModel.ParameterInterfaceItem" xlink:title="A ``ParameterInterfaceItem`` is a mixin class for all parameter interface items." target="_top">
<polygon fill="#ffffff" stroke="#000000" stroke-width=".5" points="527,-191.1727 345,-191.1727 345,-172.1727 527,-172.1727 527,-191.1727"/>
<text text-anchor="middle" x="436" y="-179.1727" font-family="Vera Sans, DejaVu Sans, Liberation Sans, Arial, Helvetica, sans" font-size="10.00" fill="#000000">ParameterInterfaceItem</text>
</a>
</g>
</g>
<!-- InterfaceItem&#45;&gt;ParameterInterfaceItem -->
<g id="edge20" class="edge">
<title>InterfaceItem&#45;&gt;ParameterInterfaceItem</title>
<path fill="none" stroke="#000000" stroke-width=".5" d="M279.067,-181.6727C297.6724,-181.6727 318.8744,-181.6727 339.5461,-181.6727"/>
<polygon fill="#000000" stroke="#000000" stroke-width=".5" points="339.7884,-183.4228 344.7883,-181.6727 339.7883,-179.9228 339.7884,-183.4228"/>
</g>
<!-- PortInterfaceItem -->
<g id="node24" class="node">
<title>PortInterfaceItem</title>
<g id="a_node24"><a xlink:href="../../pyVHDLModel/pyVHDLModel.VHDLModel.html#pyVHDLModel.VHDLModel.PortInterfaceItem" xlink:title="A ``PortInterfaceItem`` is a mixin class for all port interface items." target="_top">
<polygon fill="#ffffff" stroke="#000000" stroke-width=".5" points="508,-154.1727 364,-154.1727 364,-135.1727 508,-135.1727 508,-154.1727"/>
<text text-anchor="middle" x="436" y="-142.1727" font-family="Vera Sans, DejaVu Sans, Liberation Sans, Arial, Helvetica, sans" font-size="10.00" fill="#000000">PortInterfaceItem</text>
</a>
</g>
</g>
<!-- InterfaceItem&#45;&gt;PortInterfaceItem -->
<g id="edge25" class="edge">
<title>InterfaceItem&#45;&gt;PortInterfaceItem</title>
<path fill="none" stroke="#000000" stroke-width=".5" d="M277.1103,-172.1443C307.197,-166.9424 344.5057,-160.4918 375.4086,-155.1488"/>
<polygon fill="#000000" stroke="#000000" stroke-width=".5" points="376.0762,-156.8094 380.7049,-154.2331 375.4798,-153.3606 376.0762,-156.8094"/>
</g>
<!-- Procedure&#45;&gt;GenericProcedureInterfaceItem -->
<g id="edge11" class="edge">
<title>Procedure&#45;&gt;GenericProcedureInterfaceItem</title>
<path fill="none" stroke="#000000" stroke-width=".5" d="M478.0698,-312.8424C501.3232,-312.9361 531.5342,-313.0579 561.6183,-313.1793"/>
<polygon fill="#000000" stroke="#000000" stroke-width=".5" points="561.8298,-314.93 566.8368,-313.2003 561.844,-311.4301 561.8298,-314.93"/>
</g>
<!-- ModelEntity -->
<g id="node15" class="node">
<title>ModelEntity</title>
<g id="a_node15"><a xlink:href="../../pyVHDLModel/pyVHDLModel.VHDLModel.html#pyVHDLModel.VHDLModel.ModelEntity" xlink:title="``ModelEntity`` is a base class for all classes in the VHDL language model," target="_top">
<polygon fill="#ffffff" stroke="#000000" stroke-width=".5" points="99,-187.1727 0,-187.1727 0,-168.1727 99,-168.1727 99,-187.1727"/>
<text text-anchor="middle" x="49.5" y="-175.1727" font-family="Vera Sans, DejaVu Sans, Liberation Sans, Arial, Helvetica, sans" font-size="10.00" fill="#000000">ModelEntity</text>
</a>
</g>
</g>
<!-- ModelEntity&#45;&gt;Object -->
<g id="edge14" class="edge">
<title>ModelEntity&#45;&gt;Object</title>
<path fill="none" stroke="#000000" stroke-width=".5" d="M79.1538,-168.046C109.328,-158.2503 156.0484,-143.0831 187.7748,-132.7835"/>
<polygon fill="#000000" stroke="#000000" stroke-width=".5" points="188.5178,-134.3823 192.7331,-131.1738 187.4371,-131.0533 188.5178,-134.3823"/>
</g>
<!-- ModelEntity&#45;&gt;SubProgramm -->
<g id="edge31" class="edge">
<title>ModelEntity&#45;&gt;SubProgramm</title>
<path fill="none" stroke="#000000" stroke-width=".5" d="M70.3075,-187.202C101.9087,-201.6744 161.9432,-229.1685 196.2501,-244.88"/>
<polygon fill="#000000" stroke="#000000" stroke-width=".5" points="195.844,-246.6188 201.1187,-247.1097 197.3014,-243.4366 195.844,-246.6188"/>
</g>
<!-- NamedEntity -->
<g id="node16" class="node">
<title>NamedEntity</title>
<g id="a_node16"><a xlink:href="../../pyVHDLModel/pyVHDLModel.VHDLModel.html#pyVHDLModel.VHDLModel.NamedEntity" xlink:title="A ``NamedEntity`` is a mixin class for all VHDL entities that have names." target="_top">
<polygon fill="#ffffff" stroke="#000000" stroke-width=".5" points="99,-252.1727 0,-252.1727 0,-233.1727 99,-233.1727 99,-252.1727"/>
<text text-anchor="middle" x="49.5" y="-240.1727" font-family="Vera Sans, DejaVu Sans, Liberation Sans, Arial, Helvetica, sans" font-size="10.00" fill="#000000">NamedEntity</text>
</a>
</g>
</g>
<!-- NamedEntity&#45;&gt;Object -->
<g id="edge15" class="edge">
<title>NamedEntity&#45;&gt;Object</title>
<path fill="none" stroke="#000000" stroke-width=".5" d="M59.7064,-232.963C81.4723,-212.2783 130.816,-165.5124 135,-162.6727 152.68,-150.6733 174.4237,-140.4254 191.7505,-133.1763"/>
<polygon fill="#000000" stroke="#000000" stroke-width=".5" points="192.5582,-134.7363 196.5134,-131.2122 191.2238,-131.5006 192.5582,-134.7363"/>
</g>
<!-- NamedEntity&#45;&gt;SubProgramm -->
<g id="edge32" class="edge">
<title>NamedEntity&#45;&gt;SubProgramm</title>
<path fill="none" stroke="#000000" stroke-width=".5" d="M99.3941,-246.7221C120.5814,-248.4417 145.3513,-250.452 167.0595,-252.2138"/>
<polygon fill="#000000" stroke="#000000" stroke-width=".5" points="167.0928,-253.9722 172.218,-252.6324 167.376,-250.4836 167.0928,-253.9722"/>
</g>
<!-- ParameterInterfaceItem&#45;&gt;ParameterConstantInterfaceItem -->
<g id="edge17" class="edge">
<title>ParameterInterfaceItem&#45;&gt;ParameterConstantInterfaceItem</title>
<path fill="none" stroke="#000000" stroke-width=".5" d="M527.1821,-177.9167C602.4495,-173.4173 711.6667,-163.6546 805,-142.6727 851.9409,-132.1202 904.2721,-112.0114 935.101,-99.2521"/>
<polygon fill="#000000" stroke="#000000" stroke-width=".5" points="935.9172,-100.8079 939.8601,-97.27 934.5715,-97.5769 935.9172,-100.8079"/>
</g>
<!-- ParameterInterfaceItem&#45;&gt;ParameterFileInterfaceItem -->
<g id="edge19" class="edge">
<title>ParameterInterfaceItem&#45;&gt;ParameterFileInterfaceItem</title>
<path fill="none" stroke="#000000" stroke-width=".5" d="M527.2895,-188.6667C542.0555,-189.7979 557.488,-190.9803 572.6648,-192.143"/>
<polygon fill="#000000" stroke="#000000" stroke-width=".5" points="572.6815,-193.8993 577.8006,-192.5365 572.9489,-190.4096 572.6815,-193.8993"/>
</g>
<!-- ParameterSignalInterfaceItem -->
<g id="node20" class="node">
<title>ParameterSignalInterfaceItem</title>
<g id="a_node20"><a xlink:href="../../pyVHDLModel/pyVHDLModel.VHDLModel.html#pyVHDLModel.VHDLModel.ParameterSignalInterfaceItem" xlink:title="ParameterSignalInterfaceItem" target="_top">
<polygon fill="#ffffff" stroke="#000000" stroke-width=".5" points="797.5,-97.1727 570.5,-97.1727 570.5,-78.1727 797.5,-78.1727 797.5,-97.1727"/>
<text text-anchor="middle" x="684" y="-85.1727" font-family="Vera Sans, DejaVu Sans, Liberation Sans, Arial, Helvetica, sans" font-size="10.00" fill="#000000">ParameterSignalInterfaceItem</text>
</a>
</g>
</g>
<!-- ParameterInterfaceItem&#45;&gt;ParameterSignalInterfaceItem -->
<g id="edge22" class="edge">
<title>ParameterInterfaceItem&#45;&gt;ParameterSignalInterfaceItem</title>
<path fill="none" stroke="#000000" stroke-width=".5" d="M508.7809,-172.1408C515.24,-169.6453 521.4311,-166.5373 527,-162.6727 551.6163,-145.5901 537.8974,-122.0324 563,-105.6727 566.6448,-103.2974 570.481,-101.1869 574.4547,-99.3141"/>
<polygon fill="#000000" stroke="#000000" stroke-width=".5" points="575.3153,-100.847 579.1794,-97.2232 573.8989,-97.6464 575.3153,-100.847"/>
</g>
<!-- ParameterVariableInterfaceItem -->
<g id="node22" class="node">
<title>ParameterVariableInterfaceItem</title>
<g id="a_node22"><a xlink:href="../../pyVHDLModel/pyVHDLModel.VHDLModel.html#pyVHDLModel.VHDLModel.ParameterVariableInterfaceItem" xlink:title="ParameterVariableInterfaceItem" target="_top">
<polygon fill="#ffffff" stroke="#000000" stroke-width=".5" points="805,-134.1727 563,-134.1727 563,-115.1727 805,-115.1727 805,-134.1727"/>
<text text-anchor="middle" x="684" y="-122.1727" font-family="Vera Sans, DejaVu Sans, Liberation Sans, Arial, Helvetica, sans" font-size="10.00" fill="#000000">ParameterVariableInterfaceItem</text>
</a>
</g>
</g>
<!-- ParameterInterfaceItem&#45;&gt;ParameterVariableInterfaceItem -->
<g id="edge24" class="edge">
<title>ParameterInterfaceItem&#45;&gt;ParameterVariableInterfaceItem</title>
<path fill="none" stroke="#000000" stroke-width=".5" d="M489.2997,-172.0818C501.7688,-169.415 514.9311,-166.2527 527,-162.6727 543.4585,-157.7906 546.5173,-153.4722 563,-148.6727 581.2313,-143.3641 601.3484,-138.8538 619.8582,-135.2256"/>
<polygon fill="#000000" stroke="#000000" stroke-width=".5" points="620.4562,-136.8925 625.0334,-134.2257 619.7922,-133.4561 620.4562,-136.8925"/>
</g>
<!-- Signal&#45;&gt;ParameterSignalInterfaceItem -->
<g id="edge21" class="edge">
<title>Signal&#45;&gt;ParameterSignalInterfaceItem</title>
<path fill="none" stroke="#000000" stroke-width=".5" d="M467.1583,-72.8086C492.1433,-74.5213 528.8949,-77.0405 565.0702,-79.5203"/>
<polygon fill="#000000" stroke="#000000" stroke-width=".5" points="565.2939,-81.2896 570.4019,-79.8858 565.5333,-77.7978 565.2939,-81.2896"/>
</g>
<!-- PortSignalInterfaceItem -->
<g id="node25" class="node">
<title>PortSignalInterfaceItem</title>
<g id="a_node25"><a xlink:href="../../pyVHDLModel/pyVHDLModel.VHDLModel.html#pyVHDLModel.VHDLModel.PortSignalInterfaceItem" xlink:title="PortSignalInterfaceItem" target="_top">
<polygon fill="#ffffff" stroke="#000000" stroke-width=".5" points="778.5,-60.1727 589.5,-60.1727 589.5,-41.1727 778.5,-41.1727 778.5,-60.1727"/>
<text text-anchor="middle" x="684" y="-48.1727" font-family="Vera Sans, DejaVu Sans, Liberation Sans, Arial, Helvetica, sans" font-size="10.00" fill="#000000">PortSignalInterfaceItem</text>
</a>
</g>
</g>
<!-- Signal&#45;&gt;PortSignalInterfaceItem -->
<g id="edge26" class="edge">
<title>Signal&#45;&gt;PortSignalInterfaceItem</title>
<path fill="none" stroke="#000000" stroke-width=".5" d="M467.1583,-68.16C496.5984,-65.7858 542.3757,-62.094 584.2969,-58.7133"/>
<polygon fill="#000000" stroke="#000000" stroke-width=".5" points="584.5457,-60.449 589.3888,-58.3027 584.2643,-56.9603 584.5457,-60.449"/>
</g>
<!-- Variable&#45;&gt;ParameterVariableInterfaceItem -->
<g id="edge23" class="edge">
<title>Variable&#45;&gt;ParameterVariableInterfaceItem</title>
<path fill="none" stroke="#000000" stroke-width=".5" d="M474.75,-110.329C497.4153,-111.8826 527.4458,-113.9412 557.6615,-116.0124"/>
<polygon fill="#000000" stroke="#000000" stroke-width=".5" points="557.798,-117.7758 562.906,-116.3719 558.0374,-114.284 557.798,-117.7758"/>
</g>
<!-- PortInterfaceItem&#45;&gt;PortSignalInterfaceItem -->
<g id="edge27" class="edge">
<title>PortInterfaceItem&#45;&gt;PortSignalInterfaceItem</title>
<path fill="none" stroke="#000000" stroke-width=".5" d="M508.3191,-135.318C514.9449,-132.7928 521.2985,-129.6293 527,-125.6727 551.6163,-108.5901 537.8974,-85.0324 563,-68.6727 569.6307,-64.3514 576.8949,-60.9068 584.4678,-58.1752"/>
<polygon fill="#000000" stroke="#000000" stroke-width=".5" points="585.046,-59.8271 589.22,-56.565 583.9228,-56.5122 585.046,-59.8271"/>
</g>
</g>
</svg>
