<?xml version="1.0" encoding="UTF-8" standalone="no"?>
<!DOCTYPE svg PUBLIC "-//W3C//DTD SVG 1.1//EN"
 "http://www.w3.org/Graphics/SVG/1.1/DTD/svg11.dtd">
<!-- Generated by graphviz version 2.40.1 (0)
 -->
<!-- Title: inheritancefbe9a0300f Pages: 1 -->
<svg width="468pt" height="101pt"
 viewBox="0.00 0.00 468.00 101.00" xmlns="http://www.w3.org/2000/svg" xmlns:xlink="http://www.w3.org/1999/xlink">
<g id="graph0" class="graph" transform="scale(1 1) rotate(0) translate(4 97)">
<title>inheritancefbe9a0300f</title>
<!-- Branch -->
<g id="node1" class="node">
<title>Branch</title>
<g id="a_node1"><a xlink:href="../pyVHDLModel/pyVHDLModel.VHDLModel.html#pyVHDLModel.VHDLModel.Branch" xlink:title="A ``Branch`` is a base&#45;class for all branches." target="_top">
<polygon fill="#ffffff" stroke="#000000" stroke-width=".5" points="298.5,-56 236.5,-56 236.5,-37 298.5,-37 298.5,-56"/>
<text text-anchor="middle" x="267.5" y="-44" font-family="Vera Sans, DejaVu Sans, Liberation Sans, Arial, Helvetica, sans" font-size="10.00" fill="#000000">Branch</text>
</a>
</g>
</g>
<!-- ElseBranch -->
<g id="node4" class="node">
<title>ElseBranch</title>
<g id="a_node4"><a xlink:href="../pyVHDLModel/pyVHDLModel.VHDLModel.html#pyVHDLModel.VHDLModel.ElseBranch" xlink:title="ElseBranch" target="_top">
<polygon fill="#ffffff" stroke="#000000" stroke-width=".5" points="460,-74 368,-74 368,-55 460,-55 460,-74"/>
<text text-anchor="middle" x="414" y="-62" font-family="Vera Sans, DejaVu Sans, Liberation Sans, Arial, Helvetica, sans" font-size="10.00" fill="#000000">ElseBranch</text>
</a>
</g>
</g>
<!-- Branch&#45;&gt;ElseBranch -->
<g id="edge3" class="edge">
<title>Branch&#45;&gt;ElseBranch</title>
<path fill="none" stroke="#000000" stroke-width=".5" d="M298.5689,-50.3173C317.2308,-52.6103 341.4338,-55.584 362.8542,-58.2159"/>
<polygon fill="#000000" stroke="#000000" stroke-width=".5" points="362.7719,-59.9688 367.948,-58.8417 363.1988,-56.495 362.7719,-59.9688"/>
</g>
<!-- ModelEntity -->
<g id="node2" class="node">
<title>ModelEntity</title>
<g id="a_node2"><a xlink:href="../pyVHDLModel/pyVHDLModel.VHDLModel.html#pyVHDLModel.VHDLModel.ModelEntity" xlink:title="``ModelEntity`` is a base class for all classes in the VHDL language model," target="_top">
<polygon fill="#ffffff" stroke="#000000" stroke-width=".5" points="133,-56 34,-56 34,-37 133,-37 133,-56"/>
<text text-anchor="middle" x="83.5" y="-44" font-family="Vera Sans, DejaVu Sans, Liberation Sans, Arial, Helvetica, sans" font-size="10.00" fill="#000000">ModelEntity</text>
</a>
</g>
</g>
<!-- ModelEntity&#45;&gt;Branch -->
<g id="edge1" class="edge">
<title>ModelEntity&#45;&gt;Branch</title>
<path fill="none" stroke="#000000" stroke-width=".5" d="M133.293,-46.5C164.2531,-46.5 203.3548,-46.5 231.3529,-46.5"/>
<polygon fill="#000000" stroke="#000000" stroke-width=".5" points="231.4471,-48.2501 236.4471,-46.5 231.447,-44.7501 231.4471,-48.2501"/>
</g>
<!-- SequentialStatements -->
<g id="node3" class="node">
<title>SequentialStatements</title>
<g id="a_node3"><a xlink:href="../pyVHDLModel/pyVHDLModel.VHDLModel.html#pyVHDLModel.VHDLModel.SequentialStatements" xlink:title="SequentialStatements" target="_top">
<polygon fill="#ffffff" stroke="#000000" stroke-width=".5" points="167,-19 0,-19 0,0 167,0 167,-19"/>
<text text-anchor="middle" x="83.5" y="-7" font-family="Vera Sans, DejaVu Sans, Liberation Sans, Arial, Helvetica, sans" font-size="10.00" fill="#000000">SequentialStatements</text>
</a>
</g>
</g>
<!-- SequentialStatements&#45;&gt;Branch -->
<g id="edge2" class="edge">
<title>SequentialStatements&#45;&gt;Branch</title>
<path fill="none" stroke="#000000" stroke-width=".5" d="M130.8846,-19.0284C162.1598,-25.3175 202.5114,-33.4316 231.2332,-39.2072"/>
<polygon fill="#000000" stroke="#000000" stroke-width=".5" points="231.2091,-40.9873 236.456,-40.2575 231.8991,-37.556 231.2091,-40.9873"/>
</g>
<!-- MixinElseBranch -->
<g id="node5" class="node">
<title>MixinElseBranch</title>
<g id="a_node5"><a xlink:href="../pyVHDLModel/pyVHDLModel.VHDLModel.html#pyVHDLModel.VHDLModel.MixinElseBranch" xlink:title="A ``BaseElseBranch`` is a mixin&#45;class for all else&#45;branches." target="_top">
<polygon fill="#ffffff" stroke="#000000" stroke-width=".5" points="332,-93 203,-93 203,-74 332,-74 332,-93"/>
<text text-anchor="middle" x="267.5" y="-81" font-family="Vera Sans, DejaVu Sans, Liberation Sans, Arial, Helvetica, sans" font-size="10.00" fill="#000000">MixinElseBranch</text>
</a>
</g>
</g>
<!-- MixinElseBranch&#45;&gt;ElseBranch -->
<g id="edge4" class="edge">
<title>MixinElseBranch&#45;&gt;ElseBranch</title>
<path fill="none" stroke="#000000" stroke-width=".5" d="M332.1835,-75.111C342.3661,-73.7904 352.7726,-72.4408 362.6013,-71.166"/>
<polygon fill="#000000" stroke="#000000" stroke-width=".5" points="362.9508,-72.8855 367.6842,-70.5068 362.5006,-69.4145 362.9508,-72.8855"/>
</g>
<!-- MixinBranch -->
<g id="node6" class="node">
<title>MixinBranch</title>
<g id="a_node6"><a xlink:href="../pyVHDLModel/pyVHDLModel.VHDLModel.html#pyVHDLModel.VHDLModel.MixinBranch" xlink:title="A ``BaseBranch`` is a mixin&#45;class for all statements with branches." target="_top">
<polygon fill="#ffffff" stroke="#000000" stroke-width=".5" points="133,-93 34,-93 34,-74 133,-74 133,-93"/>
<text text-anchor="middle" x="83.5" y="-81" font-family="Vera Sans, DejaVu Sans, Liberation Sans, Arial, Helvetica, sans" font-size="10.00" fill="#000000">MixinBranch</text>
</a>
</g>
</g>
<!-- MixinBranch&#45;&gt;MixinElseBranch -->
<g id="edge5" class="edge">
<title>MixinBranch&#45;&gt;MixinElseBranch</title>
<path fill="none" stroke="#000000" stroke-width=".5" d="M133.293,-83.5C153.0978,-83.5 176.2342,-83.5 197.6645,-83.5"/>
<polygon fill="#000000" stroke="#000000" stroke-width=".5" points="197.7832,-85.2501 202.7831,-83.5 197.7831,-81.7501 197.7832,-85.2501"/>
</g>
</g>
</svg>
