<?xml version="1.0" encoding="UTF-8" standalone="no"?>
<!DOCTYPE svg PUBLIC "-//W3C//DTD SVG 1.1//EN"
 "http://www.w3.org/Graphics/SVG/1.1/DTD/svg11.dtd">
<!-- Generated by graphviz version 2.40.1 (0)
 -->
<!-- Title: inheritancefdea6fb907 Pages: 1 -->
<svg width="408pt" height="27pt"
 viewBox="0.00 0.00 408.00 27.00" xmlns="http://www.w3.org/2000/svg" xmlns:xlink="http://www.w3.org/1999/xlink">
<g id="graph0" class="graph" transform="scale(1 1) rotate(0) translate(4 23)">
<title>inheritancefdea6fb907</title>
<!-- BaseConstraint -->
<g id="node1" class="node">
<title>BaseConstraint</title>
<g id="a_node1"><a xlink:href="../pyVHDLModel/pyVHDLModel.VHDLModel.html#pyVHDLModel.VHDLModel.BaseConstraint" xlink:title="BaseConstraint" target="_top">
<polygon fill="#ffffff" stroke="#000000" stroke-width=".5" points="257,-19 135,-19 135,0 257,0 257,-19"/>
<text text-anchor="middle" x="196" y="-7" font-family="Vera Sans, DejaVu Sans, Liberation Sans, Arial, Helvetica, sans" font-size="10.00" fill="#000000">BaseConstraint</text>
</a>
</g>
</g>
<!-- RangeSubtype -->
<g id="node3" class="node">
<title>RangeSubtype</title>
<g id="a_node3"><a xlink:href="../pyVHDLModel/pyVHDLModel.VHDLModel.html#pyVHDLModel.VHDLModel.RangeSubtype" xlink:title="RangeSubtype" target="_top">
<polygon fill="#ffffff" stroke="#000000" stroke-width=".5" points="400,-19 293,-19 293,0 400,0 400,-19"/>
<text text-anchor="middle" x="346.5" y="-7" font-family="Vera Sans, DejaVu Sans, Liberation Sans, Arial, Helvetica, sans" font-size="10.00" fill="#000000">RangeSubtype</text>
</a>
</g>
</g>
<!-- BaseConstraint&#45;&gt;RangeSubtype -->
<g id="edge2" class="edge">
<title>BaseConstraint&#45;&gt;RangeSubtype</title>
<path fill="none" stroke="#000000" stroke-width=".5" d="M257.2141,-9.5C267.1934,-9.5 277.5141,-9.5 287.4403,-9.5"/>
<polygon fill="#000000" stroke="#000000" stroke-width=".5" points="287.5912,-11.2501 292.5911,-9.5 287.5911,-7.7501 287.5912,-11.2501"/>
</g>
<!-- ModelEntity -->
<g id="node2" class="node">
<title>ModelEntity</title>
<g id="a_node2"><a xlink:href="../pyVHDLModel/pyVHDLModel.VHDLModel.html#pyVHDLModel.VHDLModel.ModelEntity" xlink:title="``ModelEntity`` is a base class for all classes in the VHDL language model," target="_top">
<polygon fill="#ffffff" stroke="#000000" stroke-width=".5" points="99,-19 0,-19 0,0 99,0 99,-19"/>
<text text-anchor="middle" x="49.5" y="-7" font-family="Vera Sans, DejaVu Sans, Liberation Sans, Arial, Helvetica, sans" font-size="10.00" fill="#000000">ModelEntity</text>
</a>
</g>
</g>
<!-- ModelEntity&#45;&gt;BaseConstraint -->
<g id="edge1" class="edge">
<title>ModelEntity&#45;&gt;BaseConstraint</title>
<path fill="none" stroke="#000000" stroke-width=".5" d="M99.0982,-9.5C108.9426,-9.5 119.4255,-9.5 129.7228,-9.5"/>
<polygon fill="#000000" stroke="#000000" stroke-width=".5" points="129.7594,-11.2501 134.7594,-9.5 129.7594,-7.7501 129.7594,-11.2501"/>
</g>
</g>
</svg>
