<?xml version="1.0" encoding="UTF-8" standalone="no"?>
<!DOCTYPE svg PUBLIC "-//W3C//DTD SVG 1.1//EN"
 "http://www.w3.org/Graphics/SVG/1.1/DTD/svg11.dtd">
<!-- Generated by graphviz version 2.40.1 (0)
 -->
<!-- Title: inheritance2aafb83650 Pages: 1 -->
<svg width="576pt" height="157pt"
 viewBox="0.00 0.00 576.00 157.36" xmlns="http://www.w3.org/2000/svg" xmlns:xlink="http://www.w3.org/1999/xlink">
<g id="graph0" class="graph" transform="scale(.7423 .7423) rotate(0) translate(4 208)">
<title>inheritance2aafb83650</title>
<!-- AndExpression -->
<g id="node1" class="node">
<title>AndExpression</title>
<g id="a_node1"><a xlink:href="../../pyVHDLModel/pyVHDLModel.VHDLModel.html#pyVHDLModel.VHDLModel.AndExpression" xlink:title="AndExpression" target="_top">
<polygon fill="#ffffff" stroke="#000000" stroke-width=".5" points="764,-204 650,-204 650,-185 764,-185 764,-204"/>
<text text-anchor="middle" x="707" y="-192" font-family="Vera Sans, DejaVu Sans, Liberation Sans, Arial, Helvetica, sans" font-size="10.00" fill="#000000">AndExpression</text>
</a>
</g>
</g>
<!-- LogicalExpression -->
<g id="node2" class="node">
<title>LogicalExpression</title>
<g id="a_node2"><a xlink:href="../../pyVHDLModel/pyVHDLModel.VHDLModel.html#pyVHDLModel.VHDLModel.LogicalExpression" xlink:title="A ``LogicalExpression`` is a base&#45;class for all logical expressions." target="_top">
<polygon fill="#ffffff" stroke="#000000" stroke-width=".5" points="610,-111 466,-111 466,-92 610,-92 610,-111"/>
<text text-anchor="middle" x="538" y="-99" font-family="Vera Sans, DejaVu Sans, Liberation Sans, Arial, Helvetica, sans" font-size="10.00" fill="#000000">LogicalExpression</text>
</a>
</g>
</g>
<!-- LogicalExpression&#45;&gt;AndExpression -->
<g id="edge1" class="edge">
<title>LogicalExpression&#45;&gt;AndExpression</title>
<path fill="none" stroke="#000000" stroke-width=".5" d="M549.2206,-111.1397C568.0485,-126.8716 607.7115,-158.1477 646,-176.5 651.3675,-179.0727 657.1792,-181.3601 663.0101,-183.3682"/>
<polygon fill="#000000" stroke="#000000" stroke-width=".5" points="662.6066,-185.078 667.9033,-184.9894 663.7075,-181.7556 662.6066,-185.078"/>
</g>
<!-- NandExpression -->
<g id="node6" class="node">
<title>NandExpression</title>
<g id="a_node6"><a xlink:href="../../pyVHDLModel/pyVHDLModel.VHDLModel.html#pyVHDLModel.VHDLModel.NandExpression" xlink:title="NandExpression" target="_top">
<polygon fill="#ffffff" stroke="#000000" stroke-width=".5" points="768,-167 646,-167 646,-148 768,-148 768,-167"/>
<text text-anchor="middle" x="707" y="-155" font-family="Vera Sans, DejaVu Sans, Liberation Sans, Arial, Helvetica, sans" font-size="10.00" fill="#000000">NandExpression</text>
</a>
</g>
</g>
<!-- LogicalExpression&#45;&gt;NandExpression -->
<g id="edge5" class="edge">
<title>LogicalExpression&#45;&gt;NandExpression</title>
<path fill="none" stroke="#000000" stroke-width=".5" d="M564.0608,-111.0922C585.8565,-119.0126 617.8192,-130.3911 646,-139.5 653.2561,-141.8454 661.0366,-144.2353 668.5306,-146.4751"/>
<polygon fill="#000000" stroke="#000000" stroke-width=".5" points="668.3716,-148.2534 673.6629,-147.9993 669.3681,-144.8982 668.3716,-148.2534"/>
</g>
<!-- NorExpression -->
<g id="node7" class="node">
<title>NorExpression</title>
<g id="a_node7"><a xlink:href="../../pyVHDLModel/pyVHDLModel.VHDLModel.html#pyVHDLModel.VHDLModel.NorExpression" xlink:title="NorExpression" target="_top">
<polygon fill="#ffffff" stroke="#000000" stroke-width=".5" points="764,-130 650,-130 650,-111 764,-111 764,-130"/>
<text text-anchor="middle" x="707" y="-118" font-family="Vera Sans, DejaVu Sans, Liberation Sans, Arial, Helvetica, sans" font-size="10.00" fill="#000000">NorExpression</text>
</a>
</g>
</g>
<!-- LogicalExpression&#45;&gt;NorExpression -->
<g id="edge6" class="edge">
<title>LogicalExpression&#45;&gt;NorExpression</title>
<path fill="none" stroke="#000000" stroke-width=".5" d="M610.1614,-109.6128C621.6757,-110.9073 633.5023,-112.2369 644.7612,-113.5027"/>
<polygon fill="#000000" stroke="#000000" stroke-width=".5" points="644.7269,-115.2598 649.8911,-114.0795 645.1179,-111.7817 644.7269,-115.2598"/>
</g>
<!-- OrExpression -->
<g id="node8" class="node">
<title>OrExpression</title>
<g id="a_node8"><a xlink:href="../../pyVHDLModel/pyVHDLModel.VHDLModel.html#pyVHDLModel.VHDLModel.OrExpression" xlink:title="OrExpression" target="_top">
<polygon fill="#ffffff" stroke="#000000" stroke-width=".5" points="760.5,-93 653.5,-93 653.5,-74 760.5,-74 760.5,-93"/>
<text text-anchor="middle" x="707" y="-81" font-family="Vera Sans, DejaVu Sans, Liberation Sans, Arial, Helvetica, sans" font-size="10.00" fill="#000000">OrExpression</text>
</a>
</g>
</g>
<!-- LogicalExpression&#45;&gt;OrExpression -->
<g id="edge7" class="edge">
<title>LogicalExpression&#45;&gt;OrExpression</title>
<path fill="none" stroke="#000000" stroke-width=".5" d="M610.1614,-93.8142C622.8784,-92.4597 635.9764,-91.0646 648.2698,-89.7553"/>
<polygon fill="#000000" stroke="#000000" stroke-width=".5" points="648.6991,-91.4695 653.4856,-89.1998 648.3284,-87.9892 648.6991,-91.4695"/>
</g>
<!-- XnorExpression -->
<g id="node9" class="node">
<title>XnorExpression</title>
<g id="a_node9"><a xlink:href="../../pyVHDLModel/pyVHDLModel.VHDLModel.html#pyVHDLModel.VHDLModel.XnorExpression" xlink:title="XnorExpression" target="_top">
<polygon fill="#ffffff" stroke="#000000" stroke-width=".5" points="768,-56 646,-56 646,-37 768,-37 768,-56"/>
<text text-anchor="middle" x="707" y="-44" font-family="Vera Sans, DejaVu Sans, Liberation Sans, Arial, Helvetica, sans" font-size="10.00" fill="#000000">XnorExpression</text>
</a>
</g>
</g>
<!-- LogicalExpression&#45;&gt;XnorExpression -->
<g id="edge8" class="edge">
<title>LogicalExpression&#45;&gt;XnorExpression</title>
<path fill="none" stroke="#000000" stroke-width=".5" d="M564.9672,-91.9001C586.7504,-84.2331 618.2403,-73.3463 646,-64.5 653.2657,-62.1846 661.0507,-59.8085 668.546,-57.5729"/>
<polygon fill="#000000" stroke="#000000" stroke-width=".5" points="669.3831,-59.15 673.6788,-56.0501 668.3875,-55.7946 669.3831,-59.15"/>
</g>
<!-- XorExpression -->
<g id="node10" class="node">
<title>XorExpression</title>
<g id="a_node10"><a xlink:href="../../pyVHDLModel/pyVHDLModel.VHDLModel.html#pyVHDLModel.VHDLModel.XorExpression" xlink:title="XorExpression" target="_top">
<polygon fill="#ffffff" stroke="#000000" stroke-width=".5" points="764,-19 650,-19 650,0 764,0 764,-19"/>
<text text-anchor="middle" x="707" y="-7" font-family="Vera Sans, DejaVu Sans, Liberation Sans, Arial, Helvetica, sans" font-size="10.00" fill="#000000">XorExpression</text>
</a>
</g>
</g>
<!-- LogicalExpression&#45;&gt;XorExpression -->
<g id="edge9" class="edge">
<title>LogicalExpression&#45;&gt;XorExpression</title>
<path fill="none" stroke="#000000" stroke-width=".5" d="M549.2449,-91.9991C568.1077,-76.4917 607.8197,-45.6533 646,-27.5 651.3755,-24.9441 657.1919,-22.6665 663.0252,-20.6633"/>
<polygon fill="#000000" stroke="#000000" stroke-width=".5" points="663.7219,-22.2762 667.9198,-19.0451 662.6232,-18.9531 663.7219,-22.2762"/>
</g>
<!-- BaseExpression -->
<g id="node3" class="node">
<title>BaseExpression</title>
<g id="a_node3"><a xlink:href="../../pyVHDLModel/pyVHDLModel.VHDLModel.html#pyVHDLModel.VHDLModel.BaseExpression" xlink:title="A ``BaseExpression`` is a base&#45;class for all expressions." target="_top">
<polygon fill="#ffffff" stroke="#000000" stroke-width=".5" points="257,-111 135,-111 135,-92 257,-92 257,-111"/>
<text text-anchor="middle" x="196" y="-99" font-family="Vera Sans, DejaVu Sans, Liberation Sans, Arial, Helvetica, sans" font-size="10.00" fill="#000000">BaseExpression</text>
</a>
</g>
</g>
<!-- BinaryExpression -->
<g id="node5" class="node">
<title>BinaryExpression</title>
<g id="a_node5"><a xlink:href="../../pyVHDLModel/pyVHDLModel.VHDLModel.html#pyVHDLModel.VHDLModel.BinaryExpression" xlink:title="A ``BinaryExpression`` is a base&#45;class for all binary expressions." target="_top">
<polygon fill="#ffffff" stroke="#000000" stroke-width=".5" points="430,-111 293,-111 293,-92 430,-92 430,-111"/>
<text text-anchor="middle" x="361.5" y="-99" font-family="Vera Sans, DejaVu Sans, Liberation Sans, Arial, Helvetica, sans" font-size="10.00" fill="#000000">BinaryExpression</text>
</a>
</g>
</g>
<!-- BaseExpression&#45;&gt;BinaryExpression -->
<g id="edge3" class="edge">
<title>BaseExpression&#45;&gt;BinaryExpression</title>
<path fill="none" stroke="#000000" stroke-width=".5" d="M257.1559,-101.5C267.1264,-101.5 277.5466,-101.5 287.7803,-101.5"/>
<polygon fill="#000000" stroke="#000000" stroke-width=".5" points="287.7864,-103.2501 292.7864,-101.5 287.7864,-99.7501 287.7864,-103.2501"/>
</g>
<!-- ModelEntity -->
<g id="node4" class="node">
<title>ModelEntity</title>
<g id="a_node4"><a xlink:href="../../pyVHDLModel/pyVHDLModel.VHDLModel.html#pyVHDLModel.VHDLModel.ModelEntity" xlink:title="``ModelEntity`` is a base class for all classes in the VHDL language model," target="_top">
<polygon fill="#ffffff" stroke="#000000" stroke-width=".5" points="99,-111 0,-111 0,-92 99,-92 99,-111"/>
<text text-anchor="middle" x="49.5" y="-99" font-family="Vera Sans, DejaVu Sans, Liberation Sans, Arial, Helvetica, sans" font-size="10.00" fill="#000000">ModelEntity</text>
</a>
</g>
</g>
<!-- ModelEntity&#45;&gt;BaseExpression -->
<g id="edge2" class="edge">
<title>ModelEntity&#45;&gt;BaseExpression</title>
<path fill="none" stroke="#000000" stroke-width=".5" d="M99.0982,-101.5C108.9426,-101.5 119.4255,-101.5 129.7228,-101.5"/>
<polygon fill="#000000" stroke="#000000" stroke-width=".5" points="129.7594,-103.2501 134.7594,-101.5 129.7594,-99.7501 129.7594,-103.2501"/>
</g>
<!-- BinaryExpression&#45;&gt;LogicalExpression -->
<g id="edge4" class="edge">
<title>BinaryExpression&#45;&gt;LogicalExpression</title>
<path fill="none" stroke="#000000" stroke-width=".5" d="M430.2449,-101.5C440.2184,-101.5 450.5418,-101.5 460.6703,-101.5"/>
<polygon fill="#000000" stroke="#000000" stroke-width=".5" points="460.9462,-103.2501 465.9462,-101.5 460.9461,-99.7501 460.9462,-103.2501"/>
</g>
</g>
</svg>
