<?xml version="1.0" encoding="UTF-8" standalone="no"?>
<!DOCTYPE svg PUBLIC "-//W3C//DTD SVG 1.1//EN"
 "http://www.w3.org/Graphics/SVG/1.1/DTD/svg11.dtd">
<!-- Generated by graphviz version 2.40.1 (0)
 -->
<!-- Title: inheritance88e9d1aaa6 Pages: 1 -->
<svg width="576pt" height="123pt"
 viewBox="0.00 0.00 576.00 122.92" xmlns="http://www.w3.org/2000/svg" xmlns:xlink="http://www.w3.org/1999/xlink">
<g id="graph0" class="graph" transform="scale(.788 .788) rotate(0) translate(4 152)">
<title>inheritance88e9d1aaa6</title>
<!-- ConcurrentDeclarations -->
<g id="node1" class="node">
<title>ConcurrentDeclarations</title>
<g id="a_node1"><a xlink:href="../pyVHDLModel/pyVHDLModel.VHDLModel.html#pyVHDLModel.VHDLModel.ConcurrentDeclarations" xlink:title="ConcurrentDeclarations" target="_top">
<polygon fill="#ffffff" stroke="#000000" stroke-width=".5" points="355,-148 173,-148 173,-129 355,-129 355,-148"/>
<text text-anchor="middle" x="264" y="-136" font-family="Vera Sans, DejaVu Sans, Liberation Sans, Arial, Helvetica, sans" font-size="10.00" fill="#000000">ConcurrentDeclarations</text>
</a>
</g>
</g>
<!-- GenerateBranch -->
<g id="node4" class="node">
<title>GenerateBranch</title>
<g id="a_node4"><a xlink:href="../pyVHDLModel/pyVHDLModel.VHDLModel.html#pyVHDLModel.VHDLModel.GenerateBranch" xlink:title="A ``GenerateBranch`` is a base&#45;class for all branches in a generate statements." target="_top">
<polygon fill="#ffffff" stroke="#000000" stroke-width=".5" points="520.5,-101 398.5,-101 398.5,-82 520.5,-82 520.5,-101"/>
<text text-anchor="middle" x="459.5" y="-89" font-family="Vera Sans, DejaVu Sans, Liberation Sans, Arial, Helvetica, sans" font-size="10.00" fill="#000000">GenerateBranch</text>
</a>
</g>
</g>
<!-- ConcurrentDeclarations&#45;&gt;GenerateBranch -->
<g id="edge4" class="edge">
<title>ConcurrentDeclarations&#45;&gt;GenerateBranch</title>
<path fill="none" stroke="#000000" stroke-width=".5" d="M315.6409,-128.9881C328.5369,-126.4199 342.3077,-123.5119 355,-120.5 377.63,-115.1299 402.7528,-108.1898 422.6932,-102.4453"/>
<polygon fill="#000000" stroke="#000000" stroke-width=".5" points="423.3298,-104.083 427.6464,-101.0123 422.357,-100.7209 423.3298,-104.083"/>
</g>
<!-- ConcurrentStatements -->
<g id="node2" class="node">
<title>ConcurrentStatements</title>
<g id="a_node2"><a xlink:href="../pyVHDLModel/pyVHDLModel.VHDLModel.html#pyVHDLModel.VHDLModel.ConcurrentStatements" xlink:title="ConcurrentStatements" target="_top">
<polygon fill="#ffffff" stroke="#000000" stroke-width=".5" points="347.5,-111 180.5,-111 180.5,-92 347.5,-92 347.5,-111"/>
<text text-anchor="middle" x="264" y="-99" font-family="Vera Sans, DejaVu Sans, Liberation Sans, Arial, Helvetica, sans" font-size="10.00" fill="#000000">ConcurrentStatements</text>
</a>
</g>
</g>
<!-- ConcurrentStatements&#45;&gt;GenerateBranch -->
<g id="edge5" class="edge">
<title>ConcurrentStatements&#45;&gt;GenerateBranch</title>
<path fill="none" stroke="#000000" stroke-width=".5" d="M347.7604,-97.2156C362.8978,-96.4413 378.4923,-95.6436 393.051,-94.8989"/>
<polygon fill="#000000" stroke="#000000" stroke-width=".5" points="393.4611,-96.6303 398.3652,-94.6271 393.2823,-93.1349 393.4611,-96.6303"/>
</g>
<!-- ElsifGenerateBranch -->
<g id="node3" class="node">
<title>ElsifGenerateBranch</title>
<g id="a_node3"><a xlink:href="../pyVHDLModel/pyVHDLModel.VHDLModel.html#pyVHDLModel.VHDLModel.ElsifGenerateBranch" xlink:title="ElsifGenerateBranch" target="_top">
<polygon fill="#ffffff" stroke="#000000" stroke-width=".5" points="723,-73 564,-73 564,-54 723,-54 723,-73"/>
<text text-anchor="middle" x="643.5" y="-61" font-family="Vera Sans, DejaVu Sans, Liberation Sans, Arial, Helvetica, sans" font-size="10.00" fill="#000000">ElsifGenerateBranch</text>
</a>
</g>
</g>
<!-- GenerateBranch&#45;&gt;ElsifGenerateBranch -->
<g id="edge1" class="edge">
<title>GenerateBranch&#45;&gt;ElsifGenerateBranch</title>
<path fill="none" stroke="#000000" stroke-width=".5" d="M520.5138,-82.2153C538.2036,-79.5234 557.624,-76.5681 575.7022,-73.8171"/>
<polygon fill="#000000" stroke="#000000" stroke-width=".5" points="576.0833,-75.5293 580.7631,-73.0469 575.5567,-72.0691 576.0833,-75.5293"/>
</g>
<!-- MixinElsifBranch -->
<g id="node5" class="node">
<title>MixinElsifBranch</title>
<g id="a_node5"><a xlink:href="../pyVHDLModel/pyVHDLModel.VHDLModel.html#pyVHDLModel.VHDLModel.MixinElsifBranch" xlink:title="A ``BaseElsifBranch`` is a mixin&#45;class for all elsif&#45;branches." target="_top">
<polygon fill="#ffffff" stroke="#000000" stroke-width=".5" points="528,-55 391,-55 391,-36 528,-36 528,-55"/>
<text text-anchor="middle" x="459.5" y="-43" font-family="Vera Sans, DejaVu Sans, Liberation Sans, Arial, Helvetica, sans" font-size="10.00" fill="#000000">MixinElsifBranch</text>
</a>
</g>
</g>
<!-- MixinElsifBranch&#45;&gt;ElsifGenerateBranch -->
<g id="edge2" class="edge">
<title>MixinElsifBranch&#45;&gt;ElsifGenerateBranch</title>
<path fill="none" stroke="#000000" stroke-width=".5" d="M528.0148,-52.2025C538.0248,-53.1818 548.4323,-54.1999 558.7188,-55.2062"/>
<polygon fill="#000000" stroke="#000000" stroke-width=".5" points="558.6098,-56.9538 563.7565,-55.699 558.9506,-53.4704 558.6098,-56.9538"/>
</g>
<!-- ModelEntity -->
<g id="node6" class="node">
<title>ModelEntity</title>
<g id="a_node6"><a xlink:href="../pyVHDLModel/pyVHDLModel.VHDLModel.html#pyVHDLModel.VHDLModel.ModelEntity" xlink:title="``ModelEntity`` is a base class for all classes in the VHDL language model," target="_top">
<polygon fill="#ffffff" stroke="#000000" stroke-width=".5" points="313.5,-74 214.5,-74 214.5,-55 313.5,-55 313.5,-74"/>
<text text-anchor="middle" x="264" y="-62" font-family="Vera Sans, DejaVu Sans, Liberation Sans, Arial, Helvetica, sans" font-size="10.00" fill="#000000">ModelEntity</text>
</a>
</g>
</g>
<!-- ModelEntity&#45;&gt;GenerateBranch -->
<g id="edge3" class="edge">
<title>ModelEntity&#45;&gt;GenerateBranch</title>
<path fill="none" stroke="#000000" stroke-width=".5" d="M313.5856,-71.3481C337.7656,-74.6876 367.1877,-78.751 393.2606,-82.3518"/>
<polygon fill="#000000" stroke="#000000" stroke-width=".5" points="393.2355,-84.1149 398.4279,-83.0655 393.7144,-80.6478 393.2355,-84.1149"/>
</g>
<!-- MixinBranch -->
<g id="node7" class="node">
<title>MixinBranch</title>
<g id="a_node7"><a xlink:href="../pyVHDLModel/pyVHDLModel.VHDLModel.html#pyVHDLModel.VHDLModel.MixinBranch" xlink:title="A ``BaseBranch`` is a mixin&#45;class for all statements with branches." target="_top">
<polygon fill="#ffffff" stroke="#000000" stroke-width=".5" points="118,-56 19,-56 19,-37 118,-37 118,-56"/>
<text text-anchor="middle" x="68.5" y="-44" font-family="Vera Sans, DejaVu Sans, Liberation Sans, Arial, Helvetica, sans" font-size="10.00" fill="#000000">MixinBranch</text>
</a>
</g>
</g>
<!-- MixinConditionalBranch -->
<g id="node9" class="node">
<title>MixinConditionalBranch</title>
<g id="a_node9"><a xlink:href="../pyVHDLModel/pyVHDLModel.VHDLModel.html#pyVHDLModel.VHDLModel.MixinConditionalBranch" xlink:title="A ``BaseBranch`` is a mixin&#45;class for all branch statements with a condition." target="_top">
<polygon fill="#ffffff" stroke="#000000" stroke-width=".5" points="355,-37 173,-37 173,-18 355,-18 355,-37"/>
<text text-anchor="middle" x="264" y="-25" font-family="Vera Sans, DejaVu Sans, Liberation Sans, Arial, Helvetica, sans" font-size="10.00" fill="#000000">MixinConditionalBranch</text>
</a>
</g>
</g>
<!-- MixinBranch&#45;&gt;MixinConditionalBranch -->
<g id="edge6" class="edge">
<title>MixinBranch&#45;&gt;MixinConditionalBranch</title>
<path fill="none" stroke="#000000" stroke-width=".5" d="M118.0856,-41.6809C133.2582,-40.2064 150.4948,-38.5312 167.6728,-36.8617"/>
<polygon fill="#000000" stroke="#000000" stroke-width=".5" points="168.1924,-38.5696 172.9997,-36.344 167.8538,-35.086 168.1924,-38.5696"/>
</g>
<!-- MixinConditional -->
<g id="node8" class="node">
<title>MixinConditional</title>
<g id="a_node8"><a xlink:href="../pyVHDLModel/pyVHDLModel.VHDLModel.html#pyVHDLModel.VHDLModel.MixinConditional" xlink:title="A ``BaseConditional`` is a mixin&#45;class for all statements with a condition." target="_top">
<polygon fill="#ffffff" stroke="#000000" stroke-width=".5" points="137,-19 0,-19 0,0 137,0 137,-19"/>
<text text-anchor="middle" x="68.5" y="-7" font-family="Vera Sans, DejaVu Sans, Liberation Sans, Arial, Helvetica, sans" font-size="10.00" fill="#000000">MixinConditional</text>
</a>
</g>
</g>
<!-- MixinConditional&#45;&gt;MixinConditionalBranch -->
<g id="edge7" class="edge">
<title>MixinConditional&#45;&gt;MixinConditionalBranch</title>
<path fill="none" stroke="#000000" stroke-width=".5" d="M137.1511,-15.8208C147.0789,-16.7349 157.4473,-17.6895 167.7927,-18.642"/>
<polygon fill="#000000" stroke="#000000" stroke-width=".5" points="167.728,-20.3934 172.8674,-19.1093 168.0489,-16.9081 167.728,-20.3934"/>
</g>
<!-- MixinConditionalBranch&#45;&gt;MixinElsifBranch -->
<g id="edge8" class="edge">
<title>MixinConditionalBranch&#45;&gt;MixinElsifBranch</title>
<path fill="none" stroke="#000000" stroke-width=".5" d="M355.1678,-35.894C365.4249,-36.8384 375.7791,-37.7917 385.7759,-38.7121"/>
<polygon fill="#000000" stroke="#000000" stroke-width=".5" points="385.8292,-40.4743 390.9686,-39.1902 386.1501,-36.9891 385.8292,-40.4743"/>
</g>
</g>
</svg>
