<?xml version="1.0" encoding="UTF-8" standalone="no"?>
<!DOCTYPE svg PUBLIC "-//W3C//DTD SVG 1.1//EN"
 "http://www.w3.org/Graphics/SVG/1.1/DTD/svg11.dtd">
<!-- Generated by graphviz version 2.40.1 (0)
 -->
<!-- Title: inheritance1891a7dbc5 Pages: 1 -->
<svg width="576pt" height="23pt"
 viewBox="0.00 0.00 576.00 22.67" xmlns="http://www.w3.org/2000/svg" xmlns:xlink="http://www.w3.org/1999/xlink">
<g id="graph0" class="graph" transform="scale(.8397 .8397) rotate(0) translate(4 23)">
<title>inheritance1891a7dbc5</title>
<!-- BaseExpression -->
<g id="node1" class="node">
<title>BaseExpression</title>
<g id="a_node1"><a xlink:href="../pyVHDLModel/pyVHDLModel.VHDLModel.html#pyVHDLModel.VHDLModel.BaseExpression" xlink:title="A ``BaseExpression`` is a base&#45;class for all expressions." target="_top">
<polygon fill="#ffffff" stroke="#000000" stroke-width=".5" points="257,-19 135,-19 135,0 257,0 257,-19"/>
<text text-anchor="middle" x="196" y="-7" font-family="Vera Sans, DejaVu Sans, Liberation Sans, Arial, Helvetica, sans" font-size="10.00" fill="#000000">BaseExpression</text>
</a>
</g>
</g>
<!-- Literal -->
<g id="node5" class="node">
<title>Literal</title>
<g id="a_node5"><a xlink:href="../pyVHDLModel/pyVHDLModel.VHDLModel.html#pyVHDLModel.VHDLModel.Literal" xlink:title="A ``Literal`` is a base&#45;class for all literals." target="_top">
<polygon fill="#ffffff" stroke="#000000" stroke-width=".5" points="362,-19 293,-19 293,0 362,0 362,-19"/>
<text text-anchor="middle" x="327.5" y="-7" font-family="Vera Sans, DejaVu Sans, Liberation Sans, Arial, Helvetica, sans" font-size="10.00" fill="#000000">Literal</text>
</a>
</g>
</g>
<!-- BaseExpression&#45;&gt;Literal -->
<g id="edge3" class="edge">
<title>BaseExpression&#45;&gt;Literal</title>
<path fill="none" stroke="#000000" stroke-width=".5" d="M257.1303,-9.5C267.4299,-9.5 277.8815,-9.5 287.4673,-9.5"/>
<polygon fill="#000000" stroke="#000000" stroke-width=".5" points="287.6972,-11.2501 292.6972,-9.5 287.6972,-7.7501 287.6972,-11.2501"/>
</g>
<!-- ModelEntity -->
<g id="node2" class="node">
<title>ModelEntity</title>
<g id="a_node2"><a xlink:href="../pyVHDLModel/pyVHDLModel.VHDLModel.html#pyVHDLModel.VHDLModel.ModelEntity" xlink:title="``ModelEntity`` is a base class for all classes in the VHDL language model," target="_top">
<polygon fill="#ffffff" stroke="#000000" stroke-width=".5" points="99,-19 0,-19 0,0 99,0 99,-19"/>
<text text-anchor="middle" x="49.5" y="-7" font-family="Vera Sans, DejaVu Sans, Liberation Sans, Arial, Helvetica, sans" font-size="10.00" fill="#000000">ModelEntity</text>
</a>
</g>
</g>
<!-- ModelEntity&#45;&gt;BaseExpression -->
<g id="edge1" class="edge">
<title>ModelEntity&#45;&gt;BaseExpression</title>
<path fill="none" stroke="#000000" stroke-width=".5" d="M99.0982,-9.5C108.9426,-9.5 119.4255,-9.5 129.7228,-9.5"/>
<polygon fill="#000000" stroke="#000000" stroke-width=".5" points="129.7594,-11.2501 134.7594,-9.5 129.7594,-7.7501 129.7594,-11.2501"/>
</g>
<!-- IntegerLiteral -->
<g id="node3" class="node">
<title>IntegerLiteral</title>
<g id="a_node3"><a xlink:href="../pyVHDLModel/pyVHDLModel.VHDLModel.html#pyVHDLModel.VHDLModel.IntegerLiteral" xlink:title="IntegerLiteral" target="_top">
<polygon fill="#ffffff" stroke="#000000" stroke-width=".5" points="678,-19 556,-19 556,0 678,0 678,-19"/>
<text text-anchor="middle" x="617" y="-7" font-family="Vera Sans, DejaVu Sans, Liberation Sans, Arial, Helvetica, sans" font-size="10.00" fill="#000000">IntegerLiteral</text>
</a>
</g>
</g>
<!-- NumericLiteral -->
<g id="node4" class="node">
<title>NumericLiteral</title>
<g id="a_node4"><a xlink:href="../pyVHDLModel/pyVHDLModel.VHDLModel.html#pyVHDLModel.VHDLModel.NumericLiteral" xlink:title="A ``NumericLiteral`` is a base&#45;class for all numeric literals." target="_top">
<polygon fill="#ffffff" stroke="#000000" stroke-width=".5" points="520,-19 398,-19 398,0 520,0 520,-19"/>
<text text-anchor="middle" x="459" y="-7" font-family="Vera Sans, DejaVu Sans, Liberation Sans, Arial, Helvetica, sans" font-size="10.00" fill="#000000">NumericLiteral</text>
</a>
</g>
</g>
<!-- NumericLiteral&#45;&gt;IntegerLiteral -->
<g id="edge2" class="edge">
<title>NumericLiteral&#45;&gt;IntegerLiteral</title>
<path fill="none" stroke="#000000" stroke-width=".5" d="M520.0869,-9.5C530.0699,-9.5 540.4558,-9.5 550.5603,-9.5"/>
<polygon fill="#000000" stroke="#000000" stroke-width=".5" points="550.8151,-11.2501 555.815,-9.5 550.815,-7.7501 550.8151,-11.2501"/>
</g>
<!-- Literal&#45;&gt;NumericLiteral -->
<g id="edge4" class="edge">
<title>Literal&#45;&gt;NumericLiteral</title>
<path fill="none" stroke="#000000" stroke-width=".5" d="M362.0501,-9.5C371.5324,-9.5 382.1417,-9.5 392.7678,-9.5"/>
<polygon fill="#000000" stroke="#000000" stroke-width=".5" points="392.9808,-11.2501 397.9808,-9.5 392.9807,-7.7501 392.9808,-11.2501"/>
</g>
</g>
</svg>
