<?xml version="1.0" encoding="UTF-8" standalone="no"?>
<!DOCTYPE svg PUBLIC "-//W3C//DTD SVG 1.1//EN"
 "http://www.w3.org/Graphics/SVG/1.1/DTD/svg11.dtd">
<!-- Generated by graphviz version 2.40.1 (0)
 -->
<!-- Title: inheritance502f648504 Pages: 1 -->
<svg width="576pt" height="60pt"
 viewBox="0.00 0.00 576.00 59.75" xmlns="http://www.w3.org/2000/svg" xmlns:xlink="http://www.w3.org/1999/xlink">
<g id="graph0" class="graph" transform="scale(.9335 .9335) rotate(0) translate(4 60)">
<title>inheritance502f648504</title>
<!-- BaseExpression -->
<g id="node1" class="node">
<title>BaseExpression</title>
<g id="a_node1"><a xlink:href="../pyVHDLModel/pyVHDLModel.VHDLModel.html#pyVHDLModel.VHDLModel.BaseExpression" xlink:title="A ``BaseExpression`` is a base&#45;class for all expressions." target="_top">
<polygon fill="#ffffff" stroke="#000000" stroke-width=".5" points="388,-19 266,-19 266,0 388,0 388,-19"/>
<text text-anchor="middle" x="327" y="-7" font-family="Vera Sans, DejaVu Sans, Liberation Sans, Arial, Helvetica, sans" font-size="10.00" fill="#000000">BaseExpression</text>
</a>
</g>
</g>
<!-- QualifiedExpression -->
<g id="node6" class="node">
<title>QualifiedExpression</title>
<g id="a_node6"><a xlink:href="../pyVHDLModel/pyVHDLModel.VHDLModel.html#pyVHDLModel.VHDLModel.QualifiedExpression" xlink:title="QualifiedExpression" target="_top">
<polygon fill="#ffffff" stroke="#000000" stroke-width=".5" points="609,-37 450,-37 450,-18 609,-18 609,-37"/>
<text text-anchor="middle" x="529.5" y="-25" font-family="Vera Sans, DejaVu Sans, Liberation Sans, Arial, Helvetica, sans" font-size="10.00" fill="#000000">QualifiedExpression</text>
</a>
</g>
</g>
<!-- BaseExpression&#45;&gt;QualifiedExpression -->
<g id="edge4" class="edge">
<title>BaseExpression&#45;&gt;QualifiedExpression</title>
<path fill="none" stroke="#000000" stroke-width=".5" d="M388.0313,-14.925C405.8079,-16.5051 425.5595,-18.2608 444.5284,-19.947"/>
<polygon fill="#000000" stroke="#000000" stroke-width=".5" points="444.7202,-21.7208 449.8555,-20.4205 445.0301,-18.2346 444.7202,-21.7208"/>
</g>
<!-- ModelEntity -->
<g id="node2" class="node">
<title>ModelEntity</title>
<g id="a_node2"><a xlink:href="../pyVHDLModel/pyVHDLModel.VHDLModel.html#pyVHDLModel.VHDLModel.ModelEntity" xlink:title="``ModelEntity`` is a base class for all classes in the VHDL language model," target="_top">
<polygon fill="#ffffff" stroke="#000000" stroke-width=".5" points="204,-19 105,-19 105,0 204,0 204,-19"/>
<text text-anchor="middle" x="154.5" y="-7" font-family="Vera Sans, DejaVu Sans, Liberation Sans, Arial, Helvetica, sans" font-size="10.00" fill="#000000">ModelEntity</text>
</a>
</g>
</g>
<!-- ModelEntity&#45;&gt;BaseExpression -->
<g id="edge1" class="edge">
<title>ModelEntity&#45;&gt;BaseExpression</title>
<path fill="none" stroke="#000000" stroke-width=".5" d="M204.3941,-9.5C221.948,-9.5 241.961,-9.5 260.6546,-9.5"/>
<polygon fill="#000000" stroke="#000000" stroke-width=".5" points="260.889,-11.2501 265.889,-9.5 260.8889,-7.7501 260.889,-11.2501"/>
</g>
<!-- Generic -->
<g id="node3" class="node">
<title>Generic</title>
<g id="a_node3"><a xlink:title="Abstract base class for generic types.">
<polygon fill="#ffffff" stroke="#000000" stroke-width=".5" points="69,-56 0,-56 0,-37 69,-37 69,-56"/>
<text text-anchor="middle" x="34.5" y="-44" font-family="Vera Sans, DejaVu Sans, Liberation Sans, Arial, Helvetica, sans" font-size="10.00" fill="#000000">Generic</text>
</a>
</g>
</g>
<!-- Protocol -->
<g id="node5" class="node">
<title>Protocol</title>
<g id="a_node5"><a xlink:title="Base class for protocol classes.">
<polygon fill="#ffffff" stroke="#000000" stroke-width=".5" points="193,-56 116,-56 116,-37 193,-37 193,-56"/>
<text text-anchor="middle" x="154.5" y="-44" font-family="Vera Sans, DejaVu Sans, Liberation Sans, Arial, Helvetica, sans" font-size="10.00" fill="#000000">Protocol</text>
</a>
</g>
</g>
<!-- Generic&#45;&gt;Protocol -->
<g id="edge3" class="edge">
<title>Generic&#45;&gt;Protocol</title>
<path fill="none" stroke="#000000" stroke-width=".5" d="M69.209,-46.5C82.0417,-46.5 96.7637,-46.5 110.3243,-46.5"/>
<polygon fill="#000000" stroke="#000000" stroke-width=".5" points="110.656,-48.2501 115.656,-46.5 110.6559,-44.7501 110.656,-48.2501"/>
</g>
<!-- ParenthesisExpression -->
<g id="node4" class="node">
<title>ParenthesisExpression</title>
<g id="a_node4"><a xlink:href="../pyVHDLModel/pyVHDLModel.VHDLModel.html#pyVHDLModel.VHDLModel.ParenthesisExpression" xlink:title="ParenthesisExpression" target="_top">
<polygon fill="#ffffff" stroke="#000000" stroke-width=".5" points="414,-56 240,-56 240,-37 414,-37 414,-56"/>
<text text-anchor="middle" x="327" y="-44" font-family="Vera Sans, DejaVu Sans, Liberation Sans, Arial, Helvetica, sans" font-size="10.00" fill="#000000">ParenthesisExpression</text>
</a>
</g>
</g>
<!-- ParenthesisExpression&#45;&gt;QualifiedExpression -->
<g id="edge5" class="edge">
<title>ParenthesisExpression&#45;&gt;QualifiedExpression</title>
<path fill="none" stroke="#000000" stroke-width=".5" d="M414.0534,-38.332C424.2789,-37.3726 434.7015,-36.3947 444.8928,-35.4385"/>
<polygon fill="#000000" stroke="#000000" stroke-width=".5" points="445.0607,-37.1805 449.8754,-34.971 444.7337,-33.6958 445.0607,-37.1805"/>
</g>
<!-- Protocol&#45;&gt;ParenthesisExpression -->
<g id="edge2" class="edge">
<title>Protocol&#45;&gt;ParenthesisExpression</title>
<path fill="none" stroke="#000000" stroke-width=".5" d="M193.2124,-46.5C205.598,-46.5 219.8856,-46.5 234.4143,-46.5"/>
<polygon fill="#000000" stroke="#000000" stroke-width=".5" points="234.7748,-48.2501 239.7748,-46.5 234.7748,-44.7501 234.7748,-48.2501"/>
</g>
</g>
</svg>
