<?xml version="1.0" encoding="UTF-8" standalone="no"?>
<!DOCTYPE svg PUBLIC "-//W3C//DTD SVG 1.1//EN"
 "http://www.w3.org/Graphics/SVG/1.1/DTD/svg11.dtd">
<!-- Generated by graphviz version 2.40.1 (0)
 -->
<!-- Title: inheritance5ed14ca82c Pages: 1 -->
<svg width="415pt" height="82pt"
 viewBox="0.00 0.00 415.00 82.00" xmlns="http://www.w3.org/2000/svg" xmlns:xlink="http://www.w3.org/1999/xlink">
<g id="graph0" class="graph" transform="scale(1 1) rotate(0) translate(4 78)">
<title>inheritance5ed14ca82c</title>
<!-- ModelEntity -->
<g id="node1" class="node">
<title>ModelEntity</title>
<g id="a_node1"><a xlink:href="../pyVHDLModel/pyVHDLModel.VHDLModel.html#pyVHDLModel.VHDLModel.ModelEntity" xlink:title="``ModelEntity`` is a base class for all classes in the VHDL language model," target="_top">
<polygon fill="#ffffff" stroke="#000000" stroke-width=".5" points="99,-74 0,-74 0,-55 99,-55 99,-74"/>
<text text-anchor="middle" x="49.5" y="-62" font-family="Vera Sans, DejaVu Sans, Liberation Sans, Arial, Helvetica, sans" font-size="10.00" fill="#000000">ModelEntity</text>
</a>
</g>
</g>
<!-- Object -->
<g id="node3" class="node">
<title>Object</title>
<g id="a_node3"><a xlink:href="../pyVHDLModel/pyVHDLModel.VHDLModel.html#pyVHDLModel.VHDLModel.Object" xlink:title="Object" target="_top">
<polygon fill="#ffffff" stroke="#000000" stroke-width=".5" points="253,-56 191,-56 191,-37 253,-37 253,-56"/>
<text text-anchor="middle" x="222" y="-44" font-family="Vera Sans, DejaVu Sans, Liberation Sans, Arial, Helvetica, sans" font-size="10.00" fill="#000000">Object</text>
</a>
</g>
</g>
<!-- ModelEntity&#45;&gt;Object -->
<g id="edge1" class="edge">
<title>ModelEntity&#45;&gt;Object</title>
<path fill="none" stroke="#000000" stroke-width=".5" d="M99.3941,-59.2937C126.9842,-56.4147 160.6495,-52.9018 185.718,-50.2859"/>
<polygon fill="#000000" stroke="#000000" stroke-width=".5" points="186.1403,-52.0015 190.9316,-49.7419 185.777,-48.5204 186.1403,-52.0015"/>
</g>
<!-- NamedEntity -->
<g id="node2" class="node">
<title>NamedEntity</title>
<g id="a_node2"><a xlink:href="../pyVHDLModel/pyVHDLModel.VHDLModel.html#pyVHDLModel.VHDLModel.NamedEntity" xlink:title="A ``NamedEntity`` is a mixin class for all VHDL entities that have names." target="_top">
<polygon fill="#ffffff" stroke="#000000" stroke-width=".5" points="99,-37 0,-37 0,-18 99,-18 99,-37"/>
<text text-anchor="middle" x="49.5" y="-25" font-family="Vera Sans, DejaVu Sans, Liberation Sans, Arial, Helvetica, sans" font-size="10.00" fill="#000000">NamedEntity</text>
</a>
</g>
</g>
<!-- NamedEntity&#45;&gt;Object -->
<g id="edge2" class="edge">
<title>NamedEntity&#45;&gt;Object</title>
<path fill="none" stroke="#000000" stroke-width=".5" d="M99.3941,-32.9956C126.9842,-36.0345 160.6495,-39.7425 185.718,-42.5037"/>
<polygon fill="#000000" stroke="#000000" stroke-width=".5" points="185.7701,-44.27 190.9316,-43.078 186.1533,-40.791 185.7701,-44.27"/>
</g>
<!-- Signal -->
<g id="node4" class="node">
<title>Signal</title>
<g id="a_node4"><a xlink:href="../pyVHDLModel/pyVHDLModel.VHDLModel.html#pyVHDLModel.VHDLModel.Signal" xlink:title="Signal" target="_top">
<polygon fill="#ffffff" stroke="#000000" stroke-width=".5" points="407,-37 345,-37 345,-18 407,-18 407,-37"/>
<text text-anchor="middle" x="376" y="-25" font-family="Vera Sans, DejaVu Sans, Liberation Sans, Arial, Helvetica, sans" font-size="10.00" fill="#000000">Signal</text>
</a>
</g>
</g>
<!-- Object&#45;&gt;Signal -->
<g id="edge3" class="edge">
<title>Object&#45;&gt;Signal</title>
<path fill="none" stroke="#000000" stroke-width=".5" d="M253.1642,-42.6551C278.2126,-39.5647 313.4356,-35.219 339.7448,-31.973"/>
<polygon fill="#000000" stroke="#000000" stroke-width=".5" points="340.1341,-33.6884 344.8821,-31.3392 339.7055,-30.2147 340.1341,-33.6884"/>
</g>
<!-- WithDefaultExpression -->
<g id="node5" class="node">
<title>WithDefaultExpression</title>
<g id="a_node5"><a xlink:href="../pyVHDLModel/pyVHDLModel.VHDLModel.html#pyVHDLModel.VHDLModel.WithDefaultExpression" xlink:title="A ``WithDefaultExpression`` is a mixin class for all objects declarations" target="_top">
<polygon fill="#ffffff" stroke="#000000" stroke-width=".5" points="309,-19 135,-19 135,0 309,0 309,-19"/>
<text text-anchor="middle" x="222" y="-7" font-family="Vera Sans, DejaVu Sans, Liberation Sans, Arial, Helvetica, sans" font-size="10.00" fill="#000000">WithDefaultExpression</text>
</a>
</g>
</g>
<!-- WithDefaultExpression&#45;&gt;Signal -->
<g id="edge4" class="edge">
<title>WithDefaultExpression&#45;&gt;Signal</title>
<path fill="none" stroke="#000000" stroke-width=".5" d="M303.5094,-19.0271C316.1578,-20.5055 328.6434,-21.9648 339.5947,-23.2448"/>
<polygon fill="#000000" stroke="#000000" stroke-width=".5" points="339.6722,-25.0157 344.8416,-23.8581 340.0786,-21.5394 339.6722,-25.0157"/>
</g>
</g>
</svg>
