<?xml version="1.0" encoding="UTF-8" standalone="no"?>
<!DOCTYPE svg PUBLIC "-//W3C//DTD SVG 1.1//EN"
 "http://www.w3.org/Graphics/SVG/1.1/DTD/svg11.dtd">
<!-- Generated by graphviz version 2.40.1 (0)
 -->
<!-- Title: inheritance16fd4d227e Pages: 1 -->
<svg width="576pt" height="102pt"
 viewBox="0.00 0.00 576.00 102.15" xmlns="http://www.w3.org/2000/svg" xmlns:xlink="http://www.w3.org/1999/xlink">
<g id="graph0" class="graph" transform="scale(.8584 .8584) rotate(0) translate(4 115)">
<title>inheritance16fd4d227e</title>
<!-- Branch -->
<g id="node1" class="node">
<title>Branch</title>
<g id="a_node1"><a xlink:href="../pyVHDLModel/pyVHDLModel.VHDLModel.html#pyVHDLModel.VHDLModel.Branch" xlink:title="A ``Branch`` is a base&#45;class for all branches." target="_top">
<polygon fill="#ffffff" stroke="#000000" stroke-width=".5" points="490.5,-56 428.5,-56 428.5,-37 490.5,-37 490.5,-56"/>
<text text-anchor="middle" x="459.5" y="-44" font-family="Vera Sans, DejaVu Sans, Liberation Sans, Arial, Helvetica, sans" font-size="10.00" fill="#000000">Branch</text>
</a>
</g>
</g>
<!-- ElsifBranch -->
<g id="node4" class="node">
<title>ElsifBranch</title>
<g id="a_node4"><a xlink:href="../pyVHDLModel/pyVHDLModel.VHDLModel.html#pyVHDLModel.VHDLModel.ElsifBranch" xlink:title="ElsifBranch" target="_top">
<polygon fill="#ffffff" stroke="#000000" stroke-width=".5" points="663,-74 564,-74 564,-55 663,-55 663,-74"/>
<text text-anchor="middle" x="613.5" y="-62" font-family="Vera Sans, DejaVu Sans, Liberation Sans, Arial, Helvetica, sans" font-size="10.00" fill="#000000">ElsifBranch</text>
</a>
</g>
</g>
<!-- Branch&#45;&gt;ElsifBranch -->
<g id="edge3" class="edge">
<title>Branch&#45;&gt;ElsifBranch</title>
<path fill="none" stroke="#000000" stroke-width=".5" d="M490.6642,-50.1426C510.1928,-52.4251 535.9057,-55.4305 558.7574,-58.1015"/>
<polygon fill="#000000" stroke="#000000" stroke-width=".5" points="558.7199,-59.859 563.8892,-58.7013 559.1262,-56.3826 558.7199,-59.859"/>
</g>
<!-- ModelEntity -->
<g id="node2" class="node">
<title>ModelEntity</title>
<g id="a_node2"><a xlink:href="../pyVHDLModel/pyVHDLModel.VHDLModel.html#pyVHDLModel.VHDLModel.ModelEntity" xlink:title="``ModelEntity`` is a base class for all classes in the VHDL language model," target="_top">
<polygon fill="#ffffff" stroke="#000000" stroke-width=".5" points="313.5,-56 214.5,-56 214.5,-37 313.5,-37 313.5,-56"/>
<text text-anchor="middle" x="264" y="-44" font-family="Vera Sans, DejaVu Sans, Liberation Sans, Arial, Helvetica, sans" font-size="10.00" fill="#000000">ModelEntity</text>
</a>
</g>
</g>
<!-- ModelEntity&#45;&gt;Branch -->
<g id="edge1" class="edge">
<title>ModelEntity&#45;&gt;Branch</title>
<path fill="none" stroke="#000000" stroke-width=".5" d="M313.5856,-46.5C347.6984,-46.5 392.2444,-46.5 423.1004,-46.5"/>
<polygon fill="#000000" stroke="#000000" stroke-width=".5" points="423.3135,-48.2501 428.3135,-46.5 423.3134,-44.7501 423.3135,-48.2501"/>
</g>
<!-- SequentialStatements -->
<g id="node3" class="node">
<title>SequentialStatements</title>
<g id="a_node3"><a xlink:href="../pyVHDLModel/pyVHDLModel.VHDLModel.html#pyVHDLModel.VHDLModel.SequentialStatements" xlink:title="SequentialStatements" target="_top">
<polygon fill="#ffffff" stroke="#000000" stroke-width=".5" points="347.5,-19 180.5,-19 180.5,0 347.5,0 347.5,-19"/>
<text text-anchor="middle" x="264" y="-7" font-family="Vera Sans, DejaVu Sans, Liberation Sans, Arial, Helvetica, sans" font-size="10.00" fill="#000000">SequentialStatements</text>
</a>
</g>
</g>
<!-- SequentialStatements&#45;&gt;Branch -->
<g id="edge2" class="edge">
<title>SequentialStatements&#45;&gt;Branch</title>
<path fill="none" stroke="#000000" stroke-width=".5" d="M314.3461,-19.0284C348.3556,-25.465 392.4666,-33.8134 423.0936,-39.6098"/>
<polygon fill="#000000" stroke="#000000" stroke-width=".5" points="423.0308,-41.3789 428.2691,-40.5893 423.6817,-37.9399 423.0308,-41.3789"/>
</g>
<!-- MixinElsifBranch -->
<g id="node5" class="node">
<title>MixinElsifBranch</title>
<g id="a_node5"><a xlink:href="../pyVHDLModel/pyVHDLModel.VHDLModel.html#pyVHDLModel.VHDLModel.MixinElsifBranch" xlink:title="A ``BaseElsifBranch`` is a mixin&#45;class for all elsif&#45;branches." target="_top">
<polygon fill="#ffffff" stroke="#000000" stroke-width=".5" points="528,-93 391,-93 391,-74 528,-74 528,-93"/>
<text text-anchor="middle" x="459.5" y="-81" font-family="Vera Sans, DejaVu Sans, Liberation Sans, Arial, Helvetica, sans" font-size="10.00" fill="#000000">MixinElsifBranch</text>
</a>
</g>
</g>
<!-- MixinElsifBranch&#45;&gt;ElsifBranch -->
<g id="edge4" class="edge">
<title>MixinElsifBranch&#45;&gt;ElsifBranch</title>
<path fill="none" stroke="#000000" stroke-width=".5" d="M528.3923,-75.0003C538.4855,-73.755 548.7665,-72.4866 558.5314,-71.2818"/>
<polygon fill="#000000" stroke="#000000" stroke-width=".5" points="558.839,-73.0073 563.587,-70.6581 558.4103,-69.5336 558.839,-73.0073"/>
</g>
<!-- MixinBranch -->
<g id="node6" class="node">
<title>MixinBranch</title>
<g id="a_node6"><a xlink:href="../pyVHDLModel/pyVHDLModel.VHDLModel.html#pyVHDLModel.VHDLModel.MixinBranch" xlink:title="A ``BaseBranch`` is a mixin&#45;class for all statements with branches." target="_top">
<polygon fill="#ffffff" stroke="#000000" stroke-width=".5" points="118,-111 19,-111 19,-92 118,-92 118,-111"/>
<text text-anchor="middle" x="68.5" y="-99" font-family="Vera Sans, DejaVu Sans, Liberation Sans, Arial, Helvetica, sans" font-size="10.00" fill="#000000">MixinBranch</text>
</a>
</g>
</g>
<!-- MixinConditionalBranch -->
<g id="node8" class="node">
<title>MixinConditionalBranch</title>
<g id="a_node8"><a xlink:href="../pyVHDLModel/pyVHDLModel.VHDLModel.html#pyVHDLModel.VHDLModel.MixinConditionalBranch" xlink:title="A ``BaseBranch`` is a mixin&#45;class for all branch statements with a condition." target="_top">
<polygon fill="#ffffff" stroke="#000000" stroke-width=".5" points="355,-93 173,-93 173,-74 355,-74 355,-93"/>
<text text-anchor="middle" x="264" y="-81" font-family="Vera Sans, DejaVu Sans, Liberation Sans, Arial, Helvetica, sans" font-size="10.00" fill="#000000">MixinConditionalBranch</text>
</a>
</g>
</g>
<!-- MixinBranch&#45;&gt;MixinConditionalBranch -->
<g id="edge5" class="edge">
<title>MixinBranch&#45;&gt;MixinConditionalBranch</title>
<path fill="none" stroke="#000000" stroke-width=".5" d="M118.0856,-96.9346C133.2582,-95.5376 150.4948,-93.9506 167.6728,-92.369"/>
<polygon fill="#000000" stroke="#000000" stroke-width=".5" points="168.1812,-94.0797 172.9997,-91.8785 167.8603,-90.5944 168.1812,-94.0797"/>
</g>
<!-- MixinConditional -->
<g id="node7" class="node">
<title>MixinConditional</title>
<g id="a_node7"><a xlink:href="../pyVHDLModel/pyVHDLModel.VHDLModel.html#pyVHDLModel.VHDLModel.MixinConditional" xlink:title="A ``BaseConditional`` is a mixin&#45;class for all statements with a condition." target="_top">
<polygon fill="#ffffff" stroke="#000000" stroke-width=".5" points="137,-74 0,-74 0,-55 137,-55 137,-74"/>
<text text-anchor="middle" x="68.5" y="-62" font-family="Vera Sans, DejaVu Sans, Liberation Sans, Arial, Helvetica, sans" font-size="10.00" fill="#000000">MixinConditional</text>
</a>
</g>
</g>
<!-- MixinConditional&#45;&gt;MixinConditionalBranch -->
<g id="edge6" class="edge">
<title>MixinConditional&#45;&gt;MixinConditionalBranch</title>
<path fill="none" stroke="#000000" stroke-width=".5" d="M137.1511,-71.172C147.0789,-72.1368 157.4473,-73.1445 167.7927,-74.1499"/>
<polygon fill="#000000" stroke="#000000" stroke-width=".5" points="167.7215,-75.9012 172.8674,-74.6431 168.0602,-72.4176 167.7215,-75.9012"/>
</g>
<!-- MixinConditionalBranch&#45;&gt;MixinElsifBranch -->
<g id="edge7" class="edge">
<title>MixinConditionalBranch&#45;&gt;MixinElsifBranch</title>
<path fill="none" stroke="#000000" stroke-width=".5" d="M355.1678,-83.5C365.4249,-83.5 375.7791,-83.5 385.7759,-83.5"/>
<polygon fill="#000000" stroke="#000000" stroke-width=".5" points="385.9686,-85.2501 390.9686,-83.5 385.9685,-81.7501 385.9686,-85.2501"/>
</g>
</g>
</svg>
