<?xml version="1.0" encoding="UTF-8" standalone="no"?>
<!DOCTYPE svg PUBLIC "-//W3C//DTD SVG 1.1//EN"
 "http://www.w3.org/Graphics/SVG/1.1/DTD/svg11.dtd">
<!-- Generated by graphviz version 2.40.1 (0)
 -->
<!-- Title: inheritancebb164e9ccc Pages: 1 -->
<svg width="506pt" height="27pt"
 viewBox="0.00 0.00 506.00 27.00" xmlns="http://www.w3.org/2000/svg" xmlns:xlink="http://www.w3.org/1999/xlink">
<g id="graph0" class="graph" transform="scale(1 1) rotate(0) translate(4 23)">
<title>inheritancebb164e9ccc</title>
<!-- ModelEntity -->
<g id="node1" class="node">
<title>ModelEntity</title>
<g id="a_node1"><a xlink:href="../pyVHDLModel/pyVHDLModel.VHDLModel.html#pyVHDLModel.VHDLModel.ModelEntity" xlink:title="``ModelEntity`` is a base class for all classes in the VHDL language model," target="_top">
<polygon fill="#ffffff" stroke="#000000" stroke-width=".5" points="99,-19 0,-19 0,0 99,0 99,-19"/>
<text text-anchor="middle" x="49.5" y="-7" font-family="Vera Sans, DejaVu Sans, Liberation Sans, Arial, Helvetica, sans" font-size="10.00" fill="#000000">ModelEntity</text>
</a>
</g>
</g>
<!-- Symbol -->
<g id="node3" class="node">
<title>Symbol</title>
<g id="a_node3"><a xlink:href="../pyVHDLModel/pyVHDLModel.VHDLModel.html#pyVHDLModel.VHDLModel.Symbol" xlink:title="Symbol" target="_top">
<polygon fill="#ffffff" stroke="#000000" stroke-width=".5" points="197,-19 135,-19 135,0 197,0 197,-19"/>
<text text-anchor="middle" x="166" y="-7" font-family="Vera Sans, DejaVu Sans, Liberation Sans, Arial, Helvetica, sans" font-size="10.00" fill="#000000">Symbol</text>
</a>
</g>
</g>
<!-- ModelEntity&#45;&gt;Symbol -->
<g id="edge2" class="edge">
<title>ModelEntity&#45;&gt;Symbol</title>
<path fill="none" stroke="#000000" stroke-width=".5" d="M99.2444,-9.5C109.4719,-9.5 120.057,-9.5 129.7016,-9.5"/>
<polygon fill="#000000" stroke="#000000" stroke-width=".5" points="129.9547,-11.2501 134.9547,-9.5 129.9546,-7.7501 129.9547,-11.2501"/>
</g>
<!-- ObjectSymbol -->
<g id="node2" class="node">
<title>ObjectSymbol</title>
<g id="a_node2"><a xlink:href="../pyVHDLModel/pyVHDLModel.VHDLModel.html#pyVHDLModel.VHDLModel.ObjectSymbol" xlink:title="ObjectSymbol" target="_top">
<polygon fill="#ffffff" stroke="#000000" stroke-width=".5" points="340,-19 233,-19 233,0 340,0 340,-19"/>
<text text-anchor="middle" x="286.5" y="-7" font-family="Vera Sans, DejaVu Sans, Liberation Sans, Arial, Helvetica, sans" font-size="10.00" fill="#000000">ObjectSymbol</text>
</a>
</g>
</g>
<!-- VariableSymbol -->
<g id="node4" class="node">
<title>VariableSymbol</title>
<g id="a_node4"><a xlink:href="../pyVHDLModel/pyVHDLModel.VHDLModel.html#pyVHDLModel.VHDLModel.VariableSymbol" xlink:title="VariableSymbol" target="_top">
<polygon fill="#ffffff" stroke="#000000" stroke-width=".5" points="498,-19 376,-19 376,0 498,0 498,-19"/>
<text text-anchor="middle" x="437" y="-7" font-family="Vera Sans, DejaVu Sans, Liberation Sans, Arial, Helvetica, sans" font-size="10.00" fill="#000000">VariableSymbol</text>
</a>
</g>
</g>
<!-- ObjectSymbol&#45;&gt;VariableSymbol -->
<g id="edge3" class="edge">
<title>ObjectSymbol&#45;&gt;VariableSymbol</title>
<path fill="none" stroke="#000000" stroke-width=".5" d="M340.4089,-9.5C350.177,-9.5 360.4682,-9.5 370.546,-9.5"/>
<polygon fill="#000000" stroke="#000000" stroke-width=".5" points="370.7927,-11.2501 375.7927,-9.5 370.7926,-7.7501 370.7927,-11.2501"/>
</g>
<!-- Symbol&#45;&gt;ObjectSymbol -->
<g id="edge1" class="edge">
<title>Symbol&#45;&gt;ObjectSymbol</title>
<path fill="none" stroke="#000000" stroke-width=".5" d="M197.0317,-9.5C206.3803,-9.5 216.9672,-9.5 227.503,-9.5"/>
<polygon fill="#000000" stroke="#000000" stroke-width=".5" points="227.6654,-11.2501 232.6654,-9.5 227.6653,-7.7501 227.6654,-11.2501"/>
</g>
</g>
</svg>
