<?xml version="1.0" encoding="UTF-8" standalone="no"?>
<!DOCTYPE svg PUBLIC "-//W3C//DTD SVG 1.1//EN"
 "http://www.w3.org/Graphics/SVG/1.1/DTD/svg11.dtd">
<!-- Generated by graphviz version 2.40.1 (0)
 -->
<!-- Title: inheritance59e80f9892 Pages: 1 -->
<svg width="576pt" height="81pt"
 viewBox="0.00 0.00 576.00 81.44" xmlns="http://www.w3.org/2000/svg" xmlns:xlink="http://www.w3.org/1999/xlink">
<g id="graph0" class="graph" transform="scale(.9813 .9813) rotate(0) translate(4 79)">
<title>inheritance59e80f9892</title>
<!-- LabeledEntity -->
<g id="node1" class="node">
<title>LabeledEntity</title>
<g id="a_node1"><a xlink:href="../pyVHDLModel/pyVHDLModel.VHDLModel.html#pyVHDLModel.VHDLModel.LabeledEntity" xlink:title="A ``LabeledEntity`` is a mixin class for all VHDL entities that can have" target="_top">
<polygon fill="#ffffff" stroke="#000000" stroke-width=".5" points="114,-75 0,-75 0,-56 114,-56 114,-75"/>
<text text-anchor="middle" x="57" y="-63" font-family="Vera Sans, DejaVu Sans, Liberation Sans, Arial, Helvetica, sans" font-size="10.00" fill="#000000">LabeledEntity</text>
</a>
</g>
</g>
<!-- Statement -->
<g id="node5" class="node">
<title>Statement</title>
<g id="a_node5"><a xlink:href="../pyVHDLModel/pyVHDLModel.VHDLModel.html#pyVHDLModel.VHDLModel.Statement" xlink:title="Statement" target="_top">
<polygon fill="#ffffff" stroke="#000000" stroke-width=".5" points="234,-56 150,-56 150,-37 234,-37 234,-56"/>
<text text-anchor="middle" x="192" y="-44" font-family="Vera Sans, DejaVu Sans, Liberation Sans, Arial, Helvetica, sans" font-size="10.00" fill="#000000">Statement</text>
</a>
</g>
</g>
<!-- LabeledEntity&#45;&gt;Statement -->
<g id="edge3" class="edge">
<title>LabeledEntity&#45;&gt;Statement</title>
<path fill="none" stroke="#000000" stroke-width=".5" d="M114.2522,-57.4423C124.4108,-56.0126 134.8864,-54.5382 144.7297,-53.1529"/>
<polygon fill="#000000" stroke="#000000" stroke-width=".5" points="145.1072,-54.8671 149.8145,-52.4372 144.6193,-51.4012 145.1072,-54.8671"/>
</g>
<!-- MixinConditional -->
<g id="node2" class="node">
<title>MixinConditional</title>
<g id="a_node2"><a xlink:href="../pyVHDLModel/pyVHDLModel.VHDLModel.html#pyVHDLModel.VHDLModel.MixinConditional" xlink:title="A ``BaseConditional`` is a mixin&#45;class for all statements with a condition." target="_top">
<polygon fill="#ffffff" stroke="#000000" stroke-width=".5" points="418,-19 281,-19 281,0 418,0 418,-19"/>
<text text-anchor="middle" x="349.5" y="-7" font-family="Vera Sans, DejaVu Sans, Liberation Sans, Arial, Helvetica, sans" font-size="10.00" fill="#000000">MixinConditional</text>
</a>
</g>
</g>
<!-- WaitStatement -->
<g id="node6" class="node">
<title>WaitStatement</title>
<g id="a_node6"><a xlink:href="../pyVHDLModel/pyVHDLModel.VHDLModel.html#pyVHDLModel.VHDLModel.WaitStatement" xlink:title="WaitStatement" target="_top">
<polygon fill="#ffffff" stroke="#000000" stroke-width=".5" points="579,-37 465,-37 465,-18 579,-18 579,-37"/>
<text text-anchor="middle" x="522" y="-25" font-family="Vera Sans, DejaVu Sans, Liberation Sans, Arial, Helvetica, sans" font-size="10.00" fill="#000000">WaitStatement</text>
</a>
</g>
</g>
<!-- MixinConditional&#45;&gt;WaitStatement -->
<g id="edge5" class="edge">
<title>MixinConditional&#45;&gt;WaitStatement</title>
<path fill="none" stroke="#000000" stroke-width=".5" d="M418.1722,-16.6658C431.858,-18.0939 446.1604,-19.5863 459.6209,-20.9909"/>
<polygon fill="#000000" stroke="#000000" stroke-width=".5" points="459.7787,-22.7668 464.9333,-21.5452 460.142,-19.2857 459.7787,-22.7668"/>
</g>
<!-- ModelEntity -->
<g id="node3" class="node">
<title>ModelEntity</title>
<g id="a_node3"><a xlink:href="../pyVHDLModel/pyVHDLModel.VHDLModel.html#pyVHDLModel.VHDLModel.ModelEntity" xlink:title="``ModelEntity`` is a base class for all classes in the VHDL language model," target="_top">
<polygon fill="#ffffff" stroke="#000000" stroke-width=".5" points="106.5,-38 7.5,-38 7.5,-19 106.5,-19 106.5,-38"/>
<text text-anchor="middle" x="57" y="-26" font-family="Vera Sans, DejaVu Sans, Liberation Sans, Arial, Helvetica, sans" font-size="10.00" fill="#000000">ModelEntity</text>
</a>
</g>
</g>
<!-- ModelEntity&#45;&gt;Statement -->
<g id="edge2" class="edge">
<title>ModelEntity&#45;&gt;Statement</title>
<path fill="none" stroke="#000000" stroke-width=".5" d="M106.5024,-35.1003C118.8814,-36.7508 132.1315,-38.5175 144.4152,-40.1554"/>
<polygon fill="#000000" stroke="#000000" stroke-width=".5" points="144.4276,-41.9224 149.6151,-40.8487 144.8903,-38.4531 144.4276,-41.9224"/>
</g>
<!-- SequentialStatement -->
<g id="node4" class="node">
<title>SequentialStatement</title>
<g id="a_node4"><a xlink:href="../pyVHDLModel/pyVHDLModel.VHDLModel.html#pyVHDLModel.VHDLModel.SequentialStatement" xlink:title="A ``SequentialStatement`` is a base&#45;class for all sequential statements." target="_top">
<polygon fill="#ffffff" stroke="#000000" stroke-width=".5" points="429,-56 270,-56 270,-37 429,-37 429,-56"/>
<text text-anchor="middle" x="349.5" y="-44" font-family="Vera Sans, DejaVu Sans, Liberation Sans, Arial, Helvetica, sans" font-size="10.00" fill="#000000">SequentialStatement</text>
</a>
</g>
</g>
<!-- SequentialStatement&#45;&gt;WaitStatement -->
<g id="edge4" class="edge">
<title>SequentialStatement&#45;&gt;WaitStatement</title>
<path fill="none" stroke="#000000" stroke-width=".5" d="M429.1858,-37.723C439.4095,-36.5969 449.7568,-35.4572 459.6488,-34.3677"/>
<polygon fill="#000000" stroke="#000000" stroke-width=".5" points="459.9988,-36.0898 464.7771,-33.8028 459.6156,-32.6108 459.9988,-36.0898"/>
</g>
<!-- Statement&#45;&gt;SequentialStatement -->
<g id="edge1" class="edge">
<title>Statement&#45;&gt;SequentialStatement</title>
<path fill="none" stroke="#000000" stroke-width=".5" d="M234.2071,-46.5C243.6822,-46.5 254.0641,-46.5 264.5937,-46.5"/>
<polygon fill="#000000" stroke="#000000" stroke-width=".5" points="264.7713,-48.2501 269.7713,-46.5 264.7713,-44.7501 264.7713,-48.2501"/>
</g>
</g>
</svg>
