<?xml version="1.0" encoding="UTF-8" standalone="no"?>
<!DOCTYPE svg PUBLIC "-//W3C//DTD SVG 1.1//EN"
 "http://www.w3.org/Graphics/SVG/1.1/DTD/svg11.dtd">
<!-- Generated by graphviz version 2.40.1 (0)
 -->
<!-- Title: inheritancec218f92451 Pages: 1 -->
<svg width="576pt" height="108pt"
 viewBox="0.00 0.00 576.00 108.28" xmlns="http://www.w3.org/2000/svg" xmlns:xlink="http://www.w3.org/1999/xlink">
<g id="graph0" class="graph" transform="scale(.91 .91) rotate(0) translate(4 115)">
<title>inheritancec218f92451</title>
<!-- ConcurrentStatement -->
<g id="node1" class="node">
<title>ConcurrentStatement</title>
<g id="a_node1"><a xlink:href="../pyVHDLModel/pyVHDLModel.VHDLModel.html#pyVHDLModel.VHDLModel.ConcurrentStatement" xlink:title="A ``ConcurrentStatement`` is a base&#45;class for all concurrent statements." target="_top">
<polygon fill="#ffffff" stroke="#000000" stroke-width=".5" points="440.5,-37 281.5,-37 281.5,-18 440.5,-18 440.5,-37"/>
<text text-anchor="middle" x="361" y="-25" font-family="Vera Sans, DejaVu Sans, Liberation Sans, Arial, Helvetica, sans" font-size="10.00" fill="#000000">ConcurrentStatement</text>
</a>
</g>
</g>
<!-- ProcessStatement -->
<g id="node5" class="node">
<title>ProcessStatement</title>
<g id="a_node5"><a xlink:href="../pyVHDLModel/pyVHDLModel.VHDLModel.html#pyVHDLModel.VHDLModel.ProcessStatement" xlink:title="ProcessStatement" target="_top">
<polygon fill="#ffffff" stroke="#000000" stroke-width=".5" points="625,-74 488,-74 488,-55 625,-55 625,-74"/>
<text text-anchor="middle" x="556.5" y="-62" font-family="Vera Sans, DejaVu Sans, Liberation Sans, Arial, Helvetica, sans" font-size="10.00" fill="#000000">ProcessStatement</text>
</a>
</g>
</g>
<!-- ConcurrentStatement&#45;&gt;ProcessStatement -->
<g id="edge2" class="edge">
<title>ConcurrentStatement&#45;&gt;ProcessStatement</title>
<path fill="none" stroke="#000000" stroke-width=".5" d="M411.3461,-37.0284C438.7182,-42.2088 472.6336,-48.6276 500.7963,-53.9576"/>
<polygon fill="#000000" stroke="#000000" stroke-width=".5" points="500.7469,-55.7292 505.9851,-54.9396 501.3978,-52.2903 500.7469,-55.7292"/>
</g>
<!-- Statement -->
<g id="node2" class="node">
<title>Statement</title>
<g id="a_node2"><a xlink:href="../pyVHDLModel/pyVHDLModel.VHDLModel.html#pyVHDLModel.VHDLModel.Statement" xlink:title="Statement" target="_top">
<polygon fill="#ffffff" stroke="#000000" stroke-width=".5" points="234,-37 150,-37 150,-18 234,-18 234,-37"/>
<text text-anchor="middle" x="192" y="-25" font-family="Vera Sans, DejaVu Sans, Liberation Sans, Arial, Helvetica, sans" font-size="10.00" fill="#000000">Statement</text>
</a>
</g>
</g>
<!-- Statement&#45;&gt;ConcurrentStatement -->
<g id="edge1" class="edge">
<title>Statement&#45;&gt;ConcurrentStatement</title>
<path fill="none" stroke="#000000" stroke-width=".5" d="M234.2099,-27.5C247.0097,-27.5 261.5538,-27.5 276.1132,-27.5"/>
<polygon fill="#000000" stroke="#000000" stroke-width=".5" points="276.4748,-29.2501 281.4747,-27.5 276.4747,-25.7501 276.4748,-29.2501"/>
</g>
<!-- LabeledEntity -->
<g id="node3" class="node">
<title>LabeledEntity</title>
<g id="a_node3"><a xlink:href="../pyVHDLModel/pyVHDLModel.VHDLModel.html#pyVHDLModel.VHDLModel.LabeledEntity" xlink:title="A ``LabeledEntity`` is a mixin class for all VHDL entities that can have" target="_top">
<polygon fill="#ffffff" stroke="#000000" stroke-width=".5" points="114,-56 0,-56 0,-37 114,-37 114,-56"/>
<text text-anchor="middle" x="57" y="-44" font-family="Vera Sans, DejaVu Sans, Liberation Sans, Arial, Helvetica, sans" font-size="10.00" fill="#000000">LabeledEntity</text>
</a>
</g>
</g>
<!-- LabeledEntity&#45;&gt;Statement -->
<g id="edge6" class="edge">
<title>LabeledEntity&#45;&gt;Statement</title>
<path fill="none" stroke="#000000" stroke-width=".5" d="M114.2522,-38.4423C124.4108,-37.0126 134.8864,-35.5382 144.7297,-34.1529"/>
<polygon fill="#000000" stroke="#000000" stroke-width=".5" points="145.1072,-35.8671 149.8145,-33.4372 144.6193,-32.4012 145.1072,-35.8671"/>
</g>
<!-- ModelEntity -->
<g id="node4" class="node">
<title>ModelEntity</title>
<g id="a_node4"><a xlink:href="../pyVHDLModel/pyVHDLModel.VHDLModel.html#pyVHDLModel.VHDLModel.ModelEntity" xlink:title="``ModelEntity`` is a base class for all classes in the VHDL language model," target="_top">
<polygon fill="#ffffff" stroke="#000000" stroke-width=".5" points="106.5,-19 7.5,-19 7.5,0 106.5,0 106.5,-19"/>
<text text-anchor="middle" x="57" y="-7" font-family="Vera Sans, DejaVu Sans, Liberation Sans, Arial, Helvetica, sans" font-size="10.00" fill="#000000">ModelEntity</text>
</a>
</g>
</g>
<!-- ModelEntity&#45;&gt;Statement -->
<g id="edge5" class="edge">
<title>ModelEntity&#45;&gt;Statement</title>
<path fill="none" stroke="#000000" stroke-width=".5" d="M106.5024,-16.1003C118.8814,-17.7508 132.1315,-19.5175 144.4152,-21.1554"/>
<polygon fill="#000000" stroke="#000000" stroke-width=".5" points="144.4276,-22.9224 149.6151,-21.8487 144.8903,-19.4531 144.4276,-22.9224"/>
</g>
<!-- SequentialDeclarations -->
<g id="node6" class="node">
<title>SequentialDeclarations</title>
<g id="a_node6"><a xlink:href="../pyVHDLModel/pyVHDLModel.VHDLModel.html#pyVHDLModel.VHDLModel.SequentialDeclarations" xlink:title="SequentialDeclarations" target="_top">
<polygon fill="#ffffff" stroke="#000000" stroke-width=".5" points="452,-111 270,-111 270,-92 452,-92 452,-111"/>
<text text-anchor="middle" x="361" y="-99" font-family="Vera Sans, DejaVu Sans, Liberation Sans, Arial, Helvetica, sans" font-size="10.00" fill="#000000">SequentialDeclarations</text>
</a>
</g>
</g>
<!-- SequentialDeclarations&#45;&gt;ProcessStatement -->
<g id="edge3" class="edge">
<title>SequentialDeclarations&#45;&gt;ProcessStatement</title>
<path fill="none" stroke="#000000" stroke-width=".5" d="M411.3461,-91.9716C438.7182,-86.7912 472.6336,-80.3724 500.7963,-75.0424"/>
<polygon fill="#000000" stroke="#000000" stroke-width=".5" points="501.3978,-76.7097 505.9851,-74.0604 500.7469,-73.2708 501.3978,-76.7097"/>
</g>
<!-- SequentialStatements -->
<g id="node7" class="node">
<title>SequentialStatements</title>
<g id="a_node7"><a xlink:href="../pyVHDLModel/pyVHDLModel.VHDLModel.html#pyVHDLModel.VHDLModel.SequentialStatements" xlink:title="SequentialStatements" target="_top">
<polygon fill="#ffffff" stroke="#000000" stroke-width=".5" points="444.5,-74 277.5,-74 277.5,-55 444.5,-55 444.5,-74"/>
<text text-anchor="middle" x="361" y="-62" font-family="Vera Sans, DejaVu Sans, Liberation Sans, Arial, Helvetica, sans" font-size="10.00" fill="#000000">SequentialStatements</text>
</a>
</g>
</g>
<!-- SequentialStatements&#45;&gt;ProcessStatement -->
<g id="edge4" class="edge">
<title>SequentialStatements&#45;&gt;ProcessStatement</title>
<path fill="none" stroke="#000000" stroke-width=".5" d="M444.7604,-64.5C457.3652,-64.5 470.2869,-64.5 482.6636,-64.5"/>
<polygon fill="#000000" stroke="#000000" stroke-width=".5" points="482.9321,-66.2501 487.9321,-64.5 482.9321,-62.7501 482.9321,-66.2501"/>
</g>
</g>
</svg>
