<?xml version="1.0" encoding="UTF-8" standalone="no"?>
<!DOCTYPE svg PUBLIC "-//W3C//DTD SVG 1.1//EN"
 "http://www.w3.org/Graphics/SVG/1.1/DTD/svg11.dtd">
<!-- Generated by graphviz version 2.40.1 (0)
 -->
<!-- Title: inheritance9964fc2623 Pages: 1 -->
<svg width="576pt" height="59pt"
 viewBox="0.00 0.00 576.00 58.98" xmlns="http://www.w3.org/2000/svg" xmlns:xlink="http://www.w3.org/1999/xlink">
<g id="graph0" class="graph" transform="scale(.9216 .9216) rotate(0) translate(4 60)">
<title>inheritance9964fc2623</title>
<!-- BaseExpression -->
<g id="node1" class="node">
<title>BaseExpression</title>
<g id="a_node1"><a xlink:href="../pyVHDLModel/pyVHDLModel.VHDLModel.html#pyVHDLModel.VHDLModel.BaseExpression" xlink:title="A ``BaseExpression`` is a base&#45;class for all expressions." target="_top">
<polygon fill="#ffffff" stroke="#000000" stroke-width=".5" points="257,-19 135,-19 135,0 257,0 257,-19"/>
<text text-anchor="middle" x="196" y="-7" font-family="Vera Sans, DejaVu Sans, Liberation Sans, Arial, Helvetica, sans" font-size="10.00" fill="#000000">BaseExpression</text>
</a>
</g>
</g>
<!-- UnaryExpression -->
<g id="node7" class="node">
<title>UnaryExpression</title>
<g id="a_node7"><a xlink:href="../pyVHDLModel/pyVHDLModel.VHDLModel.html#pyVHDLModel.VHDLModel.UnaryExpression" xlink:title="A ``UnaryExpression`` is a base&#45;class for all unary expressions." target="_top">
<polygon fill="#ffffff" stroke="#000000" stroke-width=".5" points="444.5,-19 315.5,-19 315.5,0 444.5,0 444.5,-19"/>
<text text-anchor="middle" x="380" y="-7" font-family="Vera Sans, DejaVu Sans, Liberation Sans, Arial, Helvetica, sans" font-size="10.00" fill="#000000">UnaryExpression</text>
</a>
</g>
</g>
<!-- BaseExpression&#45;&gt;UnaryExpression -->
<g id="edge6" class="edge">
<title>BaseExpression&#45;&gt;UnaryExpression</title>
<path fill="none" stroke="#000000" stroke-width=".5" d="M257.0138,-9.5C273.9836,-9.5 292.546,-9.5 309.9883,-9.5"/>
<polygon fill="#000000" stroke="#000000" stroke-width=".5" points="310.3625,-11.2501 315.3625,-9.5 310.3624,-7.7501 310.3625,-11.2501"/>
</g>
<!-- ModelEntity -->
<g id="node2" class="node">
<title>ModelEntity</title>
<g id="a_node2"><a xlink:href="../pyVHDLModel/pyVHDLModel.VHDLModel.html#pyVHDLModel.VHDLModel.ModelEntity" xlink:title="``ModelEntity`` is a base class for all classes in the VHDL language model," target="_top">
<polygon fill="#ffffff" stroke="#000000" stroke-width=".5" points="99,-19 0,-19 0,0 99,0 99,-19"/>
<text text-anchor="middle" x="49.5" y="-7" font-family="Vera Sans, DejaVu Sans, Liberation Sans, Arial, Helvetica, sans" font-size="10.00" fill="#000000">ModelEntity</text>
</a>
</g>
</g>
<!-- ModelEntity&#45;&gt;BaseExpression -->
<g id="edge1" class="edge">
<title>ModelEntity&#45;&gt;BaseExpression</title>
<path fill="none" stroke="#000000" stroke-width=".5" d="M99.0982,-9.5C108.9426,-9.5 119.4255,-9.5 129.7228,-9.5"/>
<polygon fill="#000000" stroke="#000000" stroke-width=".5" points="129.7594,-11.2501 134.7594,-9.5 129.7594,-7.7501 129.7594,-11.2501"/>
</g>
<!-- Generic -->
<g id="node3" class="node">
<title>Generic</title>
<g id="a_node3"><a xlink:title="Abstract base class for generic types.">
<polygon fill="#ffffff" stroke="#000000" stroke-width=".5" points="84,-56 15,-56 15,-37 84,-37 84,-56"/>
<text text-anchor="middle" x="49.5" y="-44" font-family="Vera Sans, DejaVu Sans, Liberation Sans, Arial, Helvetica, sans" font-size="10.00" fill="#000000">Generic</text>
</a>
</g>
</g>
<!-- Protocol -->
<g id="node5" class="node">
<title>Protocol</title>
<g id="a_node5"><a xlink:title="Base class for protocol classes.">
<polygon fill="#ffffff" stroke="#000000" stroke-width=".5" points="234.5,-56 157.5,-56 157.5,-37 234.5,-37 234.5,-56"/>
<text text-anchor="middle" x="196" y="-44" font-family="Vera Sans, DejaVu Sans, Liberation Sans, Arial, Helvetica, sans" font-size="10.00" fill="#000000">Protocol</text>
</a>
</g>
</g>
<!-- Generic&#45;&gt;Protocol -->
<g id="edge3" class="edge">
<title>Generic&#45;&gt;Protocol</title>
<path fill="none" stroke="#000000" stroke-width=".5" d="M84.2185,-46.5C104.5852,-46.5 130.5076,-46.5 152.2607,-46.5"/>
<polygon fill="#000000" stroke="#000000" stroke-width=".5" points="152.4071,-48.2501 157.4071,-46.5 152.407,-44.7501 152.4071,-48.2501"/>
</g>
<!-- ParenthesisExpression -->
<g id="node4" class="node">
<title>ParenthesisExpression</title>
<g id="a_node4"><a xlink:href="../pyVHDLModel/pyVHDLModel.VHDLModel.html#pyVHDLModel.VHDLModel.ParenthesisExpression" xlink:title="ParenthesisExpression" target="_top">
<polygon fill="#ffffff" stroke="#000000" stroke-width=".5" points="467,-56 293,-56 293,-37 467,-37 467,-56"/>
<text text-anchor="middle" x="380" y="-44" font-family="Vera Sans, DejaVu Sans, Liberation Sans, Arial, Helvetica, sans" font-size="10.00" fill="#000000">ParenthesisExpression</text>
</a>
</g>
</g>
<!-- SubExpression -->
<g id="node6" class="node">
<title>SubExpression</title>
<g id="a_node6"><a xlink:href="../pyVHDLModel/pyVHDLModel.VHDLModel.html#pyVHDLModel.VHDLModel.SubExpression" xlink:title="SubExpression" target="_top">
<polygon fill="#ffffff" stroke="#000000" stroke-width=".5" points="617,-37 503,-37 503,-18 617,-18 617,-37"/>
<text text-anchor="middle" x="560" y="-25" font-family="Vera Sans, DejaVu Sans, Liberation Sans, Arial, Helvetica, sans" font-size="10.00" fill="#000000">SubExpression</text>
</a>
</g>
</g>
<!-- ParenthesisExpression&#45;&gt;SubExpression -->
<g id="edge5" class="edge">
<title>ParenthesisExpression&#45;&gt;SubExpression</title>
<path fill="none" stroke="#000000" stroke-width=".5" d="M467.1001,-37.3061C477.4164,-36.2172 487.7835,-35.1229 497.6586,-34.0805"/>
<polygon fill="#000000" stroke="#000000" stroke-width=".5" points="497.9863,-35.8057 502.7749,-33.5404 497.6188,-32.325 497.9863,-35.8057"/>
</g>
<!-- Protocol&#45;&gt;ParenthesisExpression -->
<g id="edge2" class="edge">
<title>Protocol&#45;&gt;ParenthesisExpression</title>
<path fill="none" stroke="#000000" stroke-width=".5" d="M234.5724,-46.5C250.1769,-46.5 268.9197,-46.5 287.6801,-46.5"/>
<polygon fill="#000000" stroke="#000000" stroke-width=".5" points="287.9695,-48.2501 292.9694,-46.5 287.9694,-44.7501 287.9695,-48.2501"/>
</g>
<!-- UnaryExpression&#45;&gt;SubExpression -->
<g id="edge4" class="edge">
<title>UnaryExpression&#45;&gt;SubExpression</title>
<path fill="none" stroke="#000000" stroke-width=".5" d="M444.7298,-15.973C461.9932,-17.6993 480.6064,-19.5606 497.7343,-21.2734"/>
<polygon fill="#000000" stroke="#000000" stroke-width=".5" points="497.8497,-23.0436 502.9991,-21.7999 498.198,-19.561 497.8497,-23.0436"/>
</g>
</g>
</svg>
