<?xml version="1.0" encoding="UTF-8" standalone="no"?>
<!DOCTYPE svg PUBLIC "-//W3C//DTD SVG 1.1//EN"
 "http://www.w3.org/Graphics/SVG/1.1/DTD/svg11.dtd">
<!-- Generated by graphviz version 2.40.1 (0)
 -->
<!-- Title: inheritance07c122af6a Pages: 1 -->
<svg width="513pt" height="82pt"
 viewBox="0.00 0.00 513.00 82.00" xmlns="http://www.w3.org/2000/svg" xmlns:xlink="http://www.w3.org/1999/xlink">
<g id="graph0" class="graph" transform="scale(1 1) rotate(0) translate(4 78)">
<title>inheritance07c122af6a</title>
<!-- Function -->
<g id="node1" class="node">
<title>Function</title>
<g id="a_node1"><a xlink:href="../pyVHDLModel/pyVHDLModel.VHDLModel.html#pyVHDLModel.VHDLModel.Function" xlink:title="Function" target="_top">
<polygon fill="#ffffff" stroke="#000000" stroke-width=".5" points="347,-37 270,-37 270,-18 347,-18 347,-37"/>
<text text-anchor="middle" x="308.5" y="-25" font-family="Vera Sans, DejaVu Sans, Liberation Sans, Arial, Helvetica, sans" font-size="10.00" fill="#000000">Function</text>
</a>
</g>
</g>
<!-- FunctionMethod -->
<g id="node3" class="node">
<title>FunctionMethod</title>
<g id="a_node3"><a xlink:href="../pyVHDLModel/pyVHDLModel.VHDLModel.html#pyVHDLModel.VHDLModel.FunctionMethod" xlink:title="FunctionMethod" target="_top">
<polygon fill="#ffffff" stroke="#000000" stroke-width=".5" points="505,-55 383,-55 383,-36 505,-36 505,-55"/>
<text text-anchor="middle" x="444" y="-43" font-family="Vera Sans, DejaVu Sans, Liberation Sans, Arial, Helvetica, sans" font-size="10.00" fill="#000000">FunctionMethod</text>
</a>
</g>
</g>
<!-- Function&#45;&gt;FunctionMethod -->
<g id="edge2" class="edge">
<title>Function&#45;&gt;FunctionMethod</title>
<path fill="none" stroke="#000000" stroke-width=".5" d="M347.3289,-32.6581C356.8721,-33.9258 367.3578,-35.3187 377.7946,-36.7052"/>
<polygon fill="#000000" stroke="#000000" stroke-width=".5" points="377.7229,-38.461 382.9099,-37.3847 378.1839,-34.9914 377.7229,-38.461"/>
</g>
<!-- SubProgramm -->
<g id="node2" class="node">
<title>SubProgramm</title>
<g id="a_node2"><a xlink:href="../pyVHDLModel/pyVHDLModel.VHDLModel.html#pyVHDLModel.VHDLModel.SubProgramm" xlink:title="SubProgramm" target="_top">
<polygon fill="#ffffff" stroke="#000000" stroke-width=".5" points="234,-37 135,-37 135,-18 234,-18 234,-37"/>
<text text-anchor="middle" x="184.5" y="-25" font-family="Vera Sans, DejaVu Sans, Liberation Sans, Arial, Helvetica, sans" font-size="10.00" fill="#000000">SubProgramm</text>
</a>
</g>
</g>
<!-- SubProgramm&#45;&gt;Function -->
<g id="edge1" class="edge">
<title>SubProgramm&#45;&gt;Function</title>
<path fill="none" stroke="#000000" stroke-width=".5" d="M234.2211,-27.5C244.3194,-27.5 254.8705,-27.5 264.7439,-27.5"/>
<polygon fill="#000000" stroke="#000000" stroke-width=".5" points="264.8394,-29.2501 269.8393,-27.5 264.8393,-25.7501 264.8394,-29.2501"/>
</g>
<!-- Method -->
<g id="node4" class="node">
<title>Method</title>
<g id="a_node4"><a xlink:href="../pyVHDLModel/pyVHDLModel.VHDLModel.html#pyVHDLModel.VHDLModel.Method" xlink:title="A ``Method`` is a mixin class for all subprograms in a protected type." target="_top">
<polygon fill="#ffffff" stroke="#000000" stroke-width=".5" points="339.5,-74 277.5,-74 277.5,-55 339.5,-55 339.5,-74"/>
<text text-anchor="middle" x="308.5" y="-62" font-family="Vera Sans, DejaVu Sans, Liberation Sans, Arial, Helvetica, sans" font-size="10.00" fill="#000000">Method</text>
</a>
</g>
</g>
<!-- Method&#45;&gt;FunctionMethod -->
<g id="edge3" class="edge">
<title>Method&#45;&gt;FunctionMethod</title>
<path fill="none" stroke="#000000" stroke-width=".5" d="M339.5864,-60.141C350.9676,-58.5451 364.3242,-56.6723 377.611,-54.8092"/>
<polygon fill="#000000" stroke="#000000" stroke-width=".5" points="378.1851,-56.4959 382.8937,-54.0684 377.6991,-53.0298 378.1851,-56.4959"/>
</g>
<!-- ModelEntity -->
<g id="node5" class="node">
<title>ModelEntity</title>
<g id="a_node5"><a xlink:href="../pyVHDLModel/pyVHDLModel.VHDLModel.html#pyVHDLModel.VHDLModel.ModelEntity" xlink:title="``ModelEntity`` is a base class for all classes in the VHDL language model," target="_top">
<polygon fill="#ffffff" stroke="#000000" stroke-width=".5" points="99,-56 0,-56 0,-37 99,-37 99,-56"/>
<text text-anchor="middle" x="49.5" y="-44" font-family="Vera Sans, DejaVu Sans, Liberation Sans, Arial, Helvetica, sans" font-size="10.00" fill="#000000">ModelEntity</text>
</a>
</g>
</g>
<!-- ModelEntity&#45;&gt;SubProgramm -->
<g id="edge4" class="edge">
<title>ModelEntity&#45;&gt;SubProgramm</title>
<path fill="none" stroke="#000000" stroke-width=".5" d="M99.0024,-39.533C108.871,-38.1441 119.2933,-36.6772 129.3382,-35.2635"/>
<polygon fill="#000000" stroke="#000000" stroke-width=".5" points="129.8444,-36.9596 134.5516,-34.5298 129.3565,-33.4938 129.8444,-36.9596"/>
</g>
<!-- NamedEntity -->
<g id="node6" class="node">
<title>NamedEntity</title>
<g id="a_node6"><a xlink:href="../pyVHDLModel/pyVHDLModel.VHDLModel.html#pyVHDLModel.VHDLModel.NamedEntity" xlink:title="A ``NamedEntity`` is a mixin class for all VHDL entities that have names." target="_top">
<polygon fill="#ffffff" stroke="#000000" stroke-width=".5" points="99,-19 0,-19 0,0 99,0 99,-19"/>
<text text-anchor="middle" x="49.5" y="-7" font-family="Vera Sans, DejaVu Sans, Liberation Sans, Arial, Helvetica, sans" font-size="10.00" fill="#000000">NamedEntity</text>
</a>
</g>
</g>
<!-- NamedEntity&#45;&gt;SubProgramm -->
<g id="edge5" class="edge">
<title>NamedEntity&#45;&gt;SubProgramm</title>
<path fill="none" stroke="#000000" stroke-width=".5" d="M99.0024,-16.1003C108.871,-17.4161 119.2933,-18.8058 129.3382,-20.1451"/>
<polygon fill="#000000" stroke="#000000" stroke-width=".5" points="129.3642,-21.914 134.5516,-20.8402 129.8268,-18.4447 129.3642,-21.914"/>
</g>
</g>
</svg>
