<?xml version="1.0" encoding="UTF-8" standalone="no"?>
<!DOCTYPE svg PUBLIC "-//W3C//DTD SVG 1.1//EN"
 "http://www.w3.org/Graphics/SVG/1.1/DTD/svg11.dtd">
<!-- Generated by graphviz version 2.40.1 (0)
 -->
<!-- Title: inheritance9b58bb7bb6 Pages: 1 -->
<svg width="576pt" height="87pt"
 viewBox="0.00 0.00 576.00 87.25" xmlns="http://www.w3.org/2000/svg" xmlns:xlink="http://www.w3.org/1999/xlink">
<g id="graph0" class="graph" transform="scale(.6323 .6323) rotate(0) translate(4 134)">
<title>inheritance9b58bb7bb6</title>
<!-- BaseConstant -->
<g id="node1" class="node">
<title>BaseConstant</title>
<g id="a_node1"><a xlink:href="../../pyVHDLModel/pyVHDLModel.VHDLModel.html#pyVHDLModel.VHDLModel.BaseConstant" xlink:title="BaseConstant" target="_top">
<polygon fill="#ffffff" stroke="#000000" stroke-width=".5" points="373.5,-93 266.5,-93 266.5,-74 373.5,-74 373.5,-93"/>
<text text-anchor="middle" x="320" y="-81" font-family="Vera Sans, DejaVu Sans, Liberation Sans, Arial, Helvetica, sans" font-size="10.00" fill="#000000">BaseConstant</text>
</a>
</g>
</g>
<!-- Constant -->
<g id="node3" class="node">
<title>Constant</title>
<g id="a_node3"><a xlink:href="../../pyVHDLModel/pyVHDLModel.VHDLModel.html#pyVHDLModel.VHDLModel.Constant" xlink:title="Constant" target="_top">
<polygon fill="#ffffff" stroke="#000000" stroke-width=".5" points="572.5,-130 495.5,-130 495.5,-111 572.5,-111 572.5,-130"/>
<text text-anchor="middle" x="534" y="-118" font-family="Vera Sans, DejaVu Sans, Liberation Sans, Arial, Helvetica, sans" font-size="10.00" fill="#000000">Constant</text>
</a>
</g>
</g>
<!-- BaseConstant&#45;&gt;Constant -->
<g id="edge2" class="edge">
<title>BaseConstant&#45;&gt;Constant</title>
<path fill="none" stroke="#000000" stroke-width=".5" d="M373.725,-92.7889C409.6871,-99.0066 456.4285,-107.0881 490.145,-112.9176"/>
<polygon fill="#000000" stroke="#000000" stroke-width=".5" points="490.2157,-114.7057 495.4408,-113.8332 490.812,-111.2569 490.2157,-114.7057"/>
</g>
<!-- DeferredConstant -->
<g id="node5" class="node">
<title>DeferredConstant</title>
<g id="a_node5"><a xlink:href="../../pyVHDLModel/pyVHDLModel.VHDLModel.html#pyVHDLModel.VHDLModel.DeferredConstant" xlink:title="DeferredConstant" target="_top">
<polygon fill="#ffffff" stroke="#000000" stroke-width=".5" points="602.5,-93 465.5,-93 465.5,-74 602.5,-74 602.5,-93"/>
<text text-anchor="middle" x="534" y="-81" font-family="Vera Sans, DejaVu Sans, Liberation Sans, Arial, Helvetica, sans" font-size="10.00" fill="#000000">DeferredConstant</text>
</a>
</g>
</g>
<!-- BaseConstant&#45;&gt;DeferredConstant -->
<g id="edge4" class="edge">
<title>BaseConstant&#45;&gt;DeferredConstant</title>
<path fill="none" stroke="#000000" stroke-width=".5" d="M373.725,-83.5C399.8335,-83.5 431.6236,-83.5 459.9863,-83.5"/>
<polygon fill="#000000" stroke="#000000" stroke-width=".5" points="460.2402,-85.2501 465.2402,-83.5 460.2401,-81.7501 460.2402,-85.2501"/>
</g>
<!-- Object -->
<g id="node2" class="node">
<title>Object</title>
<g id="a_node2"><a xlink:href="../../pyVHDLModel/pyVHDLModel.VHDLModel.html#pyVHDLModel.VHDLModel.Object" xlink:title="Object" target="_top">
<polygon fill="#ffffff" stroke="#000000" stroke-width=".5" points="197,-93 135,-93 135,-74 197,-74 197,-93"/>
<text text-anchor="middle" x="166" y="-81" font-family="Vera Sans, DejaVu Sans, Liberation Sans, Arial, Helvetica, sans" font-size="10.00" fill="#000000">Object</text>
</a>
</g>
</g>
<!-- Object&#45;&gt;BaseConstant -->
<g id="edge1" class="edge">
<title>Object&#45;&gt;BaseConstant</title>
<path fill="none" stroke="#000000" stroke-width=".5" d="M197.1642,-83.5C215.5529,-83.5 239.4252,-83.5 261.2287,-83.5"/>
<polygon fill="#000000" stroke="#000000" stroke-width=".5" points="261.4288,-85.2501 266.4287,-83.5 261.4287,-81.7501 261.4288,-85.2501"/>
</g>
<!-- GenericConstantInterfaceItem -->
<g id="node6" class="node">
<title>GenericConstantInterfaceItem</title>
<g id="a_node6"><a xlink:href="../../pyVHDLModel/pyVHDLModel.VHDLModel.html#pyVHDLModel.VHDLModel.GenericConstantInterfaceItem" xlink:title="GenericConstantInterfaceItem" target="_top">
<polygon fill="#ffffff" stroke="#000000" stroke-width=".5" points="895.5,-111 668.5,-111 668.5,-92 895.5,-92 895.5,-111"/>
<text text-anchor="middle" x="782" y="-99" font-family="Vera Sans, DejaVu Sans, Liberation Sans, Arial, Helvetica, sans" font-size="10.00" fill="#000000">GenericConstantInterfaceItem</text>
</a>
</g>
</g>
<!-- Constant&#45;&gt;GenericConstantInterfaceItem -->
<g id="edge5" class="edge">
<title>Constant&#45;&gt;GenericConstantInterfaceItem</title>
<path fill="none" stroke="#000000" stroke-width=".5" d="M572.75,-117.5313C597.2547,-115.6539 630.3685,-113.1169 663.0177,-110.6156"/>
<polygon fill="#000000" stroke="#000000" stroke-width=".5" points="663.4006,-112.3415 668.2523,-110.2145 663.1332,-108.8517 663.4006,-112.3415"/>
</g>
<!-- ParameterConstantInterfaceItem -->
<g id="node11" class="node">
<title>ParameterConstantInterfaceItem</title>
<g id="a_node11"><a xlink:href="../../pyVHDLModel/pyVHDLModel.VHDLModel.html#pyVHDLModel.VHDLModel.ParameterConstantInterfaceItem" xlink:title="ParameterConstantInterfaceItem" target="_top">
<polygon fill="#ffffff" stroke="#000000" stroke-width=".5" points="903,-56 661,-56 661,-37 903,-37 903,-56"/>
<text text-anchor="middle" x="782" y="-44" font-family="Vera Sans, DejaVu Sans, Liberation Sans, Arial, Helvetica, sans" font-size="10.00" fill="#000000">ParameterConstantInterfaceItem</text>
</a>
</g>
</g>
<!-- Constant&#45;&gt;ParameterConstantInterfaceItem -->
<g id="edge10" class="edge">
<title>Constant&#45;&gt;ParameterConstantInterfaceItem</title>
<path fill="none" stroke="#000000" stroke-width=".5" d="M572.7406,-115.3861C589.1519,-112.5705 608.3016,-108.4153 625,-102.5 642.0533,-96.459 644.275,-90.3981 661,-83.5 686.4052,-73.0217 715.876,-63.9487 739.372,-57.4096"/>
<polygon fill="#000000" stroke="#000000" stroke-width=".5" points="739.9365,-59.0694 744.2915,-56.0532 739.0061,-55.6953 739.9365,-59.0694"/>
</g>
<!-- WithDefaultExpression -->
<g id="node4" class="node">
<title>WithDefaultExpression</title>
<g id="a_node4"><a xlink:href="../../pyVHDLModel/pyVHDLModel.VHDLModel.html#pyVHDLModel.VHDLModel.WithDefaultExpression" xlink:title="A ``WithDefaultExpression`` is a mixin class for all objects declarations" target="_top">
<polygon fill="#ffffff" stroke="#000000" stroke-width=".5" points="407,-130 233,-130 233,-111 407,-111 407,-130"/>
<text text-anchor="middle" x="320" y="-118" font-family="Vera Sans, DejaVu Sans, Liberation Sans, Arial, Helvetica, sans" font-size="10.00" fill="#000000">WithDefaultExpression</text>
</a>
</g>
</g>
<!-- WithDefaultExpression&#45;&gt;Constant -->
<g id="edge3" class="edge">
<title>WithDefaultExpression&#45;&gt;Constant</title>
<path fill="none" stroke="#000000" stroke-width=".5" d="M407.042,-120.5C435.6706,-120.5 466.2755,-120.5 490.2622,-120.5"/>
<polygon fill="#000000" stroke="#000000" stroke-width=".5" points="490.2772,-122.2501 495.2772,-120.5 490.2772,-118.7501 490.2772,-122.2501"/>
</g>
<!-- GenericInterfaceItem -->
<g id="node7" class="node">
<title>GenericInterfaceItem</title>
<g id="a_node7"><a xlink:href="../../pyVHDLModel/pyVHDLModel.VHDLModel.html#pyVHDLModel.VHDLModel.GenericInterfaceItem" xlink:title="A ``GenericInterfaceItem`` is a mixin class for all generic interface items." target="_top">
<polygon fill="#ffffff" stroke="#000000" stroke-width=".5" points="617.5,-56 450.5,-56 450.5,-37 617.5,-37 617.5,-56"/>
<text text-anchor="middle" x="534" y="-44" font-family="Vera Sans, DejaVu Sans, Liberation Sans, Arial, Helvetica, sans" font-size="10.00" fill="#000000">GenericInterfaceItem</text>
</a>
</g>
</g>
<!-- GenericInterfaceItem&#45;&gt;GenericConstantInterfaceItem -->
<g id="edge6" class="edge">
<title>GenericInterfaceItem&#45;&gt;GenericConstantInterfaceItem</title>
<path fill="none" stroke="#000000" stroke-width=".5" d="M580.7993,-56.0883C595.0077,-59.0486 610.6533,-62.3577 625,-65.5 662.5979,-73.7348 705.1498,-83.521 736.4606,-90.8101"/>
<polygon fill="#000000" stroke="#000000" stroke-width=".5" points="736.1201,-92.5275 741.3868,-91.9579 736.9144,-89.1188 736.1201,-92.5275"/>
</g>
<!-- InterfaceItem -->
<g id="node8" class="node">
<title>InterfaceItem</title>
<g id="a_node8"><a xlink:href="../../pyVHDLModel/pyVHDLModel.VHDLModel.html#pyVHDLModel.VHDLModel.InterfaceItem" xlink:title="An ``InterfaceItem`` is a base&#45;class for all mixin&#45;classes for all interface" target="_top">
<polygon fill="#ffffff" stroke="#000000" stroke-width=".5" points="377,-37 263,-37 263,-18 377,-18 377,-37"/>
<text text-anchor="middle" x="320" y="-25" font-family="Vera Sans, DejaVu Sans, Liberation Sans, Arial, Helvetica, sans" font-size="10.00" fill="#000000">InterfaceItem</text>
</a>
</g>
</g>
<!-- InterfaceItem&#45;&gt;GenericInterfaceItem -->
<g id="edge7" class="edge">
<title>InterfaceItem&#45;&gt;GenericInterfaceItem</title>
<path fill="none" stroke="#000000" stroke-width=".5" d="M377.067,-32.5667C397.9021,-34.4165 421.9933,-36.5555 444.9498,-38.5937"/>
<polygon fill="#000000" stroke="#000000" stroke-width=".5" points="445.0018,-40.3551 450.137,-39.0542 445.3114,-36.8688 445.0018,-40.3551"/>
</g>
<!-- ParameterInterfaceItem -->
<g id="node12" class="node">
<title>ParameterInterfaceItem</title>
<g id="a_node12"><a xlink:href="../../pyVHDLModel/pyVHDLModel.VHDLModel.html#pyVHDLModel.VHDLModel.ParameterInterfaceItem" xlink:title="A ``ParameterInterfaceItem`` is a mixin class for all parameter interface items." target="_top">
<polygon fill="#ffffff" stroke="#000000" stroke-width=".5" points="625,-19 443,-19 443,0 625,0 625,-19"/>
<text text-anchor="middle" x="534" y="-7" font-family="Vera Sans, DejaVu Sans, Liberation Sans, Arial, Helvetica, sans" font-size="10.00" fill="#000000">ParameterInterfaceItem</text>
</a>
</g>
</g>
<!-- InterfaceItem&#45;&gt;ParameterInterfaceItem -->
<g id="edge12" class="edge">
<title>InterfaceItem&#45;&gt;ParameterInterfaceItem</title>
<path fill="none" stroke="#000000" stroke-width=".5" d="M377.067,-22.7C395.6724,-21.135 416.8744,-19.3517 437.5461,-17.6129"/>
<polygon fill="#000000" stroke="#000000" stroke-width=".5" points="437.9526,-19.335 442.7883,-17.172 437.6592,-15.8473 437.9526,-19.335"/>
</g>
<!-- ModelEntity -->
<g id="node9" class="node">
<title>ModelEntity</title>
<g id="a_node9"><a xlink:href="../../pyVHDLModel/pyVHDLModel.VHDLModel.html#pyVHDLModel.VHDLModel.ModelEntity" xlink:title="``ModelEntity`` is a base class for all classes in the VHDL language model," target="_top">
<polygon fill="#ffffff" stroke="#000000" stroke-width=".5" points="99,-112 0,-112 0,-93 99,-93 99,-112"/>
<text text-anchor="middle" x="49.5" y="-100" font-family="Vera Sans, DejaVu Sans, Liberation Sans, Arial, Helvetica, sans" font-size="10.00" fill="#000000">ModelEntity</text>
</a>
</g>
</g>
<!-- ModelEntity&#45;&gt;Object -->
<g id="edge8" class="edge">
<title>ModelEntity&#45;&gt;Object</title>
<path fill="none" stroke="#000000" stroke-width=".5" d="M99.2444,-94.3872C109.5666,-92.7037 120.253,-90.9609 129.9692,-89.3763"/>
<polygon fill="#000000" stroke="#000000" stroke-width=".5" points="130.3016,-91.0953 134.9547,-88.5632 129.7382,-87.6409 130.3016,-91.0953"/>
</g>
<!-- NamedEntity -->
<g id="node10" class="node">
<title>NamedEntity</title>
<g id="a_node10"><a xlink:href="../../pyVHDLModel/pyVHDLModel.VHDLModel.html#pyVHDLModel.VHDLModel.NamedEntity" xlink:title="A ``NamedEntity`` is a mixin class for all VHDL entities that have names." target="_top">
<polygon fill="#ffffff" stroke="#000000" stroke-width=".5" points="99,-75 0,-75 0,-56 99,-56 99,-75"/>
<text text-anchor="middle" x="49.5" y="-63" font-family="Vera Sans, DejaVu Sans, Liberation Sans, Arial, Helvetica, sans" font-size="10.00" fill="#000000">NamedEntity</text>
</a>
</g>
</g>
<!-- NamedEntity&#45;&gt;Object -->
<g id="edge9" class="edge">
<title>NamedEntity&#45;&gt;Object</title>
<path fill="none" stroke="#000000" stroke-width=".5" d="M99.2444,-73.1858C109.5666,-74.7807 120.253,-76.4318 129.9692,-77.933"/>
<polygon fill="#000000" stroke="#000000" stroke-width=".5" points="129.7461,-79.6692 134.9547,-78.7033 130.2806,-76.2103 129.7461,-79.6692"/>
</g>
<!-- ParameterInterfaceItem&#45;&gt;ParameterConstantInterfaceItem -->
<g id="edge11" class="edge">
<title>ParameterInterfaceItem&#45;&gt;ParameterConstantInterfaceItem</title>
<path fill="none" stroke="#000000" stroke-width=".5" d="M597.8662,-19.0284C633.0211,-24.2733 676.6844,-30.7876 712.6683,-36.1562"/>
<polygon fill="#000000" stroke="#000000" stroke-width=".5" points="712.7162,-37.9326 717.9197,-36.9396 713.2327,-34.4709 712.7162,-37.9326"/>
</g>
</g>
</svg>
