<?xml version="1.0" encoding="UTF-8" standalone="no"?>
<!DOCTYPE svg PUBLIC "-//W3C//DTD SVG 1.1//EN"
 "http://www.w3.org/Graphics/SVG/1.1/DTD/svg11.dtd">
<!-- Generated by graphviz version 2.40.1 (0)
 -->
<!-- Title: inheritance877a8edba2 Pages: 1 -->
<svg width="576pt" height="65pt"
 viewBox="0.00 0.00 576.00 65.33" xmlns="http://www.w3.org/2000/svg" xmlns:xlink="http://www.w3.org/1999/xlink">
<g id="graph0" class="graph" transform="scale(.7967 .7967) rotate(0) translate(4 78)">
<title>inheritance877a8edba2</title>
<!-- File -->
<g id="node1" class="node">
<title>File</title>
<g id="a_node1"><a xlink:href="../pyVHDLModel/pyVHDLModel.VHDLModel.html#pyVHDLModel.VHDLModel.File" xlink:title="File" target="_top">
<polygon fill="#ffffff" stroke="#000000" stroke-width=".5" points="403,-37 349,-37 349,-18 403,-18 403,-37"/>
<text text-anchor="middle" x="376" y="-25" font-family="Vera Sans, DejaVu Sans, Liberation Sans, Arial, Helvetica, sans" font-size="10.00" fill="#000000">File</text>
</a>
</g>
</g>
<!-- ParameterFileInterfaceItem -->
<g id="node6" class="node">
<title>ParameterFileInterfaceItem</title>
<g id="a_node6"><a xlink:href="../pyVHDLModel/pyVHDLModel.VHDLModel.html#pyVHDLModel.VHDLModel.ParameterFileInterfaceItem" xlink:title="ParameterFileInterfaceItem" target="_top">
<polygon fill="#ffffff" stroke="#000000" stroke-width=".5" points="715,-55 503,-55 503,-36 715,-36 715,-55"/>
<text text-anchor="middle" x="609" y="-43" font-family="Vera Sans, DejaVu Sans, Liberation Sans, Arial, Helvetica, sans" font-size="10.00" fill="#000000">ParameterFileInterfaceItem</text>
</a>
</g>
</g>
<!-- File&#45;&gt;ParameterFileInterfaceItem -->
<g id="edge4" class="edge">
<title>File&#45;&gt;ParameterFileInterfaceItem</title>
<path fill="none" stroke="#000000" stroke-width=".5" d="M403.1841,-29.6001C426.7541,-31.4209 462.5139,-34.1835 497.6482,-36.8977"/>
<polygon fill="#000000" stroke="#000000" stroke-width=".5" points="497.7059,-38.6573 502.8259,-37.2977 497.9755,-35.1677 497.7059,-38.6573"/>
</g>
<!-- Object -->
<g id="node2" class="node">
<title>Object</title>
<g id="a_node2"><a xlink:href="../pyVHDLModel/pyVHDLModel.VHDLModel.html#pyVHDLModel.VHDLModel.Object" xlink:title="Object" target="_top">
<polygon fill="#ffffff" stroke="#000000" stroke-width=".5" points="223,-37 161,-37 161,-18 223,-18 223,-37"/>
<text text-anchor="middle" x="192" y="-25" font-family="Vera Sans, DejaVu Sans, Liberation Sans, Arial, Helvetica, sans" font-size="10.00" fill="#000000">Object</text>
</a>
</g>
</g>
<!-- Object&#45;&gt;File -->
<g id="edge1" class="edge">
<title>Object&#45;&gt;File</title>
<path fill="none" stroke="#000000" stroke-width=".5" d="M223.2131,-27.5C256.6928,-27.5 309.6122,-27.5 343.5584,-27.5"/>
<polygon fill="#000000" stroke="#000000" stroke-width=".5" points="343.8378,-29.2501 348.8378,-27.5 343.8378,-25.7501 343.8378,-29.2501"/>
</g>
<!-- InterfaceItem -->
<g id="node3" class="node">
<title>InterfaceItem</title>
<g id="a_node3"><a xlink:href="../pyVHDLModel/pyVHDLModel.VHDLModel.html#pyVHDLModel.VHDLModel.InterfaceItem" xlink:title="An ``InterfaceItem`` is a base&#45;class for all mixin&#45;classes for all interface" target="_top">
<polygon fill="#ffffff" stroke="#000000" stroke-width=".5" points="249,-74 135,-74 135,-55 249,-55 249,-74"/>
<text text-anchor="middle" x="192" y="-62" font-family="Vera Sans, DejaVu Sans, Liberation Sans, Arial, Helvetica, sans" font-size="10.00" fill="#000000">InterfaceItem</text>
</a>
</g>
</g>
<!-- ParameterInterfaceItem -->
<g id="node7" class="node">
<title>ParameterInterfaceItem</title>
<g id="a_node7"><a xlink:href="../pyVHDLModel/pyVHDLModel.VHDLModel.html#pyVHDLModel.VHDLModel.ParameterInterfaceItem" xlink:title="A ``ParameterInterfaceItem`` is a mixin class for all parameter interface items." target="_top">
<polygon fill="#ffffff" stroke="#000000" stroke-width=".5" points="467,-74 285,-74 285,-55 467,-55 467,-74"/>
<text text-anchor="middle" x="376" y="-62" font-family="Vera Sans, DejaVu Sans, Liberation Sans, Arial, Helvetica, sans" font-size="10.00" fill="#000000">ParameterInterfaceItem</text>
</a>
</g>
</g>
<!-- InterfaceItem&#45;&gt;ParameterInterfaceItem -->
<g id="edge6" class="edge">
<title>InterfaceItem&#45;&gt;ParameterInterfaceItem</title>
<path fill="none" stroke="#000000" stroke-width=".5" d="M249.2101,-64.5C258.9108,-64.5 269.2166,-64.5 279.5973,-64.5"/>
<polygon fill="#000000" stroke="#000000" stroke-width=".5" points="279.697,-66.2501 284.697,-64.5 279.697,-62.7501 279.697,-66.2501"/>
</g>
<!-- ModelEntity -->
<g id="node4" class="node">
<title>ModelEntity</title>
<g id="a_node4"><a xlink:href="../pyVHDLModel/pyVHDLModel.VHDLModel.html#pyVHDLModel.VHDLModel.ModelEntity" xlink:title="``ModelEntity`` is a base class for all classes in the VHDL language model," target="_top">
<polygon fill="#ffffff" stroke="#000000" stroke-width=".5" points="99,-56 0,-56 0,-37 99,-37 99,-56"/>
<text text-anchor="middle" x="49.5" y="-44" font-family="Vera Sans, DejaVu Sans, Liberation Sans, Arial, Helvetica, sans" font-size="10.00" fill="#000000">ModelEntity</text>
</a>
</g>
</g>
<!-- ModelEntity&#45;&gt;Object -->
<g id="edge2" class="edge">
<title>ModelEntity&#45;&gt;Object</title>
<path fill="none" stroke="#000000" stroke-width=".5" d="M99.3396,-39.8547C117.8143,-37.3914 138.4063,-34.6458 155.4775,-32.3697"/>
<polygon fill="#000000" stroke="#000000" stroke-width=".5" points="155.9313,-34.0747 160.6561,-31.6792 155.4687,-30.6054 155.9313,-34.0747"/>
</g>
<!-- NamedEntity -->
<g id="node5" class="node">
<title>NamedEntity</title>
<g id="a_node5"><a xlink:href="../pyVHDLModel/pyVHDLModel.VHDLModel.html#pyVHDLModel.VHDLModel.NamedEntity" xlink:title="A ``NamedEntity`` is a mixin class for all VHDL entities that have names." target="_top">
<polygon fill="#ffffff" stroke="#000000" stroke-width=".5" points="99,-19 0,-19 0,0 99,0 99,-19"/>
<text text-anchor="middle" x="49.5" y="-7" font-family="Vera Sans, DejaVu Sans, Liberation Sans, Arial, Helvetica, sans" font-size="10.00" fill="#000000">NamedEntity</text>
</a>
</g>
</g>
<!-- NamedEntity&#45;&gt;Object -->
<g id="edge3" class="edge">
<title>NamedEntity&#45;&gt;Object</title>
<path fill="none" stroke="#000000" stroke-width=".5" d="M99.3396,-15.7955C117.8143,-18.1292 138.4063,-20.7303 155.4775,-22.8866"/>
<polygon fill="#000000" stroke="#000000" stroke-width=".5" points="155.4762,-24.6503 160.6561,-23.5408 155.9149,-21.1779 155.4762,-24.6503"/>
</g>
<!-- ParameterInterfaceItem&#45;&gt;ParameterFileInterfaceItem -->
<g id="edge5" class="edge">
<title>ParameterInterfaceItem&#45;&gt;ParameterFileInterfaceItem</title>
<path fill="none" stroke="#000000" stroke-width=".5" d="M467.0849,-57.0725C477.1762,-56.2496 487.5349,-55.4049 497.8377,-54.5647"/>
<polygon fill="#000000" stroke="#000000" stroke-width=".5" points="498.0484,-56.3035 502.8896,-54.1528 497.7639,-52.815 498.0484,-56.3035"/>
</g>
</g>
</svg>
