<?xml version="1.0" encoding="UTF-8" standalone="no"?>
<!DOCTYPE svg PUBLIC "-//W3C//DTD SVG 1.1//EN"
 "http://www.w3.org/Graphics/SVG/1.1/DTD/svg11.dtd">
<!-- Generated by graphviz version 2.40.1 (0)
 -->
<!-- Title: inheritanceb9bd81935c Pages: 1 -->
<svg width="576pt" height="92pt"
 viewBox="0.00 0.00 576.00 91.88" xmlns="http://www.w3.org/2000/svg" xmlns:xlink="http://www.w3.org/1999/xlink">
<g id="graph0" class="graph" transform="scale(.7721 .7721) rotate(0) translate(4 115)">
<title>inheritanceb9bd81935c</title>
<!-- BaseType -->
<g id="node1" class="node">
<title>BaseType</title>
<g id="a_node1"><a xlink:href="../pyVHDLModel/pyVHDLModel.VHDLModel.html#pyVHDLModel.VHDLModel.BaseType" xlink:title="``BaseType`` is the base class of all type entities in this model." target="_top">
<polygon fill="#ffffff" stroke="#000000" stroke-width=".5" points="212,-37 135,-37 135,-18 212,-18 212,-37"/>
<text text-anchor="middle" x="173.5" y="-25" font-family="Vera Sans, DejaVu Sans, Liberation Sans, Arial, Helvetica, sans" font-size="10.00" fill="#000000">BaseType</text>
</a>
</g>
</g>
<!-- Type -->
<g id="node9" class="node">
<title>Type</title>
<g id="a_node9"><a xlink:href="../pyVHDLModel/pyVHDLModel.VHDLModel.html#pyVHDLModel.VHDLModel.Type" xlink:title="Type" target="_top">
<polygon fill="#ffffff" stroke="#000000" stroke-width=".5" points="302,-37 248,-37 248,-18 302,-18 302,-37"/>
<text text-anchor="middle" x="275" y="-25" font-family="Vera Sans, DejaVu Sans, Liberation Sans, Arial, Helvetica, sans" font-size="10.00" fill="#000000">Type</text>
</a>
</g>
</g>
<!-- BaseType&#45;&gt;Type -->
<g id="edge8" class="edge">
<title>BaseType&#45;&gt;Type</title>
<path fill="none" stroke="#000000" stroke-width=".5" d="M212.1623,-27.5C222.1835,-27.5 232.8723,-27.5 242.539,-27.5"/>
<polygon fill="#000000" stroke="#000000" stroke-width=".5" points="242.7936,-29.2501 247.7936,-27.5 242.7936,-25.7501 242.7936,-29.2501"/>
</g>
<!-- ModelEntity -->
<g id="node2" class="node">
<title>ModelEntity</title>
<g id="a_node2"><a xlink:href="../pyVHDLModel/pyVHDLModel.VHDLModel.html#pyVHDLModel.VHDLModel.ModelEntity" xlink:title="``ModelEntity`` is a base class for all classes in the VHDL language model," target="_top">
<polygon fill="#ffffff" stroke="#000000" stroke-width=".5" points="99,-56 0,-56 0,-37 99,-37 99,-56"/>
<text text-anchor="middle" x="49.5" y="-44" font-family="Vera Sans, DejaVu Sans, Liberation Sans, Arial, Helvetica, sans" font-size="10.00" fill="#000000">ModelEntity</text>
</a>
</g>
</g>
<!-- ModelEntity&#45;&gt;BaseType -->
<g id="edge1" class="edge">
<title>ModelEntity&#45;&gt;BaseType</title>
<path fill="none" stroke="#000000" stroke-width=".5" d="M99.2211,-38.8815C109.3194,-37.3341 119.8705,-35.7174 129.7439,-34.2046"/>
<polygon fill="#000000" stroke="#000000" stroke-width=".5" points="130.1621,-35.911 134.8393,-33.4238 129.6319,-32.4514 130.1621,-35.911"/>
</g>
<!-- NamedEntity -->
<g id="node3" class="node">
<title>NamedEntity</title>
<g id="a_node3"><a xlink:href="../pyVHDLModel/pyVHDLModel.VHDLModel.html#pyVHDLModel.VHDLModel.NamedEntity" xlink:title="A ``NamedEntity`` is a mixin class for all VHDL entities that have names." target="_top">
<polygon fill="#ffffff" stroke="#000000" stroke-width=".5" points="99,-19 0,-19 0,0 99,0 99,-19"/>
<text text-anchor="middle" x="49.5" y="-7" font-family="Vera Sans, DejaVu Sans, Liberation Sans, Arial, Helvetica, sans" font-size="10.00" fill="#000000">NamedEntity</text>
</a>
</g>
</g>
<!-- NamedEntity&#45;&gt;BaseType -->
<g id="edge2" class="edge">
<title>NamedEntity&#45;&gt;BaseType</title>
<path fill="none" stroke="#000000" stroke-width=".5" d="M99.2211,-16.7176C109.3194,-18.1835 119.8705,-19.7151 129.7439,-21.1483"/>
<polygon fill="#000000" stroke="#000000" stroke-width=".5" points="129.6398,-22.9015 134.8393,-21.888 130.1426,-19.4378 129.6398,-22.9015"/>
</g>
<!-- DiscreteType -->
<g id="node4" class="node">
<title>DiscreteType</title>
<g id="a_node4"><a xlink:href="../pyVHDLModel/pyVHDLModel.VHDLModel.html#pyVHDLModel.VHDLModel.DiscreteType" xlink:title="A ``DiscreteType`` is a mixin class for all discrete types." target="_top">
<polygon fill="#ffffff" stroke="#000000" stroke-width=".5" points="588,-111 481,-111 481,-92 588,-92 588,-111"/>
<text text-anchor="middle" x="534.5" y="-99" font-family="Vera Sans, DejaVu Sans, Liberation Sans, Arial, Helvetica, sans" font-size="10.00" fill="#000000">DiscreteType</text>
</a>
</g>
</g>
<!-- IntegerType -->
<g id="node5" class="node">
<title>IntegerType</title>
<g id="a_node5"><a xlink:href="../pyVHDLModel/pyVHDLModel.VHDLModel.html#pyVHDLModel.VHDLModel.IntegerType" xlink:title="IntegerType" target="_top">
<polygon fill="#ffffff" stroke="#000000" stroke-width=".5" points="738,-74 639,-74 639,-55 738,-55 738,-74"/>
<text text-anchor="middle" x="688.5" y="-62" font-family="Vera Sans, DejaVu Sans, Liberation Sans, Arial, Helvetica, sans" font-size="10.00" fill="#000000">IntegerType</text>
</a>
</g>
</g>
<!-- DiscreteType&#45;&gt;IntegerType -->
<g id="edge5" class="edge">
<title>DiscreteType&#45;&gt;IntegerType</title>
<path fill="none" stroke="#000000" stroke-width=".5" d="M574.1588,-91.9716C595.4521,-86.8557 621.7721,-80.532 643.7903,-75.2419"/>
<polygon fill="#000000" stroke="#000000" stroke-width=".5" points="644.2554,-76.9301 648.7082,-74.0604 643.4377,-73.5269 644.2554,-76.9301"/>
</g>
<!-- RangedScalarType -->
<g id="node6" class="node">
<title>RangedScalarType</title>
<g id="a_node6"><a xlink:href="../pyVHDLModel/pyVHDLModel.VHDLModel.html#pyVHDLModel.VHDLModel.RangedScalarType" xlink:title="A ``RangedScalarType`` is a base&#45;class for all scalar types with a range." target="_top">
<polygon fill="#ffffff" stroke="#000000" stroke-width=".5" points="603,-37 466,-37 466,-18 603,-18 603,-37"/>
<text text-anchor="middle" x="534.5" y="-25" font-family="Vera Sans, DejaVu Sans, Liberation Sans, Arial, Helvetica, sans" font-size="10.00" fill="#000000">RangedScalarType</text>
</a>
</g>
</g>
<!-- RangedScalarType&#45;&gt;IntegerType -->
<g id="edge3" class="edge">
<title>RangedScalarType&#45;&gt;IntegerType</title>
<path fill="none" stroke="#000000" stroke-width=".5" d="M574.1588,-37.0284C595.4521,-42.1443 621.7721,-48.468 643.7903,-53.7581"/>
<polygon fill="#000000" stroke="#000000" stroke-width=".5" points="643.4377,-55.4731 648.7082,-54.9396 644.2554,-52.0699 643.4377,-55.4731"/>
</g>
<!-- NumericType -->
<g id="node7" class="node">
<title>NumericType</title>
<g id="a_node7"><a xlink:href="../pyVHDLModel/pyVHDLModel.VHDLModel.html#pyVHDLModel.VHDLModel.NumericType" xlink:title="A ``NumericType`` is a mixin class for all numeric types." target="_top">
<polygon fill="#ffffff" stroke="#000000" stroke-width=".5" points="584,-74 485,-74 485,-55 584,-55 584,-74"/>
<text text-anchor="middle" x="534.5" y="-62" font-family="Vera Sans, DejaVu Sans, Liberation Sans, Arial, Helvetica, sans" font-size="10.00" fill="#000000">NumericType</text>
</a>
</g>
</g>
<!-- NumericType&#45;&gt;IntegerType -->
<g id="edge4" class="edge">
<title>NumericType&#45;&gt;IntegerType</title>
<path fill="none" stroke="#000000" stroke-width=".5" d="M584.0743,-64.5C599.7948,-64.5 617.2698,-64.5 633.3569,-64.5"/>
<polygon fill="#000000" stroke="#000000" stroke-width=".5" points="633.7548,-66.2501 638.7548,-64.5 633.7548,-62.7501 633.7548,-66.2501"/>
</g>
<!-- ScalarType -->
<g id="node8" class="node">
<title>ScalarType</title>
<g id="a_node8"><a xlink:href="../pyVHDLModel/pyVHDLModel.VHDLModel.html#pyVHDLModel.VHDLModel.ScalarType" xlink:title="A ``ScalarType`` is a base&#45;class for all scalar types." target="_top">
<polygon fill="#ffffff" stroke="#000000" stroke-width=".5" points="430,-37 338,-37 338,-18 430,-18 430,-37"/>
<text text-anchor="middle" x="384" y="-25" font-family="Vera Sans, DejaVu Sans, Liberation Sans, Arial, Helvetica, sans" font-size="10.00" fill="#000000">ScalarType</text>
</a>
</g>
</g>
<!-- ScalarType&#45;&gt;RangedScalarType -->
<g id="edge6" class="edge">
<title>ScalarType&#45;&gt;RangedScalarType</title>
<path fill="none" stroke="#000000" stroke-width=".5" d="M430.383,-27.5C440.0319,-27.5 450.4272,-27.5 460.7838,-27.5"/>
<polygon fill="#000000" stroke="#000000" stroke-width=".5" points="460.8614,-29.2501 465.8613,-27.5 460.8613,-25.7501 460.8614,-29.2501"/>
</g>
<!-- Type&#45;&gt;ScalarType -->
<g id="edge7" class="edge">
<title>Type&#45;&gt;ScalarType</title>
<path fill="none" stroke="#000000" stroke-width=".5" d="M302.2241,-27.5C311.4363,-27.5 322.0494,-27.5 332.5138,-27.5"/>
<polygon fill="#000000" stroke="#000000" stroke-width=".5" points="332.6322,-29.2501 337.6322,-27.5 332.6322,-25.7501 332.6322,-29.2501"/>
</g>
</g>
</svg>
