<?xml version="1.0" encoding="UTF-8" standalone="no"?>
<!DOCTYPE svg PUBLIC "-//W3C//DTD SVG 1.1//EN"
 "http://www.w3.org/Graphics/SVG/1.1/DTD/svg11.dtd">
<!-- Generated by graphviz version 2.40.1 (0)
 -->
<!-- Title: inheritanceb7c00ef165 Pages: 1 -->
<svg width="576pt" height="19pt"
 viewBox="0.00 0.00 576.00 19.46" xmlns="http://www.w3.org/2000/svg" xmlns:xlink="http://www.w3.org/1999/xlink">
<g id="graph0" class="graph" transform="scale(.7209 .7209) rotate(0) translate(4 23)">
<title>inheritanceb7c00ef165</title>
<!-- AddingExpression -->
<g id="node1" class="node">
<title>AddingExpression</title>
<g id="a_node1"><a xlink:href="../pyVHDLModel/pyVHDLModel.VHDLModel.html#pyVHDLModel.VHDLModel.AddingExpression" xlink:title="A ``AddingExpression`` is a base&#45;class for all adding expressions." target="_top">
<polygon fill="#ffffff" stroke="#000000" stroke-width=".5" points="603,-19 466,-19 466,0 603,0 603,-19"/>
<text text-anchor="middle" x="534.5" y="-7" font-family="Vera Sans, DejaVu Sans, Liberation Sans, Arial, Helvetica, sans" font-size="10.00" fill="#000000">AddingExpression</text>
</a>
</g>
</g>
<!-- AdditionExpression -->
<g id="node3" class="node">
<title>AdditionExpression</title>
<g id="a_node3"><a xlink:href="../pyVHDLModel/pyVHDLModel.VHDLModel.html#pyVHDLModel.VHDLModel.AdditionExpression" xlink:title="AdditionExpression" target="_top">
<polygon fill="#ffffff" stroke="#000000" stroke-width=".5" points="791,-19 639,-19 639,0 791,0 791,-19"/>
<text text-anchor="middle" x="715" y="-7" font-family="Vera Sans, DejaVu Sans, Liberation Sans, Arial, Helvetica, sans" font-size="10.00" fill="#000000">AdditionExpression</text>
</a>
</g>
</g>
<!-- AddingExpression&#45;&gt;AdditionExpression -->
<g id="edge2" class="edge">
<title>AddingExpression&#45;&gt;AdditionExpression</title>
<path fill="none" stroke="#000000" stroke-width=".5" d="M603.2542,-9.5C613.2714,-9.5 623.6638,-9.5 633.8976,-9.5"/>
<polygon fill="#000000" stroke="#000000" stroke-width=".5" points="633.9065,-11.2501 638.9065,-9.5 633.9064,-7.7501 633.9065,-11.2501"/>
</g>
<!-- BinaryExpression -->
<g id="node2" class="node">
<title>BinaryExpression</title>
<g id="a_node2"><a xlink:href="../pyVHDLModel/pyVHDLModel.VHDLModel.html#pyVHDLModel.VHDLModel.BinaryExpression" xlink:title="A ``BinaryExpression`` is a base&#45;class for all binary expressions." target="_top">
<polygon fill="#ffffff" stroke="#000000" stroke-width=".5" points="430,-19 293,-19 293,0 430,0 430,-19"/>
<text text-anchor="middle" x="361.5" y="-7" font-family="Vera Sans, DejaVu Sans, Liberation Sans, Arial, Helvetica, sans" font-size="10.00" fill="#000000">BinaryExpression</text>
</a>
</g>
</g>
<!-- BinaryExpression&#45;&gt;AddingExpression -->
<g id="edge1" class="edge">
<title>BinaryExpression&#45;&gt;AddingExpression</title>
<path fill="none" stroke="#000000" stroke-width=".5" d="M430.3713,-9.5C440.321,-9.5 450.5958,-9.5 460.6382,-9.5"/>
<polygon fill="#000000" stroke="#000000" stroke-width=".5" points="460.8657,-11.2501 465.8657,-9.5 460.8657,-7.7501 460.8657,-11.2501"/>
</g>
<!-- BaseExpression -->
<g id="node4" class="node">
<title>BaseExpression</title>
<g id="a_node4"><a xlink:href="../pyVHDLModel/pyVHDLModel.VHDLModel.html#pyVHDLModel.VHDLModel.BaseExpression" xlink:title="A ``BaseExpression`` is a base&#45;class for all expressions." target="_top">
<polygon fill="#ffffff" stroke="#000000" stroke-width=".5" points="257,-19 135,-19 135,0 257,0 257,-19"/>
<text text-anchor="middle" x="196" y="-7" font-family="Vera Sans, DejaVu Sans, Liberation Sans, Arial, Helvetica, sans" font-size="10.00" fill="#000000">BaseExpression</text>
</a>
</g>
</g>
<!-- BaseExpression&#45;&gt;BinaryExpression -->
<g id="edge4" class="edge">
<title>BaseExpression&#45;&gt;BinaryExpression</title>
<path fill="none" stroke="#000000" stroke-width=".5" d="M257.1559,-9.5C267.1264,-9.5 277.5466,-9.5 287.7803,-9.5"/>
<polygon fill="#000000" stroke="#000000" stroke-width=".5" points="287.7864,-11.2501 292.7864,-9.5 287.7864,-7.7501 287.7864,-11.2501"/>
</g>
<!-- ModelEntity -->
<g id="node5" class="node">
<title>ModelEntity</title>
<g id="a_node5"><a xlink:href="../pyVHDLModel/pyVHDLModel.VHDLModel.html#pyVHDLModel.VHDLModel.ModelEntity" xlink:title="``ModelEntity`` is a base class for all classes in the VHDL language model," target="_top">
<polygon fill="#ffffff" stroke="#000000" stroke-width=".5" points="99,-19 0,-19 0,0 99,0 99,-19"/>
<text text-anchor="middle" x="49.5" y="-7" font-family="Vera Sans, DejaVu Sans, Liberation Sans, Arial, Helvetica, sans" font-size="10.00" fill="#000000">ModelEntity</text>
</a>
</g>
</g>
<!-- ModelEntity&#45;&gt;BaseExpression -->
<g id="edge3" class="edge">
<title>ModelEntity&#45;&gt;BaseExpression</title>
<path fill="none" stroke="#000000" stroke-width=".5" d="M99.0982,-9.5C108.9426,-9.5 119.4255,-9.5 129.7228,-9.5"/>
<polygon fill="#000000" stroke="#000000" stroke-width=".5" points="129.7594,-11.2501 134.7594,-9.5 129.7594,-7.7501 129.7594,-11.2501"/>
</g>
</g>
</svg>
