<?xml version="1.0" encoding="UTF-8" standalone="no"?>
<!DOCTYPE svg PUBLIC "-//W3C//DTD SVG 1.1//EN"
 "http://www.w3.org/Graphics/SVG/1.1/DTD/svg11.dtd">
<!-- Generated by graphviz version 2.40.1 (0)
 -->
<!-- Title: inheritancea5c7587250 Pages: 1 -->
<svg width="576pt" height="19pt"
 viewBox="0.00 0.00 576.00 18.60" xmlns="http://www.w3.org/2000/svg" xmlns:xlink="http://www.w3.org/1999/xlink">
<g id="graph0" class="graph" transform="scale(.689 .689) rotate(0) translate(4 23)">
<title>inheritancea5c7587250</title>
<!-- BaseExpression -->
<g id="node1" class="node">
<title>BaseExpression</title>
<g id="a_node1"><a xlink:href="../pyVHDLModel/pyVHDLModel.VHDLModel.html#pyVHDLModel.VHDLModel.BaseExpression" xlink:title="A ``BaseExpression`` is a base&#45;class for all expressions." target="_top">
<polygon fill="#ffffff" stroke="#000000" stroke-width=".5" points="257,-19 135,-19 135,0 257,0 257,-19"/>
<text text-anchor="middle" x="196" y="-7" font-family="Vera Sans, DejaVu Sans, Liberation Sans, Arial, Helvetica, sans" font-size="10.00" fill="#000000">BaseExpression</text>
</a>
</g>
</g>
<!-- BinaryExpression -->
<g id="node3" class="node">
<title>BinaryExpression</title>
<g id="a_node3"><a xlink:href="../pyVHDLModel/pyVHDLModel.VHDLModel.html#pyVHDLModel.VHDLModel.BinaryExpression" xlink:title="A ``BinaryExpression`` is a base&#45;class for all binary expressions." target="_top">
<polygon fill="#ffffff" stroke="#000000" stroke-width=".5" points="430,-19 293,-19 293,0 430,0 430,-19"/>
<text text-anchor="middle" x="361.5" y="-7" font-family="Vera Sans, DejaVu Sans, Liberation Sans, Arial, Helvetica, sans" font-size="10.00" fill="#000000">BinaryExpression</text>
</a>
</g>
</g>
<!-- BaseExpression&#45;&gt;BinaryExpression -->
<g id="edge2" class="edge">
<title>BaseExpression&#45;&gt;BinaryExpression</title>
<path fill="none" stroke="#000000" stroke-width=".5" d="M257.1559,-9.5C267.1264,-9.5 277.5466,-9.5 287.7803,-9.5"/>
<polygon fill="#000000" stroke="#000000" stroke-width=".5" points="287.7864,-11.2501 292.7864,-9.5 287.7864,-7.7501 287.7864,-11.2501"/>
</g>
<!-- ModelEntity -->
<g id="node2" class="node">
<title>ModelEntity</title>
<g id="a_node2"><a xlink:href="../pyVHDLModel/pyVHDLModel.VHDLModel.html#pyVHDLModel.VHDLModel.ModelEntity" xlink:title="``ModelEntity`` is a base class for all classes in the VHDL language model," target="_top">
<polygon fill="#ffffff" stroke="#000000" stroke-width=".5" points="99,-19 0,-19 0,0 99,0 99,-19"/>
<text text-anchor="middle" x="49.5" y="-7" font-family="Vera Sans, DejaVu Sans, Liberation Sans, Arial, Helvetica, sans" font-size="10.00" fill="#000000">ModelEntity</text>
</a>
</g>
</g>
<!-- ModelEntity&#45;&gt;BaseExpression -->
<g id="edge1" class="edge">
<title>ModelEntity&#45;&gt;BaseExpression</title>
<path fill="none" stroke="#000000" stroke-width=".5" d="M99.0982,-9.5C108.9426,-9.5 119.4255,-9.5 129.7228,-9.5"/>
<polygon fill="#000000" stroke="#000000" stroke-width=".5" points="129.7594,-11.2501 134.7594,-9.5 129.7594,-7.7501 129.7594,-11.2501"/>
</g>
<!-- MultiplyingExpression -->
<g id="node5" class="node">
<title>MultiplyingExpression</title>
<g id="a_node5"><a xlink:href="../pyVHDLModel/pyVHDLModel.VHDLModel.html#pyVHDLModel.VHDLModel.MultiplyingExpression" xlink:title="A ``MultiplyingExpression`` is a base&#45;class for all multiplying expressions." target="_top">
<polygon fill="#ffffff" stroke="#000000" stroke-width=".5" points="640,-19 466,-19 466,0 640,0 640,-19"/>
<text text-anchor="middle" x="553" y="-7" font-family="Vera Sans, DejaVu Sans, Liberation Sans, Arial, Helvetica, sans" font-size="10.00" fill="#000000">MultiplyingExpression</text>
</a>
</g>
</g>
<!-- BinaryExpression&#45;&gt;MultiplyingExpression -->
<g id="edge4" class="edge">
<title>BinaryExpression&#45;&gt;MultiplyingExpression</title>
<path fill="none" stroke="#000000" stroke-width=".5" d="M430.095,-9.5C440.0558,-9.5 450.4441,-9.5 460.7775,-9.5"/>
<polygon fill="#000000" stroke="#000000" stroke-width=".5" points="460.8437,-11.2501 465.8437,-9.5 460.8437,-7.7501 460.8437,-11.2501"/>
</g>
<!-- DivisionExpression -->
<g id="node4" class="node">
<title>DivisionExpression</title>
<g id="a_node4"><a xlink:href="../pyVHDLModel/pyVHDLModel.VHDLModel.html#pyVHDLModel.VHDLModel.DivisionExpression" xlink:title="DivisionExpression" target="_top">
<polygon fill="#ffffff" stroke="#000000" stroke-width=".5" points="828,-19 676,-19 676,0 828,0 828,-19"/>
<text text-anchor="middle" x="752" y="-7" font-family="Vera Sans, DejaVu Sans, Liberation Sans, Arial, Helvetica, sans" font-size="10.00" fill="#000000">DivisionExpression</text>
</a>
</g>
</g>
<!-- MultiplyingExpression&#45;&gt;DivisionExpression -->
<g id="edge3" class="edge">
<title>MultiplyingExpression&#45;&gt;DivisionExpression</title>
<path fill="none" stroke="#000000" stroke-width=".5" d="M640.2843,-9.5C650.3334,-9.5 660.5512,-9.5 670.5194,-9.5"/>
<polygon fill="#000000" stroke="#000000" stroke-width=".5" points="670.7072,-11.2501 675.7072,-9.5 670.7071,-7.7501 670.7072,-11.2501"/>
</g>
</g>
</svg>
