<?xml version="1.0" encoding="UTF-8" standalone="no"?>
<!DOCTYPE svg PUBLIC "-//W3C//DTD SVG 1.1//EN"
 "http://www.w3.org/Graphics/SVG/1.1/DTD/svg11.dtd">
<!-- Generated by graphviz version 2.40.1 (0)
 -->
<!-- Title: inheritance41b486d74d Pages: 1 -->
<svg width="543pt" height="138pt"
 viewBox="0.00 0.00 543.00 138.00" xmlns="http://www.w3.org/2000/svg" xmlns:xlink="http://www.w3.org/1999/xlink">
<g id="graph0" class="graph" transform="scale(1 1) rotate(0) translate(4 134)">
<title>inheritance41b486d74d</title>
<!-- ConcurrentDeclarations -->
<g id="node1" class="node">
<title>ConcurrentDeclarations</title>
<g id="a_node1"><a xlink:href="../pyVHDLModel/pyVHDLModel.VHDLModel.html#pyVHDLModel.VHDLModel.ConcurrentDeclarations" xlink:title="ConcurrentDeclarations" target="_top">
<polygon fill="#ffffff" stroke="#000000" stroke-width=".5" points="182,-130 0,-130 0,-111 182,-111 182,-130"/>
<text text-anchor="middle" x="91" y="-118" font-family="Vera Sans, DejaVu Sans, Liberation Sans, Arial, Helvetica, sans" font-size="10.00" fill="#000000">ConcurrentDeclarations</text>
</a>
</g>
</g>
<!-- GenerateBranch -->
<g id="node4" class="node">
<title>GenerateBranch</title>
<g id="a_node4"><a xlink:href="../pyVHDLModel/pyVHDLModel.VHDLModel.html#pyVHDLModel.VHDLModel.GenerateBranch" xlink:title="A ``GenerateBranch`` is a base&#45;class for all branches in a generate statements." target="_top">
<polygon fill="#ffffff" stroke="#000000" stroke-width=".5" points="343.5,-83 221.5,-83 221.5,-64 343.5,-64 343.5,-83"/>
<text text-anchor="middle" x="282.5" y="-71" font-family="Vera Sans, DejaVu Sans, Liberation Sans, Arial, Helvetica, sans" font-size="10.00" fill="#000000">GenerateBranch</text>
</a>
</g>
</g>
<!-- ConcurrentDeclarations&#45;&gt;GenerateBranch -->
<g id="edge4" class="edge">
<title>ConcurrentDeclarations&#45;&gt;GenerateBranch</title>
<path fill="none" stroke="#000000" stroke-width=".5" d="M143.1407,-110.9837C155.8979,-108.4361 169.4797,-105.5388 182,-102.5 203.6154,-97.2538 227.5531,-90.3891 246.6428,-84.6556"/>
<polygon fill="#000000" stroke="#000000" stroke-width=".5" points="247.6117,-86.1912 251.8926,-83.0707 246.6001,-82.8405 247.6117,-86.1912"/>
</g>
<!-- ConcurrentStatements -->
<g id="node2" class="node">
<title>ConcurrentStatements</title>
<g id="a_node2"><a xlink:href="../pyVHDLModel/pyVHDLModel.VHDLModel.html#pyVHDLModel.VHDLModel.ConcurrentStatements" xlink:title="ConcurrentStatements" target="_top">
<polygon fill="#ffffff" stroke="#000000" stroke-width=".5" points="174.5,-93 7.5,-93 7.5,-74 174.5,-74 174.5,-93"/>
<text text-anchor="middle" x="91" y="-81" font-family="Vera Sans, DejaVu Sans, Liberation Sans, Arial, Helvetica, sans" font-size="10.00" fill="#000000">ConcurrentStatements</text>
</a>
</g>
</g>
<!-- ConcurrentStatements&#45;&gt;GenerateBranch -->
<g id="edge5" class="edge">
<title>ConcurrentStatements&#45;&gt;GenerateBranch</title>
<path fill="none" stroke="#000000" stroke-width=".5" d="M174.7161,-79.1284C188.5767,-78.4046 202.779,-77.663 216.1365,-76.9655"/>
<polygon fill="#000000" stroke="#000000" stroke-width=".5" points="216.5065,-78.6986 221.4085,-76.6902 216.324,-75.2034 216.5065,-78.6986"/>
</g>
<!-- ElseGenerateBranch -->
<g id="node3" class="node">
<title>ElseGenerateBranch</title>
<g id="a_node3"><a xlink:href="../pyVHDLModel/pyVHDLModel.VHDLModel.html#pyVHDLModel.VHDLModel.ElseGenerateBranch" xlink:title="ElseGenerateBranch" target="_top">
<polygon fill="#ffffff" stroke="#000000" stroke-width=".5" points="535,-55 383,-55 383,-36 535,-36 535,-55"/>
<text text-anchor="middle" x="459" y="-43" font-family="Vera Sans, DejaVu Sans, Liberation Sans, Arial, Helvetica, sans" font-size="10.00" fill="#000000">ElseGenerateBranch</text>
</a>
</g>
</g>
<!-- GenerateBranch&#45;&gt;ElseGenerateBranch -->
<g id="edge1" class="edge">
<title>GenerateBranch&#45;&gt;ElseGenerateBranch</title>
<path fill="none" stroke="#000000" stroke-width=".5" d="M342.7476,-63.9423C359.2191,-61.3293 377.1424,-58.4859 393.8729,-55.8318"/>
<polygon fill="#000000" stroke="#000000" stroke-width=".5" points="394.3599,-57.5265 399.0239,-55.0146 393.8114,-54.0697 394.3599,-57.5265"/>
</g>
<!-- MixinElseBranch -->
<g id="node5" class="node">
<title>MixinElseBranch</title>
<g id="a_node5"><a xlink:href="../pyVHDLModel/pyVHDLModel.VHDLModel.html#pyVHDLModel.VHDLModel.MixinElseBranch" xlink:title="A ``BaseElseBranch`` is a mixin&#45;class for all else&#45;branches." target="_top">
<polygon fill="#ffffff" stroke="#000000" stroke-width=".5" points="347,-37 218,-37 218,-18 347,-18 347,-37"/>
<text text-anchor="middle" x="282.5" y="-25" font-family="Vera Sans, DejaVu Sans, Liberation Sans, Arial, Helvetica, sans" font-size="10.00" fill="#000000">MixinElseBranch</text>
</a>
</g>
</g>
<!-- MixinElseBranch&#45;&gt;ElseGenerateBranch -->
<g id="edge2" class="edge">
<title>MixinElseBranch&#45;&gt;ElseGenerateBranch</title>
<path fill="none" stroke="#000000" stroke-width=".5" d="M347.2199,-34.1003C357.1967,-35.1178 367.6064,-36.1794 377.8861,-37.2278"/>
<polygon fill="#000000" stroke="#000000" stroke-width=".5" points="377.7678,-38.9747 382.9196,-37.7411 378.1229,-35.4927 377.7678,-38.9747"/>
</g>
<!-- ModelEntity -->
<g id="node6" class="node">
<title>ModelEntity</title>
<g id="a_node6"><a xlink:href="../pyVHDLModel/pyVHDLModel.VHDLModel.html#pyVHDLModel.VHDLModel.ModelEntity" xlink:title="``ModelEntity`` is a base class for all classes in the VHDL language model," target="_top">
<polygon fill="#ffffff" stroke="#000000" stroke-width=".5" points="140.5,-56 41.5,-56 41.5,-37 140.5,-37 140.5,-56"/>
<text text-anchor="middle" x="91" y="-44" font-family="Vera Sans, DejaVu Sans, Liberation Sans, Arial, Helvetica, sans" font-size="10.00" fill="#000000">ModelEntity</text>
</a>
</g>
</g>
<!-- ModelEntity&#45;&gt;GenerateBranch -->
<g id="edge3" class="edge">
<title>ModelEntity&#45;&gt;GenerateBranch</title>
<path fill="none" stroke="#000000" stroke-width=".5" d="M140.8145,-53.5234C163.7831,-56.7618 191.3733,-60.6519 216.0799,-64.1353"/>
<polygon fill="#000000" stroke="#000000" stroke-width=".5" points="216.1101,-65.9068 221.3055,-64.8721 216.5988,-62.4411 216.1101,-65.9068"/>
</g>
<!-- MixinBranch -->
<g id="node7" class="node">
<title>MixinBranch</title>
<g id="a_node7"><a xlink:href="../pyVHDLModel/pyVHDLModel.VHDLModel.html#pyVHDLModel.VHDLModel.MixinBranch" xlink:title="A ``BaseBranch`` is a mixin&#45;class for all statements with branches." target="_top">
<polygon fill="#ffffff" stroke="#000000" stroke-width=".5" points="140.5,-19 41.5,-19 41.5,0 140.5,0 140.5,-19"/>
<text text-anchor="middle" x="91" y="-7" font-family="Vera Sans, DejaVu Sans, Liberation Sans, Arial, Helvetica, sans" font-size="10.00" fill="#000000">MixinBranch</text>
</a>
</g>
</g>
<!-- MixinBranch&#45;&gt;MixinElseBranch -->
<g id="edge6" class="edge">
<title>MixinBranch&#45;&gt;MixinElseBranch</title>
<path fill="none" stroke="#000000" stroke-width=".5" d="M140.8145,-14.1823C162.7484,-16.244 188.8971,-18.7018 212.7243,-20.9414"/>
<polygon fill="#000000" stroke="#000000" stroke-width=".5" points="212.6293,-22.6901 217.7712,-21.4158 212.9569,-19.2055 212.6293,-22.6901"/>
</g>
</g>
</svg>
