<?xml version="1.0" encoding="UTF-8" standalone="no"?>
<!DOCTYPE svg PUBLIC "-//W3C//DTD SVG 1.1//EN"
 "http://www.w3.org/Graphics/SVG/1.1/DTD/svg11.dtd">
<!-- Generated by graphviz version 2.40.1 (0)
 -->
<!-- Title: inheritance52ef1d054c Pages: 1 -->
<svg width="468pt" height="64pt"
 viewBox="0.00 0.00 468.00 64.00" xmlns="http://www.w3.org/2000/svg" xmlns:xlink="http://www.w3.org/1999/xlink">
<g id="graph0" class="graph" transform="scale(1 1) rotate(0) translate(4 60)">
<title>inheritance52ef1d054c</title>
<!-- Case -->
<g id="node1" class="node">
<title>Case</title>
<g id="a_node1"><a xlink:href="../pyVHDLModel/pyVHDLModel.VHDLModel.html#pyVHDLModel.VHDLModel.Case" xlink:title="A ``Case`` is a base&#45;class for all cases." target="_top">
<polygon fill="#ffffff" stroke="#000000" stroke-width=".5" points="245.5,-19 191.5,-19 191.5,0 245.5,0 245.5,-19"/>
<text text-anchor="middle" x="218.5" y="-7" font-family="Vera Sans, DejaVu Sans, Liberation Sans, Arial, Helvetica, sans" font-size="10.00" fill="#000000">Case</text>
</a>
</g>
</g>
<!-- SequentialCase -->
<g id="node3" class="node">
<title>SequentialCase</title>
<g id="a_node3"><a xlink:href="../pyVHDLModel/pyVHDLModel.VHDLModel.html#pyVHDLModel.VHDLModel.SequentialCase" xlink:title="SequentialCase" target="_top">
<polygon fill="#ffffff" stroke="#000000" stroke-width=".5" points="460,-37 338,-37 338,-18 460,-18 460,-37"/>
<text text-anchor="middle" x="399" y="-25" font-family="Vera Sans, DejaVu Sans, Liberation Sans, Arial, Helvetica, sans" font-size="10.00" fill="#000000">SequentialCase</text>
</a>
</g>
</g>
<!-- Case&#45;&gt;SequentialCase -->
<g id="edge2" class="edge">
<title>Case&#45;&gt;SequentialCase</title>
<path fill="none" stroke="#000000" stroke-width=".5" d="M245.5227,-12.1948C268.4858,-14.4847 302.4238,-17.8691 332.5509,-20.8735"/>
<polygon fill="#000000" stroke="#000000" stroke-width=".5" points="332.5895,-22.6359 337.7385,-21.3908 332.9368,-19.1532 332.5895,-22.6359"/>
</g>
<!-- ModelEntity -->
<g id="node2" class="node">
<title>ModelEntity</title>
<g id="a_node2"><a xlink:href="../pyVHDLModel/pyVHDLModel.VHDLModel.html#pyVHDLModel.VHDLModel.ModelEntity" xlink:title="``ModelEntity`` is a base class for all classes in the VHDL language model," target="_top">
<polygon fill="#ffffff" stroke="#000000" stroke-width=".5" points="99,-19 0,-19 0,0 99,0 99,-19"/>
<text text-anchor="middle" x="49.5" y="-7" font-family="Vera Sans, DejaVu Sans, Liberation Sans, Arial, Helvetica, sans" font-size="10.00" fill="#000000">ModelEntity</text>
</a>
</g>
</g>
<!-- ModelEntity&#45;&gt;Case -->
<g id="edge1" class="edge">
<title>ModelEntity&#45;&gt;Case</title>
<path fill="none" stroke="#000000" stroke-width=".5" d="M99.2915,-9.5C127.2885,-9.5 161.4381,-9.5 185.999,-9.5"/>
<polygon fill="#000000" stroke="#000000" stroke-width=".5" points="186.0889,-11.2501 191.0888,-9.5 186.0888,-7.7501 186.0889,-11.2501"/>
</g>
<!-- SequentialStatements -->
<g id="node4" class="node">
<title>SequentialStatements</title>
<g id="a_node4"><a xlink:href="../pyVHDLModel/pyVHDLModel.VHDLModel.html#pyVHDLModel.VHDLModel.SequentialStatements" xlink:title="SequentialStatements" target="_top">
<polygon fill="#ffffff" stroke="#000000" stroke-width=".5" points="302,-56 135,-56 135,-37 302,-37 302,-56"/>
<text text-anchor="middle" x="218.5" y="-44" font-family="Vera Sans, DejaVu Sans, Liberation Sans, Arial, Helvetica, sans" font-size="10.00" fill="#000000">SequentialStatements</text>
</a>
</g>
</g>
<!-- SequentialStatements&#45;&gt;SequentialCase -->
<g id="edge3" class="edge">
<title>SequentialStatements&#45;&gt;SequentialCase</title>
<path fill="none" stroke="#000000" stroke-width=".5" d="M302.1451,-37.6952C312.4325,-36.6124 322.8349,-35.5174 332.8138,-34.467"/>
<polygon fill="#000000" stroke="#000000" stroke-width=".5" points="333.2014,-36.1859 337.9907,-33.922 332.835,-32.7052 333.2014,-36.1859"/>
</g>
</g>
</svg>
