<?xml version="1.0" encoding="UTF-8" standalone="no"?>
<!DOCTYPE svg PUBLIC "-//W3C//DTD SVG 1.1//EN"
 "http://www.w3.org/Graphics/SVG/1.1/DTD/svg11.dtd">
<!-- Generated by graphviz version 2.40.1 (0)
 -->
<!-- Title: inheritance60a498c76a Pages: 1 -->
<svg width="576pt" height="76pt"
 viewBox="0.00 0.00 576.00 76.37" xmlns="http://www.w3.org/2000/svg" xmlns:xlink="http://www.w3.org/1999/xlink">
<g id="graph0" class="graph" transform="scale(.9201 .9201) rotate(0) translate(4 79)">
<title>inheritance60a498c76a</title>
<!-- Architecture -->
<g id="node1" class="node">
<title>Architecture</title>
<g id="a_node1"><a xlink:href="../pyVHDLModel/pyVHDLModel.VHDLModel.html#pyVHDLModel.VHDLModel.Architecture" xlink:title="Architecture" target="_top">
<polygon fill="#ffffff" stroke="#000000" stroke-width=".5" points="618,-37 511,-37 511,-18 618,-18 618,-37"/>
<text text-anchor="middle" x="564.5" y="-25" font-family="Vera Sans, DejaVu Sans, Liberation Sans, Arial, Helvetica, sans" font-size="10.00" fill="#000000">Architecture</text>
</a>
</g>
</g>
<!-- SecondaryUnit -->
<g id="node2" class="node">
<title>SecondaryUnit</title>
<g id="a_node2"><a xlink:href="../pyVHDLModel/pyVHDLModel.VHDLModel.html#pyVHDLModel.VHDLModel.SecondaryUnit" xlink:title="A ``SecondaryUnit`` is a base&#45;class for all secondary units." target="_top">
<polygon fill="#ffffff" stroke="#000000" stroke-width=".5" points="426,-56 312,-56 312,-37 426,-37 426,-56"/>
<text text-anchor="middle" x="369" y="-44" font-family="Vera Sans, DejaVu Sans, Liberation Sans, Arial, Helvetica, sans" font-size="10.00" fill="#000000">SecondaryUnit</text>
</a>
</g>
</g>
<!-- SecondaryUnit&#45;&gt;Architecture -->
<g id="edge1" class="edge">
<title>SecondaryUnit&#45;&gt;Architecture</title>
<path fill="none" stroke="#000000" stroke-width=".5" d="M426.0722,-40.9533C451.1137,-38.5196 480.4901,-35.6646 505.7231,-33.2123"/>
<polygon fill="#000000" stroke="#000000" stroke-width=".5" points="505.9048,-34.953 510.712,-32.7275 505.5661,-31.4694 505.9048,-34.953"/>
</g>
<!-- MixinDesignUnitWithContext -->
<g id="node3" class="node">
<title>MixinDesignUnitWithContext</title>
<g id="a_node3"><a xlink:href="../pyVHDLModel/pyVHDLModel.VHDLModel.html#pyVHDLModel.VHDLModel.MixinDesignUnitWithContext" xlink:title="A ``DesignUnitWithReferences`` is a base&#45;class for all design units with contexts." target="_top">
<polygon fill="#ffffff" stroke="#000000" stroke-width=".5" points="475,-19 263,-19 263,0 475,0 475,-19"/>
<text text-anchor="middle" x="369" y="-7" font-family="Vera Sans, DejaVu Sans, Liberation Sans, Arial, Helvetica, sans" font-size="10.00" fill="#000000">MixinDesignUnitWithContext</text>
</a>
</g>
</g>
<!-- MixinDesignUnitWithContext&#45;&gt;Architecture -->
<g id="edge2" class="edge">
<title>MixinDesignUnitWithContext&#45;&gt;Architecture</title>
<path fill="none" stroke="#000000" stroke-width=".5" d="M472.1887,-19.0007C483.7054,-20.0611 495.1212,-21.1122 505.7939,-22.0948"/>
<polygon fill="#000000" stroke="#000000" stroke-width=".5" points="505.8313,-23.8556 510.9707,-22.5715 506.1523,-20.3703 505.8313,-23.8556"/>
</g>
<!-- DesignUnit -->
<g id="node4" class="node">
<title>DesignUnit</title>
<g id="a_node4"><a xlink:href="../pyVHDLModel/pyVHDLModel.VHDLModel.html#pyVHDLModel.VHDLModel.DesignUnit" xlink:title="A ``DesignUnit`` is a base&#45;class for all design units." target="_top">
<polygon fill="#ffffff" stroke="#000000" stroke-width=".5" points="227,-56 135,-56 135,-37 227,-37 227,-56"/>
<text text-anchor="middle" x="181" y="-44" font-family="Vera Sans, DejaVu Sans, Liberation Sans, Arial, Helvetica, sans" font-size="10.00" fill="#000000">DesignUnit</text>
</a>
</g>
</g>
<!-- DesignUnit&#45;&gt;SecondaryUnit -->
<g id="edge5" class="edge">
<title>DesignUnit&#45;&gt;SecondaryUnit</title>
<path fill="none" stroke="#000000" stroke-width=".5" d="M227.4719,-46.5C251.4275,-46.5 280.9719,-46.5 306.8597,-46.5"/>
<polygon fill="#000000" stroke="#000000" stroke-width=".5" points="306.9859,-48.2501 311.9858,-46.5 306.9858,-44.7501 306.9859,-48.2501"/>
</g>
<!-- ModelEntity -->
<g id="node5" class="node">
<title>ModelEntity</title>
<g id="a_node5"><a xlink:href="../pyVHDLModel/pyVHDLModel.VHDLModel.html#pyVHDLModel.VHDLModel.ModelEntity" xlink:title="``ModelEntity`` is a base class for all classes in the VHDL language model," target="_top">
<polygon fill="#ffffff" stroke="#000000" stroke-width=".5" points="99,-75 0,-75 0,-56 99,-56 99,-75"/>
<text text-anchor="middle" x="49.5" y="-63" font-family="Vera Sans, DejaVu Sans, Liberation Sans, Arial, Helvetica, sans" font-size="10.00" fill="#000000">ModelEntity</text>
</a>
</g>
</g>
<!-- ModelEntity&#45;&gt;DesignUnit -->
<g id="edge3" class="edge">
<title>ModelEntity&#45;&gt;DesignUnit</title>
<path fill="none" stroke="#000000" stroke-width=".5" d="M99.2145,-58.3169C109.1242,-56.8851 119.5514,-55.3785 129.5189,-53.9383"/>
<polygon fill="#000000" stroke="#000000" stroke-width=".5" points="129.9859,-55.6391 134.6843,-53.192 129.4854,-52.1751 129.9859,-55.6391"/>
</g>
<!-- NamedEntity -->
<g id="node6" class="node">
<title>NamedEntity</title>
<g id="a_node6"><a xlink:href="../pyVHDLModel/pyVHDLModel.VHDLModel.html#pyVHDLModel.VHDLModel.NamedEntity" xlink:title="A ``NamedEntity`` is a mixin class for all VHDL entities that have names." target="_top">
<polygon fill="#ffffff" stroke="#000000" stroke-width=".5" points="99,-38 0,-38 0,-19 99,-19 99,-38"/>
<text text-anchor="middle" x="49.5" y="-26" font-family="Vera Sans, DejaVu Sans, Liberation Sans, Arial, Helvetica, sans" font-size="10.00" fill="#000000">NamedEntity</text>
</a>
</g>
</g>
<!-- NamedEntity&#45;&gt;DesignUnit -->
<g id="edge4" class="edge">
<title>NamedEntity&#45;&gt;DesignUnit</title>
<path fill="none" stroke="#000000" stroke-width=".5" d="M99.2145,-35.305C109.1242,-36.6615 119.5514,-38.0888 129.5189,-39.4532"/>
<polygon fill="#000000" stroke="#000000" stroke-width=".5" points="129.4931,-41.2159 134.6843,-40.1602 129.9678,-37.7482 129.4931,-41.2159"/>
</g>
</g>
</svg>
