<?xml version="1.0" encoding="UTF-8" standalone="no"?>
<!DOCTYPE svg PUBLIC "-//W3C//DTD SVG 1.1//EN"
 "http://www.w3.org/Graphics/SVG/1.1/DTD/svg11.dtd">
<!-- Generated by graphviz version 2.40.1 (0)
 -->
<!-- Title: inheritance08a5c6a270 Pages: 1 -->
<svg width="467pt" height="27pt"
 viewBox="0.00 0.00 467.00 27.00" xmlns="http://www.w3.org/2000/svg" xmlns:xlink="http://www.w3.org/1999/xlink">
<g id="graph0" class="graph" transform="scale(1 1) rotate(0) translate(4 23)">
<title>inheritance08a5c6a270</title>
<!-- AssociationItem -->
<g id="node1" class="node">
<title>AssociationItem</title>
<g id="a_node1"><a xlink:href="../pyVHDLModel/pyVHDLModel.VHDLModel.html#pyVHDLModel.VHDLModel.AssociationItem" xlink:title="AssociationItem" target="_top">
<polygon fill="#ffffff" stroke="#000000" stroke-width=".5" points="264,-19 135,-19 135,0 264,0 264,-19"/>
<text text-anchor="middle" x="199.5" y="-7" font-family="Vera Sans, DejaVu Sans, Liberation Sans, Arial, Helvetica, sans" font-size="10.00" fill="#000000">AssociationItem</text>
</a>
</g>
</g>
<!-- PortAssociationItem -->
<g id="node3" class="node">
<title>PortAssociationItem</title>
<g id="a_node3"><a xlink:href="../pyVHDLModel/pyVHDLModel.VHDLModel.html#pyVHDLModel.VHDLModel.PortAssociationItem" xlink:title="PortAssociationItem" target="_top">
<polygon fill="#ffffff" stroke="#000000" stroke-width=".5" points="459,-19 300,-19 300,0 459,0 459,-19"/>
<text text-anchor="middle" x="379.5" y="-7" font-family="Vera Sans, DejaVu Sans, Liberation Sans, Arial, Helvetica, sans" font-size="10.00" fill="#000000">PortAssociationItem</text>
</a>
</g>
</g>
<!-- AssociationItem&#45;&gt;PortAssociationItem -->
<g id="edge2" class="edge">
<title>AssociationItem&#45;&gt;PortAssociationItem</title>
<path fill="none" stroke="#000000" stroke-width=".5" d="M264.2298,-9.5C274.1907,-9.5 284.6009,-9.5 294.9159,-9.5"/>
<polygon fill="#000000" stroke="#000000" stroke-width=".5" points="294.9697,-11.2501 299.9696,-9.5 294.9696,-7.7501 294.9697,-11.2501"/>
</g>
<!-- ModelEntity -->
<g id="node2" class="node">
<title>ModelEntity</title>
<g id="a_node2"><a xlink:href="../pyVHDLModel/pyVHDLModel.VHDLModel.html#pyVHDLModel.VHDLModel.ModelEntity" xlink:title="``ModelEntity`` is a base class for all classes in the VHDL language model," target="_top">
<polygon fill="#ffffff" stroke="#000000" stroke-width=".5" points="99,-19 0,-19 0,0 99,0 99,-19"/>
<text text-anchor="middle" x="49.5" y="-7" font-family="Vera Sans, DejaVu Sans, Liberation Sans, Arial, Helvetica, sans" font-size="10.00" fill="#000000">ModelEntity</text>
</a>
</g>
</g>
<!-- ModelEntity&#45;&gt;AssociationItem -->
<g id="edge1" class="edge">
<title>ModelEntity&#45;&gt;AssociationItem</title>
<path fill="none" stroke="#000000" stroke-width=".5" d="M99.0313,-9.5C108.8582,-9.5 119.3471,-9.5 129.703,-9.5"/>
<polygon fill="#000000" stroke="#000000" stroke-width=".5" points="129.7726,-11.2501 134.7726,-9.5 129.7726,-7.7501 129.7726,-11.2501"/>
</g>
</g>
</svg>
