<?xml version="1.0" encoding="UTF-8" standalone="no"?>
<!DOCTYPE svg PUBLIC "-//W3C//DTD SVG 1.1//EN"
 "http://www.w3.org/Graphics/SVG/1.1/DTD/svg11.dtd">
<!-- Generated by graphviz version 2.40.1 (0)
 -->
<!-- Title: inheritance96607a2eab Pages: 1 -->
<svg width="527pt" height="82pt"
 viewBox="0.00 0.00 527.00 82.00" xmlns="http://www.w3.org/2000/svg" xmlns:xlink="http://www.w3.org/1999/xlink">
<g id="graph0" class="graph" transform="scale(1 1) rotate(0) translate(4 78)">
<title>inheritance96607a2eab</title>
<!-- Method -->
<g id="node1" class="node">
<title>Method</title>
<g id="a_node1"><a xlink:href="../pyVHDLModel/pyVHDLModel.VHDLModel.html#pyVHDLModel.VHDLModel.Method" xlink:title="A ``Method`` is a mixin class for all subprograms in a protected type." target="_top">
<polygon fill="#ffffff" stroke="#000000" stroke-width=".5" points="343,-74 281,-74 281,-55 343,-55 343,-74"/>
<text text-anchor="middle" x="312" y="-62" font-family="Vera Sans, DejaVu Sans, Liberation Sans, Arial, Helvetica, sans" font-size="10.00" fill="#000000">Method</text>
</a>
</g>
</g>
<!-- ProcedureMethod -->
<g id="node6" class="node">
<title>ProcedureMethod</title>
<g id="a_node6"><a xlink:href="../pyVHDLModel/pyVHDLModel.VHDLModel.html#pyVHDLModel.VHDLModel.ProcedureMethod" xlink:title="ProcedureMethod" target="_top">
<polygon fill="#ffffff" stroke="#000000" stroke-width=".5" points="519,-55 390,-55 390,-36 519,-36 519,-55"/>
<text text-anchor="middle" x="454.5" y="-43" font-family="Vera Sans, DejaVu Sans, Liberation Sans, Arial, Helvetica, sans" font-size="10.00" fill="#000000">ProcedureMethod</text>
</a>
</g>
</g>
<!-- Method&#45;&gt;ProcedureMethod -->
<g id="edge3" class="edge">
<title>Method&#45;&gt;ProcedureMethod</title>
<path fill="none" stroke="#000000" stroke-width=".5" d="M343.2722,-60.3304C355.6383,-58.6816 370.3797,-56.716 385.0214,-54.7638"/>
<polygon fill="#000000" stroke="#000000" stroke-width=".5" points="385.2546,-56.4983 389.9795,-54.1027 384.792,-53.029 385.2546,-56.4983"/>
</g>
<!-- ModelEntity -->
<g id="node2" class="node">
<title>ModelEntity</title>
<g id="a_node2"><a xlink:href="../pyVHDLModel/pyVHDLModel.VHDLModel.html#pyVHDLModel.VHDLModel.ModelEntity" xlink:title="``ModelEntity`` is a base class for all classes in the VHDL language model," target="_top">
<polygon fill="#ffffff" stroke="#000000" stroke-width=".5" points="99,-56 0,-56 0,-37 99,-37 99,-56"/>
<text text-anchor="middle" x="49.5" y="-44" font-family="Vera Sans, DejaVu Sans, Liberation Sans, Arial, Helvetica, sans" font-size="10.00" fill="#000000">ModelEntity</text>
</a>
</g>
</g>
<!-- SubProgramm -->
<g id="node5" class="node">
<title>SubProgramm</title>
<g id="a_node5"><a xlink:href="../pyVHDLModel/pyVHDLModel.VHDLModel.html#pyVHDLModel.VHDLModel.SubProgramm" xlink:title="SubProgramm" target="_top">
<polygon fill="#ffffff" stroke="#000000" stroke-width=".5" points="234,-37 135,-37 135,-18 234,-18 234,-37"/>
<text text-anchor="middle" x="184.5" y="-25" font-family="Vera Sans, DejaVu Sans, Liberation Sans, Arial, Helvetica, sans" font-size="10.00" fill="#000000">SubProgramm</text>
</a>
</g>
</g>
<!-- ModelEntity&#45;&gt;SubProgramm -->
<g id="edge4" class="edge">
<title>ModelEntity&#45;&gt;SubProgramm</title>
<path fill="none" stroke="#000000" stroke-width=".5" d="M99.0024,-39.533C108.871,-38.1441 119.2933,-36.6772 129.3382,-35.2635"/>
<polygon fill="#000000" stroke="#000000" stroke-width=".5" points="129.8444,-36.9596 134.5516,-34.5298 129.3565,-33.4938 129.8444,-36.9596"/>
</g>
<!-- NamedEntity -->
<g id="node3" class="node">
<title>NamedEntity</title>
<g id="a_node3"><a xlink:href="../pyVHDLModel/pyVHDLModel.VHDLModel.html#pyVHDLModel.VHDLModel.NamedEntity" xlink:title="A ``NamedEntity`` is a mixin class for all VHDL entities that have names." target="_top">
<polygon fill="#ffffff" stroke="#000000" stroke-width=".5" points="99,-19 0,-19 0,0 99,0 99,-19"/>
<text text-anchor="middle" x="49.5" y="-7" font-family="Vera Sans, DejaVu Sans, Liberation Sans, Arial, Helvetica, sans" font-size="10.00" fill="#000000">NamedEntity</text>
</a>
</g>
</g>
<!-- NamedEntity&#45;&gt;SubProgramm -->
<g id="edge5" class="edge">
<title>NamedEntity&#45;&gt;SubProgramm</title>
<path fill="none" stroke="#000000" stroke-width=".5" d="M99.0024,-16.1003C108.871,-17.4161 119.2933,-18.8058 129.3382,-20.1451"/>
<polygon fill="#000000" stroke="#000000" stroke-width=".5" points="129.3642,-21.914 134.5516,-20.8402 129.8268,-18.4447 129.3642,-21.914"/>
</g>
<!-- Procedure -->
<g id="node4" class="node">
<title>Procedure</title>
<g id="a_node4"><a xlink:href="../pyVHDLModel/pyVHDLModel.VHDLModel.html#pyVHDLModel.VHDLModel.Procedure" xlink:title="Procedure" target="_top">
<polygon fill="#ffffff" stroke="#000000" stroke-width=".5" points="354,-37 270,-37 270,-18 354,-18 354,-37"/>
<text text-anchor="middle" x="312" y="-25" font-family="Vera Sans, DejaVu Sans, Liberation Sans, Arial, Helvetica, sans" font-size="10.00" fill="#000000">Procedure</text>
</a>
</g>
</g>
<!-- Procedure&#45;&gt;ProcedureMethod -->
<g id="edge2" class="edge">
<title>Procedure&#45;&gt;ProcedureMethod</title>
<path fill="none" stroke="#000000" stroke-width=".5" d="M354.3689,-32.8519C363.9575,-34.063 374.386,-35.3803 384.7715,-36.6922"/>
<polygon fill="#000000" stroke="#000000" stroke-width=".5" points="384.6826,-38.4448 389.8625,-37.3353 385.1213,-34.9724 384.6826,-38.4448"/>
</g>
<!-- SubProgramm&#45;&gt;Procedure -->
<g id="edge1" class="edge">
<title>SubProgramm&#45;&gt;Procedure</title>
<path fill="none" stroke="#000000" stroke-width=".5" d="M234.1599,-27.5C244.1631,-27.5 254.6535,-27.5 264.5778,-27.5"/>
<polygon fill="#000000" stroke="#000000" stroke-width=".5" points="264.7104,-29.2501 269.7104,-27.5 264.7103,-25.7501 264.7104,-29.2501"/>
</g>
</g>
</svg>
