<?xml version="1.0" encoding="UTF-8" standalone="no"?>
<!DOCTYPE svg PUBLIC "-//W3C//DTD SVG 1.1//EN"
 "http://www.w3.org/Graphics/SVG/1.1/DTD/svg11.dtd">
<!-- Generated by graphviz version 2.40.1 (0)
 -->
<!-- Title: inheritancee51f542c3c Pages: 1 -->
<svg width="576pt" height="60pt"
 viewBox="0.00 0.00 576.00 59.79" xmlns="http://www.w3.org/2000/svg" xmlns:xlink="http://www.w3.org/1999/xlink">
<g id="graph0" class="graph" transform="scale(.7291 .7291) rotate(0) translate(4 78)">
<title>inheritancee51f542c3c</title>
<!-- CompoundStatement -->
<g id="node1" class="node">
<title>CompoundStatement</title>
<g id="a_node1"><a xlink:href="../pyVHDLModel/pyVHDLModel.VHDLModel.html#pyVHDLModel.VHDLModel.CompoundStatement" xlink:title="A ``CompoundStatement`` is a base&#45;class for all compound statements." target="_top">
<polygon fill="#ffffff" stroke="#000000" stroke-width=".5" points="620.5,-37 476.5,-37 476.5,-18 620.5,-18 620.5,-37"/>
<text text-anchor="middle" x="548.5" y="-25" font-family="Vera Sans, DejaVu Sans, Liberation Sans, Arial, Helvetica, sans" font-size="10.00" fill="#000000">CompoundStatement</text>
</a>
</g>
</g>
<!-- LoopStatement -->
<g id="node4" class="node">
<title>LoopStatement</title>
<g id="a_node4"><a xlink:href="../pyVHDLModel/pyVHDLModel.VHDLModel.html#pyVHDLModel.VHDLModel.LoopStatement" xlink:title="A ``LoopStatement`` is a base&#45;class for all loop statements." target="_top">
<polygon fill="#ffffff" stroke="#000000" stroke-width=".5" points="782,-55 668,-55 668,-36 782,-36 782,-55"/>
<text text-anchor="middle" x="725" y="-43" font-family="Vera Sans, DejaVu Sans, Liberation Sans, Arial, Helvetica, sans" font-size="10.00" fill="#000000">LoopStatement</text>
</a>
</g>
</g>
<!-- CompoundStatement&#45;&gt;LoopStatement -->
<g id="edge2" class="edge">
<title>CompoundStatement&#45;&gt;LoopStatement</title>
<path fill="none" stroke="#000000" stroke-width=".5" d="M620.5439,-34.8473C634.5515,-36.2758 649.1233,-37.7619 662.7815,-39.1548"/>
<polygon fill="#000000" stroke="#000000" stroke-width=".5" points="662.6175,-40.897 667.7693,-39.6634 662.9727,-37.4151 662.6175,-40.897"/>
</g>
<!-- SequentialStatement -->
<g id="node2" class="node">
<title>SequentialStatement</title>
<g id="a_node2"><a xlink:href="../pyVHDLModel/pyVHDLModel.VHDLModel.html#pyVHDLModel.VHDLModel.SequentialStatement" xlink:title="A ``SequentialStatement`` is a base&#45;class for all sequential statements." target="_top">
<polygon fill="#ffffff" stroke="#000000" stroke-width=".5" points="429,-37 270,-37 270,-18 429,-18 429,-37"/>
<text text-anchor="middle" x="349.5" y="-25" font-family="Vera Sans, DejaVu Sans, Liberation Sans, Arial, Helvetica, sans" font-size="10.00" fill="#000000">SequentialStatement</text>
</a>
</g>
</g>
<!-- SequentialStatement&#45;&gt;CompoundStatement -->
<g id="edge1" class="edge">
<title>SequentialStatement&#45;&gt;CompoundStatement</title>
<path fill="none" stroke="#000000" stroke-width=".5" d="M429.008,-27.5C442.8924,-27.5 457.3185,-27.5 471.1437,-27.5"/>
<polygon fill="#000000" stroke="#000000" stroke-width=".5" points="471.2079,-29.2501 476.2079,-27.5 471.2079,-25.7501 471.2079,-29.2501"/>
</g>
<!-- LabeledEntity -->
<g id="node3" class="node">
<title>LabeledEntity</title>
<g id="a_node3"><a xlink:href="../pyVHDLModel/pyVHDLModel.VHDLModel.html#pyVHDLModel.VHDLModel.LabeledEntity" xlink:title="A ``LabeledEntity`` is a mixin class for all VHDL entities that can have" target="_top">
<polygon fill="#ffffff" stroke="#000000" stroke-width=".5" points="114,-56 0,-56 0,-37 114,-37 114,-56"/>
<text text-anchor="middle" x="57" y="-44" font-family="Vera Sans, DejaVu Sans, Liberation Sans, Arial, Helvetica, sans" font-size="10.00" fill="#000000">LabeledEntity</text>
</a>
</g>
</g>
<!-- Statement -->
<g id="node7" class="node">
<title>Statement</title>
<g id="a_node7"><a xlink:href="../pyVHDLModel/pyVHDLModel.VHDLModel.html#pyVHDLModel.VHDLModel.Statement" xlink:title="Statement" target="_top">
<polygon fill="#ffffff" stroke="#000000" stroke-width=".5" points="234,-37 150,-37 150,-18 234,-18 234,-37"/>
<text text-anchor="middle" x="192" y="-25" font-family="Vera Sans, DejaVu Sans, Liberation Sans, Arial, Helvetica, sans" font-size="10.00" fill="#000000">Statement</text>
</a>
</g>
</g>
<!-- LabeledEntity&#45;&gt;Statement -->
<g id="edge6" class="edge">
<title>LabeledEntity&#45;&gt;Statement</title>
<path fill="none" stroke="#000000" stroke-width=".5" d="M114.2522,-38.4423C124.4108,-37.0126 134.8864,-35.5382 144.7297,-34.1529"/>
<polygon fill="#000000" stroke="#000000" stroke-width=".5" points="145.1072,-35.8671 149.8145,-33.4372 144.6193,-32.4012 145.1072,-35.8671"/>
</g>
<!-- SequentialStatements -->
<g id="node5" class="node">
<title>SequentialStatements</title>
<g id="a_node5"><a xlink:href="../pyVHDLModel/pyVHDLModel.VHDLModel.html#pyVHDLModel.VHDLModel.SequentialStatements" xlink:title="SequentialStatements" target="_top">
<polygon fill="#ffffff" stroke="#000000" stroke-width=".5" points="632,-74 465,-74 465,-55 632,-55 632,-74"/>
<text text-anchor="middle" x="548.5" y="-62" font-family="Vera Sans, DejaVu Sans, Liberation Sans, Arial, Helvetica, sans" font-size="10.00" fill="#000000">SequentialStatements</text>
</a>
</g>
</g>
<!-- SequentialStatements&#45;&gt;LoopStatement -->
<g id="edge3" class="edge">
<title>SequentialStatements&#45;&gt;LoopStatement</title>
<path fill="none" stroke="#000000" stroke-width=".5" d="M632.0981,-55.5008C642.4171,-54.3899 652.8212,-53.27 662.7439,-52.2018"/>
<polygon fill="#000000" stroke="#000000" stroke-width=".5" points="663.102,-53.9234 667.886,-51.6483 662.7273,-50.4435 663.102,-53.9234"/>
</g>
<!-- ModelEntity -->
<g id="node6" class="node">
<title>ModelEntity</title>
<g id="a_node6"><a xlink:href="../pyVHDLModel/pyVHDLModel.VHDLModel.html#pyVHDLModel.VHDLModel.ModelEntity" xlink:title="``ModelEntity`` is a base class for all classes in the VHDL language model," target="_top">
<polygon fill="#ffffff" stroke="#000000" stroke-width=".5" points="106.5,-19 7.5,-19 7.5,0 106.5,0 106.5,-19"/>
<text text-anchor="middle" x="57" y="-7" font-family="Vera Sans, DejaVu Sans, Liberation Sans, Arial, Helvetica, sans" font-size="10.00" fill="#000000">ModelEntity</text>
</a>
</g>
</g>
<!-- ModelEntity&#45;&gt;Statement -->
<g id="edge5" class="edge">
<title>ModelEntity&#45;&gt;Statement</title>
<path fill="none" stroke="#000000" stroke-width=".5" d="M106.5024,-16.1003C118.8814,-17.7508 132.1315,-19.5175 144.4152,-21.1554"/>
<polygon fill="#000000" stroke="#000000" stroke-width=".5" points="144.4276,-22.9224 149.6151,-21.8487 144.8903,-19.4531 144.4276,-22.9224"/>
</g>
<!-- Statement&#45;&gt;SequentialStatement -->
<g id="edge4" class="edge">
<title>Statement&#45;&gt;SequentialStatement</title>
<path fill="none" stroke="#000000" stroke-width=".5" d="M234.2071,-27.5C243.6822,-27.5 254.0641,-27.5 264.5937,-27.5"/>
<polygon fill="#000000" stroke="#000000" stroke-width=".5" points="264.7713,-29.2501 269.7713,-27.5 264.7713,-25.7501 264.7713,-29.2501"/>
</g>
</g>
</svg>
