<?xml version="1.0" encoding="UTF-8" standalone="no"?>
<!DOCTYPE svg PUBLIC "-//W3C//DTD SVG 1.1//EN"
 "http://www.w3.org/Graphics/SVG/1.1/DTD/svg11.dtd">
<!-- Generated by graphviz version 2.40.1 (0)
 -->
<!-- Title: inheritancec958717a09 Pages: 1 -->
<svg width="576pt" height="117pt"
 viewBox="0.00 0.00 576.00 117.35" xmlns="http://www.w3.org/2000/svg" xmlns:xlink="http://www.w3.org/1999/xlink">
<g id="graph0" class="graph" transform="scale(.6705 .6705) rotate(0) translate(4 171)">
<title>inheritancec958717a09</title>
<!-- BaseExpression -->
<g id="node1" class="node">
<title>BaseExpression</title>
<g id="a_node1"><a xlink:href="../../pyVHDLModel/pyVHDLModel.VHDLModel.html#pyVHDLModel.VHDLModel.BaseExpression" xlink:title="A ``BaseExpression`` is a base&#45;class for all expressions." target="_top">
<polygon fill="#ffffff" stroke="#000000" stroke-width=".5" points="257,-93 135,-93 135,-74 257,-74 257,-93"/>
<text text-anchor="middle" x="196" y="-81" font-family="Vera Sans, DejaVu Sans, Liberation Sans, Arial, Helvetica, sans" font-size="10.00" fill="#000000">BaseExpression</text>
</a>
</g>
</g>
<!-- BinaryExpression -->
<g id="node3" class="node">
<title>BinaryExpression</title>
<g id="a_node3"><a xlink:href="../../pyVHDLModel/pyVHDLModel.VHDLModel.html#pyVHDLModel.VHDLModel.BinaryExpression" xlink:title="A ``BinaryExpression`` is a base&#45;class for all binary expressions." target="_top">
<polygon fill="#ffffff" stroke="#000000" stroke-width=".5" points="430,-93 293,-93 293,-74 430,-74 430,-93"/>
<text text-anchor="middle" x="361.5" y="-81" font-family="Vera Sans, DejaVu Sans, Liberation Sans, Arial, Helvetica, sans" font-size="10.00" fill="#000000">BinaryExpression</text>
</a>
</g>
</g>
<!-- BaseExpression&#45;&gt;BinaryExpression -->
<g id="edge2" class="edge">
<title>BaseExpression&#45;&gt;BinaryExpression</title>
<path fill="none" stroke="#000000" stroke-width=".5" d="M257.1559,-83.5C267.1264,-83.5 277.5466,-83.5 287.7803,-83.5"/>
<polygon fill="#000000" stroke="#000000" stroke-width=".5" points="287.7864,-85.2501 292.7864,-83.5 287.7864,-81.7501 287.7864,-85.2501"/>
</g>
<!-- ModelEntity -->
<g id="node2" class="node">
<title>ModelEntity</title>
<g id="a_node2"><a xlink:href="../../pyVHDLModel/pyVHDLModel.VHDLModel.html#pyVHDLModel.VHDLModel.ModelEntity" xlink:title="``ModelEntity`` is a base class for all classes in the VHDL language model," target="_top">
<polygon fill="#ffffff" stroke="#000000" stroke-width=".5" points="99,-93 0,-93 0,-74 99,-74 99,-93"/>
<text text-anchor="middle" x="49.5" y="-81" font-family="Vera Sans, DejaVu Sans, Liberation Sans, Arial, Helvetica, sans" font-size="10.00" fill="#000000">ModelEntity</text>
</a>
</g>
</g>
<!-- ModelEntity&#45;&gt;BaseExpression -->
<g id="edge1" class="edge">
<title>ModelEntity&#45;&gt;BaseExpression</title>
<path fill="none" stroke="#000000" stroke-width=".5" d="M99.0982,-83.5C108.9426,-83.5 119.4255,-83.5 129.7228,-83.5"/>
<polygon fill="#000000" stroke="#000000" stroke-width=".5" points="129.7594,-85.2501 134.7594,-83.5 129.7594,-81.7501 129.7594,-85.2501"/>
</g>
<!-- RelationalExpression -->
<g id="node5" class="node">
<title>RelationalExpression</title>
<g id="a_node5"><a xlink:href="../../pyVHDLModel/pyVHDLModel.VHDLModel.html#pyVHDLModel.VHDLModel.RelationalExpression" xlink:title="A ``RelationalExpression`` is a base&#45;class for all shifting expressions." target="_top">
<polygon fill="#ffffff" stroke="#000000" stroke-width=".5" points="633,-93 466,-93 466,-74 633,-74 633,-93"/>
<text text-anchor="middle" x="549.5" y="-81" font-family="Vera Sans, DejaVu Sans, Liberation Sans, Arial, Helvetica, sans" font-size="10.00" fill="#000000">RelationalExpression</text>
</a>
</g>
</g>
<!-- BinaryExpression&#45;&gt;RelationalExpression -->
<g id="edge7" class="edge">
<title>BinaryExpression&#45;&gt;RelationalExpression</title>
<path fill="none" stroke="#000000" stroke-width=".5" d="M430.1703,-83.5C440.1761,-83.5 450.5956,-83.5 460.9273,-83.5"/>
<polygon fill="#000000" stroke="#000000" stroke-width=".5" points="460.9901,-85.2501 465.99,-83.5 460.99,-81.7501 460.9901,-85.2501"/>
</g>
<!-- EqualExpression -->
<g id="node4" class="node">
<title>EqualExpression</title>
<g id="a_node4"><a xlink:href="../../pyVHDLModel/pyVHDLModel.VHDLModel.html#pyVHDLModel.VHDLModel.EqualExpression" xlink:title="EqualExpression" target="_top">
<polygon fill="#ffffff" stroke="#000000" stroke-width=".5" points="824.5,-167 695.5,-167 695.5,-148 824.5,-148 824.5,-167"/>
<text text-anchor="middle" x="760" y="-155" font-family="Vera Sans, DejaVu Sans, Liberation Sans, Arial, Helvetica, sans" font-size="10.00" fill="#000000">EqualExpression</text>
</a>
</g>
</g>
<!-- RelationalExpression&#45;&gt;EqualExpression -->
<g id="edge3" class="edge">
<title>RelationalExpression&#45;&gt;EqualExpression</title>
<path fill="none" stroke="#000000" stroke-width=".5" d="M566.3768,-93.0203C589.0471,-105.4279 630.8994,-127.0109 669,-139.5 677.5221,-142.2935 686.6427,-144.7234 695.698,-146.8157"/>
<polygon fill="#000000" stroke="#000000" stroke-width=".5" points="695.4558,-148.5548 700.7179,-147.9435 696.2231,-145.14 695.4558,-148.5548"/>
</g>
<!-- GreaterEqualExpression -->
<g id="node6" class="node">
<title>GreaterEqualExpression</title>
<g id="a_node6"><a xlink:href="../../pyVHDLModel/pyVHDLModel.VHDLModel.html#pyVHDLModel.VHDLModel.GreaterEqualExpression" xlink:title="GreaterEqualExpression" target="_top">
<polygon fill="#ffffff" stroke="#000000" stroke-width=".5" points="851,-130 669,-130 669,-111 851,-111 851,-130"/>
<text text-anchor="middle" x="760" y="-118" font-family="Vera Sans, DejaVu Sans, Liberation Sans, Arial, Helvetica, sans" font-size="10.00" fill="#000000">GreaterEqualExpression</text>
</a>
</g>
</g>
<!-- RelationalExpression&#45;&gt;GreaterEqualExpression -->
<g id="edge4" class="edge">
<title>RelationalExpression&#45;&gt;GreaterEqualExpression</title>
<path fill="none" stroke="#000000" stroke-width=".5" d="M603.709,-93.0284C633.3035,-98.2303 670.0021,-104.6809 700.3995,-110.0239"/>
<polygon fill="#000000" stroke="#000000" stroke-width=".5" points="700.3818,-111.7975 705.6093,-110.9396 700.9878,-108.3504 700.3818,-111.7975"/>
</g>
<!-- GreaterThanExpression -->
<g id="node7" class="node">
<title>GreaterThanExpression</title>
<g id="a_node7"><a xlink:href="../../pyVHDLModel/pyVHDLModel.VHDLModel.html#pyVHDLModel.VHDLModel.GreaterThanExpression" xlink:title="GreaterThanExpression" target="_top">
<polygon fill="#ffffff" stroke="#000000" stroke-width=".5" points="847,-93 673,-93 673,-74 847,-74 847,-93"/>
<text text-anchor="middle" x="760" y="-81" font-family="Vera Sans, DejaVu Sans, Liberation Sans, Arial, Helvetica, sans" font-size="10.00" fill="#000000">GreaterThanExpression</text>
</a>
</g>
</g>
<!-- RelationalExpression&#45;&gt;GreaterThanExpression -->
<g id="edge5" class="edge">
<title>RelationalExpression&#45;&gt;GreaterThanExpression</title>
<path fill="none" stroke="#000000" stroke-width=".5" d="M633.3,-83.5C644.535,-83.5 656.1105,-83.5 667.4847,-83.5"/>
<polygon fill="#000000" stroke="#000000" stroke-width=".5" points="667.6945,-85.2501 672.6945,-83.5 667.6945,-81.7501 667.6945,-85.2501"/>
</g>
<!-- LessThanExpression -->
<g id="node8" class="node">
<title>LessThanExpression</title>
<g id="a_node8"><a xlink:href="../../pyVHDLModel/pyVHDLModel.VHDLModel.html#pyVHDLModel.VHDLModel.LessThanExpression" xlink:title="LessThanExpression" target="_top">
<polygon fill="#ffffff" stroke="#000000" stroke-width=".5" points="836,-56 684,-56 684,-37 836,-37 836,-56"/>
<text text-anchor="middle" x="760" y="-44" font-family="Vera Sans, DejaVu Sans, Liberation Sans, Arial, Helvetica, sans" font-size="10.00" fill="#000000">LessThanExpression</text>
</a>
</g>
</g>
<!-- RelationalExpression&#45;&gt;LessThanExpression -->
<g id="edge6" class="edge">
<title>RelationalExpression&#45;&gt;LessThanExpression</title>
<path fill="none" stroke="#000000" stroke-width=".5" d="M603.709,-73.9716C633.3035,-68.7697 670.0021,-62.3191 700.3995,-56.9761"/>
<polygon fill="#000000" stroke="#000000" stroke-width=".5" points="700.9878,-58.6496 705.6093,-56.0604 700.3818,-55.2025 700.9878,-58.6496"/>
</g>
<!-- UnequalExpression -->
<g id="node9" class="node">
<title>UnequalExpression</title>
<g id="a_node9"><a xlink:href="../../pyVHDLModel/pyVHDLModel.VHDLModel.html#pyVHDLModel.VHDLModel.UnequalExpression" xlink:title="UnequalExpression" target="_top">
<polygon fill="#ffffff" stroke="#000000" stroke-width=".5" points="832,-19 688,-19 688,0 832,0 832,-19"/>
<text text-anchor="middle" x="760" y="-7" font-family="Vera Sans, DejaVu Sans, Liberation Sans, Arial, Helvetica, sans" font-size="10.00" fill="#000000">UnequalExpression</text>
</a>
</g>
</g>
<!-- RelationalExpression&#45;&gt;UnequalExpression -->
<g id="edge8" class="edge">
<title>RelationalExpression&#45;&gt;UnequalExpression</title>
<path fill="none" stroke="#000000" stroke-width=".5" d="M566.3768,-73.9797C589.0471,-61.5721 630.8994,-39.9891 669,-27.5 677.5221,-24.7065 686.6427,-22.2766 695.698,-20.1843"/>
<polygon fill="#000000" stroke="#000000" stroke-width=".5" points="696.2231,-21.86 700.7179,-19.0565 695.4558,-18.4452 696.2231,-21.86"/>
</g>
</g>
</svg>
