<?xml version="1.0" encoding="UTF-8" standalone="no"?>
<!DOCTYPE svg PUBLIC "-//W3C//DTD SVG 1.1//EN"
 "http://www.w3.org/Graphics/SVG/1.1/DTD/svg11.dtd">
<!-- Generated by graphviz version 2.40.1 (0)
 -->
<!-- Title: inheritancebc2b80982d Pages: 1 -->
<svg width="576pt" height="156pt"
 viewBox="0.00 0.00 576.00 155.56" xmlns="http://www.w3.org/2000/svg" xmlns:xlink="http://www.w3.org/1999/xlink">
<g id="graph0" class="graph" transform="scale(.8889 .8889) rotate(0) translate(4 171)">
<title>inheritancebc2b80982d</title>
<!-- AddingExpression -->
<g id="node1" class="node">
<title>AddingExpression</title>
<g id="a_node1"><a xlink:href="../../pyVHDLModel/pyVHDLModel.VHDLModel.html#pyVHDLModel.VHDLModel.AddingExpression" xlink:title="A ``AddingExpression`` is a base&#45;class for all adding expressions." target="_top">
<polygon fill="#ffffff" stroke="#000000" stroke-width=".5" points="621.5,-167 484.5,-167 484.5,-148 621.5,-148 621.5,-167"/>
<text text-anchor="middle" x="553" y="-155" font-family="Vera Sans, DejaVu Sans, Liberation Sans, Arial, Helvetica, sans" font-size="10.00" fill="#000000">AddingExpression</text>
</a>
</g>
</g>
<!-- BinaryExpression -->
<g id="node2" class="node">
<title>BinaryExpression</title>
<g id="a_node2"><a xlink:href="../../pyVHDLModel/pyVHDLModel.VHDLModel.html#pyVHDLModel.VHDLModel.BinaryExpression" xlink:title="A ``BinaryExpression`` is a base&#45;class for all binary expressions." target="_top">
<polygon fill="#ffffff" stroke="#000000" stroke-width=".5" points="430,-93 293,-93 293,-74 430,-74 430,-93"/>
<text text-anchor="middle" x="361.5" y="-81" font-family="Vera Sans, DejaVu Sans, Liberation Sans, Arial, Helvetica, sans" font-size="10.00" fill="#000000">BinaryExpression</text>
</a>
</g>
</g>
<!-- BinaryExpression&#45;&gt;AddingExpression -->
<g id="edge1" class="edge">
<title>BinaryExpression&#45;&gt;AddingExpression</title>
<path fill="none" stroke="#000000" stroke-width=".5" d="M376.0951,-93.0822C395.7391,-105.5583 432.1384,-127.217 466,-139.5 473.6848,-142.2876 481.9166,-144.6925 490.1395,-146.7536"/>
<polygon fill="#000000" stroke="#000000" stroke-width=".5" points="489.9818,-148.516 495.2533,-147.9929 490.8061,-145.1144 489.9818,-148.516"/>
</g>
<!-- LogicalExpression -->
<g id="node5" class="node">
<title>LogicalExpression</title>
<g id="a_node5"><a xlink:href="../../pyVHDLModel/pyVHDLModel.VHDLModel.html#pyVHDLModel.VHDLModel.LogicalExpression" xlink:title="A ``LogicalExpression`` is a base&#45;class for all logical expressions." target="_top">
<polygon fill="#ffffff" stroke="#000000" stroke-width=".5" points="625,-130 481,-130 481,-111 625,-111 625,-130"/>
<text text-anchor="middle" x="553" y="-118" font-family="Vera Sans, DejaVu Sans, Liberation Sans, Arial, Helvetica, sans" font-size="10.00" fill="#000000">LogicalExpression</text>
</a>
</g>
</g>
<!-- BinaryExpression&#45;&gt;LogicalExpression -->
<g id="edge4" class="edge">
<title>BinaryExpression&#45;&gt;LogicalExpression</title>
<path fill="none" stroke="#000000" stroke-width=".5" d="M410.816,-93.0284C437.6281,-98.2088 470.8496,-104.6276 498.436,-109.9576"/>
<polygon fill="#000000" stroke="#000000" stroke-width=".5" points="498.2774,-111.7093 503.5187,-110.9396 498.9415,-108.2728 498.2774,-111.7093"/>
</g>
<!-- MultiplyingExpression -->
<g id="node6" class="node">
<title>MultiplyingExpression</title>
<g id="a_node6"><a xlink:href="../../pyVHDLModel/pyVHDLModel.VHDLModel.html#pyVHDLModel.VHDLModel.MultiplyingExpression" xlink:title="A ``MultiplyingExpression`` is a base&#45;class for all multiplying expressions." target="_top">
<polygon fill="#ffffff" stroke="#000000" stroke-width=".5" points="640,-93 466,-93 466,-74 640,-74 640,-93"/>
<text text-anchor="middle" x="553" y="-81" font-family="Vera Sans, DejaVu Sans, Liberation Sans, Arial, Helvetica, sans" font-size="10.00" fill="#000000">MultiplyingExpression</text>
</a>
</g>
</g>
<!-- BinaryExpression&#45;&gt;MultiplyingExpression -->
<g id="edge5" class="edge">
<title>BinaryExpression&#45;&gt;MultiplyingExpression</title>
<path fill="none" stroke="#000000" stroke-width=".5" d="M430.095,-83.5C440.0558,-83.5 450.4441,-83.5 460.7775,-83.5"/>
<polygon fill="#000000" stroke="#000000" stroke-width=".5" points="460.8437,-85.2501 465.8437,-83.5 460.8437,-81.7501 460.8437,-85.2501"/>
</g>
<!-- RelationalExpression -->
<g id="node7" class="node">
<title>RelationalExpression</title>
<g id="a_node7"><a xlink:href="../../pyVHDLModel/pyVHDLModel.VHDLModel.html#pyVHDLModel.VHDLModel.RelationalExpression" xlink:title="A ``RelationalExpression`` is a base&#45;class for all shifting expressions." target="_top">
<polygon fill="#ffffff" stroke="#000000" stroke-width=".5" points="636.5,-56 469.5,-56 469.5,-37 636.5,-37 636.5,-56"/>
<text text-anchor="middle" x="553" y="-44" font-family="Vera Sans, DejaVu Sans, Liberation Sans, Arial, Helvetica, sans" font-size="10.00" fill="#000000">RelationalExpression</text>
</a>
</g>
</g>
<!-- BinaryExpression&#45;&gt;RelationalExpression -->
<g id="edge6" class="edge">
<title>BinaryExpression&#45;&gt;RelationalExpression</title>
<path fill="none" stroke="#000000" stroke-width=".5" d="M410.816,-73.9716C437.6281,-68.7912 470.8496,-62.3724 498.436,-57.0424"/>
<polygon fill="#000000" stroke="#000000" stroke-width=".5" points="498.9415,-58.7272 503.5187,-56.0604 498.2774,-55.2907 498.9415,-58.7272"/>
</g>
<!-- ShiftExpression -->
<g id="node8" class="node">
<title>ShiftExpression</title>
<g id="a_node8"><a xlink:href="../../pyVHDLModel/pyVHDLModel.VHDLModel.html#pyVHDLModel.VHDLModel.ShiftExpression" xlink:title="A ``ShiftExpression`` is a base&#45;class for all shifting expressions." target="_top">
<polygon fill="#ffffff" stroke="#000000" stroke-width=".5" points="617.5,-19 488.5,-19 488.5,0 617.5,0 617.5,-19"/>
<text text-anchor="middle" x="553" y="-7" font-family="Vera Sans, DejaVu Sans, Liberation Sans, Arial, Helvetica, sans" font-size="10.00" fill="#000000">ShiftExpression</text>
</a>
</g>
</g>
<!-- BinaryExpression&#45;&gt;ShiftExpression -->
<g id="edge7" class="edge">
<title>BinaryExpression&#45;&gt;ShiftExpression</title>
<path fill="none" stroke="#000000" stroke-width=".5" d="M376.0951,-73.9178C395.7391,-61.4417 432.1384,-39.783 466,-27.5 473.6848,-24.7124 481.9166,-22.3075 490.1395,-20.2464"/>
<polygon fill="#000000" stroke="#000000" stroke-width=".5" points="490.8061,-21.8856 495.2533,-19.0071 489.9818,-18.484 490.8061,-21.8856"/>
</g>
<!-- BaseExpression -->
<g id="node3" class="node">
<title>BaseExpression</title>
<g id="a_node3"><a xlink:href="../../pyVHDLModel/pyVHDLModel.VHDLModel.html#pyVHDLModel.VHDLModel.BaseExpression" xlink:title="A ``BaseExpression`` is a base&#45;class for all expressions." target="_top">
<polygon fill="#ffffff" stroke="#000000" stroke-width=".5" points="257,-93 135,-93 135,-74 257,-74 257,-93"/>
<text text-anchor="middle" x="196" y="-81" font-family="Vera Sans, DejaVu Sans, Liberation Sans, Arial, Helvetica, sans" font-size="10.00" fill="#000000">BaseExpression</text>
</a>
</g>
</g>
<!-- BaseExpression&#45;&gt;BinaryExpression -->
<g id="edge3" class="edge">
<title>BaseExpression&#45;&gt;BinaryExpression</title>
<path fill="none" stroke="#000000" stroke-width=".5" d="M257.1559,-83.5C267.1264,-83.5 277.5466,-83.5 287.7803,-83.5"/>
<polygon fill="#000000" stroke="#000000" stroke-width=".5" points="287.7864,-85.2501 292.7864,-83.5 287.7864,-81.7501 287.7864,-85.2501"/>
</g>
<!-- ModelEntity -->
<g id="node4" class="node">
<title>ModelEntity</title>
<g id="a_node4"><a xlink:href="../../pyVHDLModel/pyVHDLModel.VHDLModel.html#pyVHDLModel.VHDLModel.ModelEntity" xlink:title="``ModelEntity`` is a base class for all classes in the VHDL language model," target="_top">
<polygon fill="#ffffff" stroke="#000000" stroke-width=".5" points="99,-93 0,-93 0,-74 99,-74 99,-93"/>
<text text-anchor="middle" x="49.5" y="-81" font-family="Vera Sans, DejaVu Sans, Liberation Sans, Arial, Helvetica, sans" font-size="10.00" fill="#000000">ModelEntity</text>
</a>
</g>
</g>
<!-- ModelEntity&#45;&gt;BaseExpression -->
<g id="edge2" class="edge">
<title>ModelEntity&#45;&gt;BaseExpression</title>
<path fill="none" stroke="#000000" stroke-width=".5" d="M99.0982,-83.5C108.9426,-83.5 119.4255,-83.5 129.7228,-83.5"/>
<polygon fill="#000000" stroke="#000000" stroke-width=".5" points="129.7594,-85.2501 134.7594,-83.5 129.7594,-81.7501 129.7594,-85.2501"/>
</g>
</g>
</svg>
