<?xml version="1.0" encoding="UTF-8" standalone="no"?>
<!DOCTYPE svg PUBLIC "-//W3C//DTD SVG 1.1//EN"
 "http://www.w3.org/Graphics/SVG/1.1/DTD/svg11.dtd">
<!-- Generated by graphviz version 2.40.1 (0)
 -->
<!-- Title: inheritancee320da2d7f Pages: 1 -->
<svg width="576pt" height="65pt"
 viewBox="0.00 0.00 576.00 65.33" xmlns="http://www.w3.org/2000/svg" xmlns:xlink="http://www.w3.org/1999/xlink">
<g id="graph0" class="graph" transform="scale(.7967 .7967) rotate(0) translate(4 78)">
<title>inheritancee320da2d7f</title>
<!-- Function -->
<g id="node1" class="node">
<title>Function</title>
<g id="a_node1"><a xlink:href="../pyVHDLModel/pyVHDLModel.VHDLModel.html#pyVHDLModel.VHDLModel.Function" xlink:title="Function" target="_top">
<polygon fill="#ffffff" stroke="#000000" stroke-width=".5" points="407,-37 330,-37 330,-18 407,-18 407,-37"/>
<text text-anchor="middle" x="368.5" y="-25" font-family="Vera Sans, DejaVu Sans, Liberation Sans, Arial, Helvetica, sans" font-size="10.00" fill="#000000">Function</text>
</a>
</g>
</g>
<!-- GenericFunctionInterfaceItem -->
<g id="node3" class="node">
<title>GenericFunctionInterfaceItem</title>
<g id="a_node3"><a xlink:href="../pyVHDLModel/pyVHDLModel.VHDLModel.html#pyVHDLModel.VHDLModel.GenericFunctionInterfaceItem" xlink:title="GenericFunctionInterfaceItem" target="_top">
<polygon fill="#ffffff" stroke="#000000" stroke-width=".5" points="715,-55 488,-55 488,-36 715,-36 715,-55"/>
<text text-anchor="middle" x="601.5" y="-43" font-family="Vera Sans, DejaVu Sans, Liberation Sans, Arial, Helvetica, sans" font-size="10.00" fill="#000000">GenericFunctionInterfaceItem</text>
</a>
</g>
</g>
<!-- Function&#45;&gt;GenericFunctionInterfaceItem -->
<g id="edge2" class="edge">
<title>Function&#45;&gt;GenericFunctionInterfaceItem</title>
<path fill="none" stroke="#000000" stroke-width=".5" d="M407.2368,-30.4925C428.2509,-32.1159 455.4774,-34.2193 482.8616,-36.3348"/>
<polygon fill="#000000" stroke="#000000" stroke-width=".5" points="482.8552,-38.0894 487.9752,-36.7298 483.1248,-34.5998 482.8552,-38.0894"/>
</g>
<!-- SubProgramm -->
<g id="node2" class="node">
<title>SubProgramm</title>
<g id="a_node2"><a xlink:href="../pyVHDLModel/pyVHDLModel.VHDLModel.html#pyVHDLModel.VHDLModel.SubProgramm" xlink:title="SubProgramm" target="_top">
<polygon fill="#ffffff" stroke="#000000" stroke-width=".5" points="241.5,-37 142.5,-37 142.5,-18 241.5,-18 241.5,-37"/>
<text text-anchor="middle" x="192" y="-25" font-family="Vera Sans, DejaVu Sans, Liberation Sans, Arial, Helvetica, sans" font-size="10.00" fill="#000000">SubProgramm</text>
</a>
</g>
</g>
<!-- SubProgramm&#45;&gt;Function -->
<g id="edge1" class="edge">
<title>SubProgramm&#45;&gt;Function</title>
<path fill="none" stroke="#000000" stroke-width=".5" d="M241.6348,-27.5C267.717,-27.5 299.4049,-27.5 324.5863,-27.5"/>
<polygon fill="#000000" stroke="#000000" stroke-width=".5" points="324.8567,-29.2501 329.8567,-27.5 324.8566,-25.7501 324.8567,-29.2501"/>
</g>
<!-- GenericInterfaceItem -->
<g id="node4" class="node">
<title>GenericInterfaceItem</title>
<g id="a_node4"><a xlink:href="../pyVHDLModel/pyVHDLModel.VHDLModel.html#pyVHDLModel.VHDLModel.GenericInterfaceItem" xlink:title="A ``GenericInterfaceItem`` is a mixin class for all generic interface items." target="_top">
<polygon fill="#ffffff" stroke="#000000" stroke-width=".5" points="452,-74 285,-74 285,-55 452,-55 452,-74"/>
<text text-anchor="middle" x="368.5" y="-62" font-family="Vera Sans, DejaVu Sans, Liberation Sans, Arial, Helvetica, sans" font-size="10.00" fill="#000000">GenericInterfaceItem</text>
</a>
</g>
</g>
<!-- GenericInterfaceItem&#45;&gt;GenericFunctionInterfaceItem -->
<g id="edge3" class="edge">
<title>GenericInterfaceItem&#45;&gt;GenericFunctionInterfaceItem</title>
<path fill="none" stroke="#000000" stroke-width=".5" d="M452.2892,-57.6674C462.1557,-56.8628 472.3628,-56.0305 482.5947,-55.1961"/>
<polygon fill="#000000" stroke="#000000" stroke-width=".5" points="482.7771,-56.9372 487.6183,-54.7865 482.4926,-53.4487 482.7771,-56.9372"/>
</g>
<!-- InterfaceItem -->
<g id="node5" class="node">
<title>InterfaceItem</title>
<g id="a_node5"><a xlink:href="../pyVHDLModel/pyVHDLModel.VHDLModel.html#pyVHDLModel.VHDLModel.InterfaceItem" xlink:title="An ``InterfaceItem`` is a base&#45;class for all mixin&#45;classes for all interface" target="_top">
<polygon fill="#ffffff" stroke="#000000" stroke-width=".5" points="249,-74 135,-74 135,-55 249,-55 249,-74"/>
<text text-anchor="middle" x="192" y="-62" font-family="Vera Sans, DejaVu Sans, Liberation Sans, Arial, Helvetica, sans" font-size="10.00" fill="#000000">InterfaceItem</text>
</a>
</g>
</g>
<!-- InterfaceItem&#45;&gt;GenericInterfaceItem -->
<g id="edge4" class="edge">
<title>InterfaceItem&#45;&gt;GenericInterfaceItem</title>
<path fill="none" stroke="#000000" stroke-width=".5" d="M249.3045,-64.5C259.0793,-64.5 269.4341,-64.5 279.7972,-64.5"/>
<polygon fill="#000000" stroke="#000000" stroke-width=".5" points="279.8828,-66.2501 284.8827,-64.5 279.8827,-62.7501 279.8828,-66.2501"/>
</g>
<!-- ModelEntity -->
<g id="node6" class="node">
<title>ModelEntity</title>
<g id="a_node6"><a xlink:href="../pyVHDLModel/pyVHDLModel.VHDLModel.html#pyVHDLModel.VHDLModel.ModelEntity" xlink:title="``ModelEntity`` is a base class for all classes in the VHDL language model," target="_top">
<polygon fill="#ffffff" stroke="#000000" stroke-width=".5" points="99,-56 0,-56 0,-37 99,-37 99,-56"/>
<text text-anchor="middle" x="49.5" y="-44" font-family="Vera Sans, DejaVu Sans, Liberation Sans, Arial, Helvetica, sans" font-size="10.00" fill="#000000">ModelEntity</text>
</a>
</g>
</g>
<!-- ModelEntity&#45;&gt;SubProgramm -->
<g id="edge5" class="edge">
<title>ModelEntity&#45;&gt;SubProgramm</title>
<path fill="none" stroke="#000000" stroke-width=".5" d="M99.3396,-39.8547C111.5591,-38.2255 124.7048,-36.4727 137.1454,-34.8139"/>
<polygon fill="#000000" stroke="#000000" stroke-width=".5" points="137.7044,-36.505 142.4292,-34.1094 137.2417,-33.0357 137.7044,-36.505"/>
</g>
<!-- NamedEntity -->
<g id="node7" class="node">
<title>NamedEntity</title>
<g id="a_node7"><a xlink:href="../pyVHDLModel/pyVHDLModel.VHDLModel.html#pyVHDLModel.VHDLModel.NamedEntity" xlink:title="A ``NamedEntity`` is a mixin class for all VHDL entities that have names." target="_top">
<polygon fill="#ffffff" stroke="#000000" stroke-width=".5" points="99,-19 0,-19 0,0 99,0 99,-19"/>
<text text-anchor="middle" x="49.5" y="-7" font-family="Vera Sans, DejaVu Sans, Liberation Sans, Arial, Helvetica, sans" font-size="10.00" fill="#000000">NamedEntity</text>
</a>
</g>
</g>
<!-- NamedEntity&#45;&gt;SubProgramm -->
<g id="edge6" class="edge">
<title>NamedEntity&#45;&gt;SubProgramm</title>
<path fill="none" stroke="#000000" stroke-width=".5" d="M99.3396,-15.7955C111.5591,-17.339 124.7048,-18.9996 137.1454,-20.571"/>
<polygon fill="#000000" stroke="#000000" stroke-width=".5" points="137.2493,-22.3479 142.4292,-21.2384 137.6879,-18.8755 137.2493,-22.3479"/>
</g>
</g>
</svg>
