<?xml version="1.0" encoding="UTF-8" standalone="no"?>
<!DOCTYPE svg PUBLIC "-//W3C//DTD SVG 1.1//EN"
 "http://www.w3.org/Graphics/SVG/1.1/DTD/svg11.dtd">
<!-- Generated by graphviz version 2.40.1 (0)
 -->
<!-- Title: inheritance6e993f4efa Pages: 1 -->
<svg width="227pt" height="64pt"
 viewBox="0.00 0.00 227.00 64.00" xmlns="http://www.w3.org/2000/svg" xmlns:xlink="http://www.w3.org/1999/xlink">
<g id="graph0" class="graph" transform="scale(1 1) rotate(0) translate(4 60)">
<title>inheritance6e993f4efa</title>
<!-- Component -->
<g id="node1" class="node">
<title>Component</title>
<g id="a_node1"><a xlink:href="../pyVHDLModel/pyVHDLModel.VHDLModel.html#pyVHDLModel.VHDLModel.Component" xlink:title="Component" target="_top">
<polygon fill="#ffffff" stroke="#000000" stroke-width=".5" points="219,-37 135,-37 135,-18 219,-18 219,-37"/>
<text text-anchor="middle" x="177" y="-25" font-family="Vera Sans, DejaVu Sans, Liberation Sans, Arial, Helvetica, sans" font-size="10.00" fill="#000000">Component</text>
</a>
</g>
</g>
<!-- ModelEntity -->
<g id="node2" class="node">
<title>ModelEntity</title>
<g id="a_node2"><a xlink:href="../pyVHDLModel/pyVHDLModel.VHDLModel.html#pyVHDLModel.VHDLModel.ModelEntity" xlink:title="``ModelEntity`` is a base class for all classes in the VHDL language model," target="_top">
<polygon fill="#ffffff" stroke="#000000" stroke-width=".5" points="99,-56 0,-56 0,-37 99,-37 99,-56"/>
<text text-anchor="middle" x="49.5" y="-44" font-family="Vera Sans, DejaVu Sans, Liberation Sans, Arial, Helvetica, sans" font-size="10.00" fill="#000000">ModelEntity</text>
</a>
</g>
</g>
<!-- ModelEntity&#45;&gt;Component -->
<g id="edge1" class="edge">
<title>ModelEntity&#45;&gt;Component</title>
<path fill="none" stroke="#000000" stroke-width=".5" d="M99.1599,-39.0997C109.1631,-37.609 119.6535,-36.0458 129.5778,-34.5668"/>
<polygon fill="#000000" stroke="#000000" stroke-width=".5" points="130.023,-36.2699 134.7104,-33.802 129.507,-32.8081 130.023,-36.2699"/>
</g>
<!-- NamedEntity -->
<g id="node3" class="node">
<title>NamedEntity</title>
<g id="a_node3"><a xlink:href="../pyVHDLModel/pyVHDLModel.VHDLModel.html#pyVHDLModel.VHDLModel.NamedEntity" xlink:title="A ``NamedEntity`` is a mixin class for all VHDL entities that have names." target="_top">
<polygon fill="#ffffff" stroke="#000000" stroke-width=".5" points="99,-19 0,-19 0,0 99,0 99,-19"/>
<text text-anchor="middle" x="49.5" y="-7" font-family="Vera Sans, DejaVu Sans, Liberation Sans, Arial, Helvetica, sans" font-size="10.00" fill="#000000">NamedEntity</text>
</a>
</g>
</g>
<!-- NamedEntity&#45;&gt;Component -->
<g id="edge2" class="edge">
<title>NamedEntity&#45;&gt;Component</title>
<path fill="none" stroke="#000000" stroke-width=".5" d="M99.1599,-16.5108C109.1631,-17.923 119.6535,-19.404 129.5778,-20.8051"/>
<polygon fill="#000000" stroke="#000000" stroke-width=".5" points="129.5148,-22.5635 134.7104,-21.5297 130.0041,-19.0978 129.5148,-22.5635"/>
</g>
</g>
</svg>
