<?xml version="1.0" encoding="UTF-8" standalone="no"?>
<!DOCTYPE svg PUBLIC "-//W3C//DTD SVG 1.1//EN"
 "http://www.w3.org/Graphics/SVG/1.1/DTD/svg11.dtd">
<!-- Generated by graphviz version 2.40.1 (0)
 -->
<!-- Title: inheritance4391dd6bc3 Pages: 1 -->
<svg width="576pt" height="72pt"
 viewBox="0.00 0.00 576.00 72.22" xmlns="http://www.w3.org/2000/svg" xmlns:xlink="http://www.w3.org/1999/xlink">
<g id="graph0" class="graph" transform="scale(.8701 .8701) rotate(0) translate(4 79)">
<title>inheritance4391dd6bc3</title>
<!-- ConcurrentProcedureCall -->
<g id="node1" class="node">
<title>ConcurrentProcedureCall</title>
<g id="a_node1"><a xlink:href="../pyVHDLModel/pyVHDLModel.VHDLModel.html#pyVHDLModel.VHDLModel.ConcurrentProcedureCall" xlink:title="ConcurrentProcedureCall" target="_top">
<polygon fill="#ffffff" stroke="#000000" stroke-width=".5" points="654,-37 465,-37 465,-18 654,-18 654,-37"/>
<text text-anchor="middle" x="559.5" y="-25" font-family="Vera Sans, DejaVu Sans, Liberation Sans, Arial, Helvetica, sans" font-size="10.00" fill="#000000">ConcurrentProcedureCall</text>
</a>
</g>
</g>
<!-- ConcurrentStatement -->
<g id="node2" class="node">
<title>ConcurrentStatement</title>
<g id="a_node2"><a xlink:href="../pyVHDLModel/pyVHDLModel.VHDLModel.html#pyVHDLModel.VHDLModel.ConcurrentStatement" xlink:title="A ``ConcurrentStatement`` is a base&#45;class for all concurrent statements." target="_top">
<polygon fill="#ffffff" stroke="#000000" stroke-width=".5" points="429,-56 270,-56 270,-37 429,-37 429,-56"/>
<text text-anchor="middle" x="349.5" y="-44" font-family="Vera Sans, DejaVu Sans, Liberation Sans, Arial, Helvetica, sans" font-size="10.00" fill="#000000">ConcurrentStatement</text>
</a>
</g>
</g>
<!-- ConcurrentStatement&#45;&gt;ConcurrentProcedureCall -->
<g id="edge1" class="edge">
<title>ConcurrentStatement&#45;&gt;ConcurrentProcedureCall</title>
<path fill="none" stroke="#000000" stroke-width=".5" d="M429.1914,-39.2898C439.1628,-38.3877 449.4579,-37.4562 459.6872,-36.5307"/>
<polygon fill="#000000" stroke="#000000" stroke-width=".5" points="459.88,-38.2705 464.7019,-36.077 459.5645,-34.7847 459.88,-38.2705"/>
</g>
<!-- ProcedureCall -->
<g id="node3" class="node">
<title>ProcedureCall</title>
<g id="a_node3"><a xlink:href="../pyVHDLModel/pyVHDLModel.VHDLModel.html#pyVHDLModel.VHDLModel.ProcedureCall" xlink:title="ProcedureCall" target="_top">
<polygon fill="#ffffff" stroke="#000000" stroke-width=".5" points="406.5,-19 292.5,-19 292.5,0 406.5,0 406.5,-19"/>
<text text-anchor="middle" x="349.5" y="-7" font-family="Vera Sans, DejaVu Sans, Liberation Sans, Arial, Helvetica, sans" font-size="10.00" fill="#000000">ProcedureCall</text>
</a>
</g>
</g>
<!-- ProcedureCall&#45;&gt;ConcurrentProcedureCall -->
<g id="edge2" class="edge">
<title>ProcedureCall&#45;&gt;ConcurrentProcedureCall</title>
<path fill="none" stroke="#000000" stroke-width=".5" d="M406.606,-14.3948C423.0367,-15.8031 441.4586,-17.3822 459.6725,-18.9434"/>
<polygon fill="#000000" stroke="#000000" stroke-width=".5" points="459.6712,-20.6996 464.8024,-19.3831 459.9702,-17.2124 459.6712,-20.6996"/>
</g>
<!-- Statement -->
<g id="node4" class="node">
<title>Statement</title>
<g id="a_node4"><a xlink:href="../pyVHDLModel/pyVHDLModel.VHDLModel.html#pyVHDLModel.VHDLModel.Statement" xlink:title="Statement" target="_top">
<polygon fill="#ffffff" stroke="#000000" stroke-width=".5" points="234,-56 150,-56 150,-37 234,-37 234,-56"/>
<text text-anchor="middle" x="192" y="-44" font-family="Vera Sans, DejaVu Sans, Liberation Sans, Arial, Helvetica, sans" font-size="10.00" fill="#000000">Statement</text>
</a>
</g>
</g>
<!-- Statement&#45;&gt;ConcurrentStatement -->
<g id="edge3" class="edge">
<title>Statement&#45;&gt;ConcurrentStatement</title>
<path fill="none" stroke="#000000" stroke-width=".5" d="M234.2071,-46.5C243.6822,-46.5 254.0641,-46.5 264.5937,-46.5"/>
<polygon fill="#000000" stroke="#000000" stroke-width=".5" points="264.7713,-48.2501 269.7713,-46.5 264.7713,-44.7501 264.7713,-48.2501"/>
</g>
<!-- LabeledEntity -->
<g id="node5" class="node">
<title>LabeledEntity</title>
<g id="a_node5"><a xlink:href="../pyVHDLModel/pyVHDLModel.VHDLModel.html#pyVHDLModel.VHDLModel.LabeledEntity" xlink:title="A ``LabeledEntity`` is a mixin class for all VHDL entities that can have" target="_top">
<polygon fill="#ffffff" stroke="#000000" stroke-width=".5" points="114,-75 0,-75 0,-56 114,-56 114,-75"/>
<text text-anchor="middle" x="57" y="-63" font-family="Vera Sans, DejaVu Sans, Liberation Sans, Arial, Helvetica, sans" font-size="10.00" fill="#000000">LabeledEntity</text>
</a>
</g>
</g>
<!-- LabeledEntity&#45;&gt;Statement -->
<g id="edge5" class="edge">
<title>LabeledEntity&#45;&gt;Statement</title>
<path fill="none" stroke="#000000" stroke-width=".5" d="M114.2522,-57.4423C124.4108,-56.0126 134.8864,-54.5382 144.7297,-53.1529"/>
<polygon fill="#000000" stroke="#000000" stroke-width=".5" points="145.1072,-54.8671 149.8145,-52.4372 144.6193,-51.4012 145.1072,-54.8671"/>
</g>
<!-- ModelEntity -->
<g id="node6" class="node">
<title>ModelEntity</title>
<g id="a_node6"><a xlink:href="../pyVHDLModel/pyVHDLModel.VHDLModel.html#pyVHDLModel.VHDLModel.ModelEntity" xlink:title="``ModelEntity`` is a base class for all classes in the VHDL language model," target="_top">
<polygon fill="#ffffff" stroke="#000000" stroke-width=".5" points="106.5,-38 7.5,-38 7.5,-19 106.5,-19 106.5,-38"/>
<text text-anchor="middle" x="57" y="-26" font-family="Vera Sans, DejaVu Sans, Liberation Sans, Arial, Helvetica, sans" font-size="10.00" fill="#000000">ModelEntity</text>
</a>
</g>
</g>
<!-- ModelEntity&#45;&gt;Statement -->
<g id="edge4" class="edge">
<title>ModelEntity&#45;&gt;Statement</title>
<path fill="none" stroke="#000000" stroke-width=".5" d="M106.5024,-35.1003C118.8814,-36.7508 132.1315,-38.5175 144.4152,-40.1554"/>
<polygon fill="#000000" stroke="#000000" stroke-width=".5" points="144.4276,-41.9224 149.6151,-40.8487 144.8903,-38.4531 144.4276,-41.9224"/>
</g>
</g>
</svg>
