<?xml version="1.0" encoding="UTF-8" standalone="no"?>
<!DOCTYPE svg PUBLIC "-//W3C//DTD SVG 1.1//EN"
 "http://www.w3.org/Graphics/SVG/1.1/DTD/svg11.dtd">
<!-- Generated by graphviz version 2.40.1 (0)
 -->
<!-- Title: inheritance5080d1bbce Pages: 1 -->
<svg width="576pt" height="15pt"
 viewBox="0.00 0.00 576.00 14.87" xmlns="http://www.w3.org/2000/svg" xmlns:xlink="http://www.w3.org/1999/xlink">
<g id="graph0" class="graph" transform="scale(.5507 .5507) rotate(0) translate(4 23)">
<title>inheritance5080d1bbce</title>
<!-- BaseExpression -->
<g id="node1" class="node">
<title>BaseExpression</title>
<g id="a_node1"><a xlink:href="../pyVHDLModel/pyVHDLModel.VHDLModel.html#pyVHDLModel.VHDLModel.BaseExpression" xlink:title="A ``BaseExpression`` is a base&#45;class for all expressions." target="_top">
<polygon fill="#ffffff" stroke="#000000" stroke-width=".5" points="257,-19 135,-19 135,0 257,0 257,-19"/>
<text text-anchor="middle" x="196" y="-7" font-family="Vera Sans, DejaVu Sans, Liberation Sans, Arial, Helvetica, sans" font-size="10.00" fill="#000000">BaseExpression</text>
</a>
</g>
</g>
<!-- BinaryExpression -->
<g id="node3" class="node">
<title>BinaryExpression</title>
<g id="a_node3"><a xlink:href="../pyVHDLModel/pyVHDLModel.VHDLModel.html#pyVHDLModel.VHDLModel.BinaryExpression" xlink:title="A ``BinaryExpression`` is a base&#45;class for all binary expressions." target="_top">
<polygon fill="#ffffff" stroke="#000000" stroke-width=".5" points="430,-19 293,-19 293,0 430,0 430,-19"/>
<text text-anchor="middle" x="361.5" y="-7" font-family="Vera Sans, DejaVu Sans, Liberation Sans, Arial, Helvetica, sans" font-size="10.00" fill="#000000">BinaryExpression</text>
</a>
</g>
</g>
<!-- BaseExpression&#45;&gt;BinaryExpression -->
<g id="edge2" class="edge">
<title>BaseExpression&#45;&gt;BinaryExpression</title>
<path fill="none" stroke="#000000" stroke-width=".5" d="M257.1559,-9.5C267.1264,-9.5 277.5466,-9.5 287.7803,-9.5"/>
<polygon fill="#000000" stroke="#000000" stroke-width=".5" points="287.7864,-11.2501 292.7864,-9.5 287.7864,-7.7501 287.7864,-11.2501"/>
</g>
<!-- ModelEntity -->
<g id="node2" class="node">
<title>ModelEntity</title>
<g id="a_node2"><a xlink:href="../pyVHDLModel/pyVHDLModel.VHDLModel.html#pyVHDLModel.VHDLModel.ModelEntity" xlink:title="``ModelEntity`` is a base class for all classes in the VHDL language model," target="_top">
<polygon fill="#ffffff" stroke="#000000" stroke-width=".5" points="99,-19 0,-19 0,0 99,0 99,-19"/>
<text text-anchor="middle" x="49.5" y="-7" font-family="Vera Sans, DejaVu Sans, Liberation Sans, Arial, Helvetica, sans" font-size="10.00" fill="#000000">ModelEntity</text>
</a>
</g>
</g>
<!-- ModelEntity&#45;&gt;BaseExpression -->
<g id="edge1" class="edge">
<title>ModelEntity&#45;&gt;BaseExpression</title>
<path fill="none" stroke="#000000" stroke-width=".5" d="M99.0982,-9.5C108.9426,-9.5 119.4255,-9.5 129.7228,-9.5"/>
<polygon fill="#000000" stroke="#000000" stroke-width=".5" points="129.7594,-11.2501 134.7594,-9.5 129.7594,-7.7501 129.7594,-11.2501"/>
</g>
<!-- ShiftExpression -->
<g id="node4" class="node">
<title>ShiftExpression</title>
<g id="a_node4"><a xlink:href="../pyVHDLModel/pyVHDLModel.VHDLModel.html#pyVHDLModel.VHDLModel.ShiftExpression" xlink:title="A ``ShiftExpression`` is a base&#45;class for all shifting expressions." target="_top">
<polygon fill="#ffffff" stroke="#000000" stroke-width=".5" points="595,-19 466,-19 466,0 595,0 595,-19"/>
<text text-anchor="middle" x="530.5" y="-7" font-family="Vera Sans, DejaVu Sans, Liberation Sans, Arial, Helvetica, sans" font-size="10.00" fill="#000000">ShiftExpression</text>
</a>
</g>
</g>
<!-- BinaryExpression&#45;&gt;ShiftExpression -->
<g id="edge3" class="edge">
<title>BinaryExpression&#45;&gt;ShiftExpression</title>
<path fill="none" stroke="#000000" stroke-width=".5" d="M430.2388,-9.5C440.2774,-9.5 450.6238,-9.5 460.6837,-9.5"/>
<polygon fill="#000000" stroke="#000000" stroke-width=".5" points="460.9152,-11.2501 465.9151,-9.5 460.9151,-7.7501 460.9152,-11.2501"/>
</g>
<!-- ShiftLogicExpression -->
<g id="node5" class="node">
<title>ShiftLogicExpression</title>
<g id="a_node5"><a xlink:href="../pyVHDLModel/pyVHDLModel.VHDLModel.html#pyVHDLModel.VHDLModel.ShiftLogicExpression" xlink:title="ShiftLogicExpression" target="_top">
<polygon fill="#ffffff" stroke="#000000" stroke-width=".5" points="798,-19 631,-19 631,0 798,0 798,-19"/>
<text text-anchor="middle" x="714.5" y="-7" font-family="Vera Sans, DejaVu Sans, Liberation Sans, Arial, Helvetica, sans" font-size="10.00" fill="#000000">ShiftLogicExpression</text>
</a>
</g>
</g>
<!-- ShiftExpression&#45;&gt;ShiftLogicExpression -->
<g id="edge4" class="edge">
<title>ShiftExpression&#45;&gt;ShiftLogicExpression</title>
<path fill="none" stroke="#000000" stroke-width=".5" d="M595.1128,-9.5C605.0795,-9.5 615.5181,-9.5 625.8989,-9.5"/>
<polygon fill="#000000" stroke="#000000" stroke-width=".5" points="625.9879,-11.2501 630.9879,-9.5 625.9879,-7.7501 625.9879,-11.2501"/>
</g>
<!-- ShiftRightLogicExpression -->
<g id="node6" class="node">
<title>ShiftRightLogicExpression</title>
<g id="a_node6"><a xlink:href="../pyVHDLModel/pyVHDLModel.VHDLModel.html#pyVHDLModel.VHDLModel.ShiftRightLogicExpression" xlink:title="ShiftRightLogicExpression" target="_top">
<polygon fill="#ffffff" stroke="#000000" stroke-width=".5" points="1038,-19 834,-19 834,0 1038,0 1038,-19"/>
<text text-anchor="middle" x="936" y="-7" font-family="Vera Sans, DejaVu Sans, Liberation Sans, Arial, Helvetica, sans" font-size="10.00" fill="#000000">ShiftRightLogicExpression</text>
</a>
</g>
</g>
<!-- ShiftLogicExpression&#45;&gt;ShiftRightLogicExpression -->
<g id="edge5" class="edge">
<title>ShiftLogicExpression&#45;&gt;ShiftRightLogicExpression</title>
<path fill="none" stroke="#000000" stroke-width=".5" d="M798.2397,-9.5C808.2414,-9.5 818.5562,-9.5 828.8298,-9.5"/>
<polygon fill="#000000" stroke="#000000" stroke-width=".5" points="828.8684,-11.2501 833.8684,-9.5 828.8684,-7.7501 828.8684,-11.2501"/>
</g>
</g>
</svg>
