<?xml version="1.0" encoding="UTF-8" standalone="no"?>
<!DOCTYPE svg PUBLIC "-//W3C//DTD SVG 1.1//EN"
 "http://www.w3.org/Graphics/SVG/1.1/DTD/svg11.dtd">
<!-- Generated by graphviz version 2.40.1 (0)
 -->
<!-- Title: inheritancecf5b896648 Pages: 1 -->
<svg width="576pt" height="46pt"
 viewBox="0.00 0.00 576.00 45.79" xmlns="http://www.w3.org/2000/svg" xmlns:xlink="http://www.w3.org/1999/xlink">
<g id="graph0" class="graph" transform="scale(.7155 .7155) rotate(0) translate(4 60)">
<title>inheritancecf5b896648</title>
<!-- ComponentInstantiation -->
<g id="node1" class="node">
<title>ComponentInstantiation</title>
<g id="a_node1"><a xlink:href="../pyVHDLModel/pyVHDLModel.VHDLModel.html#pyVHDLModel.VHDLModel.ComponentInstantiation" xlink:title="ComponentInstantiation" target="_top">
<polygon fill="#ffffff" stroke="#000000" stroke-width=".5" points="797,-37 615,-37 615,-18 797,-18 797,-37"/>
<text text-anchor="middle" x="706" y="-25" font-family="Vera Sans, DejaVu Sans, Liberation Sans, Arial, Helvetica, sans" font-size="10.00" fill="#000000">ComponentInstantiation</text>
</a>
</g>
</g>
<!-- Instantiation -->
<g id="node2" class="node">
<title>Instantiation</title>
<g id="a_node2"><a xlink:href="../pyVHDLModel/pyVHDLModel.VHDLModel.html#pyVHDLModel.VHDLModel.Instantiation" xlink:title="Instantiation" target="_top">
<polygon fill="#ffffff" stroke="#000000" stroke-width=".5" points="579,-37 465,-37 465,-18 579,-18 579,-37"/>
<text text-anchor="middle" x="522" y="-25" font-family="Vera Sans, DejaVu Sans, Liberation Sans, Arial, Helvetica, sans" font-size="10.00" fill="#000000">Instantiation</text>
</a>
</g>
</g>
<!-- Instantiation&#45;&gt;ComponentInstantiation -->
<g id="edge1" class="edge">
<title>Instantiation&#45;&gt;ComponentInstantiation</title>
<path fill="none" stroke="#000000" stroke-width=".5" d="M579.2101,-27.5C588.9108,-27.5 599.2166,-27.5 609.5973,-27.5"/>
<polygon fill="#000000" stroke="#000000" stroke-width=".5" points="609.697,-29.2501 614.697,-27.5 609.697,-25.7501 609.697,-29.2501"/>
</g>
<!-- ConcurrentStatement -->
<g id="node3" class="node">
<title>ConcurrentStatement</title>
<g id="a_node3"><a xlink:href="../pyVHDLModel/pyVHDLModel.VHDLModel.html#pyVHDLModel.VHDLModel.ConcurrentStatement" xlink:title="A ``ConcurrentStatement`` is a base&#45;class for all concurrent statements." target="_top">
<polygon fill="#ffffff" stroke="#000000" stroke-width=".5" points="429,-37 270,-37 270,-18 429,-18 429,-37"/>
<text text-anchor="middle" x="349.5" y="-25" font-family="Vera Sans, DejaVu Sans, Liberation Sans, Arial, Helvetica, sans" font-size="10.00" fill="#000000">ConcurrentStatement</text>
</a>
</g>
</g>
<!-- ConcurrentStatement&#45;&gt;Instantiation -->
<g id="edge3" class="edge">
<title>ConcurrentStatement&#45;&gt;Instantiation</title>
<path fill="none" stroke="#000000" stroke-width=".5" d="M429.1858,-27.5C439.4095,-27.5 449.7568,-27.5 459.6488,-27.5"/>
<polygon fill="#000000" stroke="#000000" stroke-width=".5" points="459.7772,-29.2501 464.7771,-27.5 459.7771,-25.7501 459.7772,-29.2501"/>
</g>
<!-- Statement -->
<g id="node4" class="node">
<title>Statement</title>
<g id="a_node4"><a xlink:href="../pyVHDLModel/pyVHDLModel.VHDLModel.html#pyVHDLModel.VHDLModel.Statement" xlink:title="Statement" target="_top">
<polygon fill="#ffffff" stroke="#000000" stroke-width=".5" points="234,-37 150,-37 150,-18 234,-18 234,-37"/>
<text text-anchor="middle" x="192" y="-25" font-family="Vera Sans, DejaVu Sans, Liberation Sans, Arial, Helvetica, sans" font-size="10.00" fill="#000000">Statement</text>
</a>
</g>
</g>
<!-- Statement&#45;&gt;ConcurrentStatement -->
<g id="edge2" class="edge">
<title>Statement&#45;&gt;ConcurrentStatement</title>
<path fill="none" stroke="#000000" stroke-width=".5" d="M234.2071,-27.5C243.6822,-27.5 254.0641,-27.5 264.5937,-27.5"/>
<polygon fill="#000000" stroke="#000000" stroke-width=".5" points="264.7713,-29.2501 269.7713,-27.5 264.7713,-25.7501 264.7713,-29.2501"/>
</g>
<!-- LabeledEntity -->
<g id="node5" class="node">
<title>LabeledEntity</title>
<g id="a_node5"><a xlink:href="../pyVHDLModel/pyVHDLModel.VHDLModel.html#pyVHDLModel.VHDLModel.LabeledEntity" xlink:title="A ``LabeledEntity`` is a mixin class for all VHDL entities that can have" target="_top">
<polygon fill="#ffffff" stroke="#000000" stroke-width=".5" points="114,-56 0,-56 0,-37 114,-37 114,-56"/>
<text text-anchor="middle" x="57" y="-44" font-family="Vera Sans, DejaVu Sans, Liberation Sans, Arial, Helvetica, sans" font-size="10.00" fill="#000000">LabeledEntity</text>
</a>
</g>
</g>
<!-- LabeledEntity&#45;&gt;Statement -->
<g id="edge5" class="edge">
<title>LabeledEntity&#45;&gt;Statement</title>
<path fill="none" stroke="#000000" stroke-width=".5" d="M114.2522,-38.4423C124.4108,-37.0126 134.8864,-35.5382 144.7297,-34.1529"/>
<polygon fill="#000000" stroke="#000000" stroke-width=".5" points="145.1072,-35.8671 149.8145,-33.4372 144.6193,-32.4012 145.1072,-35.8671"/>
</g>
<!-- ModelEntity -->
<g id="node6" class="node">
<title>ModelEntity</title>
<g id="a_node6"><a xlink:href="../pyVHDLModel/pyVHDLModel.VHDLModel.html#pyVHDLModel.VHDLModel.ModelEntity" xlink:title="``ModelEntity`` is a base class for all classes in the VHDL language model," target="_top">
<polygon fill="#ffffff" stroke="#000000" stroke-width=".5" points="106.5,-19 7.5,-19 7.5,0 106.5,0 106.5,-19"/>
<text text-anchor="middle" x="57" y="-7" font-family="Vera Sans, DejaVu Sans, Liberation Sans, Arial, Helvetica, sans" font-size="10.00" fill="#000000">ModelEntity</text>
</a>
</g>
</g>
<!-- ModelEntity&#45;&gt;Statement -->
<g id="edge4" class="edge">
<title>ModelEntity&#45;&gt;Statement</title>
<path fill="none" stroke="#000000" stroke-width=".5" d="M106.5024,-16.1003C118.8814,-17.7508 132.1315,-19.5175 144.4152,-21.1554"/>
<polygon fill="#000000" stroke="#000000" stroke-width=".5" points="144.4276,-22.9224 149.6151,-21.8487 144.8903,-19.4531 144.4276,-22.9224"/>
</g>
</g>
</svg>
