<?xml version="1.0" encoding="UTF-8" standalone="no"?>
<!DOCTYPE svg PUBLIC "-//W3C//DTD SVG 1.1//EN"
 "http://www.w3.org/Graphics/SVG/1.1/DTD/svg11.dtd">
<!-- Generated by graphviz version 2.40.1 (0)
 -->
<!-- Title: inheritance3c3ffed631 Pages: 1 -->
<svg width="576pt" height="62pt"
 viewBox="0.00 0.00 576.00 61.50" xmlns="http://www.w3.org/2000/svg" xmlns:xlink="http://www.w3.org/1999/xlink">
<g id="graph0" class="graph" transform="scale(.75 .75) rotate(0) translate(4 78)">
<title>inheritance3c3ffed631</title>
<!-- LabeledEntity -->
<g id="node1" class="node">
<title>LabeledEntity</title>
<g id="a_node1"><a xlink:href="../pyVHDLModel/pyVHDLModel.VHDLModel.html#pyVHDLModel.VHDLModel.LabeledEntity" xlink:title="A ``LabeledEntity`` is a mixin class for all VHDL entities that can have" target="_top">
<polygon fill="#ffffff" stroke="#000000" stroke-width=".5" points="114,-74 0,-74 0,-55 114,-55 114,-74"/>
<text text-anchor="middle" x="57" y="-62" font-family="Vera Sans, DejaVu Sans, Liberation Sans, Arial, Helvetica, sans" font-size="10.00" fill="#000000">LabeledEntity</text>
</a>
</g>
</g>
<!-- Statement -->
<g id="node7" class="node">
<title>Statement</title>
<g id="a_node7"><a xlink:href="../pyVHDLModel/pyVHDLModel.VHDLModel.html#pyVHDLModel.VHDLModel.Statement" xlink:title="Statement" target="_top">
<polygon fill="#ffffff" stroke="#000000" stroke-width=".5" points="275.5,-56 191.5,-56 191.5,-37 275.5,-37 275.5,-56"/>
<text text-anchor="middle" x="233.5" y="-44" font-family="Vera Sans, DejaVu Sans, Liberation Sans, Arial, Helvetica, sans" font-size="10.00" fill="#000000">Statement</text>
</a>
</g>
</g>
<!-- LabeledEntity&#45;&gt;Statement -->
<g id="edge6" class="edge">
<title>LabeledEntity&#45;&gt;Statement</title>
<path fill="none" stroke="#000000" stroke-width=".5" d="M114.3045,-58.6559C137.5081,-56.2895 163.9798,-53.5899 186.0731,-51.3367"/>
<polygon fill="#000000" stroke="#000000" stroke-width=".5" points="186.5017,-53.0522 191.2983,-50.8039 186.1466,-49.5703 186.5017,-53.0522"/>
</g>
<!-- MixinAssertStatement -->
<g id="node2" class="node">
<title>MixinAssertStatement</title>
<g id="a_node2"><a xlink:href="../pyVHDLModel/pyVHDLModel.VHDLModel.html#pyVHDLModel.VHDLModel.MixinAssertStatement" xlink:title="A ``MixinAssertStatement`` is a mixin&#45;class for all assert statements." target="_top">
<polygon fill="#ffffff" stroke="#000000" stroke-width=".5" points="520,-19 353,-19 353,0 520,0 520,-19"/>
<text text-anchor="middle" x="436.5" y="-7" font-family="Vera Sans, DejaVu Sans, Liberation Sans, Arial, Helvetica, sans" font-size="10.00" fill="#000000">MixinAssertStatement</text>
</a>
</g>
</g>
<!-- SequentialAssertStatement -->
<g id="node5" class="node">
<title>SequentialAssertStatement</title>
<g id="a_node5"><a xlink:href="../pyVHDLModel/pyVHDLModel.VHDLModel.html#pyVHDLModel.VHDLModel.SequentialAssertStatement" xlink:title="SequentialAssertStatement" target="_top">
<polygon fill="#ffffff" stroke="#000000" stroke-width=".5" points="760,-37 556,-37 556,-18 760,-18 760,-37"/>
<text text-anchor="middle" x="658" y="-25" font-family="Vera Sans, DejaVu Sans, Liberation Sans, Arial, Helvetica, sans" font-size="10.00" fill="#000000">SequentialAssertStatement</text>
</a>
</g>
</g>
<!-- MixinAssertStatement&#45;&gt;SequentialAssertStatement -->
<g id="edge3" class="edge">
<title>MixinAssertStatement&#45;&gt;SequentialAssertStatement</title>
<path fill="none" stroke="#000000" stroke-width=".5" d="M520.2397,-16.305C530.2414,-17.1178 540.5562,-17.956 550.8298,-18.7909"/>
<polygon fill="#000000" stroke="#000000" stroke-width=".5" points="550.743,-20.5395 555.8684,-19.2004 551.0266,-17.051 550.743,-20.5395"/>
</g>
<!-- MixinReportStatement -->
<g id="node3" class="node">
<title>MixinReportStatement</title>
<g id="a_node3"><a xlink:href="../pyVHDLModel/pyVHDLModel.VHDLModel.html#pyVHDLModel.VHDLModel.MixinReportStatement" xlink:title="A ``MixinReportStatement`` is a mixin&#45;class for all report and assert statements." target="_top">
<polygon fill="#ffffff" stroke="#000000" stroke-width=".5" points="317,-19 150,-19 150,0 317,0 317,-19"/>
<text text-anchor="middle" x="233.5" y="-7" font-family="Vera Sans, DejaVu Sans, Liberation Sans, Arial, Helvetica, sans" font-size="10.00" fill="#000000">MixinReportStatement</text>
</a>
</g>
</g>
<!-- MixinReportStatement&#45;&gt;MixinAssertStatement -->
<g id="edge1" class="edge">
<title>MixinReportStatement&#45;&gt;MixinAssertStatement</title>
<path fill="none" stroke="#000000" stroke-width=".5" d="M317.2399,-9.5C327.2843,-9.5 337.5683,-9.5 347.6817,-9.5"/>
<polygon fill="#000000" stroke="#000000" stroke-width=".5" points="347.9526,-11.2501 352.9526,-9.5 347.9525,-7.7501 347.9526,-11.2501"/>
</g>
<!-- ModelEntity -->
<g id="node4" class="node">
<title>ModelEntity</title>
<g id="a_node4"><a xlink:href="../pyVHDLModel/pyVHDLModel.VHDLModel.html#pyVHDLModel.VHDLModel.ModelEntity" xlink:title="``ModelEntity`` is a base class for all classes in the VHDL language model," target="_top">
<polygon fill="#ffffff" stroke="#000000" stroke-width=".5" points="106.5,-37 7.5,-37 7.5,-18 106.5,-18 106.5,-37"/>
<text text-anchor="middle" x="57" y="-25" font-family="Vera Sans, DejaVu Sans, Liberation Sans, Arial, Helvetica, sans" font-size="10.00" fill="#000000">ModelEntity</text>
</a>
</g>
</g>
<!-- ModelEntity&#45;&gt;Statement -->
<g id="edge5" class="edge">
<title>ModelEntity&#45;&gt;Statement</title>
<path fill="none" stroke="#000000" stroke-width=".5" d="M106.6348,-32.8431C131.5747,-35.5279 161.64,-38.7644 186.2414,-41.4127"/>
<polygon fill="#000000" stroke="#000000" stroke-width=".5" points="186.2457,-43.1732 191.4043,-41.9685 186.6204,-39.6933 186.2457,-43.1732"/>
</g>
<!-- SequentialStatement -->
<g id="node6" class="node">
<title>SequentialStatement</title>
<g id="a_node6"><a xlink:href="../pyVHDLModel/pyVHDLModel.VHDLModel.html#pyVHDLModel.VHDLModel.SequentialStatement" xlink:title="A ``SequentialStatement`` is a base&#45;class for all sequential statements." target="_top">
<polygon fill="#ffffff" stroke="#000000" stroke-width=".5" points="516,-56 357,-56 357,-37 516,-37 516,-56"/>
<text text-anchor="middle" x="436.5" y="-44" font-family="Vera Sans, DejaVu Sans, Liberation Sans, Arial, Helvetica, sans" font-size="10.00" fill="#000000">SequentialStatement</text>
</a>
</g>
</g>
<!-- SequentialStatement&#45;&gt;SequentialAssertStatement -->
<g id="edge2" class="edge">
<title>SequentialStatement&#45;&gt;SequentialAssertStatement</title>
<path fill="none" stroke="#000000" stroke-width=".5" d="M516.1536,-39.6674C527.4401,-38.6993 539.1954,-37.6909 550.8965,-36.6872"/>
<polygon fill="#000000" stroke="#000000" stroke-width=".5" points="551.0742,-38.4285 555.9063,-36.2575 550.775,-34.9413 551.0742,-38.4285"/>
</g>
<!-- Statement&#45;&gt;SequentialStatement -->
<g id="edge4" class="edge">
<title>Statement&#45;&gt;SequentialStatement</title>
<path fill="none" stroke="#000000" stroke-width=".5" d="M275.5617,-46.5C297.5544,-46.5 325.2954,-46.5 351.5237,-46.5"/>
<polygon fill="#000000" stroke="#000000" stroke-width=".5" points="351.7471,-48.2501 356.747,-46.5 351.747,-44.7501 351.7471,-48.2501"/>
</g>
</g>
</svg>
