<?xml version="1.0" encoding="UTF-8" standalone="no"?>
<!DOCTYPE svg PUBLIC "-//W3C//DTD SVG 1.1//EN"
 "http://www.w3.org/Graphics/SVG/1.1/DTD/svg11.dtd">
<!-- Generated by graphviz version 2.40.1 (0)
 -->
<!-- Title: inheritance9f39738992 Pages: 1 -->
<svg width="576pt" height="132pt"
 viewBox="0.00 0.00 576.00 132.46" xmlns="http://www.w3.org/2000/svg" xmlns:xlink="http://www.w3.org/1999/xlink">
<g id="graph0" class="graph" transform="scale(.7569 .7569) rotate(0) translate(4 171)">
<title>inheritance9f39738992</title>
<!-- BaseExpression -->
<g id="node1" class="node">
<title>BaseExpression</title>
<g id="a_node1"><a xlink:href="../../pyVHDLModel/pyVHDLModel.VHDLModel.html#pyVHDLModel.VHDLModel.BaseExpression" xlink:title="A ``BaseExpression`` is a base&#45;class for all expressions." target="_top">
<polygon fill="#ffffff" stroke="#000000" stroke-width=".5" points="257,-93 135,-93 135,-74 257,-74 257,-93"/>
<text text-anchor="middle" x="196" y="-81" font-family="Vera Sans, DejaVu Sans, Liberation Sans, Arial, Helvetica, sans" font-size="10.00" fill="#000000">BaseExpression</text>
</a>
</g>
</g>
<!-- Literal -->
<g id="node4" class="node">
<title>Literal</title>
<g id="a_node4"><a xlink:href="../../pyVHDLModel/pyVHDLModel.VHDLModel.html#pyVHDLModel.VHDLModel.Literal" xlink:title="A ``Literal`` is a base&#45;class for all literals." target="_top">
<polygon fill="#ffffff" stroke="#000000" stroke-width=".5" points="362,-93 293,-93 293,-74 362,-74 362,-93"/>
<text text-anchor="middle" x="327.5" y="-81" font-family="Vera Sans, DejaVu Sans, Liberation Sans, Arial, Helvetica, sans" font-size="10.00" fill="#000000">Literal</text>
</a>
</g>
</g>
<!-- BaseExpression&#45;&gt;Literal -->
<g id="edge7" class="edge">
<title>BaseExpression&#45;&gt;Literal</title>
<path fill="none" stroke="#000000" stroke-width=".5" d="M257.1303,-83.5C267.4299,-83.5 277.8815,-83.5 287.4673,-83.5"/>
<polygon fill="#000000" stroke="#000000" stroke-width=".5" points="287.6972,-85.2501 292.6972,-83.5 287.6972,-81.7501 287.6972,-85.2501"/>
</g>
<!-- ModelEntity -->
<g id="node2" class="node">
<title>ModelEntity</title>
<g id="a_node2"><a xlink:href="../../pyVHDLModel/pyVHDLModel.VHDLModel.html#pyVHDLModel.VHDLModel.ModelEntity" xlink:title="``ModelEntity`` is a base class for all classes in the VHDL language model," target="_top">
<polygon fill="#ffffff" stroke="#000000" stroke-width=".5" points="99,-93 0,-93 0,-74 99,-74 99,-93"/>
<text text-anchor="middle" x="49.5" y="-81" font-family="Vera Sans, DejaVu Sans, Liberation Sans, Arial, Helvetica, sans" font-size="10.00" fill="#000000">ModelEntity</text>
</a>
</g>
</g>
<!-- ModelEntity&#45;&gt;BaseExpression -->
<g id="edge1" class="edge">
<title>ModelEntity&#45;&gt;BaseExpression</title>
<path fill="none" stroke="#000000" stroke-width=".5" d="M99.0982,-83.5C108.9426,-83.5 119.4255,-83.5 129.7228,-83.5"/>
<polygon fill="#000000" stroke="#000000" stroke-width=".5" points="129.7594,-85.2501 134.7594,-83.5 129.7594,-81.7501 129.7594,-85.2501"/>
</g>
<!-- BitStringLiteral -->
<g id="node3" class="node">
<title>BitStringLiteral</title>
<g id="a_node3"><a xlink:href="../../pyVHDLModel/pyVHDLModel.VHDLModel.html#pyVHDLModel.VHDLModel.BitStringLiteral" xlink:title="BitStringLiteral" target="_top">
<polygon fill="#ffffff" stroke="#000000" stroke-width=".5" points="542.5,-167 405.5,-167 405.5,-148 542.5,-148 542.5,-167"/>
<text text-anchor="middle" x="474" y="-155" font-family="Vera Sans, DejaVu Sans, Liberation Sans, Arial, Helvetica, sans" font-size="10.00" fill="#000000">BitStringLiteral</text>
</a>
</g>
</g>
<!-- Literal&#45;&gt;BitStringLiteral -->
<g id="edge2" class="edge">
<title>Literal&#45;&gt;BitStringLiteral</title>
<path fill="none" stroke="#000000" stroke-width=".5" d="M337.0349,-93.4003C349.7562,-106.0207 373.5323,-127.623 398,-139.5 403.432,-142.1368 409.2739,-144.4009 415.2187,-146.3422"/>
<polygon fill="#000000" stroke="#000000" stroke-width=".5" points="414.9357,-148.0867 420.2298,-147.8981 415.9736,-144.7441 414.9357,-148.0867"/>
</g>
<!-- CharacterLiteral -->
<g id="node5" class="node">
<title>CharacterLiteral</title>
<g id="a_node5"><a xlink:href="../../pyVHDLModel/pyVHDLModel.VHDLModel.html#pyVHDLModel.VHDLModel.CharacterLiteral" xlink:title="CharacterLiteral" target="_top">
<polygon fill="#ffffff" stroke="#000000" stroke-width=".5" points="542.5,-130 405.5,-130 405.5,-111 542.5,-111 542.5,-130"/>
<text text-anchor="middle" x="474" y="-118" font-family="Vera Sans, DejaVu Sans, Liberation Sans, Arial, Helvetica, sans" font-size="10.00" fill="#000000">CharacterLiteral</text>
</a>
</g>
</g>
<!-- Literal&#45;&gt;CharacterLiteral -->
<g id="edge3" class="edge">
<title>Literal&#45;&gt;CharacterLiteral</title>
<path fill="none" stroke="#000000" stroke-width=".5" d="M362.2274,-93.0863C373.6073,-96.1668 386.3257,-99.5451 398,-102.5 407.5147,-104.9083 417.7247,-107.3937 427.4762,-109.7201"/>
<polygon fill="#000000" stroke="#000000" stroke-width=".5" points="427.2585,-111.467 432.5277,-110.9209 428.068,-108.0619 427.2585,-111.467"/>
</g>
<!-- EnumerationLiteral -->
<g id="node6" class="node">
<title>EnumerationLiteral</title>
<g id="a_node6"><a xlink:href="../../pyVHDLModel/pyVHDLModel.VHDLModel.html#pyVHDLModel.VHDLModel.EnumerationLiteral" xlink:title="EnumerationLiteral" target="_top">
<polygon fill="#ffffff" stroke="#000000" stroke-width=".5" points="550,-93 398,-93 398,-74 550,-74 550,-93"/>
<text text-anchor="middle" x="474" y="-81" font-family="Vera Sans, DejaVu Sans, Liberation Sans, Arial, Helvetica, sans" font-size="10.00" fill="#000000">EnumerationLiteral</text>
</a>
</g>
</g>
<!-- Literal&#45;&gt;EnumerationLiteral -->
<g id="edge4" class="edge">
<title>Literal&#45;&gt;EnumerationLiteral</title>
<path fill="none" stroke="#000000" stroke-width=".5" d="M362.2185,-83.5C371.5259,-83.5 381.9937,-83.5 392.6936,-83.5"/>
<polygon fill="#000000" stroke="#000000" stroke-width=".5" points="392.9608,-85.2501 397.9608,-83.5 392.9608,-81.7501 392.9608,-85.2501"/>
</g>
<!-- NumericLiteral -->
<g id="node8" class="node">
<title>NumericLiteral</title>
<g id="a_node8"><a xlink:href="../../pyVHDLModel/pyVHDLModel.VHDLModel.html#pyVHDLModel.VHDLModel.NumericLiteral" xlink:title="A ``NumericLiteral`` is a base&#45;class for all numeric literals." target="_top">
<polygon fill="#ffffff" stroke="#000000" stroke-width=".5" points="535,-56 413,-56 413,-37 535,-37 535,-56"/>
<text text-anchor="middle" x="474" y="-44" font-family="Vera Sans, DejaVu Sans, Liberation Sans, Arial, Helvetica, sans" font-size="10.00" fill="#000000">NumericLiteral</text>
</a>
</g>
</g>
<!-- Literal&#45;&gt;NumericLiteral -->
<g id="edge8" class="edge">
<title>Literal&#45;&gt;NumericLiteral</title>
<path fill="none" stroke="#000000" stroke-width=".5" d="M362.2274,-73.9137C373.6073,-70.8332 386.3257,-67.4549 398,-64.5 407.5147,-62.0917 417.7247,-59.6063 427.4762,-57.2799"/>
<polygon fill="#000000" stroke="#000000" stroke-width=".5" points="428.068,-58.9381 432.5277,-56.0791 427.2585,-55.533 428.068,-58.9381"/>
</g>
<!-- StringLiteral -->
<g id="node11" class="node">
<title>StringLiteral</title>
<g id="a_node11"><a xlink:href="../../pyVHDLModel/pyVHDLModel.VHDLModel.html#pyVHDLModel.VHDLModel.StringLiteral" xlink:title="StringLiteral" target="_top">
<polygon fill="#ffffff" stroke="#000000" stroke-width=".5" points="531,-19 417,-19 417,0 531,0 531,-19"/>
<text text-anchor="middle" x="474" y="-7" font-family="Vera Sans, DejaVu Sans, Liberation Sans, Arial, Helvetica, sans" font-size="10.00" fill="#000000">StringLiteral</text>
</a>
</g>
</g>
<!-- Literal&#45;&gt;StringLiteral -->
<g id="edge10" class="edge">
<title>Literal&#45;&gt;StringLiteral</title>
<path fill="none" stroke="#000000" stroke-width=".5" d="M337.0349,-73.5997C349.7562,-60.9793 373.5323,-39.377 398,-27.5 403.432,-24.8632 409.2739,-22.5991 415.2187,-20.6578"/>
<polygon fill="#000000" stroke="#000000" stroke-width=".5" points="415.9736,-22.2559 420.2298,-19.1019 414.9357,-18.9133 415.9736,-22.2559"/>
</g>
<!-- FloatingPointLiteral -->
<g id="node7" class="node">
<title>FloatingPointLiteral</title>
<g id="a_node7"><a xlink:href="../../pyVHDLModel/pyVHDLModel.VHDLModel.html#pyVHDLModel.VHDLModel.FloatingPointLiteral" xlink:title="FloatingPointLiteral" target="_top">
<polygon fill="#ffffff" stroke="#000000" stroke-width=".5" points="753,-93 586,-93 586,-74 753,-74 753,-93"/>
<text text-anchor="middle" x="669.5" y="-81" font-family="Vera Sans, DejaVu Sans, Liberation Sans, Arial, Helvetica, sans" font-size="10.00" fill="#000000">FloatingPointLiteral</text>
</a>
</g>
</g>
<!-- NumericLiteral&#45;&gt;FloatingPointLiteral -->
<g id="edge5" class="edge">
<title>NumericLiteral&#45;&gt;FloatingPointLiteral</title>
<path fill="none" stroke="#000000" stroke-width=".5" d="M524.3461,-56.0284C551.7182,-61.2088 585.6336,-67.6276 613.7963,-72.9576"/>
<polygon fill="#000000" stroke="#000000" stroke-width=".5" points="613.7469,-74.7292 618.9851,-73.9396 614.3978,-71.2903 613.7469,-74.7292"/>
</g>
<!-- IntegerLiteral -->
<g id="node9" class="node">
<title>IntegerLiteral</title>
<g id="a_node9"><a xlink:href="../../pyVHDLModel/pyVHDLModel.VHDLModel.html#pyVHDLModel.VHDLModel.IntegerLiteral" xlink:title="IntegerLiteral" target="_top">
<polygon fill="#ffffff" stroke="#000000" stroke-width=".5" points="730.5,-56 608.5,-56 608.5,-37 730.5,-37 730.5,-56"/>
<text text-anchor="middle" x="669.5" y="-44" font-family="Vera Sans, DejaVu Sans, Liberation Sans, Arial, Helvetica, sans" font-size="10.00" fill="#000000">IntegerLiteral</text>
</a>
</g>
</g>
<!-- NumericLiteral&#45;&gt;IntegerLiteral -->
<g id="edge6" class="edge">
<title>NumericLiteral&#45;&gt;IntegerLiteral</title>
<path fill="none" stroke="#000000" stroke-width=".5" d="M535.0533,-46.5C556.627,-46.5 580.9906,-46.5 602.9938,-46.5"/>
<polygon fill="#000000" stroke="#000000" stroke-width=".5" points="603.2376,-48.2501 608.2376,-46.5 603.2375,-44.7501 603.2376,-48.2501"/>
</g>
<!-- PhysicalLiteral -->
<g id="node10" class="node">
<title>PhysicalLiteral</title>
<g id="a_node10"><a xlink:href="../../pyVHDLModel/pyVHDLModel.VHDLModel.html#pyVHDLModel.VHDLModel.PhysicalLiteral" xlink:title="PhysicalLiteral" target="_top">
<polygon fill="#ffffff" stroke="#000000" stroke-width=".5" points="734,-19 605,-19 605,0 734,0 734,-19"/>
<text text-anchor="middle" x="669.5" y="-7" font-family="Vera Sans, DejaVu Sans, Liberation Sans, Arial, Helvetica, sans" font-size="10.00" fill="#000000">PhysicalLiteral</text>
</a>
</g>
</g>
<!-- NumericLiteral&#45;&gt;PhysicalLiteral -->
<g id="edge9" class="edge">
<title>NumericLiteral&#45;&gt;PhysicalLiteral</title>
<path fill="none" stroke="#000000" stroke-width=".5" d="M524.3461,-36.9716C551.7182,-31.7912 585.6336,-25.3724 613.7963,-20.0424"/>
<polygon fill="#000000" stroke="#000000" stroke-width=".5" points="614.3978,-21.7097 618.9851,-19.0604 613.7469,-18.2708 614.3978,-21.7097"/>
</g>
</g>
</svg>
