<?xml version="1.0" encoding="UTF-8" standalone="no"?>
<!DOCTYPE svg PUBLIC "-//W3C//DTD SVG 1.1//EN"
 "http://www.w3.org/Graphics/SVG/1.1/DTD/svg11.dtd">
<!-- Generated by graphviz version 2.40.1 (0)
 -->
<!-- Title: inheritance4532173c48 Pages: 1 -->
<svg width="576pt" height="80pt"
 viewBox="0.00 0.00 576.00 79.69" xmlns="http://www.w3.org/2000/svg" xmlns:xlink="http://www.w3.org/1999/xlink">
<g id="graph0" class="graph" transform="scale(.789 .789) rotate(0) translate(4 97)">
<title>inheritance4532173c48</title>
<!-- GenericInterfaceItem -->
<g id="node1" class="node">
<title>GenericInterfaceItem</title>
<g id="a_node1"><a xlink:href="../../pyVHDLModel/pyVHDLModel.VHDLModel.html#pyVHDLModel.VHDLModel.GenericInterfaceItem" xlink:title="A ``GenericInterfaceItem`` is a mixin class for all generic interface items." target="_top">
<polygon fill="#ffffff" stroke="#000000" stroke-width=".5" points="452,-19 285,-19 285,0 452,0 452,-19"/>
<text text-anchor="middle" x="368.5" y="-7" font-family="Vera Sans, DejaVu Sans, Liberation Sans, Arial, Helvetica, sans" font-size="10.00" fill="#000000">GenericInterfaceItem</text>
</a>
</g>
</g>
<!-- GenericProcedureInterfaceItem -->
<g id="node3" class="node">
<title>GenericProcedureInterfaceItem</title>
<g id="a_node3"><a xlink:href="../../pyVHDLModel/pyVHDLModel.VHDLModel.html#pyVHDLModel.VHDLModel.GenericProcedureInterfaceItem" xlink:title="GenericProcedureInterfaceItem" target="_top">
<polygon fill="#ffffff" stroke="#000000" stroke-width=".5" points="722,-37 488,-37 488,-18 722,-18 722,-37"/>
<text text-anchor="middle" x="605" y="-25" font-family="Vera Sans, DejaVu Sans, Liberation Sans, Arial, Helvetica, sans" font-size="10.00" fill="#000000">GenericProcedureInterfaceItem</text>
</a>
</g>
</g>
<!-- GenericInterfaceItem&#45;&gt;GenericProcedureInterfaceItem -->
<g id="edge3" class="edge">
<title>GenericInterfaceItem&#45;&gt;GenericProcedureInterfaceItem</title>
<path fill="none" stroke="#000000" stroke-width=".5" d="M452.2139,-15.8715C462.1486,-16.6276 472.4398,-17.4109 482.7716,-18.1972"/>
<polygon fill="#000000" stroke="#000000" stroke-width=".5" points="482.727,-19.9488 487.8455,-18.5834 482.9927,-16.4589 482.727,-19.9488"/>
</g>
<!-- InterfaceItem -->
<g id="node2" class="node">
<title>InterfaceItem</title>
<g id="a_node2"><a xlink:href="../../pyVHDLModel/pyVHDLModel.VHDLModel.html#pyVHDLModel.VHDLModel.InterfaceItem" xlink:title="An ``InterfaceItem`` is a base&#45;class for all mixin&#45;classes for all interface" target="_top">
<polygon fill="#ffffff" stroke="#000000" stroke-width=".5" points="249,-19 135,-19 135,0 249,0 249,-19"/>
<text text-anchor="middle" x="192" y="-7" font-family="Vera Sans, DejaVu Sans, Liberation Sans, Arial, Helvetica, sans" font-size="10.00" fill="#000000">InterfaceItem</text>
</a>
</g>
</g>
<!-- InterfaceItem&#45;&gt;GenericInterfaceItem -->
<g id="edge1" class="edge">
<title>InterfaceItem&#45;&gt;GenericInterfaceItem</title>
<path fill="none" stroke="#000000" stroke-width=".5" d="M249.3045,-9.5C259.0793,-9.5 269.4341,-9.5 279.7972,-9.5"/>
<polygon fill="#000000" stroke="#000000" stroke-width=".5" points="279.8828,-11.2501 284.8827,-9.5 279.8827,-7.7501 279.8828,-11.2501"/>
</g>
<!-- Procedure -->
<g id="node4" class="node">
<title>Procedure</title>
<g id="a_node4"><a xlink:href="../../pyVHDLModel/pyVHDLModel.VHDLModel.html#pyVHDLModel.VHDLModel.Procedure" xlink:title="Procedure" target="_top">
<polygon fill="#ffffff" stroke="#000000" stroke-width=".5" points="410.5,-56 326.5,-56 326.5,-37 410.5,-37 410.5,-56"/>
<text text-anchor="middle" x="368.5" y="-44" font-family="Vera Sans, DejaVu Sans, Liberation Sans, Arial, Helvetica, sans" font-size="10.00" fill="#000000">Procedure</text>
</a>
</g>
</g>
<!-- Procedure&#45;&gt;GenericProcedureInterfaceItem -->
<g id="edge2" class="edge">
<title>Procedure&#45;&gt;GenericProcedureInterfaceItem</title>
<path fill="none" stroke="#000000" stroke-width=".5" d="M410.5089,-43.1251C430.9171,-41.4855 456.6067,-39.4217 482.5656,-37.3362"/>
<polygon fill="#000000" stroke="#000000" stroke-width=".5" points="482.9158,-39.0638 487.7595,-36.9189 482.6354,-35.575 482.9158,-39.0638"/>
</g>
<!-- ProcedureMethod -->
<g id="node9" class="node">
<title>ProcedureMethod</title>
<g id="a_node9"><a xlink:href="../../pyVHDLModel/pyVHDLModel.VHDLModel.html#pyVHDLModel.VHDLModel.ProcedureMethod" xlink:title="ProcedureMethod" target="_top">
<polygon fill="#ffffff" stroke="#000000" stroke-width=".5" points="669.5,-74 540.5,-74 540.5,-55 669.5,-55 669.5,-74"/>
<text text-anchor="middle" x="605" y="-62" font-family="Vera Sans, DejaVu Sans, Liberation Sans, Arial, Helvetica, sans" font-size="10.00" fill="#000000">ProcedureMethod</text>
</a>
</g>
</g>
<!-- Procedure&#45;&gt;ProcedureMethod -->
<g id="edge5" class="edge">
<title>Procedure&#45;&gt;ProcedureMethod</title>
<path fill="none" stroke="#000000" stroke-width=".5" d="M410.5089,-49.6973C444.9347,-52.3174 494.3892,-56.0814 534.8132,-59.1581"/>
<polygon fill="#000000" stroke="#000000" stroke-width=".5" points="535.0828,-60.9336 540.2013,-59.5682 535.3485,-57.4437 535.0828,-60.9336"/>
</g>
<!-- Method -->
<g id="node5" class="node">
<title>Method</title>
<g id="a_node5"><a xlink:href="../../pyVHDLModel/pyVHDLModel.VHDLModel.html#pyVHDLModel.VHDLModel.Method" xlink:title="A ``Method`` is a mixin class for all subprograms in a protected type." target="_top">
<polygon fill="#ffffff" stroke="#000000" stroke-width=".5" points="399.5,-93 337.5,-93 337.5,-74 399.5,-74 399.5,-93"/>
<text text-anchor="middle" x="368.5" y="-81" font-family="Vera Sans, DejaVu Sans, Liberation Sans, Arial, Helvetica, sans" font-size="10.00" fill="#000000">Method</text>
</a>
</g>
</g>
<!-- Method&#45;&gt;ProcedureMethod -->
<g id="edge6" class="edge">
<title>Method&#45;&gt;ProcedureMethod</title>
<path fill="none" stroke="#000000" stroke-width=".5" d="M399.9054,-80.9769C434.2657,-78.2165 490.4287,-73.7045 535.3027,-70.0994"/>
<polygon fill="#000000" stroke="#000000" stroke-width=".5" points="535.5951,-71.8316 540.4388,-69.6867 535.3147,-68.3428 535.5951,-71.8316"/>
</g>
<!-- ModelEntity -->
<g id="node6" class="node">
<title>ModelEntity</title>
<g id="a_node6"><a xlink:href="../../pyVHDLModel/pyVHDLModel.VHDLModel.html#pyVHDLModel.VHDLModel.ModelEntity" xlink:title="``ModelEntity`` is a base class for all classes in the VHDL language model," target="_top">
<polygon fill="#ffffff" stroke="#000000" stroke-width=".5" points="99,-74 0,-74 0,-55 99,-55 99,-74"/>
<text text-anchor="middle" x="49.5" y="-62" font-family="Vera Sans, DejaVu Sans, Liberation Sans, Arial, Helvetica, sans" font-size="10.00" fill="#000000">ModelEntity</text>
</a>
</g>
</g>
<!-- SubProgramm -->
<g id="node8" class="node">
<title>SubProgramm</title>
<g id="a_node8"><a xlink:href="../../pyVHDLModel/pyVHDLModel.VHDLModel.html#pyVHDLModel.VHDLModel.SubProgramm" xlink:title="SubProgramm" target="_top">
<polygon fill="#ffffff" stroke="#000000" stroke-width=".5" points="241.5,-56 142.5,-56 142.5,-37 241.5,-37 241.5,-56"/>
<text text-anchor="middle" x="192" y="-44" font-family="Vera Sans, DejaVu Sans, Liberation Sans, Arial, Helvetica, sans" font-size="10.00" fill="#000000">SubProgramm</text>
</a>
</g>
</g>
<!-- ModelEntity&#45;&gt;SubProgramm -->
<g id="edge7" class="edge">
<title>ModelEntity&#45;&gt;SubProgramm</title>
<path fill="none" stroke="#000000" stroke-width=".5" d="M99.3396,-58.2045C111.5591,-56.661 124.7048,-55.0004 137.1454,-53.429"/>
<polygon fill="#000000" stroke="#000000" stroke-width=".5" points="137.6879,-55.1245 142.4292,-52.7616 137.2493,-51.6521 137.6879,-55.1245"/>
</g>
<!-- NamedEntity -->
<g id="node7" class="node">
<title>NamedEntity</title>
<g id="a_node7"><a xlink:href="../../pyVHDLModel/pyVHDLModel.VHDLModel.html#pyVHDLModel.VHDLModel.NamedEntity" xlink:title="A ``NamedEntity`` is a mixin class for all VHDL entities that have names." target="_top">
<polygon fill="#ffffff" stroke="#000000" stroke-width=".5" points="99,-37 0,-37 0,-18 99,-18 99,-37"/>
<text text-anchor="middle" x="49.5" y="-25" font-family="Vera Sans, DejaVu Sans, Liberation Sans, Arial, Helvetica, sans" font-size="10.00" fill="#000000">NamedEntity</text>
</a>
</g>
</g>
<!-- NamedEntity&#45;&gt;SubProgramm -->
<g id="edge8" class="edge">
<title>NamedEntity&#45;&gt;SubProgramm</title>
<path fill="none" stroke="#000000" stroke-width=".5" d="M99.3396,-34.1453C111.5591,-35.7745 124.7048,-37.5273 137.1454,-39.1861"/>
<polygon fill="#000000" stroke="#000000" stroke-width=".5" points="137.2417,-40.9643 142.4292,-39.8906 137.7044,-37.495 137.2417,-40.9643"/>
</g>
<!-- SubProgramm&#45;&gt;Procedure -->
<g id="edge4" class="edge">
<title>SubProgramm&#45;&gt;Procedure</title>
<path fill="none" stroke="#000000" stroke-width=".5" d="M241.6348,-46.5C266.5747,-46.5 296.64,-46.5 321.2414,-46.5"/>
<polygon fill="#000000" stroke="#000000" stroke-width=".5" points="321.4044,-48.2501 326.4043,-46.5 321.4043,-44.7501 321.4044,-48.2501"/>
</g>
</g>
</svg>
