<?xml version="1.0" encoding="UTF-8" standalone="no"?>
<!DOCTYPE svg PUBLIC "-//W3C//DTD SVG 1.1//EN"
 "http://www.w3.org/Graphics/SVG/1.1/DTD/svg11.dtd">
<!-- Generated by graphviz version 2.40.1 (0)
 -->
<!-- Title: inheritanced26fbde147 Pages: 1 -->
<svg width="483pt" height="138pt"
 viewBox="0.00 0.00 483.00 138.00" xmlns="http://www.w3.org/2000/svg" xmlns:xlink="http://www.w3.org/1999/xlink">
<g id="graph0" class="graph" transform="scale(1 1) rotate(0) translate(4 134)">
<title>inheritanced26fbde147</title>
<!-- Case -->
<g id="node1" class="node">
<title>Case</title>
<g id="a_node1"><a xlink:href="../pyVHDLModel/pyVHDLModel.VHDLModel.html#pyVHDLModel.VHDLModel.Case" xlink:title="A ``Case`` is a base&#45;class for all cases." target="_top">
<polygon fill="#ffffff" stroke="#000000" stroke-width=".5" points="253,-19 199,-19 199,0 253,0 253,-19"/>
<text text-anchor="middle" x="226" y="-7" font-family="Vera Sans, DejaVu Sans, Liberation Sans, Arial, Helvetica, sans" font-size="10.00" fill="#000000">Case</text>
</a>
</g>
</g>
<!-- ConcurrentCase -->
<g id="node3" class="node">
<title>ConcurrentCase</title>
<g id="a_node3"><a xlink:href="../pyVHDLModel/pyVHDLModel.VHDLModel.html#pyVHDLModel.VHDLModel.ConcurrentCase" xlink:title="ConcurrentCase" target="_top">
<polygon fill="#ffffff" stroke="#000000" stroke-width=".5" points="475,-74 353,-74 353,-55 475,-55 475,-74"/>
<text text-anchor="middle" x="414" y="-62" font-family="Vera Sans, DejaVu Sans, Liberation Sans, Arial, Helvetica, sans" font-size="10.00" fill="#000000">ConcurrentCase</text>
</a>
</g>
</g>
<!-- Case&#45;&gt;ConcurrentCase -->
<g id="edge2" class="edge">
<title>Case&#45;&gt;ConcurrentCase</title>
<path fill="none" stroke="#000000" stroke-width=".5" d="M253.3372,-14.1036C271.5446,-17.439 295.909,-22.4214 317,-28.5 340.8675,-35.3789 367.2525,-45.3302 386.4714,-53.0277"/>
<polygon fill="#000000" stroke="#000000" stroke-width=".5" points="385.9055,-54.6864 391.1972,-54.9329 387.2142,-51.4402 385.9055,-54.6864"/>
</g>
<!-- ModelEntity -->
<g id="node2" class="node">
<title>ModelEntity</title>
<g id="a_node2"><a xlink:href="../pyVHDLModel/pyVHDLModel.VHDLModel.html#pyVHDLModel.VHDLModel.ModelEntity" xlink:title="``ModelEntity`` is a base class for all classes in the VHDL language model," target="_top">
<polygon fill="#ffffff" stroke="#000000" stroke-width=".5" points="99,-19 0,-19 0,0 99,0 99,-19"/>
<text text-anchor="middle" x="49.5" y="-7" font-family="Vera Sans, DejaVu Sans, Liberation Sans, Arial, Helvetica, sans" font-size="10.00" fill="#000000">ModelEntity</text>
</a>
</g>
</g>
<!-- ModelEntity&#45;&gt;Case -->
<g id="edge1" class="edge">
<title>ModelEntity&#45;&gt;Case</title>
<path fill="none" stroke="#000000" stroke-width=".5" d="M99.1348,-9.5C129.4365,-9.5 167.3042,-9.5 193.7454,-9.5"/>
<polygon fill="#000000" stroke="#000000" stroke-width=".5" points="193.8757,-11.2501 198.8757,-9.5 193.8757,-7.7501 193.8757,-11.2501"/>
</g>
<!-- LabeledEntity -->
<g id="node4" class="node">
<title>LabeledEntity</title>
<g id="a_node4"><a xlink:href="../pyVHDLModel/pyVHDLModel.VHDLModel.html#pyVHDLModel.VHDLModel.LabeledEntity" xlink:title="A ``LabeledEntity`` is a mixin class for all VHDL entities that can have" target="_top">
<polygon fill="#ffffff" stroke="#000000" stroke-width=".5" points="283,-130 169,-130 169,-111 283,-111 283,-130"/>
<text text-anchor="middle" x="226" y="-118" font-family="Vera Sans, DejaVu Sans, Liberation Sans, Arial, Helvetica, sans" font-size="10.00" fill="#000000">LabeledEntity</text>
</a>
</g>
</g>
<!-- LabeledEntity&#45;&gt;ConcurrentCase -->
<g id="edge3" class="edge">
<title>LabeledEntity&#45;&gt;ConcurrentCase</title>
<path fill="none" stroke="#000000" stroke-width=".5" d="M282.6887,-110.9108C294.1376,-108.5204 306.0247,-105.7075 317,-102.5 341.6461,-95.2972 368.7881,-84.3967 388.078,-76.1148"/>
<polygon fill="#000000" stroke="#000000" stroke-width=".5" points="388.9123,-77.6607 392.8067,-74.0695 387.5229,-74.4483 388.9123,-77.6607"/>
</g>
<!-- ConcurrentDeclarations -->
<g id="node5" class="node">
<title>ConcurrentDeclarations</title>
<g id="a_node5"><a xlink:href="../pyVHDLModel/pyVHDLModel.VHDLModel.html#pyVHDLModel.VHDLModel.ConcurrentDeclarations" xlink:title="ConcurrentDeclarations" target="_top">
<polygon fill="#ffffff" stroke="#000000" stroke-width=".5" points="317,-93 135,-93 135,-74 317,-74 317,-93"/>
<text text-anchor="middle" x="226" y="-81" font-family="Vera Sans, DejaVu Sans, Liberation Sans, Arial, Helvetica, sans" font-size="10.00" fill="#000000">ConcurrentDeclarations</text>
</a>
</g>
</g>
<!-- ConcurrentDeclarations&#45;&gt;ConcurrentCase -->
<g id="edge4" class="edge">
<title>ConcurrentDeclarations&#45;&gt;ConcurrentCase</title>
<path fill="none" stroke="#000000" stroke-width=".5" d="M317.2464,-74.2783C327.5235,-73.2396 337.8445,-72.1966 347.7175,-71.1988"/>
<polygon fill="#000000" stroke="#000000" stroke-width=".5" points="348.0383,-72.9253 352.837,-70.6814 347.6863,-69.4431 348.0383,-72.9253"/>
</g>
<!-- ConcurrentStatements -->
<g id="node6" class="node">
<title>ConcurrentStatements</title>
<g id="a_node6"><a xlink:href="../pyVHDLModel/pyVHDLModel.VHDLModel.html#pyVHDLModel.VHDLModel.ConcurrentStatements" xlink:title="ConcurrentStatements" target="_top">
<polygon fill="#ffffff" stroke="#000000" stroke-width=".5" points="309.5,-56 142.5,-56 142.5,-37 309.5,-37 309.5,-56"/>
<text text-anchor="middle" x="226" y="-44" font-family="Vera Sans, DejaVu Sans, Liberation Sans, Arial, Helvetica, sans" font-size="10.00" fill="#000000">ConcurrentStatements</text>
</a>
</g>
</g>
<!-- ConcurrentStatements&#45;&gt;ConcurrentCase -->
<g id="edge5" class="edge">
<title>ConcurrentStatements&#45;&gt;ConcurrentCase</title>
<path fill="none" stroke="#000000" stroke-width=".5" d="M309.5544,-54.4999C322.3398,-55.724 335.3863,-56.9732 347.7318,-58.1552"/>
<polygon fill="#000000" stroke="#000000" stroke-width=".5" points="347.8329,-59.9228 352.977,-58.6574 348.1666,-56.4387 347.8329,-59.9228"/>
</g>
</g>
</svg>
