<?xml version="1.0" encoding="UTF-8" standalone="no"?>
<!DOCTYPE svg PUBLIC "-//W3C//DTD SVG 1.1//EN"
 "http://www.w3.org/Graphics/SVG/1.1/DTD/svg11.dtd">
<!-- Generated by graphviz version 2.40.1 (0)
 -->
<!-- Title: inheritance76ac8fae4b Pages: 1 -->
<svg width="576pt" height="115pt"
 viewBox="0.00 0.00 576.00 114.70" xmlns="http://www.w3.org/2000/svg" xmlns:xlink="http://www.w3.org/1999/xlink">
<g id="graph0" class="graph" transform="scale(.8312 .8312) rotate(0) translate(4 134)">
<title>inheritance76ac8fae4b</title>
<!-- BlockStatement -->
<g id="node1" class="node">
<title>BlockStatement</title>
<g id="a_node1"><a xlink:title="A ``BlockStatement`` is a mixin&#45;class for all block statements.">
<polygon fill="#ffffff" stroke="#000000" stroke-width=".5" points="422,-130 300,-130 300,-111 422,-111 422,-130"/>
<text text-anchor="middle" x="361" y="-118" font-family="Vera Sans, DejaVu Sans, Liberation Sans, Arial, Helvetica, sans" font-size="10.00" fill="#000000">BlockStatement</text>
</a>
</g>
</g>
<!-- ConcurrentBlockStatement -->
<g id="node2" class="node">
<title>ConcurrentBlockStatement</title>
<g id="a_node2"><a xlink:href="../pyVHDLModel/pyVHDLModel.VHDLModel.html#pyVHDLModel.VHDLModel.ConcurrentBlockStatement" xlink:title="ConcurrentBlockStatement" target="_top">
<polygon fill="#ffffff" stroke="#000000" stroke-width=".5" points="685,-74 488,-74 488,-55 685,-55 685,-74"/>
<text text-anchor="middle" x="586.5" y="-62" font-family="Vera Sans, DejaVu Sans, Liberation Sans, Arial, Helvetica, sans" font-size="10.00" fill="#000000">ConcurrentBlockStatement</text>
</a>
</g>
</g>
<!-- BlockStatement&#45;&gt;ConcurrentBlockStatement -->
<g id="edge2" class="edge">
<title>BlockStatement&#45;&gt;ConcurrentBlockStatement</title>
<path fill="none" stroke="#000000" stroke-width=".5" d="M413.1287,-110.9342C425.8863,-108.3881 439.4713,-105.5039 452,-102.5 485.6534,-94.4313 523.5554,-83.5585 550.5266,-75.5104"/>
<polygon fill="#000000" stroke="#000000" stroke-width=".5" points="551.1439,-77.1524 555.432,-74.0419 550.1401,-73.7995 551.1439,-77.1524"/>
</g>
<!-- ConcurrentStatement -->
<g id="node3" class="node">
<title>ConcurrentStatement</title>
<g id="a_node3"><a xlink:href="../pyVHDLModel/pyVHDLModel.VHDLModel.html#pyVHDLModel.VHDLModel.ConcurrentStatement" xlink:title="A ``ConcurrentStatement`` is a base&#45;class for all concurrent statements." target="_top">
<polygon fill="#ffffff" stroke="#000000" stroke-width=".5" points="440.5,-93 281.5,-93 281.5,-74 440.5,-74 440.5,-93"/>
<text text-anchor="middle" x="361" y="-81" font-family="Vera Sans, DejaVu Sans, Liberation Sans, Arial, Helvetica, sans" font-size="10.00" fill="#000000">ConcurrentStatement</text>
</a>
</g>
</g>
<!-- ConcurrentStatement&#45;&gt;ConcurrentBlockStatement -->
<g id="edge1" class="edge">
<title>ConcurrentStatement&#45;&gt;ConcurrentBlockStatement</title>
<path fill="none" stroke="#000000" stroke-width=".5" d="M440.5029,-76.8013C454.1678,-75.6499 468.5483,-74.4383 482.7377,-73.2427"/>
<polygon fill="#000000" stroke="#000000" stroke-width=".5" points="483.1197,-74.9668 487.9551,-72.8031 482.8257,-71.4792 483.1197,-74.9668"/>
</g>
<!-- ConcurrentDeclarations -->
<g id="node4" class="node">
<title>ConcurrentDeclarations</title>
<g id="a_node4"><a xlink:href="../pyVHDLModel/pyVHDLModel.VHDLModel.html#pyVHDLModel.VHDLModel.ConcurrentDeclarations" xlink:title="ConcurrentDeclarations" target="_top">
<polygon fill="#ffffff" stroke="#000000" stroke-width=".5" points="452,-56 270,-56 270,-37 452,-37 452,-56"/>
<text text-anchor="middle" x="361" y="-44" font-family="Vera Sans, DejaVu Sans, Liberation Sans, Arial, Helvetica, sans" font-size="10.00" fill="#000000">ConcurrentDeclarations</text>
</a>
</g>
</g>
<!-- ConcurrentDeclarations&#45;&gt;ConcurrentBlockStatement -->
<g id="edge3" class="edge">
<title>ConcurrentDeclarations&#45;&gt;ConcurrentBlockStatement</title>
<path fill="none" stroke="#000000" stroke-width=".5" d="M452.0695,-53.7694C462.1539,-54.5744 472.4788,-55.3985 482.7048,-56.2148"/>
<polygon fill="#000000" stroke="#000000" stroke-width=".5" points="482.592,-57.9613 487.7154,-56.6148 482.8706,-54.4724 482.592,-57.9613"/>
</g>
<!-- ConcurrentStatements -->
<g id="node5" class="node">
<title>ConcurrentStatements</title>
<g id="a_node5"><a xlink:href="../pyVHDLModel/pyVHDLModel.VHDLModel.html#pyVHDLModel.VHDLModel.ConcurrentStatements" xlink:title="ConcurrentStatements" target="_top">
<polygon fill="#ffffff" stroke="#000000" stroke-width=".5" points="444.5,-19 277.5,-19 277.5,0 444.5,0 444.5,-19"/>
<text text-anchor="middle" x="361" y="-7" font-family="Vera Sans, DejaVu Sans, Liberation Sans, Arial, Helvetica, sans" font-size="10.00" fill="#000000">ConcurrentStatements</text>
</a>
</g>
</g>
<!-- ConcurrentStatements&#45;&gt;ConcurrentBlockStatement -->
<g id="edge4" class="edge">
<title>ConcurrentStatements&#45;&gt;ConcurrentBlockStatement</title>
<path fill="none" stroke="#000000" stroke-width=".5" d="M412.6361,-19.0319C425.5323,-21.5996 439.3043,-24.5024 452,-27.5 485.1725,-35.3325 522.5225,-45.7359 549.4305,-53.5161"/>
<polygon fill="#000000" stroke="#000000" stroke-width=".5" points="549.0403,-55.225 554.3299,-54.9371 550.0153,-51.8635 549.0403,-55.225"/>
</g>
<!-- Statement -->
<g id="node6" class="node">
<title>Statement</title>
<g id="a_node6"><a xlink:href="../pyVHDLModel/pyVHDLModel.VHDLModel.html#pyVHDLModel.VHDLModel.Statement" xlink:title="Statement" target="_top">
<polygon fill="#ffffff" stroke="#000000" stroke-width=".5" points="234,-93 150,-93 150,-74 234,-74 234,-93"/>
<text text-anchor="middle" x="192" y="-81" font-family="Vera Sans, DejaVu Sans, Liberation Sans, Arial, Helvetica, sans" font-size="10.00" fill="#000000">Statement</text>
</a>
</g>
</g>
<!-- Statement&#45;&gt;ConcurrentStatement -->
<g id="edge5" class="edge">
<title>Statement&#45;&gt;ConcurrentStatement</title>
<path fill="none" stroke="#000000" stroke-width=".5" d="M234.2099,-83.5C247.0097,-83.5 261.5538,-83.5 276.1132,-83.5"/>
<polygon fill="#000000" stroke="#000000" stroke-width=".5" points="276.4748,-85.2501 281.4747,-83.5 276.4747,-81.7501 276.4748,-85.2501"/>
</g>
<!-- LabeledEntity -->
<g id="node7" class="node">
<title>LabeledEntity</title>
<g id="a_node7"><a xlink:href="../pyVHDLModel/pyVHDLModel.VHDLModel.html#pyVHDLModel.VHDLModel.LabeledEntity" xlink:title="A ``LabeledEntity`` is a mixin class for all VHDL entities that can have" target="_top">
<polygon fill="#ffffff" stroke="#000000" stroke-width=".5" points="114,-112 0,-112 0,-93 114,-93 114,-112"/>
<text text-anchor="middle" x="57" y="-100" font-family="Vera Sans, DejaVu Sans, Liberation Sans, Arial, Helvetica, sans" font-size="10.00" fill="#000000">LabeledEntity</text>
</a>
</g>
</g>
<!-- LabeledEntity&#45;&gt;Statement -->
<g id="edge7" class="edge">
<title>LabeledEntity&#45;&gt;Statement</title>
<path fill="none" stroke="#000000" stroke-width=".5" d="M114.2522,-94.4423C124.4108,-93.0126 134.8864,-91.5382 144.7297,-90.1529"/>
<polygon fill="#000000" stroke="#000000" stroke-width=".5" points="145.1072,-91.8671 149.8145,-89.4372 144.6193,-88.4012 145.1072,-91.8671"/>
</g>
<!-- ModelEntity -->
<g id="node8" class="node">
<title>ModelEntity</title>
<g id="a_node8"><a xlink:href="../pyVHDLModel/pyVHDLModel.VHDLModel.html#pyVHDLModel.VHDLModel.ModelEntity" xlink:title="``ModelEntity`` is a base class for all classes in the VHDL language model," target="_top">
<polygon fill="#ffffff" stroke="#000000" stroke-width=".5" points="106.5,-75 7.5,-75 7.5,-56 106.5,-56 106.5,-75"/>
<text text-anchor="middle" x="57" y="-63" font-family="Vera Sans, DejaVu Sans, Liberation Sans, Arial, Helvetica, sans" font-size="10.00" fill="#000000">ModelEntity</text>
</a>
</g>
</g>
<!-- ModelEntity&#45;&gt;Statement -->
<g id="edge6" class="edge">
<title>ModelEntity&#45;&gt;Statement</title>
<path fill="none" stroke="#000000" stroke-width=".5" d="M106.5024,-72.1003C118.8814,-73.7508 132.1315,-75.5175 144.4152,-77.1554"/>
<polygon fill="#000000" stroke="#000000" stroke-width=".5" points="144.4276,-78.9224 149.6151,-77.8487 144.8903,-75.4531 144.4276,-78.9224"/>
</g>
</g>
</svg>
