<?xml version="1.0" encoding="UTF-8" standalone="no"?>
<!DOCTYPE svg PUBLIC "-//W3C//DTD SVG 1.1//EN"
 "http://www.w3.org/Graphics/SVG/1.1/DTD/svg11.dtd">
<!-- Generated by graphviz version 2.40.1 (0)
 -->
<!-- Title: inheritanceb7b299c29c Pages: 1 -->
<svg width="576pt" height="80pt"
 viewBox="0.00 0.00 576.00 79.89" xmlns="http://www.w3.org/2000/svg" xmlns:xlink="http://www.w3.org/1999/xlink">
<g id="graph0" class="graph" transform="scale(.6713 .6713) rotate(0) translate(4 115)">
<title>inheritanceb7b299c29c</title>
<!-- ConcurrentDeclarations -->
<g id="node1" class="node">
<title>ConcurrentDeclarations</title>
<g id="a_node1"><a xlink:href="../pyVHDLModel/pyVHDLModel.VHDLModel.html#pyVHDLModel.VHDLModel.ConcurrentDeclarations" xlink:title="ConcurrentDeclarations" target="_top">
<polygon fill="#ffffff" stroke="#000000" stroke-width=".5" points="647,-111 465,-111 465,-92 647,-92 647,-111"/>
<text text-anchor="middle" x="556" y="-99" font-family="Vera Sans, DejaVu Sans, Liberation Sans, Arial, Helvetica, sans" font-size="10.00" fill="#000000">ConcurrentDeclarations</text>
</a>
</g>
</g>
<!-- ForGenerateStatement -->
<g id="node5" class="node">
<title>ForGenerateStatement</title>
<g id="a_node5"><a xlink:href="../pyVHDLModel/pyVHDLModel.VHDLModel.html#pyVHDLModel.VHDLModel.ForGenerateStatement" xlink:title="ForGenerateStatement" target="_top">
<polygon fill="#ffffff" stroke="#000000" stroke-width=".5" points="850,-74 683,-74 683,-55 850,-55 850,-74"/>
<text text-anchor="middle" x="766.5" y="-62" font-family="Vera Sans, DejaVu Sans, Liberation Sans, Arial, Helvetica, sans" font-size="10.00" fill="#000000">ForGenerateStatement</text>
</a>
</g>
</g>
<!-- ConcurrentDeclarations&#45;&gt;ForGenerateStatement -->
<g id="edge3" class="edge">
<title>ConcurrentDeclarations&#45;&gt;ForGenerateStatement</title>
<path fill="none" stroke="#000000" stroke-width=".5" d="M610.209,-91.9716C639.8035,-86.7697 676.5021,-80.3191 706.8995,-74.9761"/>
<polygon fill="#000000" stroke="#000000" stroke-width=".5" points="707.4878,-76.6496 712.1093,-74.0604 706.8818,-73.2025 707.4878,-76.6496"/>
</g>
<!-- ConcurrentStatement -->
<g id="node2" class="node">
<title>ConcurrentStatement</title>
<g id="a_node2"><a xlink:href="../pyVHDLModel/pyVHDLModel.VHDLModel.html#pyVHDLModel.VHDLModel.ConcurrentStatement" xlink:title="A ``ConcurrentStatement`` is a base&#45;class for all concurrent statements." target="_top">
<polygon fill="#ffffff" stroke="#000000" stroke-width=".5" points="429,-37 270,-37 270,-18 429,-18 429,-37"/>
<text text-anchor="middle" x="349.5" y="-25" font-family="Vera Sans, DejaVu Sans, Liberation Sans, Arial, Helvetica, sans" font-size="10.00" fill="#000000">ConcurrentStatement</text>
</a>
</g>
</g>
<!-- GenerateStatement -->
<g id="node6" class="node">
<title>GenerateStatement</title>
<g id="a_node6"><a xlink:href="../pyVHDLModel/pyVHDLModel.VHDLModel.html#pyVHDLModel.VHDLModel.GenerateStatement" xlink:title="A ``GenerateStatement`` is a base&#45;class for all generate statements." target="_top">
<polygon fill="#ffffff" stroke="#000000" stroke-width=".5" points="628,-37 484,-37 484,-18 628,-18 628,-37"/>
<text text-anchor="middle" x="556" y="-25" font-family="Vera Sans, DejaVu Sans, Liberation Sans, Arial, Helvetica, sans" font-size="10.00" fill="#000000">GenerateStatement</text>
</a>
</g>
</g>
<!-- ConcurrentStatement&#45;&gt;GenerateStatement -->
<g id="edge5" class="edge">
<title>ConcurrentStatement&#45;&gt;GenerateStatement</title>
<path fill="none" stroke="#000000" stroke-width=".5" d="M429.0429,-27.5C445.4144,-27.5 462.6265,-27.5 478.9094,-27.5"/>
<polygon fill="#000000" stroke="#000000" stroke-width=".5" points="478.931,-29.2501 483.9309,-27.5 478.9309,-25.7501 478.931,-29.2501"/>
</g>
<!-- Statement -->
<g id="node3" class="node">
<title>Statement</title>
<g id="a_node3"><a xlink:href="../pyVHDLModel/pyVHDLModel.VHDLModel.html#pyVHDLModel.VHDLModel.Statement" xlink:title="Statement" target="_top">
<polygon fill="#ffffff" stroke="#000000" stroke-width=".5" points="234,-37 150,-37 150,-18 234,-18 234,-37"/>
<text text-anchor="middle" x="192" y="-25" font-family="Vera Sans, DejaVu Sans, Liberation Sans, Arial, Helvetica, sans" font-size="10.00" fill="#000000">Statement</text>
</a>
</g>
</g>
<!-- Statement&#45;&gt;ConcurrentStatement -->
<g id="edge1" class="edge">
<title>Statement&#45;&gt;ConcurrentStatement</title>
<path fill="none" stroke="#000000" stroke-width=".5" d="M234.2071,-27.5C243.6822,-27.5 254.0641,-27.5 264.5937,-27.5"/>
<polygon fill="#000000" stroke="#000000" stroke-width=".5" points="264.7713,-29.2501 269.7713,-27.5 264.7713,-25.7501 264.7713,-29.2501"/>
</g>
<!-- ConcurrentStatements -->
<g id="node4" class="node">
<title>ConcurrentStatements</title>
<g id="a_node4"><a xlink:href="../pyVHDLModel/pyVHDLModel.VHDLModel.html#pyVHDLModel.VHDLModel.ConcurrentStatements" xlink:title="ConcurrentStatements" target="_top">
<polygon fill="#ffffff" stroke="#000000" stroke-width=".5" points="639.5,-74 472.5,-74 472.5,-55 639.5,-55 639.5,-74"/>
<text text-anchor="middle" x="556" y="-62" font-family="Vera Sans, DejaVu Sans, Liberation Sans, Arial, Helvetica, sans" font-size="10.00" fill="#000000">ConcurrentStatements</text>
</a>
</g>
</g>
<!-- ConcurrentStatements&#45;&gt;ForGenerateStatement -->
<g id="edge4" class="edge">
<title>ConcurrentStatements&#45;&gt;ForGenerateStatement</title>
<path fill="none" stroke="#000000" stroke-width=".5" d="M639.8,-64.5C652.3508,-64.5 665.3265,-64.5 677.9718,-64.5"/>
<polygon fill="#000000" stroke="#000000" stroke-width=".5" points="677.9883,-66.2501 682.9883,-64.5 677.9883,-62.7501 677.9883,-66.2501"/>
</g>
<!-- GenerateStatement&#45;&gt;ForGenerateStatement -->
<g id="edge2" class="edge">
<title>GenerateStatement&#45;&gt;ForGenerateStatement</title>
<path fill="none" stroke="#000000" stroke-width=".5" d="M610.209,-37.0284C639.8035,-42.2303 676.5021,-48.6809 706.8995,-54.0239"/>
<polygon fill="#000000" stroke="#000000" stroke-width=".5" points="706.8818,-55.7975 712.1093,-54.9396 707.4878,-52.3504 706.8818,-55.7975"/>
</g>
<!-- LabeledEntity -->
<g id="node7" class="node">
<title>LabeledEntity</title>
<g id="a_node7"><a xlink:href="../pyVHDLModel/pyVHDLModel.VHDLModel.html#pyVHDLModel.VHDLModel.LabeledEntity" xlink:title="A ``LabeledEntity`` is a mixin class for all VHDL entities that can have" target="_top">
<polygon fill="#ffffff" stroke="#000000" stroke-width=".5" points="114,-56 0,-56 0,-37 114,-37 114,-56"/>
<text text-anchor="middle" x="57" y="-44" font-family="Vera Sans, DejaVu Sans, Liberation Sans, Arial, Helvetica, sans" font-size="10.00" fill="#000000">LabeledEntity</text>
</a>
</g>
</g>
<!-- LabeledEntity&#45;&gt;Statement -->
<g id="edge7" class="edge">
<title>LabeledEntity&#45;&gt;Statement</title>
<path fill="none" stroke="#000000" stroke-width=".5" d="M114.2522,-38.4423C124.4108,-37.0126 134.8864,-35.5382 144.7297,-34.1529"/>
<polygon fill="#000000" stroke="#000000" stroke-width=".5" points="145.1072,-35.8671 149.8145,-33.4372 144.6193,-32.4012 145.1072,-35.8671"/>
</g>
<!-- ModelEntity -->
<g id="node8" class="node">
<title>ModelEntity</title>
<g id="a_node8"><a xlink:href="../pyVHDLModel/pyVHDLModel.VHDLModel.html#pyVHDLModel.VHDLModel.ModelEntity" xlink:title="``ModelEntity`` is a base class for all classes in the VHDL language model," target="_top">
<polygon fill="#ffffff" stroke="#000000" stroke-width=".5" points="106.5,-19 7.5,-19 7.5,0 106.5,0 106.5,-19"/>
<text text-anchor="middle" x="57" y="-7" font-family="Vera Sans, DejaVu Sans, Liberation Sans, Arial, Helvetica, sans" font-size="10.00" fill="#000000">ModelEntity</text>
</a>
</g>
</g>
<!-- ModelEntity&#45;&gt;Statement -->
<g id="edge6" class="edge">
<title>ModelEntity&#45;&gt;Statement</title>
<path fill="none" stroke="#000000" stroke-width=".5" d="M106.5024,-16.1003C118.8814,-17.7508 132.1315,-19.5175 144.4152,-21.1554"/>
<polygon fill="#000000" stroke="#000000" stroke-width=".5" points="144.4276,-22.9224 149.6151,-21.8487 144.8903,-19.4531 144.4276,-22.9224"/>
</g>
</g>
</svg>
