<?xml version="1.0" encoding="UTF-8" standalone="no"?>
<!DOCTYPE svg PUBLIC "-//W3C//DTD SVG 1.1//EN"
 "http://www.w3.org/Graphics/SVG/1.1/DTD/svg11.dtd">
<!-- Generated by graphviz version 2.40.1 (0)
 -->
<!-- Title: inheritancec74d712283 Pages: 1 -->
<svg width="576pt" height="76pt"
 viewBox="0.00 0.00 576.00 75.53" xmlns="http://www.w3.org/2000/svg" xmlns:xlink="http://www.w3.org/1999/xlink">
<g id="graph0" class="graph" transform="scale(.91 .91) rotate(0) translate(4 79)">
<title>inheritancec74d712283</title>
<!-- Configuration -->
<g id="node1" class="node">
<title>Configuration</title>
<g id="a_node1"><a xlink:href="../pyVHDLModel/pyVHDLModel.VHDLModel.html#pyVHDLModel.VHDLModel.Configuration" xlink:title="Configuration" target="_top">
<polygon fill="#ffffff" stroke="#000000" stroke-width=".5" points="625,-37 511,-37 511,-18 625,-18 625,-37"/>
<text text-anchor="middle" x="568" y="-25" font-family="Vera Sans, DejaVu Sans, Liberation Sans, Arial, Helvetica, sans" font-size="10.00" fill="#000000">Configuration</text>
</a>
</g>
</g>
<!-- PrimaryUnit -->
<g id="node2" class="node">
<title>PrimaryUnit</title>
<g id="a_node2"><a xlink:href="../pyVHDLModel/pyVHDLModel.VHDLModel.html#pyVHDLModel.VHDLModel.PrimaryUnit" xlink:title="A ``PrimaryUnit`` is a base&#45;class for all primary units." target="_top">
<polygon fill="#ffffff" stroke="#000000" stroke-width=".5" points="418.5,-56 319.5,-56 319.5,-37 418.5,-37 418.5,-56"/>
<text text-anchor="middle" x="369" y="-44" font-family="Vera Sans, DejaVu Sans, Liberation Sans, Arial, Helvetica, sans" font-size="10.00" fill="#000000">PrimaryUnit</text>
</a>
</g>
</g>
<!-- PrimaryUnit&#45;&gt;Configuration -->
<g id="edge1" class="edge">
<title>PrimaryUnit&#45;&gt;Configuration</title>
<path fill="none" stroke="#000000" stroke-width=".5" d="M418.7028,-41.7545C445.0383,-39.2401 477.6446,-36.1269 505.6608,-33.452"/>
<polygon fill="#000000" stroke="#000000" stroke-width=".5" points="506.0251,-35.1753 510.8361,-32.9579 505.6924,-31.6911 506.0251,-35.1753"/>
</g>
<!-- MixinDesignUnitWithContext -->
<g id="node3" class="node">
<title>MixinDesignUnitWithContext</title>
<g id="a_node3"><a xlink:href="../pyVHDLModel/pyVHDLModel.VHDLModel.html#pyVHDLModel.VHDLModel.MixinDesignUnitWithContext" xlink:title="A ``DesignUnitWithReferences`` is a base&#45;class for all design units with contexts." target="_top">
<polygon fill="#ffffff" stroke="#000000" stroke-width=".5" points="475,-19 263,-19 263,0 475,0 475,-19"/>
<text text-anchor="middle" x="369" y="-7" font-family="Vera Sans, DejaVu Sans, Liberation Sans, Arial, Helvetica, sans" font-size="10.00" fill="#000000">MixinDesignUnitWithContext</text>
</a>
</g>
</g>
<!-- MixinDesignUnitWithContext&#45;&gt;Configuration -->
<g id="edge2" class="edge">
<title>MixinDesignUnitWithContext&#45;&gt;Configuration</title>
<path fill="none" stroke="#000000" stroke-width=".5" d="M474.036,-19.0007C484.8568,-19.9795 495.5899,-20.9503 505.7215,-21.8668"/>
<polygon fill="#000000" stroke="#000000" stroke-width=".5" points="505.8247,-23.6332 510.9621,-22.3408 506.1401,-20.1474 505.8247,-23.6332"/>
</g>
<!-- DesignUnit -->
<g id="node4" class="node">
<title>DesignUnit</title>
<g id="a_node4"><a xlink:href="../pyVHDLModel/pyVHDLModel.VHDLModel.html#pyVHDLModel.VHDLModel.DesignUnit" xlink:title="A ``DesignUnit`` is a base&#45;class for all design units." target="_top">
<polygon fill="#ffffff" stroke="#000000" stroke-width=".5" points="227,-56 135,-56 135,-37 227,-37 227,-56"/>
<text text-anchor="middle" x="181" y="-44" font-family="Vera Sans, DejaVu Sans, Liberation Sans, Arial, Helvetica, sans" font-size="10.00" fill="#000000">DesignUnit</text>
</a>
</g>
</g>
<!-- DesignUnit&#45;&gt;PrimaryUnit -->
<g id="edge5" class="edge">
<title>DesignUnit&#45;&gt;PrimaryUnit</title>
<path fill="none" stroke="#000000" stroke-width=".5" d="M227.4719,-46.5C253.7794,-46.5 286.8267,-46.5 314.3698,-46.5"/>
<polygon fill="#000000" stroke="#000000" stroke-width=".5" points="314.4458,-48.2501 319.4458,-46.5 314.4458,-44.7501 314.4458,-48.2501"/>
</g>
<!-- ModelEntity -->
<g id="node5" class="node">
<title>ModelEntity</title>
<g id="a_node5"><a xlink:href="../pyVHDLModel/pyVHDLModel.VHDLModel.html#pyVHDLModel.VHDLModel.ModelEntity" xlink:title="``ModelEntity`` is a base class for all classes in the VHDL language model," target="_top">
<polygon fill="#ffffff" stroke="#000000" stroke-width=".5" points="99,-75 0,-75 0,-56 99,-56 99,-75"/>
<text text-anchor="middle" x="49.5" y="-63" font-family="Vera Sans, DejaVu Sans, Liberation Sans, Arial, Helvetica, sans" font-size="10.00" fill="#000000">ModelEntity</text>
</a>
</g>
</g>
<!-- ModelEntity&#45;&gt;DesignUnit -->
<g id="edge3" class="edge">
<title>ModelEntity&#45;&gt;DesignUnit</title>
<path fill="none" stroke="#000000" stroke-width=".5" d="M99.2145,-58.3169C109.1242,-56.8851 119.5514,-55.3785 129.5189,-53.9383"/>
<polygon fill="#000000" stroke="#000000" stroke-width=".5" points="129.9859,-55.6391 134.6843,-53.192 129.4854,-52.1751 129.9859,-55.6391"/>
</g>
<!-- NamedEntity -->
<g id="node6" class="node">
<title>NamedEntity</title>
<g id="a_node6"><a xlink:href="../pyVHDLModel/pyVHDLModel.VHDLModel.html#pyVHDLModel.VHDLModel.NamedEntity" xlink:title="A ``NamedEntity`` is a mixin class for all VHDL entities that have names." target="_top">
<polygon fill="#ffffff" stroke="#000000" stroke-width=".5" points="99,-38 0,-38 0,-19 99,-19 99,-38"/>
<text text-anchor="middle" x="49.5" y="-26" font-family="Vera Sans, DejaVu Sans, Liberation Sans, Arial, Helvetica, sans" font-size="10.00" fill="#000000">NamedEntity</text>
</a>
</g>
</g>
<!-- NamedEntity&#45;&gt;DesignUnit -->
<g id="edge4" class="edge">
<title>NamedEntity&#45;&gt;DesignUnit</title>
<path fill="none" stroke="#000000" stroke-width=".5" d="M99.2145,-35.305C109.1242,-36.6615 119.5514,-38.0888 129.5189,-39.4532"/>
<polygon fill="#000000" stroke="#000000" stroke-width=".5" points="129.4931,-41.2159 134.6843,-40.1602 129.9678,-37.7482 129.4931,-41.2159"/>
</g>
</g>
</svg>
