<?xml version="1.0" encoding="UTF-8" standalone="no"?>
<!DOCTYPE svg PUBLIC "-//W3C//DTD SVG 1.1//EN"
 "http://www.w3.org/Graphics/SVG/1.1/DTD/svg11.dtd">
<!-- Generated by graphviz version 2.40.1 (0)
 -->
<!-- Title: inheritance1f21bf3c88 Pages: 1 -->
<svg width="576pt" height="72pt"
 viewBox="0.00 0.00 576.00 71.56" xmlns="http://www.w3.org/2000/svg" xmlns:xlink="http://www.w3.org/1999/xlink">
<g id="graph0" class="graph" transform="scale(.7085 .7085) rotate(0) translate(4 97)">
<title>inheritance1f21bf3c88</title>
<!-- InterfaceItem -->
<g id="node1" class="node">
<title>InterfaceItem</title>
<g id="a_node1"><a xlink:href="../../pyVHDLModel/pyVHDLModel.VHDLModel.html#pyVHDLModel.VHDLModel.InterfaceItem" xlink:title="An ``InterfaceItem`` is a base&#45;class for all mixin&#45;classes for all interface" target="_top">
<polygon fill="#ffffff" stroke="#000000" stroke-width=".5" points="279,-93 165,-93 165,-74 279,-74 279,-93"/>
<text text-anchor="middle" x="222" y="-81" font-family="Vera Sans, DejaVu Sans, Liberation Sans, Arial, Helvetica, sans" font-size="10.00" fill="#000000">InterfaceItem</text>
</a>
</g>
</g>
<!-- ParameterInterfaceItem -->
<g id="node5" class="node">
<title>ParameterInterfaceItem</title>
<g id="a_node5"><a xlink:href="../../pyVHDLModel/pyVHDLModel.VHDLModel.html#pyVHDLModel.VHDLModel.ParameterInterfaceItem" xlink:title="A ``ParameterInterfaceItem`` is a mixin class for all parameter interface items." target="_top">
<polygon fill="#ffffff" stroke="#000000" stroke-width=".5" points="527,-93 345,-93 345,-74 527,-74 527,-93"/>
<text text-anchor="middle" x="436" y="-81" font-family="Vera Sans, DejaVu Sans, Liberation Sans, Arial, Helvetica, sans" font-size="10.00" fill="#000000">ParameterInterfaceItem</text>
</a>
</g>
</g>
<!-- InterfaceItem&#45;&gt;ParameterInterfaceItem -->
<g id="edge3" class="edge">
<title>InterfaceItem&#45;&gt;ParameterInterfaceItem</title>
<path fill="none" stroke="#000000" stroke-width=".5" d="M279.067,-83.5C297.6724,-83.5 318.8744,-83.5 339.5461,-83.5"/>
<polygon fill="#000000" stroke="#000000" stroke-width=".5" points="339.7884,-85.2501 344.7883,-83.5 339.7883,-81.7501 339.7884,-85.2501"/>
</g>
<!-- ModelEntity -->
<g id="node2" class="node">
<title>ModelEntity</title>
<g id="a_node2"><a xlink:href="../../pyVHDLModel/pyVHDLModel.VHDLModel.html#pyVHDLModel.VHDLModel.ModelEntity" xlink:title="``ModelEntity`` is a base class for all classes in the VHDL language model," target="_top">
<polygon fill="#ffffff" stroke="#000000" stroke-width=".5" points="99,-74 0,-74 0,-55 99,-55 99,-74"/>
<text text-anchor="middle" x="49.5" y="-62" font-family="Vera Sans, DejaVu Sans, Liberation Sans, Arial, Helvetica, sans" font-size="10.00" fill="#000000">ModelEntity</text>
</a>
</g>
</g>
<!-- Object -->
<g id="node4" class="node">
<title>Object</title>
<g id="a_node4"><a xlink:href="../../pyVHDLModel/pyVHDLModel.VHDLModel.html#pyVHDLModel.VHDLModel.Object" xlink:title="Object" target="_top">
<polygon fill="#ffffff" stroke="#000000" stroke-width=".5" points="253,-56 191,-56 191,-37 253,-37 253,-56"/>
<text text-anchor="middle" x="222" y="-44" font-family="Vera Sans, DejaVu Sans, Liberation Sans, Arial, Helvetica, sans" font-size="10.00" fill="#000000">Object</text>
</a>
</g>
</g>
<!-- ModelEntity&#45;&gt;Object -->
<g id="edge1" class="edge">
<title>ModelEntity&#45;&gt;Object</title>
<path fill="none" stroke="#000000" stroke-width=".5" d="M99.3941,-59.2937C126.9842,-56.4147 160.6495,-52.9018 185.718,-50.2859"/>
<polygon fill="#000000" stroke="#000000" stroke-width=".5" points="186.1403,-52.0015 190.9316,-49.7419 185.777,-48.5204 186.1403,-52.0015"/>
</g>
<!-- NamedEntity -->
<g id="node3" class="node">
<title>NamedEntity</title>
<g id="a_node3"><a xlink:href="../../pyVHDLModel/pyVHDLModel.VHDLModel.html#pyVHDLModel.VHDLModel.NamedEntity" xlink:title="A ``NamedEntity`` is a mixin class for all VHDL entities that have names." target="_top">
<polygon fill="#ffffff" stroke="#000000" stroke-width=".5" points="99,-37 0,-37 0,-18 99,-18 99,-37"/>
<text text-anchor="middle" x="49.5" y="-25" font-family="Vera Sans, DejaVu Sans, Liberation Sans, Arial, Helvetica, sans" font-size="10.00" fill="#000000">NamedEntity</text>
</a>
</g>
</g>
<!-- NamedEntity&#45;&gt;Object -->
<g id="edge2" class="edge">
<title>NamedEntity&#45;&gt;Object</title>
<path fill="none" stroke="#000000" stroke-width=".5" d="M99.3941,-32.9956C126.9842,-36.0345 160.6495,-39.7425 185.718,-42.5037"/>
<polygon fill="#000000" stroke="#000000" stroke-width=".5" points="185.7701,-44.27 190.9316,-43.078 186.1533,-40.791 185.7701,-44.27"/>
</g>
<!-- Variable -->
<g id="node7" class="node">
<title>Variable</title>
<g id="a_node7"><a xlink:href="../../pyVHDLModel/pyVHDLModel.VHDLModel.html#pyVHDLModel.VHDLModel.Variable" xlink:title="Variable" target="_top">
<polygon fill="#ffffff" stroke="#000000" stroke-width=".5" points="474.5,-56 397.5,-56 397.5,-37 474.5,-37 474.5,-56"/>
<text text-anchor="middle" x="436" y="-44" font-family="Vera Sans, DejaVu Sans, Liberation Sans, Arial, Helvetica, sans" font-size="10.00" fill="#000000">Variable</text>
</a>
</g>
</g>
<!-- Object&#45;&gt;Variable -->
<g id="edge6" class="edge">
<title>Object&#45;&gt;Variable</title>
<path fill="none" stroke="#000000" stroke-width=".5" d="M253.1174,-46.5C289.6917,-46.5 350.6362,-46.5 392.0276,-46.5"/>
<polygon fill="#000000" stroke="#000000" stroke-width=".5" points="392.2278,-48.2501 397.2278,-46.5 392.2278,-44.7501 392.2278,-48.2501"/>
</g>
<!-- ParameterVariableInterfaceItem -->
<g id="node6" class="node">
<title>ParameterVariableInterfaceItem</title>
<g id="a_node6"><a xlink:href="../../pyVHDLModel/pyVHDLModel.VHDLModel.html#pyVHDLModel.VHDLModel.ParameterVariableInterfaceItem" xlink:title="ParameterVariableInterfaceItem" target="_top">
<polygon fill="#ffffff" stroke="#000000" stroke-width=".5" points="805,-74 563,-74 563,-55 805,-55 805,-74"/>
<text text-anchor="middle" x="684" y="-62" font-family="Vera Sans, DejaVu Sans, Liberation Sans, Arial, Helvetica, sans" font-size="10.00" fill="#000000">ParameterVariableInterfaceItem</text>
</a>
</g>
</g>
<!-- ParameterInterfaceItem&#45;&gt;ParameterVariableInterfaceItem -->
<g id="edge5" class="edge">
<title>ParameterInterfaceItem&#45;&gt;ParameterVariableInterfaceItem</title>
<path fill="none" stroke="#000000" stroke-width=".5" d="M527.2895,-76.506C537.2594,-75.7422 547.5331,-74.9551 557.8268,-74.1665"/>
<polygon fill="#000000" stroke="#000000" stroke-width=".5" points="558.0288,-75.9062 562.8805,-73.7793 557.7614,-72.4165 558.0288,-75.9062"/>
</g>
<!-- Variable&#45;&gt;ParameterVariableInterfaceItem -->
<g id="edge4" class="edge">
<title>Variable&#45;&gt;ParameterVariableInterfaceItem</title>
<path fill="none" stroke="#000000" stroke-width=".5" d="M474.75,-49.3125C497.4153,-50.9576 527.4458,-53.1372 557.6615,-55.3303"/>
<polygon fill="#000000" stroke="#000000" stroke-width=".5" points="557.7924,-57.0943 562.906,-55.7109 558.0458,-53.6035 557.7924,-57.0943"/>
</g>
<!-- WithDefaultExpression -->
<g id="node8" class="node">
<title>WithDefaultExpression</title>
<g id="a_node8"><a xlink:href="../../pyVHDLModel/pyVHDLModel.VHDLModel.html#pyVHDLModel.VHDLModel.WithDefaultExpression" xlink:title="A ``WithDefaultExpression`` is a mixin class for all objects declarations" target="_top">
<polygon fill="#ffffff" stroke="#000000" stroke-width=".5" points="309,-19 135,-19 135,0 309,0 309,-19"/>
<text text-anchor="middle" x="222" y="-7" font-family="Vera Sans, DejaVu Sans, Liberation Sans, Arial, Helvetica, sans" font-size="10.00" fill="#000000">WithDefaultExpression</text>
</a>
</g>
</g>
<!-- WithDefaultExpression&#45;&gt;Variable -->
<g id="edge7" class="edge">
<title>WithDefaultExpression&#45;&gt;Variable</title>
<path fill="none" stroke="#000000" stroke-width=".5" d="M277.1103,-19.0284C312.8462,-25.2071 358.771,-33.1473 392.0485,-38.9009"/>
<polygon fill="#000000" stroke="#000000" stroke-width=".5" points="392.0521,-40.6774 397.2772,-39.8049 392.6485,-37.2286 392.0521,-40.6774"/>
</g>
</g>
</svg>
