<?xml version="1.0" encoding="UTF-8" standalone="no"?>
<!DOCTYPE svg PUBLIC "-//W3C//DTD SVG 1.1//EN"
 "http://www.w3.org/Graphics/SVG/1.1/DTD/svg11.dtd">
<!-- Generated by graphviz version 2.40.1 (0)
 -->
<!-- Title: inheritance3f7746e5d4 Pages: 1 -->
<svg width="400pt" height="27pt"
 viewBox="0.00 0.00 400.00 27.00" xmlns="http://www.w3.org/2000/svg" xmlns:xlink="http://www.w3.org/1999/xlink">
<g id="graph0" class="graph" transform="scale(1 1) rotate(0) translate(4 23)">
<title>inheritance3f7746e5d4</title>
<!-- Generic -->
<g id="node1" class="node">
<title>Generic</title>
<g id="a_node1"><a xlink:title="Abstract base class for generic types.">
<polygon fill="#ffffff" stroke="#000000" stroke-width=".5" points="69,-19 0,-19 0,0 69,0 69,-19"/>
<text text-anchor="middle" x="34.5" y="-7" font-family="Vera Sans, DejaVu Sans, Liberation Sans, Arial, Helvetica, sans" font-size="10.00" fill="#000000">Generic</text>
</a>
</g>
</g>
<!-- Protocol -->
<g id="node3" class="node">
<title>Protocol</title>
<g id="a_node3"><a xlink:title="Base class for protocol classes.">
<polygon fill="#ffffff" stroke="#000000" stroke-width=".5" points="182,-19 105,-19 105,0 182,0 182,-19"/>
<text text-anchor="middle" x="143.5" y="-7" font-family="Vera Sans, DejaVu Sans, Liberation Sans, Arial, Helvetica, sans" font-size="10.00" fill="#000000">Protocol</text>
</a>
</g>
</g>
<!-- Generic&#45;&gt;Protocol -->
<g id="edge2" class="edge">
<title>Generic&#45;&gt;Protocol</title>
<path fill="none" stroke="#000000" stroke-width=".5" d="M69.288,-9.5C78.9441,-9.5 89.5544,-9.5 99.6563,-9.5"/>
<polygon fill="#000000" stroke="#000000" stroke-width=".5" points="99.8849,-11.2501 104.8849,-9.5 99.8849,-7.7501 99.8849,-11.2501"/>
</g>
<!-- ParenthesisExpression -->
<g id="node2" class="node">
<title>ParenthesisExpression</title>
<g id="a_node2"><a xlink:href="../pyVHDLModel/pyVHDLModel.VHDLModel.html#pyVHDLModel.VHDLModel.ParenthesisExpression" xlink:title="ParenthesisExpression" target="_top">
<polygon fill="#ffffff" stroke="#000000" stroke-width=".5" points="392,-19 218,-19 218,0 392,0 392,-19"/>
<text text-anchor="middle" x="305" y="-7" font-family="Vera Sans, DejaVu Sans, Liberation Sans, Arial, Helvetica, sans" font-size="10.00" fill="#000000">ParenthesisExpression</text>
</a>
</g>
</g>
<!-- Protocol&#45;&gt;ParenthesisExpression -->
<g id="edge1" class="edge">
<title>Protocol&#45;&gt;ParenthesisExpression</title>
<path fill="none" stroke="#000000" stroke-width=".5" d="M182.1833,-9.5C191.566,-9.5 202,-9.5 212.7106,-9.5"/>
<polygon fill="#000000" stroke="#000000" stroke-width=".5" points="212.9874,-11.2501 217.9874,-9.5 212.9873,-7.7501 212.9874,-11.2501"/>
</g>
</g>
</svg>
