<?xml version="1.0" encoding="UTF-8" standalone="no"?>
<!DOCTYPE svg PUBLIC "-//W3C//DTD SVG 1.1//EN"
 "http://www.w3.org/Graphics/SVG/1.1/DTD/svg11.dtd">
<!-- Generated by graphviz version 2.40.1 (0)
 -->
<!-- Title: inheritancedd40e4fab8 Pages: 1 -->
<svg width="576pt" height="70pt"
 viewBox="0.00 0.00 576.00 69.59" xmlns="http://www.w3.org/2000/svg" xmlns:xlink="http://www.w3.org/1999/xlink">
<g id="graph0" class="graph" transform="scale(.689 .689) rotate(0) translate(4 97)">
<title>inheritancedd40e4fab8</title>
<!-- AddingExpression -->
<g id="node1" class="node">
<title>AddingExpression</title>
<g id="a_node1"><a xlink:href="../../pyVHDLModel/pyVHDLModel.VHDLModel.html#pyVHDLModel.VHDLModel.AddingExpression" xlink:title="A ``AddingExpression`` is a base&#45;class for all adding expressions." target="_top">
<polygon fill="#ffffff" stroke="#000000" stroke-width=".5" points="603,-56 466,-56 466,-37 603,-37 603,-56"/>
<text text-anchor="middle" x="534.5" y="-44" font-family="Vera Sans, DejaVu Sans, Liberation Sans, Arial, Helvetica, sans" font-size="10.00" fill="#000000">AddingExpression</text>
</a>
</g>
</g>
<!-- AdditionExpression -->
<g id="node3" class="node">
<title>AdditionExpression</title>
<g id="a_node3"><a xlink:href="../../pyVHDLModel/pyVHDLModel.VHDLModel.html#pyVHDLModel.VHDLModel.AdditionExpression" xlink:title="AdditionExpression" target="_top">
<polygon fill="#ffffff" stroke="#000000" stroke-width=".5" points="809.5,-93 657.5,-93 657.5,-74 809.5,-74 809.5,-93"/>
<text text-anchor="middle" x="733.5" y="-81" font-family="Vera Sans, DejaVu Sans, Liberation Sans, Arial, Helvetica, sans" font-size="10.00" fill="#000000">AdditionExpression</text>
</a>
</g>
</g>
<!-- AddingExpression&#45;&gt;AdditionExpression -->
<g id="edge2" class="edge">
<title>AddingExpression&#45;&gt;AdditionExpression</title>
<path fill="none" stroke="#000000" stroke-width=".5" d="M585.7474,-56.0284C613.7252,-61.2303 648.4188,-67.6809 677.1556,-73.0239"/>
<polygon fill="#000000" stroke="#000000" stroke-width=".5" points="676.8451,-74.7461 682.0807,-73.9396 677.4849,-71.3051 676.8451,-74.7461"/>
</g>
<!-- ConcatenationExpression -->
<g id="node6" class="node">
<title>ConcatenationExpression</title>
<g id="a_node6"><a xlink:href="../../pyVHDLModel/pyVHDLModel.VHDLModel.html#pyVHDLModel.VHDLModel.ConcatenationExpression" xlink:title="ConcatenationExpression" target="_top">
<polygon fill="#ffffff" stroke="#000000" stroke-width=".5" points="828,-56 639,-56 639,-37 828,-37 828,-56"/>
<text text-anchor="middle" x="733.5" y="-44" font-family="Vera Sans, DejaVu Sans, Liberation Sans, Arial, Helvetica, sans" font-size="10.00" fill="#000000">ConcatenationExpression</text>
</a>
</g>
</g>
<!-- AddingExpression&#45;&gt;ConcatenationExpression -->
<g id="edge5" class="edge">
<title>AddingExpression&#45;&gt;ConcatenationExpression</title>
<path fill="none" stroke="#000000" stroke-width=".5" d="M603.2632,-46.5C613.1108,-46.5 623.4039,-46.5 633.7012,-46.5"/>
<polygon fill="#000000" stroke="#000000" stroke-width=".5" points="633.7547,-48.2501 638.7547,-46.5 633.7547,-44.7501 633.7547,-48.2501"/>
</g>
<!-- SubtractionExpression -->
<g id="node7" class="node">
<title>SubtractionExpression</title>
<g id="a_node7"><a xlink:href="../../pyVHDLModel/pyVHDLModel.VHDLModel.html#pyVHDLModel.VHDLModel.SubtractionExpression" xlink:title="SubtractionExpression" target="_top">
<polygon fill="#ffffff" stroke="#000000" stroke-width=".5" points="820.5,-19 646.5,-19 646.5,0 820.5,0 820.5,-19"/>
<text text-anchor="middle" x="733.5" y="-7" font-family="Vera Sans, DejaVu Sans, Liberation Sans, Arial, Helvetica, sans" font-size="10.00" fill="#000000">SubtractionExpression</text>
</a>
</g>
</g>
<!-- AddingExpression&#45;&gt;SubtractionExpression -->
<g id="edge6" class="edge">
<title>AddingExpression&#45;&gt;SubtractionExpression</title>
<path fill="none" stroke="#000000" stroke-width=".5" d="M585.7474,-36.9716C613.7252,-31.7697 648.4188,-25.3191 677.1556,-19.9761"/>
<polygon fill="#000000" stroke="#000000" stroke-width=".5" points="677.4849,-21.6949 682.0807,-19.0604 676.8451,-18.2539 677.4849,-21.6949"/>
</g>
<!-- BinaryExpression -->
<g id="node2" class="node">
<title>BinaryExpression</title>
<g id="a_node2"><a xlink:href="../../pyVHDLModel/pyVHDLModel.VHDLModel.html#pyVHDLModel.VHDLModel.BinaryExpression" xlink:title="A ``BinaryExpression`` is a base&#45;class for all binary expressions." target="_top">
<polygon fill="#ffffff" stroke="#000000" stroke-width=".5" points="430,-56 293,-56 293,-37 430,-37 430,-56"/>
<text text-anchor="middle" x="361.5" y="-44" font-family="Vera Sans, DejaVu Sans, Liberation Sans, Arial, Helvetica, sans" font-size="10.00" fill="#000000">BinaryExpression</text>
</a>
</g>
</g>
<!-- BinaryExpression&#45;&gt;AddingExpression -->
<g id="edge1" class="edge">
<title>BinaryExpression&#45;&gt;AddingExpression</title>
<path fill="none" stroke="#000000" stroke-width=".5" d="M430.3713,-46.5C440.321,-46.5 450.5958,-46.5 460.6382,-46.5"/>
<polygon fill="#000000" stroke="#000000" stroke-width=".5" points="460.8657,-48.2501 465.8657,-46.5 460.8657,-44.7501 460.8657,-48.2501"/>
</g>
<!-- BaseExpression -->
<g id="node4" class="node">
<title>BaseExpression</title>
<g id="a_node4"><a xlink:href="../../pyVHDLModel/pyVHDLModel.VHDLModel.html#pyVHDLModel.VHDLModel.BaseExpression" xlink:title="A ``BaseExpression`` is a base&#45;class for all expressions." target="_top">
<polygon fill="#ffffff" stroke="#000000" stroke-width=".5" points="257,-56 135,-56 135,-37 257,-37 257,-56"/>
<text text-anchor="middle" x="196" y="-44" font-family="Vera Sans, DejaVu Sans, Liberation Sans, Arial, Helvetica, sans" font-size="10.00" fill="#000000">BaseExpression</text>
</a>
</g>
</g>
<!-- BaseExpression&#45;&gt;BinaryExpression -->
<g id="edge4" class="edge">
<title>BaseExpression&#45;&gt;BinaryExpression</title>
<path fill="none" stroke="#000000" stroke-width=".5" d="M257.1559,-46.5C267.1264,-46.5 277.5466,-46.5 287.7803,-46.5"/>
<polygon fill="#000000" stroke="#000000" stroke-width=".5" points="287.7864,-48.2501 292.7864,-46.5 287.7864,-44.7501 287.7864,-48.2501"/>
</g>
<!-- ModelEntity -->
<g id="node5" class="node">
<title>ModelEntity</title>
<g id="a_node5"><a xlink:href="../../pyVHDLModel/pyVHDLModel.VHDLModel.html#pyVHDLModel.VHDLModel.ModelEntity" xlink:title="``ModelEntity`` is a base class for all classes in the VHDL language model," target="_top">
<polygon fill="#ffffff" stroke="#000000" stroke-width=".5" points="99,-56 0,-56 0,-37 99,-37 99,-56"/>
<text text-anchor="middle" x="49.5" y="-44" font-family="Vera Sans, DejaVu Sans, Liberation Sans, Arial, Helvetica, sans" font-size="10.00" fill="#000000">ModelEntity</text>
</a>
</g>
</g>
<!-- ModelEntity&#45;&gt;BaseExpression -->
<g id="edge3" class="edge">
<title>ModelEntity&#45;&gt;BaseExpression</title>
<path fill="none" stroke="#000000" stroke-width=".5" d="M99.0982,-46.5C108.9426,-46.5 119.4255,-46.5 129.7228,-46.5"/>
<polygon fill="#000000" stroke="#000000" stroke-width=".5" points="129.7594,-48.2501 134.7594,-46.5 129.7594,-44.7501 129.7594,-48.2501"/>
</g>
</g>
</svg>
