<?xml version="1.0" encoding="UTF-8" standalone="no"?>
<!DOCTYPE svg PUBLIC "-//W3C//DTD SVG 1.1//EN"
 "http://www.w3.org/Graphics/SVG/1.1/DTD/svg11.dtd">
<!-- Generated by graphviz version 2.40.1 (0)
 -->
<!-- Title: inheritancef51d41baf9 Pages: 1 -->
<svg width="528pt" height="82pt"
 viewBox="0.00 0.00 528.00 82.00" xmlns="http://www.w3.org/2000/svg" xmlns:xlink="http://www.w3.org/1999/xlink">
<g id="graph0" class="graph" transform="scale(1 1) rotate(0) translate(4 78)">
<title>inheritancef51d41baf9</title>
<!-- BaseConstant -->
<g id="node1" class="node">
<title>BaseConstant</title>
<g id="a_node1"><a xlink:href="../pyVHDLModel/pyVHDLModel.VHDLModel.html#pyVHDLModel.VHDLModel.BaseConstant" xlink:title="BaseConstant" target="_top">
<polygon fill="#ffffff" stroke="#000000" stroke-width=".5" points="373.5,-37 266.5,-37 266.5,-18 373.5,-18 373.5,-37"/>
<text text-anchor="middle" x="320" y="-25" font-family="Vera Sans, DejaVu Sans, Liberation Sans, Arial, Helvetica, sans" font-size="10.00" fill="#000000">BaseConstant</text>
</a>
</g>
</g>
<!-- Constant -->
<g id="node3" class="node">
<title>Constant</title>
<g id="a_node3"><a xlink:href="../pyVHDLModel/pyVHDLModel.VHDLModel.html#pyVHDLModel.VHDLModel.Constant" xlink:title="Constant" target="_top">
<polygon fill="#ffffff" stroke="#000000" stroke-width=".5" points="520,-55 443,-55 443,-36 520,-36 520,-55"/>
<text text-anchor="middle" x="481.5" y="-43" font-family="Vera Sans, DejaVu Sans, Liberation Sans, Arial, Helvetica, sans" font-size="10.00" fill="#000000">Constant</text>
</a>
</g>
</g>
<!-- BaseConstant&#45;&gt;Constant -->
<g id="edge2" class="edge">
<title>BaseConstant&#45;&gt;Constant</title>
<path fill="none" stroke="#000000" stroke-width=".5" d="M373.7772,-33.4937C394.4981,-35.8032 417.8962,-38.411 437.5791,-40.6048"/>
<polygon fill="#000000" stroke="#000000" stroke-width=".5" points="437.5991,-42.3678 442.7622,-41.1825 437.9868,-38.8893 437.5991,-42.3678"/>
</g>
<!-- Object -->
<g id="node2" class="node">
<title>Object</title>
<g id="a_node2"><a xlink:href="../pyVHDLModel/pyVHDLModel.VHDLModel.html#pyVHDLModel.VHDLModel.Object" xlink:title="Object" target="_top">
<polygon fill="#ffffff" stroke="#000000" stroke-width=".5" points="197,-37 135,-37 135,-18 197,-18 197,-37"/>
<text text-anchor="middle" x="166" y="-25" font-family="Vera Sans, DejaVu Sans, Liberation Sans, Arial, Helvetica, sans" font-size="10.00" fill="#000000">Object</text>
</a>
</g>
</g>
<!-- Object&#45;&gt;BaseConstant -->
<g id="edge1" class="edge">
<title>Object&#45;&gt;BaseConstant</title>
<path fill="none" stroke="#000000" stroke-width=".5" d="M197.1642,-27.5C215.5529,-27.5 239.4252,-27.5 261.2287,-27.5"/>
<polygon fill="#000000" stroke="#000000" stroke-width=".5" points="261.4288,-29.2501 266.4287,-27.5 261.4287,-25.7501 261.4288,-29.2501"/>
</g>
<!-- WithDefaultExpression -->
<g id="node4" class="node">
<title>WithDefaultExpression</title>
<g id="a_node4"><a xlink:href="../pyVHDLModel/pyVHDLModel.VHDLModel.html#pyVHDLModel.VHDLModel.WithDefaultExpression" xlink:title="A ``WithDefaultExpression`` is a mixin class for all objects declarations" target="_top">
<polygon fill="#ffffff" stroke="#000000" stroke-width=".5" points="407,-74 233,-74 233,-55 407,-55 407,-74"/>
<text text-anchor="middle" x="320" y="-62" font-family="Vera Sans, DejaVu Sans, Liberation Sans, Arial, Helvetica, sans" font-size="10.00" fill="#000000">WithDefaultExpression</text>
</a>
</g>
</g>
<!-- WithDefaultExpression&#45;&gt;Constant -->
<g id="edge3" class="edge">
<title>WithDefaultExpression&#45;&gt;Constant</title>
<path fill="none" stroke="#000000" stroke-width=".5" d="M401.2231,-54.9443C413.7565,-53.4698 426.2746,-51.9971 437.5698,-50.6683"/>
<polygon fill="#000000" stroke="#000000" stroke-width=".5" points="437.9078,-52.3907 442.669,-50.0683 437.4988,-48.9146 437.9078,-52.3907"/>
</g>
<!-- ModelEntity -->
<g id="node5" class="node">
<title>ModelEntity</title>
<g id="a_node5"><a xlink:href="../pyVHDLModel/pyVHDLModel.VHDLModel.html#pyVHDLModel.VHDLModel.ModelEntity" xlink:title="``ModelEntity`` is a base class for all classes in the VHDL language model," target="_top">
<polygon fill="#ffffff" stroke="#000000" stroke-width=".5" points="99,-56 0,-56 0,-37 99,-37 99,-56"/>
<text text-anchor="middle" x="49.5" y="-44" font-family="Vera Sans, DejaVu Sans, Liberation Sans, Arial, Helvetica, sans" font-size="10.00" fill="#000000">ModelEntity</text>
</a>
</g>
</g>
<!-- ModelEntity&#45;&gt;Object -->
<g id="edge4" class="edge">
<title>ModelEntity&#45;&gt;Object</title>
<path fill="none" stroke="#000000" stroke-width=".5" d="M99.2444,-38.3872C109.5666,-36.7037 120.253,-34.9609 129.9692,-33.3763"/>
<polygon fill="#000000" stroke="#000000" stroke-width=".5" points="130.3016,-35.0953 134.9547,-32.5632 129.7382,-31.6409 130.3016,-35.0953"/>
</g>
<!-- NamedEntity -->
<g id="node6" class="node">
<title>NamedEntity</title>
<g id="a_node6"><a xlink:href="../pyVHDLModel/pyVHDLModel.VHDLModel.html#pyVHDLModel.VHDLModel.NamedEntity" xlink:title="A ``NamedEntity`` is a mixin class for all VHDL entities that have names." target="_top">
<polygon fill="#ffffff" stroke="#000000" stroke-width=".5" points="99,-19 0,-19 0,0 99,0 99,-19"/>
<text text-anchor="middle" x="49.5" y="-7" font-family="Vera Sans, DejaVu Sans, Liberation Sans, Arial, Helvetica, sans" font-size="10.00" fill="#000000">NamedEntity</text>
</a>
</g>
</g>
<!-- NamedEntity&#45;&gt;Object -->
<g id="edge5" class="edge">
<title>NamedEntity&#45;&gt;Object</title>
<path fill="none" stroke="#000000" stroke-width=".5" d="M99.2444,-17.1858C109.5666,-18.7807 120.253,-20.4318 129.9692,-21.933"/>
<polygon fill="#000000" stroke="#000000" stroke-width=".5" points="129.7461,-23.6692 134.9547,-22.7033 130.2806,-20.2103 129.7461,-23.6692"/>
</g>
</g>
</svg>
