<?xml version="1.0" encoding="UTF-8" standalone="no"?>
<!DOCTYPE svg PUBLIC "-//W3C//DTD SVG 1.1//EN"
 "http://www.w3.org/Graphics/SVG/1.1/DTD/svg11.dtd">
<!-- Generated by graphviz version 2.40.1 (0)
 -->
<!-- Title: inheritance98c00a7eba Pages: 1 -->
<svg width="576pt" height="78pt"
 viewBox="0.00 0.00 576.00 77.80" xmlns="http://www.w3.org/2000/svg" xmlns:xlink="http://www.w3.org/1999/xlink">
<g id="graph0" class="graph" transform="scale(.6538 .6538) rotate(0) translate(4 115)">
<title>inheritance98c00a7eba</title>
<!-- BaseConstant -->
<g id="node1" class="node">
<title>BaseConstant</title>
<g id="a_node1"><a xlink:href="../pyVHDLModel/pyVHDLModel.VHDLModel.html#pyVHDLModel.VHDLModel.BaseConstant" xlink:title="BaseConstant" target="_top">
<polygon fill="#ffffff" stroke="#000000" stroke-width=".5" points="373.5,-37 266.5,-37 266.5,-18 373.5,-18 373.5,-37"/>
<text text-anchor="middle" x="320" y="-25" font-family="Vera Sans, DejaVu Sans, Liberation Sans, Arial, Helvetica, sans" font-size="10.00" fill="#000000">BaseConstant</text>
</a>
</g>
</g>
<!-- Constant -->
<g id="node3" class="node">
<title>Constant</title>
<g id="a_node3"><a xlink:href="../pyVHDLModel/pyVHDLModel.VHDLModel.html#pyVHDLModel.VHDLModel.Constant" xlink:title="Constant" target="_top">
<polygon fill="#ffffff" stroke="#000000" stroke-width=".5" points="565,-74 488,-74 488,-55 565,-55 565,-74"/>
<text text-anchor="middle" x="526.5" y="-62" font-family="Vera Sans, DejaVu Sans, Liberation Sans, Arial, Helvetica, sans" font-size="10.00" fill="#000000">Constant</text>
</a>
</g>
</g>
<!-- BaseConstant&#45;&gt;Constant -->
<g id="edge2" class="edge">
<title>BaseConstant&#45;&gt;Constant</title>
<path fill="none" stroke="#000000" stroke-width=".5" d="M373.1789,-37.0284C407.2086,-43.1258 450.8131,-50.9387 482.815,-56.6727"/>
<polygon fill="#000000" stroke="#000000" stroke-width=".5" points="482.6179,-58.4151 487.8482,-57.5745 483.2353,-54.97 482.6179,-58.4151"/>
</g>
<!-- Object -->
<g id="node2" class="node">
<title>Object</title>
<g id="a_node2"><a xlink:href="../pyVHDLModel/pyVHDLModel.VHDLModel.html#pyVHDLModel.VHDLModel.Object" xlink:title="Object" target="_top">
<polygon fill="#ffffff" stroke="#000000" stroke-width=".5" points="197,-37 135,-37 135,-18 197,-18 197,-37"/>
<text text-anchor="middle" x="166" y="-25" font-family="Vera Sans, DejaVu Sans, Liberation Sans, Arial, Helvetica, sans" font-size="10.00" fill="#000000">Object</text>
</a>
</g>
</g>
<!-- Object&#45;&gt;BaseConstant -->
<g id="edge1" class="edge">
<title>Object&#45;&gt;BaseConstant</title>
<path fill="none" stroke="#000000" stroke-width=".5" d="M197.1642,-27.5C215.5529,-27.5 239.4252,-27.5 261.2287,-27.5"/>
<polygon fill="#000000" stroke="#000000" stroke-width=".5" points="261.4288,-29.2501 266.4287,-27.5 261.4287,-25.7501 261.4288,-29.2501"/>
</g>
<!-- GenericConstantInterfaceItem -->
<g id="node5" class="node">
<title>GenericConstantInterfaceItem</title>
<g id="a_node5"><a xlink:href="../pyVHDLModel/pyVHDLModel.VHDLModel.html#pyVHDLModel.VHDLModel.GenericConstantInterfaceItem" xlink:title="GenericConstantInterfaceItem" target="_top">
<polygon fill="#ffffff" stroke="#000000" stroke-width=".5" points="873,-92 646,-92 646,-73 873,-73 873,-92"/>
<text text-anchor="middle" x="759.5" y="-80" font-family="Vera Sans, DejaVu Sans, Liberation Sans, Arial, Helvetica, sans" font-size="10.00" fill="#000000">GenericConstantInterfaceItem</text>
</a>
</g>
</g>
<!-- Constant&#45;&gt;GenericConstantInterfaceItem -->
<g id="edge4" class="edge">
<title>Constant&#45;&gt;GenericConstantInterfaceItem</title>
<path fill="none" stroke="#000000" stroke-width=".5" d="M565.2368,-67.4925C586.2509,-69.1159 613.4774,-71.2193 640.8616,-73.3348"/>
<polygon fill="#000000" stroke="#000000" stroke-width=".5" points="640.8552,-75.0894 645.9752,-73.7298 641.1248,-71.5998 640.8552,-75.0894"/>
</g>
<!-- WithDefaultExpression -->
<g id="node4" class="node">
<title>WithDefaultExpression</title>
<g id="a_node4"><a xlink:href="../pyVHDLModel/pyVHDLModel.VHDLModel.html#pyVHDLModel.VHDLModel.WithDefaultExpression" xlink:title="A ``WithDefaultExpression`` is a mixin class for all objects declarations" target="_top">
<polygon fill="#ffffff" stroke="#000000" stroke-width=".5" points="407,-74 233,-74 233,-55 407,-55 407,-74"/>
<text text-anchor="middle" x="320" y="-62" font-family="Vera Sans, DejaVu Sans, Liberation Sans, Arial, Helvetica, sans" font-size="10.00" fill="#000000">WithDefaultExpression</text>
</a>
</g>
</g>
<!-- WithDefaultExpression&#45;&gt;Constant -->
<g id="edge3" class="edge">
<title>WithDefaultExpression&#45;&gt;Constant</title>
<path fill="none" stroke="#000000" stroke-width=".5" d="M407.2753,-64.5C433.2612,-64.5 460.6307,-64.5 482.5832,-64.5"/>
<polygon fill="#000000" stroke="#000000" stroke-width=".5" points="482.7551,-66.2501 487.755,-64.5 482.755,-62.7501 482.7551,-66.2501"/>
</g>
<!-- GenericInterfaceItem -->
<g id="node6" class="node">
<title>GenericInterfaceItem</title>
<g id="a_node6"><a xlink:href="../pyVHDLModel/pyVHDLModel.VHDLModel.html#pyVHDLModel.VHDLModel.GenericInterfaceItem" xlink:title="A ``GenericInterfaceItem`` is a mixin class for all generic interface items." target="_top">
<polygon fill="#ffffff" stroke="#000000" stroke-width=".5" points="610,-111 443,-111 443,-92 610,-92 610,-111"/>
<text text-anchor="middle" x="526.5" y="-99" font-family="Vera Sans, DejaVu Sans, Liberation Sans, Arial, Helvetica, sans" font-size="10.00" fill="#000000">GenericInterfaceItem</text>
</a>
</g>
</g>
<!-- GenericInterfaceItem&#45;&gt;GenericConstantInterfaceItem -->
<g id="edge5" class="edge">
<title>GenericInterfaceItem&#45;&gt;GenericConstantInterfaceItem</title>
<path fill="none" stroke="#000000" stroke-width=".5" d="M610.2892,-94.6674C620.1557,-93.8628 630.3628,-93.0305 640.5947,-92.1961"/>
<polygon fill="#000000" stroke="#000000" stroke-width=".5" points="640.7771,-93.9372 645.6183,-91.7865 640.4926,-90.4487 640.7771,-93.9372"/>
</g>
<!-- InterfaceItem -->
<g id="node7" class="node">
<title>InterfaceItem</title>
<g id="a_node7"><a xlink:href="../pyVHDLModel/pyVHDLModel.VHDLModel.html#pyVHDLModel.VHDLModel.InterfaceItem" xlink:title="An ``InterfaceItem`` is a base&#45;class for all mixin&#45;classes for all interface" target="_top">
<polygon fill="#ffffff" stroke="#000000" stroke-width=".5" points="377,-111 263,-111 263,-92 377,-92 377,-111"/>
<text text-anchor="middle" x="320" y="-99" font-family="Vera Sans, DejaVu Sans, Liberation Sans, Arial, Helvetica, sans" font-size="10.00" fill="#000000">InterfaceItem</text>
</a>
</g>
</g>
<!-- InterfaceItem&#45;&gt;GenericInterfaceItem -->
<g id="edge6" class="edge">
<title>InterfaceItem&#45;&gt;GenericInterfaceItem</title>
<path fill="none" stroke="#000000" stroke-width=".5" d="M377.2475,-101.5C395.9536,-101.5 417.1918,-101.5 437.6596,-101.5"/>
<polygon fill="#000000" stroke="#000000" stroke-width=".5" points="437.8446,-103.2501 442.8446,-101.5 437.8446,-99.7501 437.8446,-103.2501"/>
</g>
<!-- ModelEntity -->
<g id="node8" class="node">
<title>ModelEntity</title>
<g id="a_node8"><a xlink:href="../pyVHDLModel/pyVHDLModel.VHDLModel.html#pyVHDLModel.VHDLModel.ModelEntity" xlink:title="``ModelEntity`` is a base class for all classes in the VHDL language model," target="_top">
<polygon fill="#ffffff" stroke="#000000" stroke-width=".5" points="99,-56 0,-56 0,-37 99,-37 99,-56"/>
<text text-anchor="middle" x="49.5" y="-44" font-family="Vera Sans, DejaVu Sans, Liberation Sans, Arial, Helvetica, sans" font-size="10.00" fill="#000000">ModelEntity</text>
</a>
</g>
</g>
<!-- ModelEntity&#45;&gt;Object -->
<g id="edge7" class="edge">
<title>ModelEntity&#45;&gt;Object</title>
<path fill="none" stroke="#000000" stroke-width=".5" d="M99.2444,-38.3872C109.5666,-36.7037 120.253,-34.9609 129.9692,-33.3763"/>
<polygon fill="#000000" stroke="#000000" stroke-width=".5" points="130.3016,-35.0953 134.9547,-32.5632 129.7382,-31.6409 130.3016,-35.0953"/>
</g>
<!-- NamedEntity -->
<g id="node9" class="node">
<title>NamedEntity</title>
<g id="a_node9"><a xlink:href="../pyVHDLModel/pyVHDLModel.VHDLModel.html#pyVHDLModel.VHDLModel.NamedEntity" xlink:title="A ``NamedEntity`` is a mixin class for all VHDL entities that have names." target="_top">
<polygon fill="#ffffff" stroke="#000000" stroke-width=".5" points="99,-19 0,-19 0,0 99,0 99,-19"/>
<text text-anchor="middle" x="49.5" y="-7" font-family="Vera Sans, DejaVu Sans, Liberation Sans, Arial, Helvetica, sans" font-size="10.00" fill="#000000">NamedEntity</text>
</a>
</g>
</g>
<!-- NamedEntity&#45;&gt;Object -->
<g id="edge8" class="edge">
<title>NamedEntity&#45;&gt;Object</title>
<path fill="none" stroke="#000000" stroke-width=".5" d="M99.2444,-17.1858C109.5666,-18.7807 120.253,-20.4318 129.9692,-21.933"/>
<polygon fill="#000000" stroke="#000000" stroke-width=".5" points="129.7461,-23.6692 134.9547,-22.7033 130.2806,-20.2103 129.7461,-23.6692"/>
</g>
</g>
</svg>
