<?xml version="1.0" encoding="UTF-8" standalone="no"?>
<!DOCTYPE svg PUBLIC "-//W3C//DTD SVG 1.1//EN"
 "http://www.w3.org/Graphics/SVG/1.1/DTD/svg11.dtd">
<!-- Generated by graphviz version 2.40.1 (0)
 -->
<!-- Title: inheritance1f127dc6a2 Pages: 1 -->
<svg width="576pt" height="137pt"
 viewBox="0.00 0.00 576.00 137.18" xmlns="http://www.w3.org/2000/svg" xmlns:xlink="http://www.w3.org/1999/xlink">
<g id="graph0" class="graph" transform="scale(.8794 .8794) rotate(0) translate(4 152)">
<title>inheritance1f127dc6a2</title>
<!-- AddingExpression -->
<g id="node1" class="node">
<title>AddingExpression</title>
<g id="a_node1"><a xlink:href="../../pyVHDLModel/pyVHDLModel.VHDLModel.html#pyVHDLModel.VHDLModel.AddingExpression" xlink:title="A ``AddingExpression`` is a base&#45;class for all adding expressions." target="_top">
<polygon fill="#ffffff" stroke="#000000" stroke-width=".5" points="628.5,-148 491.5,-148 491.5,-129 628.5,-129 628.5,-148"/>
<text text-anchor="middle" x="560" y="-136" font-family="Vera Sans, DejaVu Sans, Liberation Sans, Arial, Helvetica, sans" font-size="10.00" fill="#000000">AddingExpression</text>
</a>
</g>
</g>
<!-- BinaryExpression -->
<g id="node2" class="node">
<title>BinaryExpression</title>
<g id="a_node2"><a xlink:href="../../pyVHDLModel/pyVHDLModel.VHDLModel.html#pyVHDLModel.VHDLModel.BinaryExpression" xlink:title="A ``BinaryExpression`` is a base&#45;class for all binary expressions." target="_top">
<polygon fill="#ffffff" stroke="#000000" stroke-width=".5" points="433.5,-93 296.5,-93 296.5,-74 433.5,-74 433.5,-93"/>
<text text-anchor="middle" x="365" y="-81" font-family="Vera Sans, DejaVu Sans, Liberation Sans, Arial, Helvetica, sans" font-size="10.00" fill="#000000">BinaryExpression</text>
</a>
</g>
</g>
<!-- BinaryExpression&#45;&gt;AddingExpression -->
<g id="edge1" class="edge">
<title>BinaryExpression&#45;&gt;AddingExpression</title>
<path fill="none" stroke="#000000" stroke-width=".5" d="M390.0331,-93.0817C411.745,-101.1489 444.1328,-112.6027 473,-120.5 482.7168,-123.1583 493.1383,-125.6317 503.2726,-127.8417"/>
<polygon fill="#000000" stroke="#000000" stroke-width=".5" points="502.9641,-129.5653 508.2202,-128.9051 503.6996,-126.1434 502.9641,-129.5653"/>
</g>
<!-- LogicalExpression -->
<g id="node5" class="node">
<title>LogicalExpression</title>
<g id="a_node5"><a xlink:href="../../pyVHDLModel/pyVHDLModel.VHDLModel.html#pyVHDLModel.VHDLModel.LogicalExpression" xlink:title="A ``LogicalExpression`` is a base&#45;class for all logical expressions." target="_top">
<polygon fill="#ffffff" stroke="#000000" stroke-width=".5" points="632,-111 488,-111 488,-92 632,-92 632,-111"/>
<text text-anchor="middle" x="560" y="-99" font-family="Vera Sans, DejaVu Sans, Liberation Sans, Arial, Helvetica, sans" font-size="10.00" fill="#000000">LogicalExpression</text>
</a>
</g>
</g>
<!-- BinaryExpression&#45;&gt;LogicalExpression -->
<g id="edge4" class="edge">
<title>BinaryExpression&#45;&gt;LogicalExpression</title>
<path fill="none" stroke="#000000" stroke-width=".5" d="M433.7497,-89.8461C449.6492,-91.3138 466.6689,-92.8848 482.8991,-94.383"/>
<polygon fill="#000000" stroke="#000000" stroke-width=".5" points="482.7689,-96.1283 487.9086,-94.8454 483.0907,-92.6431 482.7689,-96.1283"/>
</g>
<!-- MultiplyingExpression -->
<g id="node6" class="node">
<title>MultiplyingExpression</title>
<g id="a_node6"><a xlink:href="../../pyVHDLModel/pyVHDLModel.VHDLModel.html#pyVHDLModel.VHDLModel.MultiplyingExpression" xlink:title="A ``MultiplyingExpression`` is a base&#45;class for all multiplying expressions." target="_top">
<polygon fill="#ffffff" stroke="#000000" stroke-width=".5" points="647,-74 473,-74 473,-55 647,-55 647,-74"/>
<text text-anchor="middle" x="560" y="-62" font-family="Vera Sans, DejaVu Sans, Liberation Sans, Arial, Helvetica, sans" font-size="10.00" fill="#000000">MultiplyingExpression</text>
</a>
</g>
</g>
<!-- BinaryExpression&#45;&gt;MultiplyingExpression -->
<g id="edge5" class="edge">
<title>BinaryExpression&#45;&gt;MultiplyingExpression</title>
<path fill="none" stroke="#000000" stroke-width=".5" d="M433.7497,-76.8013C444.6849,-75.7358 456.15,-74.6187 467.5236,-73.5105"/>
<polygon fill="#000000" stroke="#000000" stroke-width=".5" points="467.934,-75.2289 472.7407,-73.0022 467.5945,-71.7454 467.934,-75.2289"/>
</g>
<!-- ShiftExpression -->
<g id="node7" class="node">
<title>ShiftExpression</title>
<g id="a_node7"><a xlink:href="../../pyVHDLModel/pyVHDLModel.VHDLModel.html#pyVHDLModel.VHDLModel.ShiftExpression" xlink:title="A ``ShiftExpression`` is a base&#45;class for all shifting expressions." target="_top">
<polygon fill="#ffffff" stroke="#000000" stroke-width=".5" points="624.5,-37 495.5,-37 495.5,-18 624.5,-18 624.5,-37"/>
<text text-anchor="middle" x="560" y="-25" font-family="Vera Sans, DejaVu Sans, Liberation Sans, Arial, Helvetica, sans" font-size="10.00" fill="#000000">ShiftExpression</text>
</a>
</g>
</g>
<!-- BinaryExpression&#45;&gt;ShiftExpression -->
<g id="edge6" class="edge">
<title>BinaryExpression&#45;&gt;ShiftExpression</title>
<path fill="none" stroke="#000000" stroke-width=".5" d="M410.8908,-73.9444C419.6886,-71.5775 428.7308,-68.7649 437,-65.5 454.0244,-58.7783 455.8415,-51.8716 473,-45.5 480.424,-42.7432 488.3696,-40.3681 496.3289,-38.3326"/>
<polygon fill="#000000" stroke="#000000" stroke-width=".5" points="496.8478,-40.0071 501.282,-37.1087 496.0082,-36.6093 496.8478,-40.0071"/>
</g>
<!-- BaseExpression -->
<g id="node3" class="node">
<title>BaseExpression</title>
<g id="a_node3"><a xlink:href="../../pyVHDLModel/pyVHDLModel.VHDLModel.html#pyVHDLModel.VHDLModel.BaseExpression" xlink:title="A ``BaseExpression`` is a base&#45;class for all expressions." target="_top">
<polygon fill="#ffffff" stroke="#000000" stroke-width=".5" points="257,-56 135,-56 135,-37 257,-37 257,-56"/>
<text text-anchor="middle" x="196" y="-44" font-family="Vera Sans, DejaVu Sans, Liberation Sans, Arial, Helvetica, sans" font-size="10.00" fill="#000000">BaseExpression</text>
</a>
</g>
</g>
<!-- BaseExpression&#45;&gt;BinaryExpression -->
<g id="edge3" class="edge">
<title>BaseExpression&#45;&gt;BinaryExpression</title>
<path fill="none" stroke="#000000" stroke-width=".5" d="M239.5217,-56.0284C262.9872,-61.1658 292.0155,-67.5211 316.2398,-72.8247"/>
<polygon fill="#000000" stroke="#000000" stroke-width=".5" points="316.0738,-74.5797 321.3324,-73.9396 316.8224,-71.1607 316.0738,-74.5797"/>
</g>
<!-- TernaryExpression -->
<g id="node8" class="node">
<title>TernaryExpression</title>
<g id="a_node8"><a xlink:href="../../pyVHDLModel/pyVHDLModel.VHDLModel.html#pyVHDLModel.VHDLModel.TernaryExpression" xlink:title="A ``TernaryExpression`` is a base&#45;class for all ternary expressions." target="_top">
<polygon fill="#ffffff" stroke="#000000" stroke-width=".5" points="437,-56 293,-56 293,-37 437,-37 437,-56"/>
<text text-anchor="middle" x="365" y="-44" font-family="Vera Sans, DejaVu Sans, Liberation Sans, Arial, Helvetica, sans" font-size="10.00" fill="#000000">TernaryExpression</text>
</a>
</g>
</g>
<!-- BaseExpression&#45;&gt;TernaryExpression -->
<g id="edge7" class="edge">
<title>BaseExpression&#45;&gt;TernaryExpression</title>
<path fill="none" stroke="#000000" stroke-width=".5" d="M257.0129,-46.5C267.0068,-46.5 277.4768,-46.5 287.8004,-46.5"/>
<polygon fill="#000000" stroke="#000000" stroke-width=".5" points="287.8539,-48.2501 292.8539,-46.5 287.8539,-44.7501 287.8539,-48.2501"/>
</g>
<!-- UnaryExpression -->
<g id="node9" class="node">
<title>UnaryExpression</title>
<g id="a_node9"><a xlink:href="../../pyVHDLModel/pyVHDLModel.VHDLModel.html#pyVHDLModel.VHDLModel.UnaryExpression" xlink:title="A ``UnaryExpression`` is a base&#45;class for all unary expressions." target="_top">
<polygon fill="#ffffff" stroke="#000000" stroke-width=".5" points="429.5,-19 300.5,-19 300.5,0 429.5,0 429.5,-19"/>
<text text-anchor="middle" x="365" y="-7" font-family="Vera Sans, DejaVu Sans, Liberation Sans, Arial, Helvetica, sans" font-size="10.00" fill="#000000">UnaryExpression</text>
</a>
</g>
</g>
<!-- BaseExpression&#45;&gt;UnaryExpression -->
<g id="edge8" class="edge">
<title>BaseExpression&#45;&gt;UnaryExpression</title>
<path fill="none" stroke="#000000" stroke-width=".5" d="M239.5217,-36.9716C262.9872,-31.8342 292.0155,-25.4789 316.2398,-20.1753"/>
<polygon fill="#000000" stroke="#000000" stroke-width=".5" points="316.8224,-21.8393 321.3324,-19.0604 316.0738,-18.4203 316.8224,-21.8393"/>
</g>
<!-- ModelEntity -->
<g id="node4" class="node">
<title>ModelEntity</title>
<g id="a_node4"><a xlink:href="../../pyVHDLModel/pyVHDLModel.VHDLModel.html#pyVHDLModel.VHDLModel.ModelEntity" xlink:title="``ModelEntity`` is a base class for all classes in the VHDL language model," target="_top">
<polygon fill="#ffffff" stroke="#000000" stroke-width=".5" points="99,-56 0,-56 0,-37 99,-37 99,-56"/>
<text text-anchor="middle" x="49.5" y="-44" font-family="Vera Sans, DejaVu Sans, Liberation Sans, Arial, Helvetica, sans" font-size="10.00" fill="#000000">ModelEntity</text>
</a>
</g>
</g>
<!-- ModelEntity&#45;&gt;BaseExpression -->
<g id="edge2" class="edge">
<title>ModelEntity&#45;&gt;BaseExpression</title>
<path fill="none" stroke="#000000" stroke-width=".5" d="M99.0982,-46.5C108.9426,-46.5 119.4255,-46.5 129.7228,-46.5"/>
<polygon fill="#000000" stroke="#000000" stroke-width=".5" points="129.7594,-48.2501 134.7594,-46.5 129.7594,-44.7501 129.7594,-48.2501"/>
</g>
</g>
</svg>
