<?xml version="1.0" encoding="UTF-8" standalone="no"?>
<!DOCTYPE svg PUBLIC "-//W3C//DTD SVG 1.1//EN"
 "http://www.w3.org/Graphics/SVG/1.1/DTD/svg11.dtd">
<!-- Generated by graphviz version 2.40.1 (0)
 -->
<!-- Title: inheritance9dc624da0c Pages: 1 -->
<svg width="370pt" height="27pt"
 viewBox="0.00 0.00 370.00 27.00" xmlns="http://www.w3.org/2000/svg" xmlns:xlink="http://www.w3.org/1999/xlink">
<g id="graph0" class="graph" transform="scale(1 1) rotate(0) translate(4 23)">
<title>inheritance9dc624da0c</title>
<!-- ModelEntity -->
<g id="node1" class="node">
<title>ModelEntity</title>
<g id="a_node1"><a xlink:href="../pyVHDLModel/pyVHDLModel.VHDLModel.html#pyVHDLModel.VHDLModel.ModelEntity" xlink:title="``ModelEntity`` is a base class for all classes in the VHDL language model," target="_top">
<polygon fill="#ffffff" stroke="#000000" stroke-width=".5" points="99,-19 0,-19 0,0 99,0 99,-19"/>
<text text-anchor="middle" x="49.5" y="-7" font-family="Vera Sans, DejaVu Sans, Liberation Sans, Arial, Helvetica, sans" font-size="10.00" fill="#000000">ModelEntity</text>
</a>
</g>
</g>
<!-- Reference -->
<g id="node2" class="node">
<title>Reference</title>
<g id="a_node2"><a xlink:href="../pyVHDLModel/pyVHDLModel.VHDLModel.html#pyVHDLModel.VHDLModel.Reference" xlink:title="Reference" target="_top">
<polygon fill="#ffffff" stroke="#000000" stroke-width=".5" points="219,-19 135,-19 135,0 219,0 219,-19"/>
<text text-anchor="middle" x="177" y="-7" font-family="Vera Sans, DejaVu Sans, Liberation Sans, Arial, Helvetica, sans" font-size="10.00" fill="#000000">Reference</text>
</a>
</g>
</g>
<!-- ModelEntity&#45;&gt;Reference -->
<g id="edge1" class="edge">
<title>ModelEntity&#45;&gt;Reference</title>
<path fill="none" stroke="#000000" stroke-width=".5" d="M99.1599,-9.5C109.1631,-9.5 119.6535,-9.5 129.5778,-9.5"/>
<polygon fill="#000000" stroke="#000000" stroke-width=".5" points="129.7104,-11.2501 134.7104,-9.5 129.7103,-7.7501 129.7104,-11.2501"/>
</g>
<!-- UseStatement -->
<g id="node3" class="node">
<title>UseStatement</title>
<g id="a_node3"><a xlink:href="../pyVHDLModel/pyVHDLModel.VHDLModel.html#pyVHDLModel.VHDLModel.UseStatement" xlink:title="UseStatement" target="_top">
<polygon fill="#ffffff" stroke="#000000" stroke-width=".5" points="362,-19 255,-19 255,0 362,0 362,-19"/>
<text text-anchor="middle" x="308.5" y="-7" font-family="Vera Sans, DejaVu Sans, Liberation Sans, Arial, Helvetica, sans" font-size="10.00" fill="#000000">UseStatement</text>
</a>
</g>
</g>
<!-- Reference&#45;&gt;UseStatement -->
<g id="edge2" class="edge">
<title>Reference&#45;&gt;UseStatement</title>
<path fill="none" stroke="#000000" stroke-width=".5" d="M219.3313,-9.5C228.9217,-9.5 239.2769,-9.5 249.4182,-9.5"/>
<polygon fill="#000000" stroke="#000000" stroke-width=".5" points="249.6968,-11.2501 254.6968,-9.5 249.6967,-7.7501 249.6968,-11.2501"/>
</g>
</g>
</svg>
