<?xml version="1.0" encoding="UTF-8" standalone="no"?>
<!DOCTYPE svg PUBLIC "-//W3C//DTD SVG 1.1//EN"
 "http://www.w3.org/Graphics/SVG/1.1/DTD/svg11.dtd">
<!-- Generated by graphviz version 2.40.1 (0)
 -->
<!-- Title: inheritance46c0dfd6ec Pages: 1 -->
<svg width="576pt" height="70pt"
 viewBox="0.00 0.00 576.00 69.79" xmlns="http://www.w3.org/2000/svg" xmlns:xlink="http://www.w3.org/1999/xlink">
<g id="graph0" class="graph" transform="scale(.8409 .8409) rotate(0) translate(4 79)">
<title>inheritance46c0dfd6ec</title>
<!-- LabeledEntity -->
<g id="node1" class="node">
<title>LabeledEntity</title>
<g id="a_node1"><a xlink:href="../pyVHDLModel/pyVHDLModel.VHDLModel.html#pyVHDLModel.VHDLModel.LabeledEntity" xlink:title="A ``LabeledEntity`` is a mixin class for all VHDL entities that can have" target="_top">
<polygon fill="#ffffff" stroke="#000000" stroke-width=".5" points="114,-75 0,-75 0,-56 114,-56 114,-75"/>
<text text-anchor="middle" x="57" y="-63" font-family="Vera Sans, DejaVu Sans, Liberation Sans, Arial, Helvetica, sans" font-size="10.00" fill="#000000">LabeledEntity</text>
</a>
</g>
</g>
<!-- Statement -->
<g id="node6" class="node">
<title>Statement</title>
<g id="a_node6"><a xlink:href="../pyVHDLModel/pyVHDLModel.VHDLModel.html#pyVHDLModel.VHDLModel.Statement" xlink:title="Statement" target="_top">
<polygon fill="#ffffff" stroke="#000000" stroke-width=".5" points="234,-56 150,-56 150,-37 234,-37 234,-56"/>
<text text-anchor="middle" x="192" y="-44" font-family="Vera Sans, DejaVu Sans, Liberation Sans, Arial, Helvetica, sans" font-size="10.00" fill="#000000">Statement</text>
</a>
</g>
</g>
<!-- LabeledEntity&#45;&gt;Statement -->
<g id="edge5" class="edge">
<title>LabeledEntity&#45;&gt;Statement</title>
<path fill="none" stroke="#000000" stroke-width=".5" d="M114.2522,-57.4423C124.4108,-56.0126 134.8864,-54.5382 144.7297,-53.1529"/>
<polygon fill="#000000" stroke="#000000" stroke-width=".5" points="145.1072,-54.8671 149.8145,-52.4372 144.6193,-51.4012 145.1072,-54.8671"/>
</g>
<!-- MixinReportStatement -->
<g id="node2" class="node">
<title>MixinReportStatement</title>
<g id="a_node2"><a xlink:href="../pyVHDLModel/pyVHDLModel.VHDLModel.html#pyVHDLModel.VHDLModel.MixinReportStatement" xlink:title="A ``MixinReportStatement`` is a mixin&#45;class for all report and assert statements." target="_top">
<polygon fill="#ffffff" stroke="#000000" stroke-width=".5" points="437,-19 270,-19 270,0 437,0 437,-19"/>
<text text-anchor="middle" x="353.5" y="-7" font-family="Vera Sans, DejaVu Sans, Liberation Sans, Arial, Helvetica, sans" font-size="10.00" fill="#000000">MixinReportStatement</text>
</a>
</g>
</g>
<!-- SequentialReportStatement -->
<g id="node4" class="node">
<title>SequentialReportStatement</title>
<g id="a_node4"><a xlink:href="../pyVHDLModel/pyVHDLModel.VHDLModel.html#pyVHDLModel.VHDLModel.SequentialReportStatement" xlink:title="SequentialReportStatement" target="_top">
<polygon fill="#ffffff" stroke="#000000" stroke-width=".5" points="677,-37 473,-37 473,-18 677,-18 677,-37"/>
<text text-anchor="middle" x="575" y="-25" font-family="Vera Sans, DejaVu Sans, Liberation Sans, Arial, Helvetica, sans" font-size="10.00" fill="#000000">SequentialReportStatement</text>
</a>
</g>
</g>
<!-- MixinReportStatement&#45;&gt;SequentialReportStatement -->
<g id="edge2" class="edge">
<title>MixinReportStatement&#45;&gt;SequentialReportStatement</title>
<path fill="none" stroke="#000000" stroke-width=".5" d="M437.2397,-16.305C447.2414,-17.1178 457.5562,-17.956 467.8298,-18.7909"/>
<polygon fill="#000000" stroke="#000000" stroke-width=".5" points="467.743,-20.5395 472.8684,-19.2004 468.0266,-17.051 467.743,-20.5395"/>
</g>
<!-- ModelEntity -->
<g id="node3" class="node">
<title>ModelEntity</title>
<g id="a_node3"><a xlink:href="../pyVHDLModel/pyVHDLModel.VHDLModel.html#pyVHDLModel.VHDLModel.ModelEntity" xlink:title="``ModelEntity`` is a base class for all classes in the VHDL language model," target="_top">
<polygon fill="#ffffff" stroke="#000000" stroke-width=".5" points="106.5,-38 7.5,-38 7.5,-19 106.5,-19 106.5,-38"/>
<text text-anchor="middle" x="57" y="-26" font-family="Vera Sans, DejaVu Sans, Liberation Sans, Arial, Helvetica, sans" font-size="10.00" fill="#000000">ModelEntity</text>
</a>
</g>
</g>
<!-- ModelEntity&#45;&gt;Statement -->
<g id="edge4" class="edge">
<title>ModelEntity&#45;&gt;Statement</title>
<path fill="none" stroke="#000000" stroke-width=".5" d="M106.5024,-35.1003C118.8814,-36.7508 132.1315,-38.5175 144.4152,-40.1554"/>
<polygon fill="#000000" stroke="#000000" stroke-width=".5" points="144.4276,-41.9224 149.6151,-40.8487 144.8903,-38.4531 144.4276,-41.9224"/>
</g>
<!-- SequentialStatement -->
<g id="node5" class="node">
<title>SequentialStatement</title>
<g id="a_node5"><a xlink:href="../pyVHDLModel/pyVHDLModel.VHDLModel.html#pyVHDLModel.VHDLModel.SequentialStatement" xlink:title="A ``SequentialStatement`` is a base&#45;class for all sequential statements." target="_top">
<polygon fill="#ffffff" stroke="#000000" stroke-width=".5" points="433,-56 274,-56 274,-37 433,-37 433,-56"/>
<text text-anchor="middle" x="353.5" y="-44" font-family="Vera Sans, DejaVu Sans, Liberation Sans, Arial, Helvetica, sans" font-size="10.00" fill="#000000">SequentialStatement</text>
</a>
</g>
</g>
<!-- SequentialStatement&#45;&gt;SequentialReportStatement -->
<g id="edge1" class="edge">
<title>SequentialStatement&#45;&gt;SequentialReportStatement</title>
<path fill="none" stroke="#000000" stroke-width=".5" d="M433.1536,-39.6674C444.4401,-38.6993 456.1954,-37.6909 467.8965,-36.6872"/>
<polygon fill="#000000" stroke="#000000" stroke-width=".5" points="468.0742,-38.4285 472.9063,-36.2575 467.775,-34.9413 468.0742,-38.4285"/>
</g>
<!-- Statement&#45;&gt;SequentialStatement -->
<g id="edge3" class="edge">
<title>Statement&#45;&gt;SequentialStatement</title>
<path fill="none" stroke="#000000" stroke-width=".5" d="M234.0106,-46.5C244.7235,-46.5 256.6286,-46.5 268.6551,-46.5"/>
<polygon fill="#000000" stroke="#000000" stroke-width=".5" points="268.8137,-48.2501 273.8136,-46.5 268.8136,-44.7501 268.8137,-48.2501"/>
</g>
</g>
</svg>
