<?xml version="1.0" encoding="UTF-8" standalone="no"?>
<!DOCTYPE svg PUBLIC "-//W3C//DTD SVG 1.1//EN"
 "http://www.w3.org/Graphics/SVG/1.1/DTD/svg11.dtd">
<!-- Generated by graphviz version 2.40.1 (0)
 -->
<!-- Title: inheritance7399bbc9ac Pages: 1 -->
<svg width="576pt" height="204pt"
 viewBox="0.00 0.00 576.00 203.56" xmlns="http://www.w3.org/2000/svg" xmlns:xlink="http://www.w3.org/1999/xlink">
<g id="graph0" class="graph" transform="scale(.5102 .5102) rotate(0) translate(4 395)">
<title>inheritance7399bbc9ac</title>
<!-- Assignment -->
<g id="node1" class="node">
<title>Assignment</title>
<g id="a_node1"><a xlink:href="../../pyVHDLModel/pyVHDLModel.VHDLModel.html#pyVHDLModel.VHDLModel.Assignment" xlink:title="An ``Assignment`` is a base&#45;class for all assignment statements." target="_top">
<polygon fill="#ffffff" stroke="#000000" stroke-width=".5" points="279.5,-372 187.5,-372 187.5,-353 279.5,-353 279.5,-372"/>
<text text-anchor="middle" x="233.5" y="-360" font-family="Vera Sans, DejaVu Sans, Liberation Sans, Arial, Helvetica, sans" font-size="10.00" fill="#000000">Assignment</text>
</a>
</g>
</g>
<!-- SignalAssignment -->
<g id="node24" class="node">
<title>SignalAssignment</title>
<g id="a_node24"><a xlink:href="../../pyVHDLModel/pyVHDLModel.VHDLModel.html#pyVHDLModel.VHDLModel.SignalAssignment" xlink:title="An ``SignalAssignment`` is a base&#45;class for all signal assignment statements." target="_top">
<polygon fill="#ffffff" stroke="#000000" stroke-width=".5" points="505,-354 368,-354 368,-335 505,-335 505,-354"/>
<text text-anchor="middle" x="436.5" y="-342" font-family="Vera Sans, DejaVu Sans, Liberation Sans, Arial, Helvetica, sans" font-size="10.00" fill="#000000">SignalAssignment</text>
</a>
</g>
</g>
<!-- Assignment&#45;&gt;SignalAssignment -->
<g id="edge24" class="edge">
<title>Assignment&#45;&gt;SignalAssignment</title>
<path fill="none" stroke="#000000" stroke-width=".5" d="M279.5638,-358.4155C304.1218,-356.238 334.9253,-353.5066 362.7239,-351.0417"/>
<polygon fill="#000000" stroke="#000000" stroke-width=".5" points="363.0515,-352.7696 367.8774,-350.5848 362.7424,-349.2833 363.0515,-352.7696"/>
</g>
<!-- VariableAssignment -->
<g id="node26" class="node">
<title>VariableAssignment</title>
<g id="a_node26"><a xlink:href="../../pyVHDLModel/pyVHDLModel.VHDLModel.html#pyVHDLModel.VHDLModel.VariableAssignment" xlink:title="An ``VariableAssignment`` is a base&#45;class for all variable assignment statements." target="_top">
<polygon fill="#ffffff" stroke="#000000" stroke-width=".5" points="512.5,-391 360.5,-391 360.5,-372 512.5,-372 512.5,-391"/>
<text text-anchor="middle" x="436.5" y="-379" font-family="Vera Sans, DejaVu Sans, Liberation Sans, Arial, Helvetica, sans" font-size="10.00" fill="#000000">VariableAssignment</text>
</a>
</g>
</g>
<!-- Assignment&#45;&gt;VariableAssignment -->
<g id="edge27" class="edge">
<title>Assignment&#45;&gt;VariableAssignment</title>
<path fill="none" stroke="#000000" stroke-width=".5" d="M279.5638,-366.8114C301.9362,-368.9054 329.4919,-371.4845 355.237,-373.8941"/>
<polygon fill="#000000" stroke="#000000" stroke-width=".5" points="355.2185,-375.6499 360.3598,-374.3736 355.5447,-372.1652 355.2185,-375.6499"/>
</g>
<!-- CaseStatement -->
<g id="node2" class="node">
<title>CaseStatement</title>
<g id="a_node2"><a xlink:href="../../pyVHDLModel/pyVHDLModel.VHDLModel.html#pyVHDLModel.VHDLModel.CaseStatement" xlink:title="CaseStatement" target="_top">
<polygon fill="#ffffff" stroke="#000000" stroke-width=".5" points="918,-130 804,-130 804,-111 918,-111 918,-130"/>
<text text-anchor="middle" x="861" y="-118" font-family="Vera Sans, DejaVu Sans, Liberation Sans, Arial, Helvetica, sans" font-size="10.00" fill="#000000">CaseStatement</text>
</a>
</g>
</g>
<!-- CompoundStatement -->
<g id="node3" class="node">
<title>CompoundStatement</title>
<g id="a_node3"><a xlink:href="../../pyVHDLModel/pyVHDLModel.VHDLModel.html#pyVHDLModel.VHDLModel.CompoundStatement" xlink:title="A ``CompoundStatement`` is a base&#45;class for all compound statements." target="_top">
<polygon fill="#ffffff" stroke="#000000" stroke-width=".5" points="734,-130 590,-130 590,-111 734,-111 734,-130"/>
<text text-anchor="middle" x="662" y="-118" font-family="Vera Sans, DejaVu Sans, Liberation Sans, Arial, Helvetica, sans" font-size="10.00" fill="#000000">CompoundStatement</text>
</a>
</g>
</g>
<!-- CompoundStatement&#45;&gt;CaseStatement -->
<g id="edge1" class="edge">
<title>CompoundStatement&#45;&gt;CaseStatement</title>
<path fill="none" stroke="#000000" stroke-width=".5" d="M734.1249,-120.5C755.2484,-120.5 778.1569,-120.5 798.6201,-120.5"/>
<polygon fill="#000000" stroke="#000000" stroke-width=".5" points="798.7674,-122.2501 803.7673,-120.5 798.7673,-118.7501 798.7674,-122.2501"/>
</g>
<!-- LoopStatement -->
<g id="node6" class="node">
<title>LoopStatement</title>
<g id="a_node6"><a xlink:href="../../pyVHDLModel/pyVHDLModel.VHDLModel.html#pyVHDLModel.VHDLModel.LoopStatement" xlink:title="A ``LoopStatement`` is a base&#45;class for all loop statements." target="_top">
<polygon fill="#ffffff" stroke="#000000" stroke-width=".5" points="918,-167 804,-167 804,-148 918,-148 918,-167"/>
<text text-anchor="middle" x="861" y="-155" font-family="Vera Sans, DejaVu Sans, Liberation Sans, Arial, Helvetica, sans" font-size="10.00" fill="#000000">LoopStatement</text>
</a>
</g>
</g>
<!-- CompoundStatement&#45;&gt;LoopStatement -->
<g id="edge9" class="edge">
<title>CompoundStatement&#45;&gt;LoopStatement</title>
<path fill="none" stroke="#000000" stroke-width=".5" d="M720.1028,-130.0077C735.6779,-132.6542 752.4958,-135.6007 768,-138.5 781.8498,-141.0899 796.822,-144.0692 810.6222,-146.8889"/>
<polygon fill="#000000" stroke="#000000" stroke-width=".5" points="810.3995,-148.6296 815.6491,-147.9195 811.1025,-145.2009 810.3995,-148.6296"/>
</g>
<!-- IfStatement -->
<g id="node10" class="node">
<title>IfStatement</title>
<g id="a_node10"><a xlink:href="../../pyVHDLModel/pyVHDLModel.VHDLModel.html#pyVHDLModel.VHDLModel.IfStatement" xlink:title="IfStatement" target="_top">
<polygon fill="#ffffff" stroke="#000000" stroke-width=".5" points="910.5,-93 811.5,-93 811.5,-74 910.5,-74 910.5,-93"/>
<text text-anchor="middle" x="861" y="-81" font-family="Vera Sans, DejaVu Sans, Liberation Sans, Arial, Helvetica, sans" font-size="10.00" fill="#000000">IfStatement</text>
</a>
</g>
</g>
<!-- CompoundStatement&#45;&gt;IfStatement -->
<g id="edge6" class="edge">
<title>CompoundStatement&#45;&gt;IfStatement</title>
<path fill="none" stroke="#000000" stroke-width=".5" d="M715.9512,-110.9782C732.6452,-107.9919 751.0908,-104.6517 768,-101.5 780.7025,-99.1324 794.3681,-96.5226 807.2092,-94.0422"/>
<polygon fill="#000000" stroke="#000000" stroke-width=".5" points="807.6985,-95.7301 812.2751,-93.0622 807.0337,-92.2938 807.6985,-95.7301"/>
</g>
<!-- SequentialStatement -->
<g id="node4" class="node">
<title>SequentialStatement</title>
<g id="a_node4"><a xlink:href="../../pyVHDLModel/pyVHDLModel.VHDLModel.html#pyVHDLModel.VHDLModel.SequentialStatement" xlink:title="A ``SequentialStatement`` is a base&#45;class for all sequential statements." target="_top">
<polygon fill="#ffffff" stroke="#000000" stroke-width=".5" points="516,-168 357,-168 357,-149 516,-149 516,-168"/>
<text text-anchor="middle" x="436.5" y="-156" font-family="Vera Sans, DejaVu Sans, Liberation Sans, Arial, Helvetica, sans" font-size="10.00" fill="#000000">SequentialStatement</text>
</a>
</g>
</g>
<!-- SequentialStatement&#45;&gt;CompoundStatement -->
<g id="edge2" class="edge">
<title>SequentialStatement&#45;&gt;CompoundStatement</title>
<path fill="none" stroke="#000000" stroke-width=".5" d="M493.1121,-148.96C525.6817,-143.4716 566.6418,-136.5692 600.0672,-130.9366"/>
<polygon fill="#000000" stroke="#000000" stroke-width=".5" points="600.7249,-132.6005 605.3646,-130.0439 600.1433,-129.1491 600.7249,-132.6005"/>
</g>
<!-- LoopControlStatement -->
<g id="node8" class="node">
<title>LoopControlStatement</title>
<g id="a_node8"><a xlink:href="../../pyVHDLModel/pyVHDLModel.VHDLModel.html#pyVHDLModel.VHDLModel.LoopControlStatement" xlink:title="A ``LoopControlStatement`` is a base&#45;class for all loop controlling statements." target="_top">
<polygon fill="#ffffff" stroke="#000000" stroke-width=".5" points="745.5,-204 578.5,-204 578.5,-185 745.5,-185 745.5,-204"/>
<text text-anchor="middle" x="662" y="-192" font-family="Vera Sans, DejaVu Sans, Liberation Sans, Arial, Helvetica, sans" font-size="10.00" fill="#000000">LoopControlStatement</text>
</a>
</g>
</g>
<!-- SequentialStatement&#45;&gt;LoopControlStatement -->
<g id="edge7" class="edge">
<title>SequentialStatement&#45;&gt;LoopControlStatement</title>
<path fill="none" stroke="#000000" stroke-width=".5" d="M496.0424,-168.0057C527.1313,-172.9689 565.2231,-179.05 597.0682,-184.1339"/>
<polygon fill="#000000" stroke="#000000" stroke-width=".5" points="596.9101,-185.8808 602.1235,-184.941 597.4619,-182.4246 596.9101,-185.8808"/>
</g>
<!-- ReturnStatement -->
<g id="node19" class="node">
<title>ReturnStatement</title>
<g id="a_node19"><a xlink:href="../../pyVHDLModel/pyVHDLModel.VHDLModel.html#pyVHDLModel.VHDLModel.ReturnStatement" xlink:title="ReturnStatement" target="_top">
<polygon fill="#ffffff" stroke="#000000" stroke-width=".5" points="726.5,-241 597.5,-241 597.5,-222 726.5,-222 726.5,-241"/>
<text text-anchor="middle" x="662" y="-229" font-family="Vera Sans, DejaVu Sans, Liberation Sans, Arial, Helvetica, sans" font-size="10.00" fill="#000000">ReturnStatement</text>
</a>
</g>
</g>
<!-- SequentialStatement&#45;&gt;ReturnStatement -->
<g id="edge13" class="edge">
<title>SequentialStatement&#45;&gt;ReturnStatement</title>
<path fill="none" stroke="#000000" stroke-width=".5" d="M453.7415,-168.2019C476.4716,-180.5735 518.0334,-201.7648 556,-213.5 567.5474,-217.0692 580.0346,-219.9844 592.2475,-222.3481"/>
<polygon fill="#000000" stroke="#000000" stroke-width=".5" points="592.224,-224.1242 597.4612,-223.3276 592.8703,-220.6844 592.224,-224.1242"/>
</g>
<!-- SequentialAssertStatement -->
<g id="node20" class="node">
<title>SequentialAssertStatement</title>
<g id="a_node20"><a xlink:href="../../pyVHDLModel/pyVHDLModel.VHDLModel.html#pyVHDLModel.VHDLModel.SequentialAssertStatement" xlink:title="SequentialAssertStatement" target="_top">
<polygon fill="#ffffff" stroke="#000000" stroke-width=".5" points="764,-56 560,-56 560,-37 764,-37 764,-56"/>
<text text-anchor="middle" x="662" y="-44" font-family="Vera Sans, DejaVu Sans, Liberation Sans, Arial, Helvetica, sans" font-size="10.00" fill="#000000">SequentialAssertStatement</text>
</a>
</g>
</g>
<!-- SequentialStatement&#45;&gt;SequentialAssertStatement -->
<g id="edge15" class="edge">
<title>SequentialStatement&#45;&gt;SequentialAssertStatement</title>
<path fill="none" stroke="#000000" stroke-width=".5" d="M445.322,-148.8857C463.7818,-129.4314 508.7051,-85.4713 556,-64.5 562.187,-61.7566 568.7478,-59.4292 575.4523,-57.4551"/>
<polygon fill="#000000" stroke="#000000" stroke-width=".5" points="576.2603,-59.0462 580.6036,-56.0132 575.3169,-55.6758 576.2603,-59.0462"/>
</g>
<!-- SequentialProcedureCall -->
<g id="node21" class="node">
<title>SequentialProcedureCall</title>
<g id="a_node21"><a xlink:href="../../pyVHDLModel/pyVHDLModel.VHDLModel.html#pyVHDLModel.VHDLModel.SequentialProcedureCall" xlink:title="SequentialProcedureCall" target="_top">
<polygon fill="#ffffff" stroke="#000000" stroke-width=".5" points="756.5,-19 567.5,-19 567.5,0 756.5,0 756.5,-19"/>
<text text-anchor="middle" x="662" y="-7" font-family="Vera Sans, DejaVu Sans, Liberation Sans, Arial, Helvetica, sans" font-size="10.00" fill="#000000">SequentialProcedureCall</text>
</a>
</g>
</g>
<!-- SequentialStatement&#45;&gt;SequentialProcedureCall -->
<g id="edge17" class="edge">
<title>SequentialStatement&#45;&gt;SequentialProcedureCall</title>
<path fill="none" stroke="#000000" stroke-width=".5" d="M444.873,-148.9861C470.8563,-119.5076 548.8061,-31.4276 556,-27.5 560.7666,-24.8976 565.8188,-22.6543 571.0302,-20.7219"/>
<polygon fill="#000000" stroke="#000000" stroke-width=".5" points="571.7155,-22.3363 575.8572,-19.0334 570.5598,-19.0325 571.7155,-22.3363"/>
</g>
<!-- SequentialReportStatement -->
<g id="node22" class="node">
<title>SequentialReportStatement</title>
<g id="a_node22"><a xlink:href="../../pyVHDLModel/pyVHDLModel.VHDLModel.html#pyVHDLModel.VHDLModel.SequentialReportStatement" xlink:title="SequentialReportStatement" target="_top">
<polygon fill="#ffffff" stroke="#000000" stroke-width=".5" points="764,-93 560,-93 560,-74 764,-74 764,-93"/>
<text text-anchor="middle" x="662" y="-81" font-family="Vera Sans, DejaVu Sans, Liberation Sans, Arial, Helvetica, sans" font-size="10.00" fill="#000000">SequentialReportStatement</text>
</a>
</g>
</g>
<!-- SequentialStatement&#45;&gt;SequentialReportStatement -->
<g id="edge19" class="edge">
<title>SequentialStatement&#45;&gt;SequentialReportStatement</title>
<path fill="none" stroke="#000000" stroke-width=".5" d="M452.9169,-148.8574C475.4126,-136.0736 517.4321,-113.7115 556,-101.5 565.0924,-98.6211 574.7778,-96.1744 584.4573,-94.102"/>
<polygon fill="#000000" stroke="#000000" stroke-width=".5" points="584.9754,-95.7818 589.5154,-93.0521 584.264,-92.3549 584.9754,-95.7818"/>
</g>
<!-- SequentialSignalAssignment -->
<g id="node23" class="node">
<title>SequentialSignalAssignment</title>
<g id="a_node23"><a xlink:href="../../pyVHDLModel/pyVHDLModel.VHDLModel.html#pyVHDLModel.VHDLModel.SequentialSignalAssignment" xlink:title="SequentialSignalAssignment" target="_top">
<polygon fill="#ffffff" stroke="#000000" stroke-width=".5" points="768,-354 556,-354 556,-335 768,-335 768,-354"/>
<text text-anchor="middle" x="662" y="-342" font-family="Vera Sans, DejaVu Sans, Liberation Sans, Arial, Helvetica, sans" font-size="10.00" fill="#000000">SequentialSignalAssignment</text>
</a>
</g>
</g>
<!-- SequentialStatement&#45;&gt;SequentialSignalAssignment -->
<g id="edge21" class="edge">
<title>SequentialStatement&#45;&gt;SequentialSignalAssignment</title>
<path fill="none" stroke="#000000" stroke-width=".5" d="M449.6772,-168.1373C467.0507,-181.2418 497.9876,-205.9865 520,-231.5 539.3283,-253.9025 534.2786,-267.4093 556,-287.5 578.0539,-307.8983 608.7698,-323.3631 631.4622,-333.0019"/>
<polygon fill="#000000" stroke="#000000" stroke-width=".5" points="630.8885,-334.6587 636.1768,-334.97 632.2368,-331.4289 630.8885,-334.6587"/>
</g>
<!-- WaitStatement -->
<g id="node27" class="node">
<title>WaitStatement</title>
<g id="a_node27"><a xlink:href="../../pyVHDLModel/pyVHDLModel.VHDLModel.html#pyVHDLModel.VHDLModel.WaitStatement" xlink:title="WaitStatement" target="_top">
<polygon fill="#ffffff" stroke="#000000" stroke-width=".5" points="719,-278 605,-278 605,-259 719,-259 719,-278"/>
<text text-anchor="middle" x="662" y="-266" font-family="Vera Sans, DejaVu Sans, Liberation Sans, Arial, Helvetica, sans" font-size="10.00" fill="#000000">WaitStatement</text>
</a>
</g>
</g>
<!-- SequentialStatement&#45;&gt;WaitStatement -->
<g id="edge28" class="edge">
<title>SequentialStatement&#45;&gt;WaitStatement</title>
<path fill="none" stroke="#000000" stroke-width=".5" d="M445.6531,-168.1976C464.3703,-187.3734 509.2193,-230.0478 556,-250.5 569.6758,-256.479 585.1499,-260.479 599.9646,-263.153"/>
<polygon fill="#000000" stroke="#000000" stroke-width=".5" points="599.736,-264.8893 604.9599,-264.01 600.3278,-261.4397 599.736,-264.8893"/>
</g>
<!-- EndlessLoopStatement -->
<g id="node5" class="node">
<title>EndlessLoopStatement</title>
<g id="a_node5"><a xlink:href="../../pyVHDLModel/pyVHDLModel.VHDLModel.html#pyVHDLModel.VHDLModel.EndlessLoopStatement" xlink:title="EndlessLoopStatement" target="_top">
<polygon fill="#ffffff" stroke="#000000" stroke-width=".5" points="1121,-148 954,-148 954,-129 1121,-129 1121,-148"/>
<text text-anchor="middle" x="1037.5" y="-136" font-family="Vera Sans, DejaVu Sans, Liberation Sans, Arial, Helvetica, sans" font-size="10.00" fill="#000000">EndlessLoopStatement</text>
</a>
</g>
</g>
<!-- LoopStatement&#45;&gt;EndlessLoopStatement -->
<g id="edge3" class="edge">
<title>LoopStatement&#45;&gt;EndlessLoopStatement</title>
<path fill="none" stroke="#000000" stroke-width=".5" d="M918.3045,-151.3312C928.0793,-150.279 938.4341,-149.1643 948.7972,-148.0487"/>
<polygon fill="#000000" stroke="#000000" stroke-width=".5" points="949.0988,-149.7765 953.8827,-147.5013 948.7241,-146.2966 949.0988,-149.7765"/>
</g>
<!-- ForLoopStatement -->
<g id="node9" class="node">
<title>ForLoopStatement</title>
<g id="a_node9"><a xlink:href="../../pyVHDLModel/pyVHDLModel.VHDLModel.html#pyVHDLModel.VHDLModel.ForLoopStatement" xlink:title="ForLoopStatement" target="_top">
<polygon fill="#ffffff" stroke="#000000" stroke-width=".5" points="1106,-185 969,-185 969,-166 1106,-166 1106,-185"/>
<text text-anchor="middle" x="1037.5" y="-173" font-family="Vera Sans, DejaVu Sans, Liberation Sans, Arial, Helvetica, sans" font-size="10.00" fill="#000000">ForLoopStatement</text>
</a>
</g>
</g>
<!-- LoopStatement&#45;&gt;ForLoopStatement -->
<g id="edge5" class="edge">
<title>LoopStatement&#45;&gt;ForLoopStatement</title>
<path fill="none" stroke="#000000" stroke-width=".5" d="M918.3045,-163.3441C932.7741,-164.8197 948.5145,-166.425 963.6715,-167.9708"/>
<polygon fill="#000000" stroke="#000000" stroke-width=".5" points="963.6349,-169.726 968.7867,-168.4924 963.9901,-166.2441 963.6349,-169.726"/>
</g>
<!-- WhileLoopStatement -->
<g id="node28" class="node">
<title>WhileLoopStatement</title>
<g id="a_node28"><a xlink:href="../../pyVHDLModel/pyVHDLModel.VHDLModel.html#pyVHDLModel.VHDLModel.WhileLoopStatement" xlink:title="WhileLoopStatement" target="_top">
<polygon fill="#ffffff" stroke="#000000" stroke-width=".5" points="1113.5,-278 961.5,-278 961.5,-259 1113.5,-259 1113.5,-278"/>
<text text-anchor="middle" x="1037.5" y="-266" font-family="Vera Sans, DejaVu Sans, Liberation Sans, Arial, Helvetica, sans" font-size="10.00" fill="#000000">WhileLoopStatement</text>
</a>
</g>
</g>
<!-- LoopStatement&#45;&gt;WhileLoopStatement -->
<g id="edge30" class="edge">
<title>LoopStatement&#45;&gt;WhileLoopStatement</title>
<path fill="none" stroke="#000000" stroke-width=".5" d="M895.8317,-167.0527C903.3411,-169.6733 911.0933,-172.8256 918,-176.5 959.998,-198.8433 1002.5758,-235.8133 1023.7552,-255.3932"/>
<polygon fill="#000000" stroke="#000000" stroke-width=".5" points="1022.6041,-256.7125 1027.4559,-258.8393 1024.9894,-254.1511 1022.6041,-256.7125"/>
</g>
<!-- ExitStatement -->
<g id="node7" class="node">
<title>ExitStatement</title>
<g id="a_node7"><a xlink:href="../../pyVHDLModel/pyVHDLModel.VHDLModel.html#pyVHDLModel.VHDLModel.ExitStatement" xlink:title="ExitStatement" target="_top">
<polygon fill="#ffffff" stroke="#000000" stroke-width=".5" points="918,-204 804,-204 804,-185 918,-185 918,-204"/>
<text text-anchor="middle" x="861" y="-192" font-family="Vera Sans, DejaVu Sans, Liberation Sans, Arial, Helvetica, sans" font-size="10.00" fill="#000000">ExitStatement</text>
</a>
</g>
</g>
<!-- LoopControlStatement&#45;&gt;ExitStatement -->
<g id="edge4" class="edge">
<title>LoopControlStatement&#45;&gt;ExitStatement</title>
<path fill="none" stroke="#000000" stroke-width=".5" d="M745.529,-194.5C763.3616,-194.5 781.897,-194.5 798.7628,-194.5"/>
<polygon fill="#000000" stroke="#000000" stroke-width=".5" points="798.9408,-196.2501 803.9408,-194.5 798.9407,-192.7501 798.9408,-196.2501"/>
</g>
<!-- NextStatement -->
<g id="node17" class="node">
<title>NextStatement</title>
<g id="a_node17"><a xlink:href="../../pyVHDLModel/pyVHDLModel.VHDLModel.html#pyVHDLModel.VHDLModel.NextStatement" xlink:title="NextStatement" target="_top">
<polygon fill="#ffffff" stroke="#000000" stroke-width=".5" points="918,-241 804,-241 804,-222 918,-222 918,-241"/>
<text text-anchor="middle" x="861" y="-229" font-family="Vera Sans, DejaVu Sans, Liberation Sans, Arial, Helvetica, sans" font-size="10.00" fill="#000000">NextStatement</text>
</a>
</g>
</g>
<!-- LoopControlStatement&#45;&gt;NextStatement -->
<g id="edge12" class="edge">
<title>LoopControlStatement&#45;&gt;NextStatement</title>
<path fill="none" stroke="#000000" stroke-width=".5" d="M715.9512,-204.0218C732.6452,-207.0081 751.0908,-210.3483 768,-213.5 780.7025,-215.8676 794.3681,-218.4774 807.2092,-220.9578"/>
<polygon fill="#000000" stroke="#000000" stroke-width=".5" points="807.0337,-222.7062 812.2751,-221.9378 807.6985,-219.2699 807.0337,-222.7062"/>
</g>
<!-- LabeledEntity -->
<g id="node11" class="node">
<title>LabeledEntity</title>
<g id="a_node11"><a xlink:href="../../pyVHDLModel/pyVHDLModel.VHDLModel.html#pyVHDLModel.VHDLModel.LabeledEntity" xlink:title="A ``LabeledEntity`` is a mixin class for all VHDL entities that can have" target="_top">
<polygon fill="#ffffff" stroke="#000000" stroke-width=".5" points="114,-186 0,-186 0,-167 114,-167 114,-186"/>
<text text-anchor="middle" x="57" y="-174" font-family="Vera Sans, DejaVu Sans, Liberation Sans, Arial, Helvetica, sans" font-size="10.00" fill="#000000">LabeledEntity</text>
</a>
</g>
</g>
<!-- Statement -->
<g id="node25" class="node">
<title>Statement</title>
<g id="a_node25"><a xlink:href="../../pyVHDLModel/pyVHDLModel.VHDLModel.html#pyVHDLModel.VHDLModel.Statement" xlink:title="Statement" target="_top">
<polygon fill="#ffffff" stroke="#000000" stroke-width=".5" points="275.5,-168 191.5,-168 191.5,-149 275.5,-149 275.5,-168"/>
<text text-anchor="middle" x="233.5" y="-156" font-family="Vera Sans, DejaVu Sans, Liberation Sans, Arial, Helvetica, sans" font-size="10.00" fill="#000000">Statement</text>
</a>
</g>
</g>
<!-- LabeledEntity&#45;&gt;Statement -->
<g id="edge26" class="edge">
<title>LabeledEntity&#45;&gt;Statement</title>
<path fill="none" stroke="#000000" stroke-width=".5" d="M114.3045,-170.6559C137.5081,-168.2895 163.9798,-165.5899 186.0731,-163.3367"/>
<polygon fill="#000000" stroke="#000000" stroke-width=".5" points="186.5017,-165.0522 191.2983,-162.8039 186.1466,-161.5703 186.5017,-165.0522"/>
</g>
<!-- MixinConditional -->
<g id="node12" class="node">
<title>MixinConditional</title>
<g id="a_node12"><a xlink:href="../../pyVHDLModel/pyVHDLModel.VHDLModel.html#pyVHDLModel.VHDLModel.MixinConditional" xlink:title="A ``BaseConditional`` is a mixin&#45;class for all statements with a condition." target="_top">
<polygon fill="#ffffff" stroke="#000000" stroke-width=".5" points="505,-259 368,-259 368,-240 505,-240 505,-259"/>
<text text-anchor="middle" x="436.5" y="-247" font-family="Vera Sans, DejaVu Sans, Liberation Sans, Arial, Helvetica, sans" font-size="10.00" fill="#000000">MixinConditional</text>
</a>
</g>
</g>
<!-- MixinConditional&#45;&gt;LoopControlStatement -->
<g id="edge8" class="edge">
<title>MixinConditional&#45;&gt;LoopControlStatement</title>
<path fill="none" stroke="#000000" stroke-width=".5" d="M464.74,-239.9871C488.7975,-232.1262 524.3919,-221.0672 556,-213.5 569.1978,-210.3404 583.4332,-207.445 597.0568,-204.918"/>
<polygon fill="#000000" stroke="#000000" stroke-width=".5" points="597.4426,-206.6266 602.0452,-204.0039 596.8117,-203.1839 597.4426,-206.6266"/>
</g>
<!-- MixinConditional&#45;&gt;ReturnStatement -->
<g id="edge14" class="edge">
<title>MixinConditional&#45;&gt;ReturnStatement</title>
<path fill="none" stroke="#000000" stroke-width=".5" d="M505.0759,-244.0261C532.6444,-241.8255 564.3981,-239.2908 592.0983,-237.0797"/>
<polygon fill="#000000" stroke="#000000" stroke-width=".5" points="592.3766,-238.8132 597.2215,-236.6708 592.098,-235.3243 592.3766,-238.8132"/>
</g>
<!-- MixinConditional&#45;&gt;WaitStatement -->
<g id="edge29" class="edge">
<title>MixinConditional&#45;&gt;WaitStatement</title>
<path fill="none" stroke="#000000" stroke-width=".5" d="M505.0759,-255.278C535.2086,-257.8169 570.3412,-260.7771 599.7159,-263.2521"/>
<polygon fill="#000000" stroke="#000000" stroke-width=".5" points="599.6247,-265.0005 604.754,-263.6766 599.9186,-261.5129 599.6247,-265.0005"/>
</g>
<!-- MixinConditional&#45;&gt;WhileLoopStatement -->
<g id="edge31" class="edge">
<title>MixinConditional&#45;&gt;WhileLoopStatement</title>
<path fill="none" stroke="#000000" stroke-width=".5" d="M459.3465,-259.0948C483.0289,-268.4814 521.3645,-282.1257 556,-287.5 704.2753,-310.5075 881.1351,-291.9494 973.7415,-278.7754"/>
<polygon fill="#000000" stroke="#000000" stroke-width=".5" points="974.2022,-280.4773 978.9027,-278.0344 973.7047,-277.0129 974.2022,-280.4773"/>
</g>
<!-- SequentialStatements -->
<g id="node13" class="node">
<title>SequentialStatements</title>
<g id="a_node13"><a xlink:href="../../pyVHDLModel/pyVHDLModel.VHDLModel.html#pyVHDLModel.VHDLModel.SequentialStatements" xlink:title="SequentialStatements" target="_top">
<polygon fill="#ffffff" stroke="#000000" stroke-width=".5" points="745.5,-167 578.5,-167 578.5,-148 745.5,-148 745.5,-167"/>
<text text-anchor="middle" x="662" y="-155" font-family="Vera Sans, DejaVu Sans, Liberation Sans, Arial, Helvetica, sans" font-size="10.00" fill="#000000">SequentialStatements</text>
</a>
</g>
</g>
<!-- SequentialStatements&#45;&gt;LoopStatement -->
<g id="edge10" class="edge">
<title>SequentialStatements&#45;&gt;LoopStatement</title>
<path fill="none" stroke="#000000" stroke-width=".5" d="M745.529,-157.5C763.3616,-157.5 781.897,-157.5 798.7628,-157.5"/>
<polygon fill="#000000" stroke="#000000" stroke-width=".5" points="798.9408,-159.2501 803.9408,-157.5 798.9407,-155.7501 798.9408,-159.2501"/>
</g>
<!-- MixinAssertStatement -->
<g id="node14" class="node">
<title>MixinAssertStatement</title>
<g id="a_node14"><a xlink:href="../../pyVHDLModel/pyVHDLModel.VHDLModel.html#pyVHDLModel.VHDLModel.MixinAssertStatement" xlink:title="A ``MixinAssertStatement`` is a mixin&#45;class for all assert statements." target="_top">
<polygon fill="#ffffff" stroke="#000000" stroke-width=".5" points="520,-56 353,-56 353,-37 520,-37 520,-56"/>
<text text-anchor="middle" x="436.5" y="-44" font-family="Vera Sans, DejaVu Sans, Liberation Sans, Arial, Helvetica, sans" font-size="10.00" fill="#000000">MixinAssertStatement</text>
</a>
</g>
</g>
<!-- MixinAssertStatement&#45;&gt;SequentialAssertStatement -->
<g id="edge16" class="edge">
<title>MixinAssertStatement&#45;&gt;SequentialAssertStatement</title>
<path fill="none" stroke="#000000" stroke-width=".5" d="M520.1474,-46.5C531.343,-46.5 542.9495,-46.5 554.4828,-46.5"/>
<polygon fill="#000000" stroke="#000000" stroke-width=".5" points="554.7751,-48.2501 559.7751,-46.5 554.775,-44.7501 554.7751,-48.2501"/>
</g>
<!-- MixinReportStatement -->
<g id="node15" class="node">
<title>MixinReportStatement</title>
<g id="a_node15"><a xlink:href="../../pyVHDLModel/pyVHDLModel.VHDLModel.html#pyVHDLModel.VHDLModel.MixinReportStatement" xlink:title="A ``MixinReportStatement`` is a mixin&#45;class for all report and assert statements." target="_top">
<polygon fill="#ffffff" stroke="#000000" stroke-width=".5" points="317,-75 150,-75 150,-56 317,-56 317,-75"/>
<text text-anchor="middle" x="233.5" y="-63" font-family="Vera Sans, DejaVu Sans, Liberation Sans, Arial, Helvetica, sans" font-size="10.00" fill="#000000">MixinReportStatement</text>
</a>
</g>
</g>
<!-- MixinReportStatement&#45;&gt;MixinAssertStatement -->
<g id="edge11" class="edge">
<title>MixinReportStatement&#45;&gt;MixinAssertStatement</title>
<path fill="none" stroke="#000000" stroke-width=".5" d="M317.2399,-57.6623C327.3765,-56.7135 337.757,-55.742 347.96,-54.787"/>
<polygon fill="#000000" stroke="#000000" stroke-width=".5" points="348.1374,-56.5281 352.9526,-54.3197 347.8112,-53.0434 348.1374,-56.5281"/>
</g>
<!-- MixinReportStatement&#45;&gt;SequentialReportStatement -->
<g id="edge20" class="edge">
<title>MixinReportStatement&#45;&gt;SequentialReportStatement</title>
<path fill="none" stroke="#000000" stroke-width=".5" d="M317.1363,-69.0133C384.9233,-71.8608 480.9184,-75.8933 554.4235,-78.981"/>
<polygon fill="#000000" stroke="#000000" stroke-width=".5" points="554.6072,-80.7402 559.6763,-79.2017 554.7542,-77.2433 554.6072,-80.7402"/>
</g>
<!-- ModelEntity -->
<g id="node16" class="node">
<title>ModelEntity</title>
<g id="a_node16"><a xlink:href="../../pyVHDLModel/pyVHDLModel.VHDLModel.html#pyVHDLModel.VHDLModel.ModelEntity" xlink:title="``ModelEntity`` is a base class for all classes in the VHDL language model," target="_top">
<polygon fill="#ffffff" stroke="#000000" stroke-width=".5" points="106.5,-149 7.5,-149 7.5,-130 106.5,-130 106.5,-149"/>
<text text-anchor="middle" x="57" y="-137" font-family="Vera Sans, DejaVu Sans, Liberation Sans, Arial, Helvetica, sans" font-size="10.00" fill="#000000">ModelEntity</text>
</a>
</g>
</g>
<!-- ModelEntity&#45;&gt;Statement -->
<g id="edge25" class="edge">
<title>ModelEntity&#45;&gt;Statement</title>
<path fill="none" stroke="#000000" stroke-width=".5" d="M106.6348,-144.8431C131.5747,-147.5279 161.64,-150.7644 186.2414,-153.4127"/>
<polygon fill="#000000" stroke="#000000" stroke-width=".5" points="186.2457,-155.1732 191.4043,-153.9685 186.6204,-151.6933 186.2457,-155.1732"/>
</g>
<!-- ProcedureCall -->
<g id="node18" class="node">
<title>ProcedureCall</title>
<g id="a_node18"><a xlink:href="../../pyVHDLModel/pyVHDLModel.VHDLModel.html#pyVHDLModel.VHDLModel.ProcedureCall" xlink:title="ProcedureCall" target="_top">
<polygon fill="#ffffff" stroke="#000000" stroke-width=".5" points="493.5,-19 379.5,-19 379.5,0 493.5,0 493.5,-19"/>
<text text-anchor="middle" x="436.5" y="-7" font-family="Vera Sans, DejaVu Sans, Liberation Sans, Arial, Helvetica, sans" font-size="10.00" fill="#000000">ProcedureCall</text>
</a>
</g>
</g>
<!-- ProcedureCall&#45;&gt;SequentialProcedureCall -->
<g id="edge18" class="edge">
<title>ProcedureCall&#45;&gt;SequentialProcedureCall</title>
<path fill="none" stroke="#000000" stroke-width=".5" d="M493.6947,-9.5C514.4382,-9.5 538.5265,-9.5 561.8824,-9.5"/>
<polygon fill="#000000" stroke="#000000" stroke-width=".5" points="562.1674,-11.2501 567.1673,-9.5 562.1673,-7.7501 562.1674,-11.2501"/>
</g>
<!-- SignalAssignment&#45;&gt;SequentialSignalAssignment -->
<g id="edge22" class="edge">
<title>SignalAssignment&#45;&gt;SequentialSignalAssignment</title>
<path fill="none" stroke="#000000" stroke-width=".5" d="M505.0759,-344.5C519.5116,-344.5 535.0948,-344.5 550.6426,-344.5"/>
<polygon fill="#000000" stroke="#000000" stroke-width=".5" points="550.9124,-346.2501 555.9123,-344.5 550.9123,-342.7501 550.9124,-346.2501"/>
</g>
<!-- Statement&#45;&gt;SequentialStatement -->
<g id="edge23" class="edge">
<title>Statement&#45;&gt;SequentialStatement</title>
<path fill="none" stroke="#000000" stroke-width=".5" d="M275.5617,-158.5C297.5544,-158.5 325.2954,-158.5 351.5237,-158.5"/>
<polygon fill="#000000" stroke="#000000" stroke-width=".5" points="351.7471,-160.2501 356.747,-158.5 351.747,-156.7501 351.7471,-160.2501"/>
</g>
</g>
</svg>
