<?xml version="1.0" encoding="UTF-8" standalone="no"?>
<!DOCTYPE svg PUBLIC "-//W3C//DTD SVG 1.1//EN"
 "http://www.w3.org/Graphics/SVG/1.1/DTD/svg11.dtd">
<!-- Generated by graphviz version 2.40.1 (0)
 -->
<!-- Title: inheritance5d99679732 Pages: 1 -->
<svg width="576pt" height="77pt"
 viewBox="0.00 0.00 576.00 77.30" xmlns="http://www.w3.org/2000/svg" xmlns:xlink="http://www.w3.org/1999/xlink">
<g id="graph0" class="graph" transform="scale(.9427 .9427) rotate(0) translate(4 78)">
<title>inheritance5d99679732</title>
<!-- BaseType -->
<g id="node1" class="node">
<title>BaseType</title>
<g id="a_node1"><a xlink:href="../pyVHDLModel/pyVHDLModel.VHDLModel.html#pyVHDLModel.VHDLModel.BaseType" xlink:title="``BaseType`` is the base class of all type entities in this model." target="_top">
<polygon fill="#ffffff" stroke="#000000" stroke-width=".5" points="212,-37 135,-37 135,-18 212,-18 212,-37"/>
<text text-anchor="middle" x="173.5" y="-25" font-family="Vera Sans, DejaVu Sans, Liberation Sans, Arial, Helvetica, sans" font-size="10.00" fill="#000000">BaseType</text>
</a>
</g>
</g>
<!-- Type -->
<g id="node7" class="node">
<title>Type</title>
<g id="a_node7"><a xlink:href="../pyVHDLModel/pyVHDLModel.VHDLModel.html#pyVHDLModel.VHDLModel.Type" xlink:title="Type" target="_top">
<polygon fill="#ffffff" stroke="#000000" stroke-width=".5" points="302,-37 248,-37 248,-18 302,-18 302,-37"/>
<text text-anchor="middle" x="275" y="-25" font-family="Vera Sans, DejaVu Sans, Liberation Sans, Arial, Helvetica, sans" font-size="10.00" fill="#000000">Type</text>
</a>
</g>
</g>
<!-- BaseType&#45;&gt;Type -->
<g id="edge6" class="edge">
<title>BaseType&#45;&gt;Type</title>
<path fill="none" stroke="#000000" stroke-width=".5" d="M212.1623,-27.5C222.1835,-27.5 232.8723,-27.5 242.539,-27.5"/>
<polygon fill="#000000" stroke="#000000" stroke-width=".5" points="242.7936,-29.2501 247.7936,-27.5 242.7936,-25.7501 242.7936,-29.2501"/>
</g>
<!-- ModelEntity -->
<g id="node2" class="node">
<title>ModelEntity</title>
<g id="a_node2"><a xlink:href="../pyVHDLModel/pyVHDLModel.VHDLModel.html#pyVHDLModel.VHDLModel.ModelEntity" xlink:title="``ModelEntity`` is a base class for all classes in the VHDL language model," target="_top">
<polygon fill="#ffffff" stroke="#000000" stroke-width=".5" points="99,-56 0,-56 0,-37 99,-37 99,-56"/>
<text text-anchor="middle" x="49.5" y="-44" font-family="Vera Sans, DejaVu Sans, Liberation Sans, Arial, Helvetica, sans" font-size="10.00" fill="#000000">ModelEntity</text>
</a>
</g>
</g>
<!-- ModelEntity&#45;&gt;BaseType -->
<g id="edge1" class="edge">
<title>ModelEntity&#45;&gt;BaseType</title>
<path fill="none" stroke="#000000" stroke-width=".5" d="M99.2211,-38.8815C109.3194,-37.3341 119.8705,-35.7174 129.7439,-34.2046"/>
<polygon fill="#000000" stroke="#000000" stroke-width=".5" points="130.1621,-35.911 134.8393,-33.4238 129.6319,-32.4514 130.1621,-35.911"/>
</g>
<!-- NamedEntity -->
<g id="node3" class="node">
<title>NamedEntity</title>
<g id="a_node3"><a xlink:href="../pyVHDLModel/pyVHDLModel.VHDLModel.html#pyVHDLModel.VHDLModel.NamedEntity" xlink:title="A ``NamedEntity`` is a mixin class for all VHDL entities that have names." target="_top">
<polygon fill="#ffffff" stroke="#000000" stroke-width=".5" points="99,-19 0,-19 0,0 99,0 99,-19"/>
<text text-anchor="middle" x="49.5" y="-7" font-family="Vera Sans, DejaVu Sans, Liberation Sans, Arial, Helvetica, sans" font-size="10.00" fill="#000000">NamedEntity</text>
</a>
</g>
</g>
<!-- NamedEntity&#45;&gt;BaseType -->
<g id="edge2" class="edge">
<title>NamedEntity&#45;&gt;BaseType</title>
<path fill="none" stroke="#000000" stroke-width=".5" d="M99.2211,-16.7176C109.3194,-18.1835 119.8705,-19.7151 129.7439,-21.1483"/>
<polygon fill="#000000" stroke="#000000" stroke-width=".5" points="129.6398,-22.9015 134.8393,-21.888 130.1426,-19.4378 129.6398,-22.9015"/>
</g>
<!-- DiscreteType -->
<g id="node4" class="node">
<title>DiscreteType</title>
<g id="a_node4"><a xlink:href="../pyVHDLModel/pyVHDLModel.VHDLModel.html#pyVHDLModel.VHDLModel.DiscreteType" xlink:title="A ``DiscreteType`` is a mixin class for all discrete types." target="_top">
<polygon fill="#ffffff" stroke="#000000" stroke-width=".5" points="445,-74 338,-74 338,-55 445,-55 445,-74"/>
<text text-anchor="middle" x="391.5" y="-62" font-family="Vera Sans, DejaVu Sans, Liberation Sans, Arial, Helvetica, sans" font-size="10.00" fill="#000000">DiscreteType</text>
</a>
</g>
</g>
<!-- EnumeratedType -->
<g id="node5" class="node">
<title>EnumeratedType</title>
<g id="a_node5"><a xlink:href="../pyVHDLModel/pyVHDLModel.VHDLModel.html#pyVHDLModel.VHDLModel.EnumeratedType" xlink:title="EnumeratedType" target="_top">
<polygon fill="#ffffff" stroke="#000000" stroke-width=".5" points="603,-55 481,-55 481,-36 603,-36 603,-55"/>
<text text-anchor="middle" x="542" y="-43" font-family="Vera Sans, DejaVu Sans, Liberation Sans, Arial, Helvetica, sans" font-size="10.00" fill="#000000">EnumeratedType</text>
</a>
</g>
</g>
<!-- DiscreteType&#45;&gt;EnumeratedType -->
<g id="edge4" class="edge">
<title>DiscreteType&#45;&gt;EnumeratedType</title>
<path fill="none" stroke="#000000" stroke-width=".5" d="M445.4089,-57.6942C455.2666,-56.4497 465.6571,-55.138 475.8233,-53.8545"/>
<polygon fill="#000000" stroke="#000000" stroke-width=".5" points="476.0513,-55.5897 480.7927,-53.2272 475.6128,-52.1173 476.0513,-55.5897"/>
</g>
<!-- ScalarType -->
<g id="node6" class="node">
<title>ScalarType</title>
<g id="a_node6"><a xlink:href="../pyVHDLModel/pyVHDLModel.VHDLModel.html#pyVHDLModel.VHDLModel.ScalarType" xlink:title="A ``ScalarType`` is a base&#45;class for all scalar types." target="_top">
<polygon fill="#ffffff" stroke="#000000" stroke-width=".5" points="437.5,-37 345.5,-37 345.5,-18 437.5,-18 437.5,-37"/>
<text text-anchor="middle" x="391.5" y="-25" font-family="Vera Sans, DejaVu Sans, Liberation Sans, Arial, Helvetica, sans" font-size="10.00" fill="#000000">ScalarType</text>
</a>
</g>
</g>
<!-- ScalarType&#45;&gt;EnumeratedType -->
<g id="edge3" class="edge">
<title>ScalarType&#45;&gt;EnumeratedType</title>
<path fill="none" stroke="#000000" stroke-width=".5" d="M437.883,-33.0475C449.8538,-34.4792 462.9733,-36.0483 475.7424,-37.5755"/>
<polygon fill="#000000" stroke="#000000" stroke-width=".5" points="475.6329,-39.3248 480.8054,-38.181 476.0486,-35.8496 475.6329,-39.3248"/>
</g>
<!-- Type&#45;&gt;ScalarType -->
<g id="edge5" class="edge">
<title>Type&#45;&gt;ScalarType</title>
<path fill="none" stroke="#000000" stroke-width=".5" d="M302.0203,-27.5C313.4136,-27.5 327.07,-27.5 340.2425,-27.5"/>
<polygon fill="#000000" stroke="#000000" stroke-width=".5" points="340.4561,-29.2501 345.4561,-27.5 340.4561,-25.7501 340.4561,-29.2501"/>
</g>
</g>
</svg>
