<?xml version="1.0" encoding="UTF-8" standalone="no"?>
<!DOCTYPE svg PUBLIC "-//W3C//DTD SVG 1.1//EN"
 "http://www.w3.org/Graphics/SVG/1.1/DTD/svg11.dtd">
<!-- Generated by graphviz version 2.40.1 (0)
 -->
<!-- Title: inheritancec5a3b8eb0e Pages: 1 -->
<svg width="573pt" height="27pt"
 viewBox="0.00 0.00 573.00 27.00" xmlns="http://www.w3.org/2000/svg" xmlns:xlink="http://www.w3.org/1999/xlink">
<g id="graph0" class="graph" transform="scale(1 1) rotate(0) translate(4 23)">
<title>inheritancec5a3b8eb0e</title>
<!-- BaseExpression -->
<g id="node1" class="node">
<title>BaseExpression</title>
<g id="a_node1"><a xlink:href="../pyVHDLModel/pyVHDLModel.VHDLModel.html#pyVHDLModel.VHDLModel.BaseExpression" xlink:title="A ``BaseExpression`` is a base&#45;class for all expressions." target="_top">
<polygon fill="#ffffff" stroke="#000000" stroke-width=".5" points="257,-19 135,-19 135,0 257,0 257,-19"/>
<text text-anchor="middle" x="196" y="-7" font-family="Vera Sans, DejaVu Sans, Liberation Sans, Arial, Helvetica, sans" font-size="10.00" fill="#000000">BaseExpression</text>
</a>
</g>
</g>
<!-- UnaryExpression -->
<g id="node4" class="node">
<title>UnaryExpression</title>
<g id="a_node4"><a xlink:href="../pyVHDLModel/pyVHDLModel.VHDLModel.html#pyVHDLModel.VHDLModel.UnaryExpression" xlink:title="A ``UnaryExpression`` is a base&#45;class for all unary expressions." target="_top">
<polygon fill="#ffffff" stroke="#000000" stroke-width=".5" points="422,-19 293,-19 293,0 422,0 422,-19"/>
<text text-anchor="middle" x="357.5" y="-7" font-family="Vera Sans, DejaVu Sans, Liberation Sans, Arial, Helvetica, sans" font-size="10.00" fill="#000000">UnaryExpression</text>
</a>
</g>
</g>
<!-- BaseExpression&#45;&gt;UnaryExpression -->
<g id="edge3" class="edge">
<title>BaseExpression&#45;&gt;UnaryExpression</title>
<path fill="none" stroke="#000000" stroke-width=".5" d="M257.0562,-9.5C267.1122,-9.5 277.6021,-9.5 287.8489,-9.5"/>
<polygon fill="#000000" stroke="#000000" stroke-width=".5" points="287.8567,-11.2501 292.8567,-9.5 287.8567,-7.7501 287.8567,-11.2501"/>
</g>
<!-- ModelEntity -->
<g id="node2" class="node">
<title>ModelEntity</title>
<g id="a_node2"><a xlink:href="../pyVHDLModel/pyVHDLModel.VHDLModel.html#pyVHDLModel.VHDLModel.ModelEntity" xlink:title="``ModelEntity`` is a base class for all classes in the VHDL language model," target="_top">
<polygon fill="#ffffff" stroke="#000000" stroke-width=".5" points="99,-19 0,-19 0,0 99,0 99,-19"/>
<text text-anchor="middle" x="49.5" y="-7" font-family="Vera Sans, DejaVu Sans, Liberation Sans, Arial, Helvetica, sans" font-size="10.00" fill="#000000">ModelEntity</text>
</a>
</g>
</g>
<!-- ModelEntity&#45;&gt;BaseExpression -->
<g id="edge1" class="edge">
<title>ModelEntity&#45;&gt;BaseExpression</title>
<path fill="none" stroke="#000000" stroke-width=".5" d="M99.0982,-9.5C108.9426,-9.5 119.4255,-9.5 129.7228,-9.5"/>
<polygon fill="#000000" stroke="#000000" stroke-width=".5" points="129.7594,-11.2501 134.7594,-9.5 129.7594,-7.7501 129.7594,-11.2501"/>
</g>
<!-- FunctionCall -->
<g id="node3" class="node">
<title>FunctionCall</title>
<g id="a_node3"><a xlink:href="../pyVHDLModel/pyVHDLModel.VHDLModel.html#pyVHDLModel.VHDLModel.FunctionCall" xlink:title="FunctionCall" target="_top">
<polygon fill="#ffffff" stroke="#000000" stroke-width=".5" points="565,-19 458,-19 458,0 565,0 565,-19"/>
<text text-anchor="middle" x="511.5" y="-7" font-family="Vera Sans, DejaVu Sans, Liberation Sans, Arial, Helvetica, sans" font-size="10.00" fill="#000000">FunctionCall</text>
</a>
</g>
</g>
<!-- UnaryExpression&#45;&gt;FunctionCall -->
<g id="edge2" class="edge">
<title>UnaryExpression&#45;&gt;FunctionCall</title>
<path fill="none" stroke="#000000" stroke-width=".5" d="M422.3635,-9.5C432.4435,-9.5 442.8081,-9.5 452.7427,-9.5"/>
<polygon fill="#000000" stroke="#000000" stroke-width=".5" points="452.895,-11.2501 457.895,-9.5 452.8949,-7.7501 452.895,-11.2501"/>
</g>
</g>
</svg>
