<?xml version="1.0" encoding="UTF-8" standalone="no"?>
<!DOCTYPE svg PUBLIC "-//W3C//DTD SVG 1.1//EN"
 "http://www.w3.org/Graphics/SVG/1.1/DTD/svg11.dtd">
<!-- Generated by graphviz version 2.40.1 (0)
 -->
<!-- Title: inheritance2c2fbe003b Pages: 1 -->
<svg width="576pt" height="183pt"
 viewBox="0.00 0.00 576.00 182.60" xmlns="http://www.w3.org/2000/svg" xmlns:xlink="http://www.w3.org/1999/xlink">
<g id="graph0" class="graph" transform="scale(.7423 .7423) rotate(0) translate(4 242)">
<title>inheritance2c2fbe003b</title>
<!-- AccessType -->
<g id="node1" class="node">
<title>AccessType</title>
<g id="a_node1"><a xlink:href="../../pyVHDLModel/pyVHDLModel.VHDLModel.html#pyVHDLModel.VHDLModel.AccessType" xlink:title="AccessType" target="_top">
<polygon fill="#ffffff" stroke="#000000" stroke-width=".5" points="441,-127 349,-127 349,-108 441,-108 441,-127"/>
<text text-anchor="middle" x="395" y="-115" font-family="Vera Sans, DejaVu Sans, Liberation Sans, Arial, Helvetica, sans" font-size="10.00" fill="#000000">AccessType</text>
</a>
</g>
</g>
<!-- Type -->
<g id="node2" class="node">
<title>Type</title>
<g id="a_node2"><a xlink:href="../../pyVHDLModel/pyVHDLModel.VHDLModel.html#pyVHDLModel.VHDLModel.Type" xlink:title="Type" target="_top">
<polygon fill="#ffffff" stroke="#000000" stroke-width=".5" points="302,-127 248,-127 248,-108 302,-108 302,-127"/>
<text text-anchor="middle" x="275" y="-115" font-family="Vera Sans, DejaVu Sans, Liberation Sans, Arial, Helvetica, sans" font-size="10.00" fill="#000000">Type</text>
</a>
</g>
</g>
<!-- Type&#45;&gt;AccessType -->
<g id="edge1" class="edge">
<title>Type&#45;&gt;AccessType</title>
<path fill="none" stroke="#000000" stroke-width=".5" d="M302.2299,-117.5C314.4241,-117.5 329.2234,-117.5 343.3867,-117.5"/>
<polygon fill="#000000" stroke="#000000" stroke-width=".5" points="343.57,-119.2501 348.57,-117.5 343.57,-115.7501 343.57,-119.2501"/>
</g>
<!-- CompositeType -->
<g id="node4" class="node">
<title>CompositeType</title>
<g id="a_node4"><a xlink:href="../../pyVHDLModel/pyVHDLModel.VHDLModel.html#pyVHDLModel.VHDLModel.CompositeType" xlink:title="A ``CompositeType`` is a base&#45;class for all composite types." target="_top">
<polygon fill="#ffffff" stroke="#000000" stroke-width=".5" points="452,-53 338,-53 338,-34 452,-34 452,-53"/>
<text text-anchor="middle" x="395" y="-41" font-family="Vera Sans, DejaVu Sans, Liberation Sans, Arial, Helvetica, sans" font-size="10.00" fill="#000000">CompositeType</text>
</a>
</g>
</g>
<!-- Type&#45;&gt;CompositeType -->
<g id="edge5" class="edge">
<title>Type&#45;&gt;CompositeType</title>
<path fill="none" stroke="#000000" stroke-width=".5" d="M283.4345,-107.8128C294.7093,-95.4228 315.8556,-74.0693 338,-61.5 342.3997,-59.0027 347.1908,-56.8038 352.0646,-54.8801"/>
<polygon fill="#000000" stroke="#000000" stroke-width=".5" points="352.8867,-56.4409 356.9545,-53.0474 351.6584,-53.1636 352.8867,-56.4409"/>
</g>
<!-- ScalarType -->
<g id="node10" class="node">
<title>ScalarType</title>
<g id="a_node10"><a xlink:href="../../pyVHDLModel/pyVHDLModel.VHDLModel.html#pyVHDLModel.VHDLModel.ScalarType" xlink:title="A ``ScalarType`` is a base&#45;class for all scalar types." target="_top">
<polygon fill="#ffffff" stroke="#000000" stroke-width=".5" points="441,-90 349,-90 349,-71 441,-71 441,-90"/>
<text text-anchor="middle" x="395" y="-78" font-family="Vera Sans, DejaVu Sans, Liberation Sans, Arial, Helvetica, sans" font-size="10.00" fill="#000000">ScalarType</text>
</a>
</g>
</g>
<!-- Type&#45;&gt;ScalarType -->
<g id="edge19" class="edge">
<title>Type&#45;&gt;ScalarType</title>
<path fill="none" stroke="#000000" stroke-width=".5" d="M302.2299,-109.1041C319.0431,-103.92 340.8087,-97.209 359.0315,-91.5903"/>
<polygon fill="#000000" stroke="#000000" stroke-width=".5" points="359.8078,-93.1823 364.0702,-90.0367 358.7765,-89.8377 359.8078,-93.1823"/>
</g>
<!-- FileType -->
<g id="node11" class="node">
<title>FileType</title>
<g id="a_node11"><a xlink:href="../../pyVHDLModel/pyVHDLModel.VHDLModel.html#pyVHDLModel.VHDLModel.FileType" xlink:title="FileType" target="_top">
<polygon fill="#ffffff" stroke="#000000" stroke-width=".5" points="433.5,-201 356.5,-201 356.5,-182 433.5,-182 433.5,-201"/>
<text text-anchor="middle" x="395" y="-189" font-family="Vera Sans, DejaVu Sans, Liberation Sans, Arial, Helvetica, sans" font-size="10.00" fill="#000000">FileType</text>
</a>
</g>
</g>
<!-- Type&#45;&gt;FileType -->
<g id="edge8" class="edge">
<title>Type&#45;&gt;FileType</title>
<path fill="none" stroke="#000000" stroke-width=".5" d="M283.8965,-127.3728C295.3364,-139.5329 316.3247,-160.0974 338,-172.5 343.0927,-175.4141 348.6994,-177.9648 354.3483,-180.1713"/>
<polygon fill="#000000" stroke="#000000" stroke-width=".5" points="353.7966,-181.8333 359.0929,-181.9442 355.0217,-178.5547 353.7966,-181.8333"/>
</g>
<!-- ProtectedType -->
<g id="node16" class="node">
<title>ProtectedType</title>
<g id="a_node16"><a xlink:href="../../pyVHDLModel/pyVHDLModel.VHDLModel.html#pyVHDLModel.VHDLModel.ProtectedType" xlink:title="ProtectedType" target="_top">
<polygon fill="#ffffff" stroke="#000000" stroke-width=".5" points="452,-164 338,-164 338,-145 452,-145 452,-164"/>
<text text-anchor="middle" x="395" y="-152" font-family="Vera Sans, DejaVu Sans, Liberation Sans, Arial, Helvetica, sans" font-size="10.00" fill="#000000">ProtectedType</text>
</a>
</g>
</g>
<!-- Type&#45;&gt;ProtectedType -->
<g id="edge14" class="edge">
<title>Type&#45;&gt;ProtectedType</title>
<path fill="none" stroke="#000000" stroke-width=".5" d="M302.2299,-125.8959C319.0431,-131.08 340.8087,-137.791 359.0315,-143.4097"/>
<polygon fill="#000000" stroke="#000000" stroke-width=".5" points="358.7765,-145.1623 364.0702,-144.9633 359.8078,-141.8177 358.7765,-145.1623"/>
</g>
<!-- ArrayType -->
<g id="node3" class="node">
<title>ArrayType</title>
<g id="a_node3"><a xlink:href="../../pyVHDLModel/pyVHDLModel.VHDLModel.html#pyVHDLModel.VHDLModel.ArrayType" xlink:title="ArrayType" target="_top">
<polygon fill="#ffffff" stroke="#000000" stroke-width=".5" points="598.5,-19 514.5,-19 514.5,0 598.5,0 598.5,-19"/>
<text text-anchor="middle" x="556.5" y="-7" font-family="Vera Sans, DejaVu Sans, Liberation Sans, Arial, Helvetica, sans" font-size="10.00" fill="#000000">ArrayType</text>
</a>
</g>
</g>
<!-- CompositeType&#45;&gt;ArrayType -->
<g id="edge2" class="edge">
<title>CompositeType&#45;&gt;ArrayType</title>
<path fill="none" stroke="#000000" stroke-width=".5" d="M440.4165,-33.9386C461.9231,-29.4109 487.5951,-24.0063 509.322,-19.4322"/>
<polygon fill="#000000" stroke="#000000" stroke-width=".5" points="509.935,-21.0916 514.4672,-18.349 509.2139,-17.6667 509.935,-21.0916"/>
</g>
<!-- RecordType -->
<g id="node18" class="node">
<title>RecordType</title>
<g id="a_node18"><a xlink:href="../../pyVHDLModel/pyVHDLModel.VHDLModel.html#pyVHDLModel.VHDLModel.RecordType" xlink:title="RecordType" target="_top">
<polygon fill="#ffffff" stroke="#000000" stroke-width=".5" points="602.5,-56 510.5,-56 510.5,-37 602.5,-37 602.5,-56"/>
<text text-anchor="middle" x="556.5" y="-44" font-family="Vera Sans, DejaVu Sans, Liberation Sans, Arial, Helvetica, sans" font-size="10.00" fill="#000000">RecordType</text>
</a>
</g>
</g>
<!-- CompositeType&#45;&gt;RecordType -->
<g id="edge18" class="edge">
<title>CompositeType&#45;&gt;RecordType</title>
<path fill="none" stroke="#000000" stroke-width=".5" d="M452.3936,-44.5661C469.648,-44.8867 488.4591,-45.2361 505.2857,-45.5487"/>
<polygon fill="#000000" stroke="#000000" stroke-width=".5" points="505.4084,-47.3011 510.4401,-45.6444 505.4735,-43.8017 505.4084,-47.3011"/>
</g>
<!-- BaseType -->
<g id="node5" class="node">
<title>BaseType</title>
<g id="a_node5"><a xlink:href="../../pyVHDLModel/pyVHDLModel.VHDLModel.html#pyVHDLModel.VHDLModel.BaseType" xlink:title="``BaseType`` is the base class of all type entities in this model." target="_top">
<polygon fill="#ffffff" stroke="#000000" stroke-width=".5" points="212,-127 135,-127 135,-108 212,-108 212,-127"/>
<text text-anchor="middle" x="173.5" y="-115" font-family="Vera Sans, DejaVu Sans, Liberation Sans, Arial, Helvetica, sans" font-size="10.00" fill="#000000">BaseType</text>
</a>
</g>
</g>
<!-- BaseType&#45;&gt;Type -->
<g id="edge20" class="edge">
<title>BaseType&#45;&gt;Type</title>
<path fill="none" stroke="#000000" stroke-width=".5" d="M212.1623,-117.5C222.1835,-117.5 232.8723,-117.5 242.539,-117.5"/>
<polygon fill="#000000" stroke="#000000" stroke-width=".5" points="242.7936,-119.2501 247.7936,-117.5 242.7936,-115.7501 242.7936,-119.2501"/>
</g>
<!-- ModelEntity -->
<g id="node6" class="node">
<title>ModelEntity</title>
<g id="a_node6"><a xlink:href="../../pyVHDLModel/pyVHDLModel.VHDLModel.html#pyVHDLModel.VHDLModel.ModelEntity" xlink:title="``ModelEntity`` is a base class for all classes in the VHDL language model," target="_top">
<polygon fill="#ffffff" stroke="#000000" stroke-width=".5" points="99,-146 0,-146 0,-127 99,-127 99,-146"/>
<text text-anchor="middle" x="49.5" y="-134" font-family="Vera Sans, DejaVu Sans, Liberation Sans, Arial, Helvetica, sans" font-size="10.00" fill="#000000">ModelEntity</text>
</a>
</g>
</g>
<!-- ModelEntity&#45;&gt;BaseType -->
<g id="edge3" class="edge">
<title>ModelEntity&#45;&gt;BaseType</title>
<path fill="none" stroke="#000000" stroke-width=".5" d="M99.2211,-128.8815C109.3194,-127.3341 119.8705,-125.7174 129.7439,-124.2046"/>
<polygon fill="#000000" stroke="#000000" stroke-width=".5" points="130.1621,-125.911 134.8393,-123.4238 129.6319,-122.4514 130.1621,-125.911"/>
</g>
<!-- NamedEntity -->
<g id="node7" class="node">
<title>NamedEntity</title>
<g id="a_node7"><a xlink:href="../../pyVHDLModel/pyVHDLModel.VHDLModel.html#pyVHDLModel.VHDLModel.NamedEntity" xlink:title="A ``NamedEntity`` is a mixin class for all VHDL entities that have names." target="_top">
<polygon fill="#ffffff" stroke="#000000" stroke-width=".5" points="99,-109 0,-109 0,-90 99,-90 99,-109"/>
<text text-anchor="middle" x="49.5" y="-97" font-family="Vera Sans, DejaVu Sans, Liberation Sans, Arial, Helvetica, sans" font-size="10.00" fill="#000000">NamedEntity</text>
</a>
</g>
</g>
<!-- NamedEntity&#45;&gt;BaseType -->
<g id="edge4" class="edge">
<title>NamedEntity&#45;&gt;BaseType</title>
<path fill="none" stroke="#000000" stroke-width=".5" d="M99.2211,-106.7176C109.3194,-108.1835 119.8705,-109.7151 129.7439,-111.1483"/>
<polygon fill="#000000" stroke="#000000" stroke-width=".5" points="129.6398,-112.9015 134.8393,-111.888 130.1426,-109.4378 129.6398,-112.9015"/>
</g>
<!-- DiscreteType -->
<g id="node8" class="node">
<title>DiscreteType</title>
<g id="a_node8"><a xlink:href="../../pyVHDLModel/pyVHDLModel.VHDLModel.html#pyVHDLModel.VHDLModel.DiscreteType" xlink:title="A ``DiscreteType`` is a mixin class for all discrete types." target="_top">
<polygon fill="#ffffff" stroke="#000000" stroke-width=".5" points="448.5,-238 341.5,-238 341.5,-219 448.5,-219 448.5,-238"/>
<text text-anchor="middle" x="395" y="-226" font-family="Vera Sans, DejaVu Sans, Liberation Sans, Arial, Helvetica, sans" font-size="10.00" fill="#000000">DiscreteType</text>
</a>
</g>
</g>
<!-- EnumeratedType -->
<g id="node9" class="node">
<title>EnumeratedType</title>
<g id="a_node9"><a xlink:href="../../pyVHDLModel/pyVHDLModel.VHDLModel.html#pyVHDLModel.VHDLModel.EnumeratedType" xlink:title="EnumeratedType" target="_top">
<polygon fill="#ffffff" stroke="#000000" stroke-width=".5" points="617.5,-194 495.5,-194 495.5,-175 617.5,-175 617.5,-194"/>
<text text-anchor="middle" x="556.5" y="-182" font-family="Vera Sans, DejaVu Sans, Liberation Sans, Arial, Helvetica, sans" font-size="10.00" fill="#000000">EnumeratedType</text>
</a>
</g>
</g>
<!-- DiscreteType&#45;&gt;EnumeratedType -->
<g id="edge7" class="edge">
<title>DiscreteType&#45;&gt;EnumeratedType</title>
<path fill="none" stroke="#000000" stroke-width=".5" d="M430.0431,-218.9527C455.5448,-212.0048 490.1151,-202.5863 516.6651,-195.3528"/>
<polygon fill="#000000" stroke="#000000" stroke-width=".5" points="517.1612,-197.0316 521.5253,-194.0287 516.2411,-193.6547 517.1612,-197.0316"/>
</g>
<!-- IntegerType -->
<g id="node12" class="node">
<title>IntegerType</title>
<g id="a_node12"><a xlink:href="../../pyVHDLModel/pyVHDLModel.VHDLModel.html#pyVHDLModel.VHDLModel.IntegerType" xlink:title="IntegerType" target="_top">
<polygon fill="#ffffff" stroke="#000000" stroke-width=".5" points="764,-185 665,-185 665,-166 764,-166 764,-185"/>
<text text-anchor="middle" x="714.5" y="-173" font-family="Vera Sans, DejaVu Sans, Liberation Sans, Arial, Helvetica, sans" font-size="10.00" fill="#000000">IntegerType</text>
</a>
</g>
</g>
<!-- DiscreteType&#45;&gt;IntegerType -->
<g id="edge11" class="edge">
<title>DiscreteType&#45;&gt;IntegerType</title>
<path fill="none" stroke="#000000" stroke-width=".5" d="M448.8762,-225.1689C495.7641,-221.6156 565.3673,-214.7608 625,-202.5 644.3053,-198.5307 665.4346,-192.2516 682.3132,-186.7473"/>
<polygon fill="#000000" stroke="#000000" stroke-width=".5" points="683.2077,-188.2951 687.4083,-185.0673 682.1117,-184.9711 683.2077,-188.2951"/>
</g>
<!-- ScalarType&#45;&gt;EnumeratedType -->
<g id="edge6" class="edge">
<title>ScalarType&#45;&gt;EnumeratedType</title>
<path fill="none" stroke="#000000" stroke-width=".5" d="M437.1961,-90.0127C442.4806,-92.2728 447.575,-95.0616 452,-98.5 475.9571,-117.1159 464.8276,-136.916 488,-156.5 496.264,-163.4842 506.5042,-168.9035 516.5259,-173.0316"/>
<polygon fill="#000000" stroke="#000000" stroke-width=".5" points="516.1249,-174.7543 521.4185,-174.9556 517.4059,-171.4971 516.1249,-174.7543"/>
</g>
<!-- RangedScalarType -->
<g id="node13" class="node">
<title>RangedScalarType</title>
<g id="a_node13"><a xlink:href="../../pyVHDLModel/pyVHDLModel.VHDLModel.html#pyVHDLModel.VHDLModel.RangedScalarType" xlink:title="A ``RangedScalarType`` is a base&#45;class for all scalar types with a range." target="_top">
<polygon fill="#ffffff" stroke="#000000" stroke-width=".5" points="625,-111 488,-111 488,-92 625,-92 625,-111"/>
<text text-anchor="middle" x="556.5" y="-99" font-family="Vera Sans, DejaVu Sans, Liberation Sans, Arial, Helvetica, sans" font-size="10.00" fill="#000000">RangedScalarType</text>
</a>
</g>
</g>
<!-- ScalarType&#45;&gt;RangedScalarType -->
<g id="edge15" class="edge">
<title>ScalarType&#45;&gt;RangedScalarType</title>
<path fill="none" stroke="#000000" stroke-width=".5" d="M441.2794,-86.5178C454.2296,-88.2017 468.636,-90.075 482.7546,-91.9108"/>
<polygon fill="#000000" stroke="#000000" stroke-width=".5" points="482.756,-93.6757 487.9399,-92.5851 483.2074,-90.2049 482.756,-93.6757"/>
</g>
<!-- RangedScalarType&#45;&gt;IntegerType -->
<g id="edge9" class="edge">
<title>RangedScalarType&#45;&gt;IntegerType</title>
<path fill="none" stroke="#000000" stroke-width=".5" d="M606.0693,-111.0629C612.6648,-113.3186 619.1582,-116.0927 625,-119.5 644.8189,-131.0599 641.6857,-144.1155 661,-156.5 665.5104,-159.3921 670.5175,-161.9127 675.6071,-164.0891"/>
<polygon fill="#000000" stroke="#000000" stroke-width=".5" points="675.0014,-165.7319 680.2925,-165.9918 676.3184,-162.4891 675.0014,-165.7319"/>
</g>
<!-- PhysicalType -->
<g id="node15" class="node">
<title>PhysicalType</title>
<g id="a_node15"><a xlink:href="../../pyVHDLModel/pyVHDLModel.VHDLModel.html#pyVHDLModel.VHDLModel.PhysicalType" xlink:title="PhysicalType" target="_top">
<polygon fill="#ffffff" stroke="#000000" stroke-width=".5" points="768,-111 661,-111 661,-92 768,-92 768,-111"/>
<text text-anchor="middle" x="714.5" y="-99" font-family="Vera Sans, DejaVu Sans, Liberation Sans, Arial, Helvetica, sans" font-size="10.00" fill="#000000">PhysicalType</text>
</a>
</g>
</g>
<!-- RangedScalarType&#45;&gt;PhysicalType -->
<g id="edge12" class="edge">
<title>RangedScalarType&#45;&gt;PhysicalType</title>
<path fill="none" stroke="#000000" stroke-width=".5" d="M625.3415,-101.5C635.3973,-101.5 645.6764,-101.5 655.5124,-101.5"/>
<polygon fill="#000000" stroke="#000000" stroke-width=".5" points="655.6121,-103.2501 660.6121,-101.5 655.6121,-99.7501 655.6121,-103.2501"/>
</g>
<!-- RealType -->
<g id="node17" class="node">
<title>RealType</title>
<g id="a_node17"><a xlink:href="../../pyVHDLModel/pyVHDLModel.VHDLModel.html#pyVHDLModel.VHDLModel.RealType" xlink:title="RealType" target="_top">
<polygon fill="#ffffff" stroke="#000000" stroke-width=".5" points="753,-148 676,-148 676,-129 753,-129 753,-148"/>
<text text-anchor="middle" x="714.5" y="-136" font-family="Vera Sans, DejaVu Sans, Liberation Sans, Arial, Helvetica, sans" font-size="10.00" fill="#000000">RealType</text>
</a>
</g>
</g>
<!-- RangedScalarType&#45;&gt;RealType -->
<g id="edge16" class="edge">
<title>RangedScalarType&#45;&gt;RealType</title>
<path fill="none" stroke="#000000" stroke-width=".5" d="M597.1889,-111.0284C619.7153,-116.3036 647.7251,-122.8628 670.7255,-128.249"/>
<polygon fill="#000000" stroke="#000000" stroke-width=".5" points="670.5863,-130.0137 675.8536,-129.4499 671.3843,-126.6059 670.5863,-130.0137"/>
</g>
<!-- NumericType -->
<g id="node14" class="node">
<title>NumericType</title>
<g id="a_node14"><a xlink:href="../../pyVHDLModel/pyVHDLModel.VHDLModel.html#pyVHDLModel.VHDLModel.NumericType" xlink:title="A ``NumericType`` is a mixin class for all numeric types." target="_top">
<polygon fill="#ffffff" stroke="#000000" stroke-width=".5" points="606,-148 507,-148 507,-129 606,-129 606,-148"/>
<text text-anchor="middle" x="556.5" y="-136" font-family="Vera Sans, DejaVu Sans, Liberation Sans, Arial, Helvetica, sans" font-size="10.00" fill="#000000">NumericType</text>
</a>
</g>
</g>
<!-- NumericType&#45;&gt;IntegerType -->
<g id="edge10" class="edge">
<title>NumericType&#45;&gt;IntegerType</title>
<path fill="none" stroke="#000000" stroke-width=".5" d="M597.1889,-148.0284C619.0353,-153.1443 646.039,-159.468 668.6291,-164.7581"/>
<polygon fill="#000000" stroke="#000000" stroke-width=".5" points="668.4073,-166.5034 673.6747,-165.9396 669.2054,-163.0956 668.4073,-166.5034"/>
</g>
<!-- NumericType&#45;&gt;PhysicalType -->
<g id="edge13" class="edge">
<title>NumericType&#45;&gt;PhysicalType</title>
<path fill="none" stroke="#000000" stroke-width=".5" d="M597.1889,-128.9716C619.0353,-123.8557 646.039,-117.532 668.6291,-112.2419"/>
<polygon fill="#000000" stroke="#000000" stroke-width=".5" points="669.2054,-113.9044 673.6747,-111.0604 668.4073,-110.4966 669.2054,-113.9044"/>
</g>
<!-- NumericType&#45;&gt;RealType -->
<g id="edge17" class="edge">
<title>NumericType&#45;&gt;RealType</title>
<path fill="none" stroke="#000000" stroke-width=".5" d="M606.0587,-138.5C626.8328,-138.5 650.7765,-138.5 670.872,-138.5"/>
<polygon fill="#000000" stroke="#000000" stroke-width=".5" points="670.8939,-140.2501 675.8939,-138.5 670.8938,-136.7501 670.8939,-140.2501"/>
</g>
</g>
</svg>
