<?xml version="1.0" encoding="UTF-8" standalone="no"?>
<!DOCTYPE svg PUBLIC "-//W3C//DTD SVG 1.1//EN"
 "http://www.w3.org/Graphics/SVG/1.1/DTD/svg11.dtd">
<!-- Generated by graphviz version 2.40.1 (0)
 -->
<!-- Title: inheritancefc4f5bd18c Pages: 1 -->
<svg width="363pt" height="64pt"
 viewBox="0.00 0.00 363.00 64.00" xmlns="http://www.w3.org/2000/svg" xmlns:xlink="http://www.w3.org/1999/xlink">
<g id="graph0" class="graph" transform="scale(1 1) rotate(0) translate(4 60)">
<title>inheritancefc4f5bd18c</title>
<!-- ModelEntity -->
<g id="node1" class="node">
<title>ModelEntity</title>
<g id="a_node1"><a xlink:href="../pyVHDLModel/pyVHDLModel.VHDLModel.html#pyVHDLModel.VHDLModel.ModelEntity" xlink:title="``ModelEntity`` is a base class for all classes in the VHDL language model," target="_top">
<polygon fill="#ffffff" stroke="#000000" stroke-width=".5" points="99,-56 0,-56 0,-37 99,-37 99,-56"/>
<text text-anchor="middle" x="49.5" y="-44" font-family="Vera Sans, DejaVu Sans, Liberation Sans, Arial, Helvetica, sans" font-size="10.00" fill="#000000">ModelEntity</text>
</a>
</g>
</g>
<!-- Object -->
<g id="node3" class="node">
<title>Object</title>
<g id="a_node3"><a xlink:href="../pyVHDLModel/pyVHDLModel.VHDLModel.html#pyVHDLModel.VHDLModel.Object" xlink:title="Object" target="_top">
<polygon fill="#ffffff" stroke="#000000" stroke-width=".5" points="197,-37 135,-37 135,-18 197,-18 197,-37"/>
<text text-anchor="middle" x="166" y="-25" font-family="Vera Sans, DejaVu Sans, Liberation Sans, Arial, Helvetica, sans" font-size="10.00" fill="#000000">Object</text>
</a>
</g>
</g>
<!-- ModelEntity&#45;&gt;Object -->
<g id="edge1" class="edge">
<title>ModelEntity&#45;&gt;Object</title>
<path fill="none" stroke="#000000" stroke-width=".5" d="M99.2444,-38.3872C109.5666,-36.7037 120.253,-34.9609 129.9692,-33.3763"/>
<polygon fill="#000000" stroke="#000000" stroke-width=".5" points="130.3016,-35.0953 134.9547,-32.5632 129.7382,-31.6409 130.3016,-35.0953"/>
</g>
<!-- NamedEntity -->
<g id="node2" class="node">
<title>NamedEntity</title>
<g id="a_node2"><a xlink:href="../pyVHDLModel/pyVHDLModel.VHDLModel.html#pyVHDLModel.VHDLModel.NamedEntity" xlink:title="A ``NamedEntity`` is a mixin class for all VHDL entities that have names." target="_top">
<polygon fill="#ffffff" stroke="#000000" stroke-width=".5" points="99,-19 0,-19 0,0 99,0 99,-19"/>
<text text-anchor="middle" x="49.5" y="-7" font-family="Vera Sans, DejaVu Sans, Liberation Sans, Arial, Helvetica, sans" font-size="10.00" fill="#000000">NamedEntity</text>
</a>
</g>
</g>
<!-- NamedEntity&#45;&gt;Object -->
<g id="edge2" class="edge">
<title>NamedEntity&#45;&gt;Object</title>
<path fill="none" stroke="#000000" stroke-width=".5" d="M99.2444,-17.1858C109.5666,-18.7807 120.253,-20.4318 129.9692,-21.933"/>
<polygon fill="#000000" stroke="#000000" stroke-width=".5" points="129.7461,-23.6692 134.9547,-22.7033 130.2806,-20.2103 129.7461,-23.6692"/>
</g>
<!-- SharedVariable -->
<g id="node4" class="node">
<title>SharedVariable</title>
<g id="a_node4"><a xlink:href="../pyVHDLModel/pyVHDLModel.VHDLModel.html#pyVHDLModel.VHDLModel.SharedVariable" xlink:title="SharedVariable" target="_top">
<polygon fill="#ffffff" stroke="#000000" stroke-width=".5" points="355,-37 233,-37 233,-18 355,-18 355,-37"/>
<text text-anchor="middle" x="294" y="-25" font-family="Vera Sans, DejaVu Sans, Liberation Sans, Arial, Helvetica, sans" font-size="10.00" fill="#000000">SharedVariable</text>
</a>
</g>
</g>
<!-- Object&#45;&gt;SharedVariable -->
<g id="edge3" class="edge">
<title>Object&#45;&gt;SharedVariable</title>
<path fill="none" stroke="#000000" stroke-width=".5" d="M197.3123,-27.5C206.5985,-27.5 217.1398,-27.5 227.7633,-27.5"/>
<polygon fill="#000000" stroke="#000000" stroke-width=".5" points="227.98,-29.2501 232.98,-27.5 227.98,-25.7501 227.98,-29.2501"/>
</g>
</g>
</svg>
