<?xml version="1.0" encoding="UTF-8" standalone="no"?>
<!DOCTYPE svg PUBLIC "-//W3C//DTD SVG 1.1//EN"
 "http://www.w3.org/Graphics/SVG/1.1/DTD/svg11.dtd">
<!-- Generated by graphviz version 2.40.1 (0)
 -->
<!-- Title: inheritance245c447150 Pages: 1 -->
<svg width="576pt" height="81pt"
 viewBox="0.00 0.00 576.00 80.58" xmlns="http://www.w3.org/2000/svg" xmlns:xlink="http://www.w3.org/1999/xlink">
<g id="graph0" class="graph" transform="scale(.7978 .7978) rotate(0) translate(4 97)">
<title>inheritance245c447150</title>
<!-- InterfaceItem -->
<g id="node1" class="node">
<title>InterfaceItem</title>
<g id="a_node1"><a xlink:href="../pyVHDLModel/pyVHDLModel.VHDLModel.html#pyVHDLModel.VHDLModel.InterfaceItem" xlink:title="An ``InterfaceItem`` is a base&#45;class for all mixin&#45;classes for all interface" target="_top">
<polygon fill="#ffffff" stroke="#000000" stroke-width=".5" points="279,-93 165,-93 165,-74 279,-74 279,-93"/>
<text text-anchor="middle" x="222" y="-81" font-family="Vera Sans, DejaVu Sans, Liberation Sans, Arial, Helvetica, sans" font-size="10.00" fill="#000000">InterfaceItem</text>
</a>
</g>
</g>
<!-- PortInterfaceItem -->
<g id="node5" class="node">
<title>PortInterfaceItem</title>
<g id="a_node5"><a xlink:href="../pyVHDLModel/pyVHDLModel.VHDLModel.html#pyVHDLModel.VHDLModel.PortInterfaceItem" xlink:title="A ``PortInterfaceItem`` is a mixin class for all port interface items." target="_top">
<polygon fill="#ffffff" stroke="#000000" stroke-width=".5" points="489,-93 345,-93 345,-74 489,-74 489,-93"/>
<text text-anchor="middle" x="417" y="-81" font-family="Vera Sans, DejaVu Sans, Liberation Sans, Arial, Helvetica, sans" font-size="10.00" fill="#000000">PortInterfaceItem</text>
</a>
</g>
</g>
<!-- InterfaceItem&#45;&gt;PortInterfaceItem -->
<g id="edge3" class="edge">
<title>InterfaceItem&#45;&gt;PortInterfaceItem</title>
<path fill="none" stroke="#000000" stroke-width=".5" d="M279.1889,-83.5C298.1478,-83.5 319.5749,-83.5 339.7853,-83.5"/>
<polygon fill="#000000" stroke="#000000" stroke-width=".5" points="339.8951,-85.2501 344.8951,-83.5 339.8951,-81.7501 339.8951,-85.2501"/>
</g>
<!-- ModelEntity -->
<g id="node2" class="node">
<title>ModelEntity</title>
<g id="a_node2"><a xlink:href="../pyVHDLModel/pyVHDLModel.VHDLModel.html#pyVHDLModel.VHDLModel.ModelEntity" xlink:title="``ModelEntity`` is a base class for all classes in the VHDL language model," target="_top">
<polygon fill="#ffffff" stroke="#000000" stroke-width=".5" points="99,-74 0,-74 0,-55 99,-55 99,-74"/>
<text text-anchor="middle" x="49.5" y="-62" font-family="Vera Sans, DejaVu Sans, Liberation Sans, Arial, Helvetica, sans" font-size="10.00" fill="#000000">ModelEntity</text>
</a>
</g>
</g>
<!-- Object -->
<g id="node4" class="node">
<title>Object</title>
<g id="a_node4"><a xlink:href="../pyVHDLModel/pyVHDLModel.VHDLModel.html#pyVHDLModel.VHDLModel.Object" xlink:title="Object" target="_top">
<polygon fill="#ffffff" stroke="#000000" stroke-width=".5" points="253,-56 191,-56 191,-37 253,-37 253,-56"/>
<text text-anchor="middle" x="222" y="-44" font-family="Vera Sans, DejaVu Sans, Liberation Sans, Arial, Helvetica, sans" font-size="10.00" fill="#000000">Object</text>
</a>
</g>
</g>
<!-- ModelEntity&#45;&gt;Object -->
<g id="edge1" class="edge">
<title>ModelEntity&#45;&gt;Object</title>
<path fill="none" stroke="#000000" stroke-width=".5" d="M99.3941,-59.2937C126.9842,-56.4147 160.6495,-52.9018 185.718,-50.2859"/>
<polygon fill="#000000" stroke="#000000" stroke-width=".5" points="186.1403,-52.0015 190.9316,-49.7419 185.777,-48.5204 186.1403,-52.0015"/>
</g>
<!-- NamedEntity -->
<g id="node3" class="node">
<title>NamedEntity</title>
<g id="a_node3"><a xlink:href="../pyVHDLModel/pyVHDLModel.VHDLModel.html#pyVHDLModel.VHDLModel.NamedEntity" xlink:title="A ``NamedEntity`` is a mixin class for all VHDL entities that have names." target="_top">
<polygon fill="#ffffff" stroke="#000000" stroke-width=".5" points="99,-37 0,-37 0,-18 99,-18 99,-37"/>
<text text-anchor="middle" x="49.5" y="-25" font-family="Vera Sans, DejaVu Sans, Liberation Sans, Arial, Helvetica, sans" font-size="10.00" fill="#000000">NamedEntity</text>
</a>
</g>
</g>
<!-- NamedEntity&#45;&gt;Object -->
<g id="edge2" class="edge">
<title>NamedEntity&#45;&gt;Object</title>
<path fill="none" stroke="#000000" stroke-width=".5" d="M99.3941,-32.9956C126.9842,-36.0345 160.6495,-39.7425 185.718,-42.5037"/>
<polygon fill="#000000" stroke="#000000" stroke-width=".5" points="185.7701,-44.27 190.9316,-43.078 186.1533,-40.791 185.7701,-44.27"/>
</g>
<!-- Signal -->
<g id="node7" class="node">
<title>Signal</title>
<g id="a_node7"><a xlink:href="../pyVHDLModel/pyVHDLModel.VHDLModel.html#pyVHDLModel.VHDLModel.Signal" xlink:title="Signal" target="_top">
<polygon fill="#ffffff" stroke="#000000" stroke-width=".5" points="448,-56 386,-56 386,-37 448,-37 448,-56"/>
<text text-anchor="middle" x="417" y="-44" font-family="Vera Sans, DejaVu Sans, Liberation Sans, Arial, Helvetica, sans" font-size="10.00" fill="#000000">Signal</text>
</a>
</g>
</g>
<!-- Object&#45;&gt;Signal -->
<g id="edge6" class="edge">
<title>Object&#45;&gt;Signal</title>
<path fill="none" stroke="#000000" stroke-width=".5" d="M253.3301,-46.5C288.0135,-46.5 343.8486,-46.5 380.4862,-46.5"/>
<polygon fill="#000000" stroke="#000000" stroke-width=".5" points="380.7477,-48.2501 385.7476,-46.5 380.7476,-44.7501 380.7477,-48.2501"/>
</g>
<!-- PortSignalInterfaceItem -->
<g id="node6" class="node">
<title>PortSignalInterfaceItem</title>
<g id="a_node6"><a xlink:href="../pyVHDLModel/pyVHDLModel.VHDLModel.html#pyVHDLModel.VHDLModel.PortSignalInterfaceItem" xlink:title="PortSignalInterfaceItem" target="_top">
<polygon fill="#ffffff" stroke="#000000" stroke-width=".5" points="714,-74 525,-74 525,-55 714,-55 714,-74"/>
<text text-anchor="middle" x="619.5" y="-62" font-family="Vera Sans, DejaVu Sans, Liberation Sans, Arial, Helvetica, sans" font-size="10.00" fill="#000000">PortSignalInterfaceItem</text>
</a>
</g>
</g>
<!-- PortInterfaceItem&#45;&gt;PortSignalInterfaceItem -->
<g id="edge5" class="edge">
<title>PortInterfaceItem&#45;&gt;PortSignalInterfaceItem</title>
<path fill="none" stroke="#000000" stroke-width=".5" d="M489.2495,-76.721C499.2059,-75.7869 509.5708,-74.8143 519.9127,-73.844"/>
<polygon fill="#000000" stroke="#000000" stroke-width=".5" points="520.1712,-75.5775 524.9858,-73.368 519.8442,-72.0928 520.1712,-75.5775"/>
</g>
<!-- Signal&#45;&gt;PortSignalInterfaceItem -->
<g id="edge4" class="edge">
<title>Signal&#45;&gt;PortSignalInterfaceItem</title>
<path fill="none" stroke="#000000" stroke-width=".5" d="M448.1968,-49.2731C467.5425,-50.9927 493.5807,-53.3072 519.5088,-55.6119"/>
<polygon fill="#000000" stroke="#000000" stroke-width=".5" points="519.5556,-57.3729 524.6909,-56.0725 519.8655,-53.8866 519.5556,-57.3729"/>
</g>
<!-- WithDefaultExpression -->
<g id="node8" class="node">
<title>WithDefaultExpression</title>
<g id="a_node8"><a xlink:href="../pyVHDLModel/pyVHDLModel.VHDLModel.html#pyVHDLModel.VHDLModel.WithDefaultExpression" xlink:title="A ``WithDefaultExpression`` is a mixin class for all objects declarations" target="_top">
<polygon fill="#ffffff" stroke="#000000" stroke-width=".5" points="309,-19 135,-19 135,0 309,0 309,-19"/>
<text text-anchor="middle" x="222" y="-7" font-family="Vera Sans, DejaVu Sans, Liberation Sans, Arial, Helvetica, sans" font-size="10.00" fill="#000000">WithDefaultExpression</text>
</a>
</g>
</g>
<!-- WithDefaultExpression&#45;&gt;Signal -->
<g id="edge7" class="edge">
<title>WithDefaultExpression&#45;&gt;Signal</title>
<path fill="none" stroke="#000000" stroke-width=".5" d="M272.2173,-19.0284C306.1399,-25.465 350.138,-33.8134 380.6867,-39.6098"/>
<polygon fill="#000000" stroke="#000000" stroke-width=".5" points="380.6103,-41.3764 385.8489,-40.5893 381.2628,-37.9378 380.6103,-41.3764"/>
</g>
</g>
</svg>
