<?xml version="1.0" encoding="UTF-8" standalone="no"?>
<!DOCTYPE svg PUBLIC "-//W3C//DTD SVG 1.1//EN"
 "http://www.w3.org/Graphics/SVG/1.1/DTD/svg11.dtd">
<!-- Generated by graphviz version 2.40.1 (0)
 -->
<!-- Title: inheritancebc2dd1965d Pages: 1 -->
<svg width="576pt" height="74pt"
 viewBox="0.00 0.00 576.00 74.30" xmlns="http://www.w3.org/2000/svg" xmlns:xlink="http://www.w3.org/1999/xlink">
<g id="graph0" class="graph" transform="scale(.7356 .7356) rotate(0) translate(4 97)">
<title>inheritancebc2dd1965d</title>
<!-- GenericEntityInstantiation -->
<g id="node1" class="node">
<title>GenericEntityInstantiation</title>
<g id="a_node1"><a xlink:href="../pyVHDLModel/pyVHDLModel.VHDLModel.html#pyVHDLModel.VHDLModel.GenericEntityInstantiation" xlink:title="GenericEntityInstantiation" target="_top">
<polygon fill="#ffffff" stroke="#000000" stroke-width=".5" points="212,-93 0,-93 0,-74 212,-74 212,-93"/>
<text text-anchor="middle" x="106" y="-81" font-family="Vera Sans, DejaVu Sans, Liberation Sans, Arial, Helvetica, sans" font-size="10.00" fill="#000000">GenericEntityInstantiation</text>
</a>
</g>
</g>
<!-- SubprogramInstantiation -->
<g id="node7" class="node">
<title>SubprogramInstantiation</title>
<g id="a_node7"><a xlink:href="../pyVHDLModel/pyVHDLModel.VHDLModel.html#pyVHDLModel.VHDLModel.SubprogramInstantiation" xlink:title="SubprogramInstantiation" target="_top">
<polygon fill="#ffffff" stroke="#000000" stroke-width=".5" points="437,-75 248,-75 248,-56 437,-56 437,-75"/>
<text text-anchor="middle" x="342.5" y="-63" font-family="Vera Sans, DejaVu Sans, Liberation Sans, Arial, Helvetica, sans" font-size="10.00" fill="#000000">SubprogramInstantiation</text>
</a>
</g>
</g>
<!-- GenericEntityInstantiation&#45;&gt;SubprogramInstantiation -->
<g id="edge7" class="edge">
<title>GenericEntityInstantiation&#45;&gt;SubprogramInstantiation</title>
<path fill="none" stroke="#000000" stroke-width=".5" d="M212.1436,-75.4214C222.2868,-74.6494 232.55,-73.8683 242.6305,-73.1011"/>
<polygon fill="#000000" stroke="#000000" stroke-width=".5" points="243.031,-74.8257 247.8838,-72.7012 242.7653,-71.3358 243.031,-74.8257"/>
</g>
<!-- ModelEntity -->
<g id="node2" class="node">
<title>ModelEntity</title>
<g id="a_node2"><a xlink:href="../pyVHDLModel/pyVHDLModel.VHDLModel.html#pyVHDLModel.VHDLModel.ModelEntity" xlink:title="``ModelEntity`` is a base class for all classes in the VHDL language model," target="_top">
<polygon fill="#ffffff" stroke="#000000" stroke-width=".5" points="155.5,-56 56.5,-56 56.5,-37 155.5,-37 155.5,-56"/>
<text text-anchor="middle" x="106" y="-44" font-family="Vera Sans, DejaVu Sans, Liberation Sans, Arial, Helvetica, sans" font-size="10.00" fill="#000000">ModelEntity</text>
</a>
</g>
</g>
<!-- SubProgramm -->
<g id="node5" class="node">
<title>SubProgramm</title>
<g id="a_node5"><a xlink:href="../pyVHDLModel/pyVHDLModel.VHDLModel.html#pyVHDLModel.VHDLModel.SubProgramm" xlink:title="SubProgramm" target="_top">
<polygon fill="#ffffff" stroke="#000000" stroke-width=".5" points="392,-37 293,-37 293,-18 392,-18 392,-37"/>
<text text-anchor="middle" x="342.5" y="-25" font-family="Vera Sans, DejaVu Sans, Liberation Sans, Arial, Helvetica, sans" font-size="10.00" fill="#000000">SubProgramm</text>
</a>
</g>
</g>
<!-- ModelEntity&#45;&gt;SubProgramm -->
<g id="edge4" class="edge">
<title>ModelEntity&#45;&gt;SubProgramm</title>
<path fill="none" stroke="#000000" stroke-width=".5" d="M155.5781,-42.517C194.2073,-39.4136 247.7988,-35.1081 287.6983,-31.9027"/>
<polygon fill="#000000" stroke="#000000" stroke-width=".5" points="288.1433,-33.6226 292.9871,-31.4778 287.863,-30.1339 288.1433,-33.6226"/>
</g>
<!-- ModelEntity&#45;&gt;SubprogramInstantiation -->
<g id="edge6" class="edge">
<title>ModelEntity&#45;&gt;SubprogramInstantiation</title>
<path fill="none" stroke="#000000" stroke-width=".5" d="M155.5781,-50.483C180.8022,-52.5095 212.4059,-55.0485 242.4113,-57.459"/>
<polygon fill="#000000" stroke="#000000" stroke-width=".5" points="242.4772,-59.2199 247.6013,-57.876 242.7575,-55.7311 242.4772,-59.2199"/>
</g>
<!-- NamedEntity -->
<g id="node3" class="node">
<title>NamedEntity</title>
<g id="a_node3"><a xlink:href="../pyVHDLModel/pyVHDLModel.VHDLModel.html#pyVHDLModel.VHDLModel.NamedEntity" xlink:title="A ``NamedEntity`` is a mixin class for all VHDL entities that have names." target="_top">
<polygon fill="#ffffff" stroke="#000000" stroke-width=".5" points="155.5,-19 56.5,-19 56.5,0 155.5,0 155.5,-19"/>
<text text-anchor="middle" x="106" y="-7" font-family="Vera Sans, DejaVu Sans, Liberation Sans, Arial, Helvetica, sans" font-size="10.00" fill="#000000">NamedEntity</text>
</a>
</g>
</g>
<!-- NamedEntity&#45;&gt;SubProgramm -->
<g id="edge5" class="edge">
<title>NamedEntity&#45;&gt;SubProgramm</title>
<path fill="none" stroke="#000000" stroke-width=".5" d="M155.5781,-13.2734C194.2073,-16.2135 247.7988,-20.2923 287.6983,-23.329"/>
<polygon fill="#000000" stroke="#000000" stroke-width=".5" points="287.8687,-25.097 292.9871,-23.7316 288.1344,-21.6071 287.8687,-25.097"/>
</g>
<!-- Procedure -->
<g id="node4" class="node">
<title>Procedure</title>
<g id="a_node4"><a xlink:href="../pyVHDLModel/pyVHDLModel.VHDLModel.html#pyVHDLModel.VHDLModel.Procedure" xlink:title="Procedure" target="_top">
<polygon fill="#ffffff" stroke="#000000" stroke-width=".5" points="557,-37 473,-37 473,-18 557,-18 557,-37"/>
<text text-anchor="middle" x="515" y="-25" font-family="Vera Sans, DejaVu Sans, Liberation Sans, Arial, Helvetica, sans" font-size="10.00" fill="#000000">Procedure</text>
</a>
</g>
</g>
<!-- ProcedureInstantiation -->
<g id="node6" class="node">
<title>ProcedureInstantiation</title>
<g id="a_node6"><a xlink:href="../pyVHDLModel/pyVHDLModel.VHDLModel.html#pyVHDLModel.VHDLModel.ProcedureInstantiation" xlink:title="ProcedureInstantiation" target="_top">
<polygon fill="#ffffff" stroke="#000000" stroke-width=".5" points="775,-56 593,-56 593,-37 775,-37 775,-56"/>
<text text-anchor="middle" x="684" y="-44" font-family="Vera Sans, DejaVu Sans, Liberation Sans, Arial, Helvetica, sans" font-size="10.00" fill="#000000">ProcedureInstantiation</text>
</a>
</g>
</g>
<!-- Procedure&#45;&gt;ProcedureInstantiation -->
<g id="edge2" class="edge">
<title>Procedure&#45;&gt;ProcedureInstantiation</title>
<path fill="none" stroke="#000000" stroke-width=".5" d="M557.2099,-32.2455C568.6028,-33.5263 581.3776,-34.9626 594.3151,-36.4171"/>
<polygon fill="#000000" stroke="#000000" stroke-width=".5" points="594.3087,-38.1773 599.4729,-36.997 594.6998,-34.6992 594.3087,-38.1773"/>
</g>
<!-- SubProgramm&#45;&gt;Procedure -->
<g id="edge1" class="edge">
<title>SubProgramm&#45;&gt;Procedure</title>
<path fill="none" stroke="#000000" stroke-width=".5" d="M392.3941,-27.5C416.076,-27.5 444.2338,-27.5 467.5891,-27.5"/>
<polygon fill="#000000" stroke="#000000" stroke-width=".5" points="467.8018,-29.2501 472.8018,-27.5 467.8017,-25.7501 467.8018,-29.2501"/>
</g>
<!-- SubprogramInstantiation&#45;&gt;ProcedureInstantiation -->
<g id="edge3" class="edge">
<title>SubprogramInstantiation&#45;&gt;ProcedureInstantiation</title>
<path fill="none" stroke="#000000" stroke-width=".5" d="M437.1733,-60.2327C484.12,-57.6207 540.7113,-54.4721 587.8568,-51.8491"/>
<polygon fill="#000000" stroke="#000000" stroke-width=".5" points="588.0768,-53.5897 592.9718,-51.5645 587.8823,-50.0951 588.0768,-53.5897"/>
</g>
</g>
</svg>
